<svg width="40" height="40" viewBox="0 0 40 40" fill="none" xmlns="http://www.w3.org/2000/svg">
<rect width="40" height="40" rx="15" fill="white" fill-opacity="0.2"/>
<path d="M25 29H18.28C16.66 29 15.11 28.31 14.03 27.12L10.5 23.24C8.81999 21.4 8.81999 18.62 10.5 16.77L14.03 12.89C15.11 11.69 16.66 11 18.28 11H25C28.17 11 30.75 13.58 30.75 16.75V23.25C30.75 26.42 28.17 29 25 29ZM18.28 12.5C17.09 12.5 15.94 13.01 15.14 13.89L11.6 17.78C10.45 19.05 10.45 20.96 11.6 22.23L15.13 26.11C15.93 26.99 17.08 27.5 18.27 27.5H25C27.34 27.5 29.25 25.59 29.25 23.25V16.75C29.25 14.41 27.34 12.5 25 12.5H18.28Z" fill="#2A2E33"/>
<path d="M24 23.22C23.81 23.22 23.62 23.15 23.47 23L18.53 18.05C18.24 17.76 18.24 17.28 18.53 16.99C18.82 16.7 19.3 16.7 19.59 16.99L24.53 21.94C24.82 22.23 24.82 22.71 24.53 23C24.38 23.15 24.19 23.22 24 23.22Z" fill="#2A2E33"/>
<path d="M19.06 23.22C18.87 23.22 18.68 23.15 18.53 23C18.24 22.71 18.24 22.23 18.53 21.94L23.47 17C23.76 16.71 24.24 16.71 24.53 17C24.82 17.29 24.82 17.77 24.53 18.06L19.59 23C19.44 23.15 19.25 23.22 19.06 23.22Z" fill="#2A2E33"/>
</svg>
