<svg width="70" height="71" viewBox="0 0 70 71" fill="none" xmlns="http://www.w3.org/2000/svg">
<path d="M36.8716 45.4464L43.6111 38.7068C44.0018 38.3324 44.0018 37.6975 43.6111 37.3231C43.2367 36.9487 42.6018 36.9487 42.2274 37.3231L35.4879 44.0626L28.7484 37.3231C28.3739 36.9487 27.7391 36.9487 27.3646 37.3231C26.9902 37.6975 26.9902 38.3161 27.3646 38.7068L34.1042 45.4464L27.3646 52.1859C26.9902 52.5603 26.9902 53.1789 27.3646 53.5696C27.56 53.765 27.8042 53.8626 28.0484 53.8626C28.2925 53.8626 28.553 53.765 28.7321 53.5696L35.4716 46.8301L42.2111 53.5696C42.4065 53.765 42.6507 53.8626 42.8949 53.8626C43.1391 53.8626 43.3995 53.765 43.5786 53.5696C43.953 53.1952 43.953 52.5603 43.5786 52.1859L36.8716 45.4464ZM36.8716 45.4464L43.6111 38.7068C44.0018 38.3324 44.0018 37.6975 43.6111 37.3231C43.2367 36.9487 42.6018 36.9487 42.2274 37.3231L35.4879 44.0626L28.7484 37.3231C28.3739 36.9487 27.7391 36.9487 27.3646 37.3231C26.9902 37.6975 26.9902 38.3161 27.3646 38.7068L34.1042 45.4464L27.3646 52.1859C26.9902 52.5603 26.9902 53.1789 27.3646 53.5696C27.56 53.765 27.8042 53.8626 28.0484 53.8626C28.2925 53.8626 28.553 53.765 28.7321 53.5696L35.4716 46.8301L42.2111 53.5696C42.4065 53.765 42.6507 53.8626 42.8949 53.8626C43.1391 53.8626 43.3995 53.765 43.5786 53.5696C43.953 53.1952 43.953 52.5603 43.5786 52.1859L36.8716 45.4464ZM36.8716 45.4464L43.6111 38.7068C44.0018 38.3324 44.0018 37.6975 43.6111 37.3231C43.2367 36.9487 42.6018 36.9487 42.2274 37.3231L35.4879 44.0626L28.7484 37.3231C28.3739 36.9487 27.7391 36.9487 27.3646 37.3231C26.9902 37.6975 26.9902 38.3161 27.3646 38.7068L34.1042 45.4464L27.3646 52.1859C26.9902 52.5603 26.9902 53.1789 27.3646 53.5696C27.56 53.765 27.8042 53.8626 28.0484 53.8626C28.2925 53.8626 28.553 53.765 28.7321 53.5696L35.4716 46.8301L42.2111 53.5696C42.4065 53.765 42.6507 53.8626 42.8949 53.8626C43.1391 53.8626 43.3995 53.765 43.5786 53.5696C43.953 53.1952 43.953 52.5603 43.5786 52.1859L36.8716 45.4464ZM53.1344 18.2766L43.4809 8.6231C43.3018 8.44403 43.0414 8.33008 42.7972 8.33008H17.5646C17.0274 8.33008 16.5879 8.76961 16.5879 9.30682V61.6929C16.5879 62.2301 17.0274 62.6696 17.5646 62.6696H52.4507C52.9879 62.6696 53.4274 62.2301 53.4274 61.6929V18.9766C53.4274 18.7161 53.3135 18.4719 53.1344 18.2766ZM51.4739 19.5952V60.6998H18.5251V10.2836H41.8693V18.6185C41.8693 19.1557 42.3088 19.5952 42.846 19.5952H51.4739Z" fill="url(#paint0_linear_520_5332)"/>
<defs>
<linearGradient id="paint0_linear_520_5332" x1="10.076" y1="15.4071" x2="55.0929" y2="60.424" gradientUnits="userSpaceOnUse">
<stop stop-color="#A259FF"/>
<stop offset="1" stop-color="#FF6250"/>
</linearGradient>
</defs>
</svg>
