<svg width="70" height="71" viewBox="0 0 70 71" fill="none" xmlns="http://www.w3.org/2000/svg">
<path d="M56.9088 26.7957H43.9067V19.4799C43.9067 19.4718 43.9051 19.4636 43.9051 19.4538C43.9051 19.4392 43.9035 19.4229 43.9035 19.4083C43.9002 19.3741 43.8969 19.3399 43.8904 19.3057C43.8888 19.2976 43.8872 19.2878 43.8855 19.2797C43.8774 19.2422 43.8676 19.2064 43.8546 19.1706C43.8514 19.1592 43.8465 19.1478 43.8416 19.1348C43.8286 19.099 43.8139 19.0648 43.796 19.0306C43.7944 19.0273 43.7928 19.0241 43.7911 19.0208C43.7716 18.9834 43.7488 18.9476 43.7228 18.9134C43.7162 18.9052 43.7114 18.8971 43.7049 18.889C43.6788 18.8548 43.6495 18.8206 43.6186 18.788L33.6851 8.85454C33.6542 8.82361 33.62 8.79594 33.5858 8.76989C33.5776 8.76338 33.5695 8.75687 33.5614 8.75199C33.5272 8.72757 33.4914 8.70478 33.4539 8.68524C33.4507 8.68361 33.4474 8.68199 33.4442 8.68036C33.41 8.66245 33.3742 8.6478 33.3383 8.63315C33.3269 8.62827 33.3155 8.62501 33.3042 8.62175C33.2667 8.60873 33.2293 8.59896 33.1902 8.59082C33.1837 8.5892 33.1788 8.5892 33.1723 8.58757C33.1365 8.58106 33.1007 8.57617 33.0632 8.57454C33.0486 8.57292 33.0355 8.57292 33.0209 8.57292C33.0111 8.57292 33.003 8.57129 32.9932 8.57129H9.15253C8.61369 8.57129 8.17578 9.0092 8.17578 9.54803V57.2327C8.17578 57.7715 8.61369 58.2094 9.15253 58.2094H34.1523C34.4925 60.7131 36.643 62.6487 39.2379 62.6487H56.9088C59.7397 62.6487 62.0416 60.3452 62.0416 57.5159V31.9301C62.0432 29.0992 59.7397 26.7957 56.9088 26.7957ZM10.1293 10.5231H32.0197V19.4799C32.0197 20.0187 32.4576 20.4566 32.9965 20.4566H41.9532V26.7957H39.2379C38.5086 26.7957 37.8151 26.9487 37.1867 27.2255V25.2215C37.1867 24.6827 36.7488 24.2448 36.21 24.2448H15.8742C15.3353 24.2448 14.8974 24.6827 14.8974 25.2215V31.5541V50.5518C14.8974 51.0906 15.3353 51.5285 15.8742 51.5285H26.3025C26.3058 51.5285 26.309 51.5285 26.3123 51.5285C26.3155 51.5285 26.3188 51.5285 26.3221 51.5285H34.1051V56.2543H10.1293V10.5231ZM16.8509 49.575V45.1959H25.3356V49.575H16.8509ZM35.2332 28.7231C34.8002 29.2636 34.4746 29.892 34.2874 30.5773H27.289V26.1983H35.2332V28.7231ZM16.8509 38.8634H25.3356V43.2424H16.8509V38.8634ZM27.289 38.8634H34.1051V43.2424H27.289V38.8634ZM27.289 32.5308H34.1051V36.9099H27.289V32.5308ZM25.3356 30.5773H16.8509V26.1983H25.3356V30.5773ZM25.3356 32.5308V36.9099H16.8509V32.5308H25.3356ZM27.289 45.1959H34.1051V49.575H27.289V45.1959ZM60.0897 57.5143C60.0897 59.2676 58.6637 60.6936 56.9104 60.6936H39.2379C37.4846 60.6936 36.0586 59.2676 36.0586 57.5143V57.2376C36.0586 57.2359 36.0586 57.2327 36.0586 57.2311C36.0586 57.2294 36.0586 57.2262 36.0586 57.2245V50.5583C36.0586 50.5566 36.0586 50.5534 36.0586 50.5518C36.0586 50.5501 36.0586 50.5469 36.0586 50.5452V44.2257C36.0586 44.2241 36.0586 44.2208 36.0586 44.2192C36.0586 44.2176 36.0586 44.2143 36.0586 44.2127V37.8931C36.0586 37.8915 36.0586 37.8883 36.0586 37.8866C36.0586 37.885 36.0586 37.8818 36.0586 37.8801V31.9285C36.0586 31.1015 36.3776 30.3511 36.8969 29.7845C36.9214 29.7601 36.9458 29.7341 36.9686 29.7064C37.5465 29.1155 38.3507 28.7476 39.2395 28.7476H56.9104C58.6637 28.7476 60.0897 30.1736 60.0897 31.9285V57.5143ZM55.4095 31.4352H40.7388C39.3746 31.4352 38.266 32.5438 38.266 33.908V34.9906C38.266 36.3548 39.3746 37.4634 40.7388 37.4634H55.4095C56.7737 37.4634 57.8823 36.3548 57.8823 34.9906V33.908C57.8823 32.5455 56.7721 31.4352 55.4095 31.4352ZM55.9288 34.9906C55.9288 35.2722 55.6911 35.5099 55.4095 35.5099H40.7388C40.4572 35.5099 40.2195 35.2722 40.2195 34.9906V33.908C40.2195 33.6264 40.4572 33.3887 40.7388 33.3887H55.4095C55.6911 33.3887 55.9288 33.6264 55.9288 33.908V34.9906ZM43.039 42.4236C43.039 43.4134 42.2381 44.2143 41.2483 44.2143H40.7795C39.7897 44.2143 38.9888 43.4134 38.9888 42.4236C38.9888 41.4338 39.7897 40.6329 40.7795 40.6329H41.2483C42.2365 40.6329 43.039 41.4355 43.039 42.4236ZM50.0993 42.4236C50.0993 43.4134 49.2983 44.2143 48.3086 44.2143H47.8397C46.85 44.2143 46.049 43.4134 46.049 42.4236C46.049 41.4338 46.85 40.6329 47.8397 40.6329H48.3086C49.2967 40.6329 50.0993 41.4355 50.0993 42.4236ZM43.039 48.9352C43.039 49.925 42.2381 50.7259 41.2483 50.7259H40.7795C39.7897 50.7259 38.9888 49.925 38.9888 48.9352C38.9888 47.9455 39.7897 47.1445 40.7795 47.1445H41.2483C42.2365 47.1445 43.039 47.9471 43.039 48.9352ZM50.0993 48.9352C50.0993 49.925 49.2983 50.7259 48.3086 50.7259H47.8397C46.85 50.7259 46.049 49.925 46.049 48.9352C46.049 47.9455 46.85 47.1445 47.8397 47.1445H48.3086C49.2967 47.1445 50.0993 47.9471 50.0993 48.9352ZM43.039 55.7724C43.039 56.7622 42.2381 57.5631 41.2483 57.5631H40.7795C39.7897 57.5631 38.9888 56.7622 38.9888 55.7724C38.9888 54.7827 39.7897 53.9818 40.7795 53.9818H41.2483C42.2365 53.9818 43.039 54.7843 43.039 55.7724ZM50.0993 55.7724C50.0993 56.7622 49.2983 57.5631 48.3086 57.5631H47.8397C46.85 57.5631 46.049 56.7622 46.049 55.7724C46.049 54.7827 46.85 53.9818 47.8397 53.9818H48.3086C49.2967 53.9818 50.0993 54.7843 50.0993 55.7724ZM57.0683 42.4236C57.0683 43.4134 56.2674 44.2143 55.2776 44.2143H54.8088C53.819 44.2143 53.0181 43.4134 53.0181 42.4236C53.0181 41.4338 53.819 40.6329 54.8088 40.6329H55.2776C56.2658 40.6329 57.0683 41.4355 57.0683 42.4236ZM57.0683 48.9352C57.0683 49.925 56.2674 50.7259 55.2776 50.7259H54.8088C53.819 50.7259 53.0181 49.925 53.0181 48.9352C53.0181 47.9455 53.819 47.1445 54.8088 47.1445H55.2776C56.2658 47.1445 57.0683 47.9471 57.0683 48.9352ZM57.0683 55.7724C57.0683 56.7622 56.2674 57.5631 55.2776 57.5631H54.8088C53.819 57.5631 53.0181 56.7622 53.0181 55.7724C53.0181 54.7827 53.819 53.9818 54.8088 53.9818H55.2776C56.2658 53.9818 57.0683 54.7843 57.0683 55.7724Z" fill="url(#paint0_linear_520_6351)"/>
<defs>
<linearGradient id="paint0_linear_520_6351" x1="4.35307" y1="12.9646" x2="56.5341" y2="65.1456" gradientUnits="userSpaceOnUse">
<stop stop-color="#A259FF"/>
<stop offset="1" stop-color="#FF6250"/>
</linearGradient>
</defs>
</svg>
