<svg width="70" height="71" viewBox="0 0 70 71" fill="none" xmlns="http://www.w3.org/2000/svg">
<path d="M51.1516 47.4397C51.1516 48.133 50.5978 48.6952 49.9148 48.6952H49.8873C49.2043 48.6952 48.6505 48.133 48.6505 47.4397C48.6505 46.7465 49.2043 46.1843 49.8873 46.1843H49.9148C50.5978 46.1843 51.1516 46.7465 51.1516 47.4397ZM62.3004 44.2454C62.3004 46.4689 60.5194 48.2767 58.329 48.2767H55.3154C54.9168 50.9465 52.6398 52.9998 49.8997 52.9998C47.1595 52.9998 44.8839 50.9465 44.484 48.2767H23.9865C23.588 50.9465 21.3109 52.9998 18.5708 52.9998C15.8306 52.9998 13.555 50.9465 13.1551 48.2767H9.7196C9.35544 48.2767 9.03525 48.0354 8.92944 47.6811C8.2602 45.4269 8.85248 43.2258 9.18916 42.2689C8.43198 41.1446 7.79847 38.9546 9.38292 36.4117C9.56844 35.8677 10.4782 33.2801 11.8785 30.6326C14.0538 26.5233 16.2937 24.3919 18.5351 24.2998C18.546 24.2998 18.557 24.2998 18.568 24.2998H21.2477C21.2491 24.2998 21.2491 24.2998 21.2505 24.2998H34.3355C38.1132 24.2998 43.2225 29.7371 45.8073 33.7795L55.4212 35.3516C56.4477 35.5134 57.422 35.8691 58.3152 36.4075C58.3276 36.4145 58.3386 36.4215 58.351 36.4284C58.3771 36.4438 58.4032 36.4591 58.4293 36.4745C60.3064 37.6476 61.649 39.5711 62.1135 41.7528C62.1217 41.7918 62.1272 41.8295 62.13 41.8685L62.2949 44.1827C62.299 44.205 62.3004 44.2245 62.3004 44.2454ZM57.6955 37.9851H57.1884C56.4985 37.9851 55.9365 38.5557 55.9365 39.2559V39.7846C55.9365 40.4848 56.4985 41.0539 57.1884 41.0539H60.1841C59.688 39.8055 58.8182 38.7244 57.6955 37.9851ZM34.3383 25.9737H29.251L30.1676 33.7098H43.7666C41.0347 29.8278 36.8393 25.9737 34.3383 25.9737ZM21.818 25.9737L18.7178 33.7098H28.5076L27.591 25.9737H21.818ZM13.3433 31.4068C12.927 32.1935 12.5518 32.9816 12.2302 33.7084H16.9369L20.037 25.9723H18.5886C17.0234 26.0504 15.1614 27.9781 13.3433 31.4068ZM12.6219 38.7886C12.6617 38.7523 12.6782 38.7077 12.6672 38.6533C12.6576 38.6003 12.626 38.5626 12.5752 38.5445L10.5029 37.7996C9.82129 39.168 10.0164 40.2226 10.2995 40.8628L12.6219 38.7886ZM10.3696 46.6028H13.1551C13.5536 43.933 15.8306 41.8797 18.5708 41.8797C21.3109 41.8797 23.588 43.933 23.9865 46.6028H28.6134V35.3837H17.4962C17.4948 35.3837 17.4934 35.3837 17.492 35.3837C17.4907 35.3837 17.4879 35.3837 17.4865 35.3837H11.5294C11.3961 35.7226 11.2821 36.0225 11.19 36.2708L13.1262 36.9669C13.7309 37.1845 14.1651 37.6964 14.286 38.3353C14.4083 38.9755 14.1926 39.6144 13.7103 40.044L10.8203 42.6274C10.6266 43.1295 10.0535 44.8229 10.3696 46.6028ZM22.3993 47.4425C22.3993 47.4411 22.3993 47.4397 22.3993 47.4397C22.3993 47.4384 22.3993 47.437 22.3993 47.4356C22.3979 45.2944 20.6815 43.5536 18.5708 43.5536C16.4628 43.5536 14.7464 45.293 14.7423 47.4314C14.7423 47.4342 14.7423 47.437 14.7423 47.4397C14.7423 47.4425 14.7423 47.4453 14.7423 47.4481C14.7464 49.5865 16.4628 51.3259 18.5708 51.3259C20.6815 51.3245 22.3979 49.5837 22.3993 47.4425ZM53.7282 47.4453C53.7282 47.4439 53.7282 47.4425 53.7282 47.4397C53.7282 47.4384 53.7282 47.4356 53.7282 47.4342C53.7254 45.2944 52.0091 43.5536 49.8997 43.5536C47.7916 43.5536 46.0753 45.293 46.0712 47.4328C46.0712 47.4356 46.0712 47.437 46.0712 47.4397C46.0712 47.4425 46.0712 47.4439 46.0712 47.4467C46.0753 49.5865 47.7903 51.3245 49.8997 51.3245C52.0091 51.3245 53.7254 49.5851 53.7282 47.4453ZM60.6514 44.2733L60.5414 42.7278H57.1884C55.5888 42.7278 54.2875 41.4082 54.2875 39.7846V39.2559C54.2875 38.3659 54.6791 37.5695 55.2961 37.0296C55.2535 37.0227 55.2109 37.0129 55.1683 37.0059L45.2494 35.3837H30.2624V46.6028H44.4853C44.8839 43.933 47.1609 41.8797 49.901 41.8797C52.6412 41.8797 54.9182 43.933 55.3167 46.6028H58.3303C59.6001 46.6028 60.6362 45.5608 60.6514 44.2733ZM36.0327 37.7954H33.0988C32.6439 37.7954 32.2742 38.1707 32.2742 38.6324C32.2742 39.0941 32.6439 39.4693 33.0988 39.4693H36.0327C36.4875 39.4693 36.8572 39.0941 36.8572 38.6324C36.8572 38.1707 36.4889 37.7954 36.0327 37.7954ZM18.5859 46.1843H18.5584C17.8754 46.1843 17.3216 46.7465 17.3216 47.4397C17.3216 48.133 17.8754 48.6952 18.5584 48.6952H18.5859C19.2689 48.6952 19.8227 48.133 19.8227 47.4397C19.8227 46.7465 19.2689 46.1843 18.5859 46.1843Z" fill="url(#paint0_linear_520_5321)"/>
<defs>
<linearGradient id="paint0_linear_520_5321" x1="16.533" y1="24.5841" x2="50.4218" y2="57.97" gradientUnits="userSpaceOnUse">
<stop stop-color="#A259FF"/>
<stop offset="1" stop-color="#FF6250"/>
</linearGradient>
</defs>
</svg>
