<svg width="42" height="42" viewBox="0 0 42 42" fill="none" xmlns="http://www.w3.org/2000/svg">
<path d="M21.0034 0.284668C9.58036 0.284668 0.288086 9.57695 0.288086 21C0.288086 32.4231 9.58036 41.7154 21.0034 41.7154H40.9569C41.3778 41.7154 41.7188 41.3743 41.7188 40.9535V21C41.7188 9.57695 32.4253 0.284668 21.0034 0.284668ZM40.1951 40.1916H21.0034C10.4208 40.1916 1.81181 31.5826 1.81181 21C1.81181 10.4174 10.4208 1.80839 21.0034 1.80839C31.586 1.80839 40.1951 10.4174 40.1951 21V40.1916ZM20.2549 21.5551C20.2597 23.1139 20.2585 25.4345 20.2585 25.4394L20.2597 25.5676C20.2621 25.9872 20.6032 26.3246 21.0216 26.3246C21.0228 26.3246 21.024 26.3246 21.0264 26.3246C21.4472 26.3222 21.7859 25.9787 21.7834 25.5579L21.7822 25.4345C21.7822 25.4345 21.7834 23.1102 21.7786 21.549L21.775 20.4002C21.7701 19.2369 21.7653 17.9187 21.7653 15.586C21.7653 12.9037 21.7713 11.2663 21.7762 11.0644C21.7774 11.0475 21.7774 11.0293 21.7774 11.0124C21.7774 10.5916 21.4364 10.2505 21.0155 10.2505C20.9853 10.2505 20.2633 10.2602 20.2512 11.0874C20.25 11.1454 20.25 11.2301 20.2488 11.3413C20.2476 11.5602 20.2464 11.8795 20.2452 12.2834C20.2428 13.09 20.2416 14.234 20.2416 15.586C20.2416 17.9211 20.2464 19.2417 20.2512 20.4062L20.2549 21.5551ZM21.775 11.0789C21.7617 11.2688 21.6746 11.4405 21.5428 11.5662C21.6734 11.4417 21.7592 11.27 21.775 11.0789ZM22.5308 30.5571C22.5308 31.3226 21.9104 31.9442 21.1437 31.9442C20.377 31.9442 19.7566 31.3238 19.7566 30.5571C19.7566 29.7904 20.377 29.1701 21.1437 29.1701C21.9104 29.1701 22.5308 29.7916 22.5308 30.5571Z" fill="url(#paint0_linear_322_23786)"/>
<defs>
<linearGradient id="paint0_linear_322_23786" x1="6.36222" y1="6.35891" x2="41.4955" y2="41.4922" gradientUnits="userSpaceOnUse">
<stop stop-color="#A259FF"/>
<stop offset="1" stop-color="#FF6250"/>
</linearGradient>
</defs>
</svg>
