<svg width="92" height="34" viewBox="0 0 92 34" fill="none" xmlns="http://www.w3.org/2000/svg">
<path fill-rule="evenodd" clip-rule="evenodd" d="M6.25065 0.5L4.68701 4.78311H26.3556L27.9192 0.5H6.25065ZM3.90471 6.92369L2.34107 11.2058H24.0096L25.5732 6.92369H3.90471ZM1.56364 13.3474L0 17.6295H21.6685L23.2312 13.3474H1.56364Z" fill="#555555"/>
<mask id="mask0_422_10732" style="mask-type:luminance" maskUnits="userSpaceOnUse" x="32" y="7" width="60" height="27">
<path d="M32.5097 33.2428H91.8248V7.00604H32.5097V33.2428Z" fill="#55555"/>
</mask>
<g mask="url(#mask0_422_10732)">
<path fill-rule="evenodd" clip-rule="evenodd" d="M46.0659 19.2617V19.3521C47.0562 19.7156 48.0021 20.3511 48.4977 20.7593C50.0289 22.0304 50.7049 23.7097 50.7049 25.8886C50.7049 29.4756 48.813 32.0626 45.7053 32.8799C44.7594 33.152 43.7691 33.2434 41.9216 33.2434H32.5097V7.00604H40.8417C42.5532 7.00604 43.7238 7.09641 44.7594 7.36852C47.7775 8.18583 49.759 10.2743 49.759 13.5872C49.759 15.3579 49.1283 16.8565 48.0928 17.8545C47.6425 18.3084 47.0119 18.8536 46.0659 19.2617ZM37.7339 22.0304V28.9304H41.3373C42.4172 28.9304 43.4085 28.84 44.1297 28.1588C44.85 27.4775 45.1653 26.6155 45.1653 25.4804C45.1653 24.6184 44.9397 23.8011 44.4894 23.2112C43.7238 22.2579 42.7779 22.0304 41.157 22.0304H37.7339ZM37.6886 17.491H40.616C41.5166 17.491 41.9669 17.491 42.4172 17.355C43.6341 16.9915 44.3997 15.9031 44.3997 14.4045C44.3997 12.6349 43.5888 11.8622 42.4172 11.4998C41.9216 11.3637 41.427 11.318 40.4357 11.318H37.6886V17.491ZM58.5412 33.2434V11.4084H51.0202V7.00604H71.9181L70.4323 11.4084H63.7655V33.2434H58.5412ZM73.539 33.2434V7.00604H90.474L88.9881 11.4084H78.7189V17.2189H82.9076C86.2853 17.2189 88.0421 18.0362 89.258 19.08C90.204 19.8973 91.8248 21.7127 91.8248 25.2997C91.8248 28.84 90.1586 30.7914 88.7624 31.7905C87.1416 32.9246 85.43 33.2434 81.9617 33.2434H73.539ZM78.7189 28.84H82.6376C84.1235 28.84 85.0241 28.4766 85.6547 27.6593C85.97 27.2511 86.4203 26.5242 86.4203 25.1626C86.4203 23.8011 85.97 22.8478 85.0694 22.1665C84.5294 21.7583 83.8082 21.5319 82.5923 21.5319H78.7189V28.84Z" fill="#000000"/>
</g>
</svg>
