<svg width="125" height="40" viewBox="0 0 125 40" fill="none" xmlns="http://www.w3.org/2000/svg">
<g style="mix-blend-mode:color-burn" clip-path="url(#clip0_322_26078)">
<path d="M64.2885 22.0572H62.9395L56.1598 9.41437H50.9454V30.7392H55.6385V19.5896H57.1723L61.7737 28.6682H65.4543L70.0557 19.5896H71.5895V30.7392H76.2826V9.41437H71.0682L64.2885 22.0572Z" fill="#555555"/>
<path fill-rule="evenodd" clip-rule="evenodd" d="M117.738 17.4874H109.333V13.9843H123.55V9.41437H104.435V30.7392H117.738C122.479 30.7392 124.986 28.0893 124.986 24.0984C124.986 20.1073 122.174 17.4874 117.738 17.4874ZM117.342 26.3201H109.333V21.9051H117.346C119.18 21.9051 120.036 22.5139 120.036 24.0984C120.036 25.6828 119.177 26.3228 117.342 26.3228V26.3201Z" fill="#555555"/>
<path d="M96.3036 9.41437H102.341L92.5091 19.7309L102.59 30.7392H96.334L88.5916 22.2095H85.8676V30.7392H80.9128V9.41437H85.8676V17.6396H88.5916L96.3036 9.41437Z" fill="#555555"/>
<mask id="mask0_322_26078" style="mask-type:alpha" maskUnits="userSpaceOnUse" x="0" y="0" width="41" height="40">
<path fill-rule="evenodd" clip-rule="evenodd" d="M20.5 40C31.8218 40 41 31.0457 41 20C41 8.9543 31.8218 0 20.5 0C9.17816 0 0 8.9543 0 20C0 31.0457 9.17816 40 20.5 40ZM15.6312 20.0001L22.7472 13.2498L34.6285 13.2703L30.3715 17.7499H24.5263L15.6312 26.7504L5.7196 16.7499L9.27762 13.2498H15.7546L12.3274 16.7499L15.6312 20.0001ZM25.0346 19H34.9461L30.3715 23.2502H27.0677L23.5097 26.7503H17.1561L25.0346 19Z" fill="#D9D9D9"/>
</mask>
<g mask="url(#mask0_322_26078)">
<path d="M0 19.9995C0 8.95267 9.1568 -0.00256348 20.3328 -0.00256348C31.5088 -0.00256348 40.6656 8.95267 40.6656 19.9995C40.6656 31.0463 31.5088 40.0015 20.3328 40.0015C9.1568 40.0015 0 31.0463 0 19.9995Z" fill="#555555"/>
</g>
</g>
<defs>
<clipPath id="clip0_322_26078">
<rect width="125" height="40" fill="white"/>
</clipPath>
</defs>
</svg>
