<svg width="183" height="40" viewBox="0 0 183 40" fill="none" xmlns="http://www.w3.org/2000/svg">
<g style="mix-blend-mode:color-burn" clip-path="url(#clip0_322_26079)">
<path d="M171.94 15.9429H175.703V11.6H179.18V15.9429H182.943V5.08571H179.18V8.91429H175.703V5.08571H171.94V15.9429ZM148.965 8.17143C149.764 7.65714 150.847 7.25714 151.759 7.25714C152.215 7.25714 153.298 7.31429 153.298 8.22857C153.298 9.14286 152.386 9.14286 152.044 9.14286H150.163V11.4857H151.816C152.329 11.4857 153.355 11.5429 153.355 12.4C153.355 12.7429 153.127 13.4286 151.816 13.4286C150.505 13.4286 149.65 13.0857 148.566 12.4L147.597 14.9714C149.65 16.1714 151.531 16.2857 152.443 16.2857C156.776 16.2857 157.289 13.7714 157.289 12.9714C157.289 11.8286 156.605 10.6857 155.122 10.2857C156.092 9.88571 156.662 8.91429 156.662 7.77143C156.662 5.25714 153.982 4.74286 152.386 4.74286C150.847 4.74286 149.136 5.2 147.996 5.82857L148.965 8.17143ZM140.813 3.71429C142.523 3.71429 144.291 3.02857 145.089 1.2L142.637 0.285714C142.352 1.54286 141.269 1.6 140.813 1.6C140.357 1.6 139.331 1.54286 139.046 0.285714L136.594 1.2C137.278 3.02857 139.103 3.71429 140.813 3.71429ZM134.884 5.08571V15.8857H138.59L142.352 9.94286V15.8857H146.115V5.08571H142.466L138.704 10.8571V5.08571H134.884ZM109.743 13.6V7.6C108.489 7.6 107.178 8.51429 107.178 10.6286C107.178 12.6286 108.489 13.6 109.743 13.6ZM113.107 7.6V13.6C114.361 13.6 115.672 12.6857 115.672 10.6286C115.672 8.51429 114.361 7.6 113.107 7.6ZM109.515 20.6286V16.1143C107.235 16.1143 103.529 15.2 103.529 10.5143C103.529 5.88571 107.235 4.91429 109.515 4.97143V0.228571H113.278V4.91429C115.558 4.91429 119.264 5.82857 119.264 10.4571C119.264 15.1429 115.558 16.0571 113.278 16.0571V20.5714H109.515V20.6286ZM92.7542 13.6V7.6C91.5 7.6 90.1888 8.51429 90.1888 10.6286C90.1318 12.6286 91.443 13.6 92.7542 13.6ZM96.0607 7.6V13.6C97.315 13.6 98.6262 12.6857 98.6262 10.6286C98.6262 8.51429 97.315 7.6 96.0607 7.6ZM92.4692 20.6286V16.1143C90.1888 16.1143 86.4832 15.2 86.4832 10.5143C86.4832 5.88571 90.1888 4.91429 92.4692 4.97143V0.228571H96.2318V4.91429C98.5121 4.91429 102.218 5.82857 102.218 10.4571C102.218 15.1429 98.5121 16.0571 96.2318 16.0571V20.5714H92.4692V20.6286ZM79.414 3.71429C81.1243 3.71429 82.8916 3.02857 83.6897 1.2L81.2383 0.285714C80.9533 1.54286 79.8701 1.6 79.414 1.6C78.9579 1.6 77.9318 1.54286 77.5897 0.285714L75.1383 1.2C75.9365 3.02857 77.7037 3.71429 79.414 3.71429ZM73.485 5.08571V15.8857H77.1336L80.8963 9.94286V15.8857H84.6589V5.08571H81.0103L77.2477 10.8571V5.08571H73.485ZM50.3963 3.42857V7.02857H51.7645C53.6458 7.02857 53.8168 5.88571 53.8168 5.2C53.8168 4.45714 53.5888 3.42857 51.7645 3.42857H50.5673H50.3963ZM46.2916 15.9429V0H52.6766C57.0093 0 58.2065 3.08571 58.2065 5.25714C58.2065 7.42857 56.9523 10.5143 52.6766 10.5143H50.3393V15.9429H46.2916ZM132.547 5.08571V15.8857H128.784V14.6857H128.727C128.043 15.7714 126.732 16.2286 125.535 16.2286C122.399 16.2286 120.176 13.5429 120.176 10.4571C120.176 7.37143 122.342 4.68571 125.535 4.68571C126.732 4.68571 128.043 5.14286 128.841 6.11429V5.08571H132.547ZM126.447 8.05714C124.907 8.05714 123.995 9.2 123.995 10.5143C123.995 11.8857 124.907 12.9143 126.447 12.9143C127.986 12.9143 128.898 11.8286 128.898 10.5143C128.898 9.2 127.986 8.05714 126.447 8.05714ZM71.1477 5.08571V15.8857H67.385V14.6857H67.328C66.6439 15.7714 65.3327 16.2286 64.1355 16.2286C61 16.2286 58.7766 13.5429 58.7766 10.4571C58.7766 7.37143 60.943 4.68571 64.1355 4.68571C65.3327 4.68571 66.6439 5.14286 67.4421 6.11429V5.08571H71.1477ZM65.0477 8.05714C63.5084 8.05714 62.5963 9.2 62.5963 10.5143C62.5963 11.8857 63.5084 12.9143 65.0477 12.9143C66.5869 12.9143 67.4991 11.8286 67.4991 10.5143C67.4991 9.2 66.5869 8.05714 65.0477 8.05714ZM170.059 10.9714V11.3714H162.135C162.135 12.9143 162.933 13.7714 164.472 13.7714C165.27 13.7714 165.84 13.4857 166.296 12.8H169.945C169.318 15.3714 166.98 16.5143 164.529 16.5143C160.994 16.5143 158.372 14.5143 158.372 10.7429C158.372 7.14286 160.823 4.97143 164.244 4.97143C167.95 4.97143 170.059 7.25714 170.059 10.9714ZM162.192 9.14286H166.581C166.41 8.11429 165.441 7.42857 164.415 7.42857C163.332 7.42857 162.42 8.05714 162.192 9.14286ZM52.3346 33.2H51.1944L50.6243 36.5714H51.7075C54.2159 36.5714 54.672 35.8857 54.843 34.9714C55.014 33.9429 54.786 33.2 52.3346 33.2ZM59.1757 34.9714C59.0047 36.0571 58.6626 37.1429 57.8645 37.8857C56.1542 39.6 53.5888 39.7143 51.9925 39.7714H45.6645L48.3439 23.8857H59.1757L58.6626 27.0286H52.1065L51.5935 30.2286H53.4748C54.9 30.2286 56.6673 30.4 57.9215 31.4857C58.9477 32.2857 59.4608 33.4857 59.1757 34.9714ZM70.5776 37.0286H64.5916L62.9953 39.7714H58.3776L67.4421 23.8857H72.1738L75.8224 39.7714H71.2047L70.5776 37.0286ZM69.9505 33.8286L69.0383 28.7429H68.9813L66.3589 33.8286H69.9505ZM100.051 23.8857H95.6617L93.0392 39.7714H97.372L98.5121 32.8571H98.5692L103.016 39.7714H108.66L102.788 31.4286L110.655 23.8857H105.296L98.9682 30.4571H98.9112L100.051 23.8857ZM83.2907 23.8857L82.3215 29.8286H88.0794L89.0486 23.8857H93.2673L90.7019 39.7714H86.4832L87.5664 32.9143H81.8084L80.7252 39.7714H76.5065L79.072 23.8857H83.2907Z" fill="#555555"/>
<path d="M38.3673 1.31427H1.31122V38.4571H38.3673V1.31427Z" fill="#ECEFF4"/>
<path d="M1.31121 1.31429H38.3673V38.4571H1.31121V1.31429ZM0 39.7714H39.6785V0H0V39.7714Z" fill="#555555"/>
<path d="M19.8393 24.4L8.43739 35.8286L3.93365 31.3143L15.3355 19.8857L12.9411 17.4857V12.8L11.2879 11.1428V15.2571L9.86262 16.6857L4.04767 10.9143L2.62244 12.3428C2.62244 11.2571 2.85047 8.11427 5.4729 5.54284C8.32337 2.79999 11.4019 4.05713 12.4851 5.0857L18.3 10.8571L16.8178 12.3428L19.8393 15.3714L22.8608 12.3428L21.3785 10.8571L27.1935 5.02856C28.2766 3.99999 31.3551 2.74284 34.2056 5.4857C36.828 8.11427 37.0561 11.2 37.0561 12.2857L35.6308 10.8571L29.8159 16.6857L28.3907 15.2571V11.1428L26.7374 12.8V17.4857L24.343 19.8857L35.7449 31.3143L31.2411 35.8286L19.8393 24.4Z" fill="#555555"/>
</g>
<defs>
<clipPath id="clip0_322_26079">
<rect width="183" height="40" fill="white"/>
</clipPath>
</defs>
</svg>
