<svg width="237" height="30" viewBox="0 0 237 30" fill="none" xmlns="http://www.w3.org/2000/svg">
<g style="mix-blend-mode:color-burn" clip-path="url(#clip0_322_26077)">
<path d="M46.6673 5.77386C49.9561 5.77386 52.6204 7.18705 53.7444 8.23685L51.8711 10.4576C50.9552 9.65004 48.9153 8.55987 46.6673 8.55987C42.5459 8.55987 39.9649 11.3055 39.9649 15.0605C39.9649 18.8156 42.421 21.5612 46.7089 21.5612C49.2068 21.5612 51.3715 20.2692 52.2874 19.3809L54.0775 21.6823C52.9535 22.8129 50.1226 24.3472 46.6673 24.3472C40.5893 24.3472 36.8426 20.3903 36.8426 15.0202C36.8426 9.7308 40.7142 5.77386 46.6673 5.77386Z" fill="#555555"/>
<path d="M65.4009 5.77386C71.0209 5.77386 75.1007 9.7308 75.1007 15.1009C75.1007 20.471 71.0209 24.428 65.4009 24.428C59.7808 24.428 55.701 20.471 55.701 15.1009C55.701 9.7308 59.7808 5.77386 65.4009 5.77386ZM65.4009 21.6016C69.1892 21.6016 72.02 18.8156 72.02 15.1009C72.02 11.3459 69.2308 8.60024 65.4009 8.60024C61.6125 8.60024 58.7817 11.3862 58.7817 15.1009C58.7817 18.8156 61.6125 21.6016 65.4009 21.6016Z" fill="#555555"/>
<path d="M94.417 18.8156C94.417 21.4401 92.6685 23.9839 88.2141 23.9839H78.4311V6.17767H87.6313C91.378 6.17767 93.5012 8.3984 93.5012 10.9421C93.5012 12.3553 92.8351 13.6474 91.2115 14.6972C92.8351 15.2221 94.417 16.393 94.417 18.8156ZM81.4284 8.96368V13.7281L87.2566 13.6878C89.3381 13.6878 90.4205 12.5572 90.4205 11.2248C90.4205 10.0135 89.5047 8.96368 87.6729 8.96368H81.4284ZM88.3807 21.1979C90.5038 21.1979 91.3364 20.0673 91.3364 18.8156C91.3364 17.4832 90.3789 16.3526 88.4639 16.3526H81.4701V21.1979H88.3807Z" fill="#555555"/>
<path d="M106.49 14.8183L114.608 23.9839H110.611L103.825 16.1911H100.328V23.9839H97.2895V6.17767H100.328V13.5263H103.825L110.445 6.17767H114.483L106.49 14.8183Z" fill="#555555"/>
<path d="M123.933 5.77386C129.553 5.77386 133.633 9.7308 133.633 15.1009C133.633 20.471 129.553 24.428 123.933 24.428C118.313 24.428 114.233 20.471 114.233 15.1009C114.233 9.7308 118.313 5.77386 123.933 5.77386ZM123.933 21.6016C127.721 21.6016 130.552 18.8156 130.552 15.1009C130.552 11.3459 127.763 8.60024 123.933 8.60024C120.144 8.60024 117.314 11.3862 117.314 15.1009C117.314 18.8156 120.144 21.6016 123.933 21.6016Z" fill="#555555"/>
<path d="M153.99 6.17767H156.904V23.9839H153.865V10.7403L147.828 18.5734H145.997L139.96 10.7403V23.9839H136.921V6.17767H139.835L146.913 15.3028L153.99 6.17767Z" fill="#555555"/>
<path d="M170.725 13.4455C174.763 13.4455 176.969 15.747 176.969 18.6945C176.969 21.642 174.763 23.9839 170.933 23.9839H160.942V6.17767H175.263V8.96368H163.981V13.4455H170.725ZM170.808 21.1979C172.89 21.1979 173.847 20.0673 173.847 18.7349C173.847 17.4024 172.89 16.2719 170.808 16.2719H163.981V21.1979H170.808Z" fill="#555555"/>
<path d="M193.746 23.9839L191.748 19.5424H183.047L181.049 23.9839H177.76L185.753 6.17767H189.084L197.077 23.9839H193.746ZM184.255 16.8775H190.582L187.419 9.77121L184.255 16.8775Z" fill="#555555"/>
<path d="M212.938 6.17767H215.977V23.9839H212.938V16.3526H202.322V23.9839H199.283V6.17767H202.322V13.5666H212.938V6.17767Z" fill="#555555"/>
<path d="M229.215 14.8183L237.375 23.9839H233.337L226.551 16.1911H223.054V23.9839H220.015V6.17767H223.054V13.5263H226.551L233.17 6.17767H237.208L229.215 14.8183Z" fill="#555555"/>
<path d="M0.499573 15.101C0.499573 23.2571 7.32691 29.8789 15.7778 29.8789C15.986 29.8789 16.1941 29.8789 16.4023 29.8789V24.2665H15.7778C10.5324 24.2665 6.32778 20.1481 6.32778 15.101C6.32778 10.0539 10.5741 5.93541 15.7778 5.93541H16.4023V0.282654C16.1941 0.282654 15.986 0.282654 15.7778 0.282654C7.32691 0.282654 0.499573 6.90446 0.499573 15.101Z" fill="#555555"/>
<path d="M18.8168 0.565247V8.27723H15.7778C11.8646 8.27723 8.74231 11.3055 8.74231 15.1009C8.74231 18.856 11.9062 21.9246 15.7778 21.9246H18.8168V29.6366C25.769 28.2638 31.0144 22.288 31.0144 15.1413C31.0144 7.91383 25.769 1.93806 18.8168 0.565247Z" fill="#555555"/>
</g>
<defs>
<clipPath id="clip0_322_26077">
<rect width="237" height="30" fill="white"/>
</clipPath>
</defs>
</svg>
