<svg width="265" height="36" viewBox="0 0 265 36" fill="none" xmlns="http://www.w3.org/2000/svg">
<g style="mix-blend-mode:color-burn" clip-path="url(#clip0_322_26080)">
<path d="M77.2426 10.4075C75.0288 10.4075 73.1363 12.27 73.1363 14.4825V17.9913H67.4588V10.4075H67.2663C65.0526 10.4075 63.1588 12.27 63.1588 14.4825V28.375H63.3513C65.5663 28.375 67.4588 26.5138 67.4588 24.3V20.9113H73.1363V28.375H77.4338V10.4075H77.2426Z" fill="#555555"/>
<path d="M248.065 10.4075C245.851 10.4075 243.959 12.27 243.959 14.4825V17.9913H238.28V10.4075H238.087C235.874 10.4075 233.981 12.27 233.981 14.4825V28.375H234.175C236.386 28.375 238.28 26.5138 238.28 24.3V20.9113H243.959V28.375H248.255V10.4075H248.065Z" fill="#555555"/>
<path d="M52.9038 25.1988C50.2738 25.1988 48.5363 20.9 48.5363 15.8613C48.5363 10.825 50.3688 7.29752 52.9038 7.29752C55.4363 7.29752 57.3638 10.825 57.3638 15.8613C57.3638 21.565 55.7075 25.1988 52.9038 25.1988ZM52.9038 3.83252C47.9163 3.83252 44.6875 8.13252 44.2388 14.3875H39.1625V4.18627H39.13C36.6613 4.18627 34.7363 6.14252 34.7363 8.54877V28.375H34.77C37.1925 28.355 39.1625 26.3738 39.1625 23.915V17.595H44.2388C44.6213 23.465 47.8625 28.7575 52.9038 28.7575C58.6863 28.7575 61.7588 23.165 61.7588 15.8938C61.7588 9.09377 58.4875 3.83252 52.9038 3.83252Z" fill="#555555"/>
<path d="M92.7412 10.4075C91.3325 10.4075 90.07 10.8588 89.0612 12.4613L83.455 22.215V10.4075H79.1575V28.375H80.9775C82.365 28.375 83.6287 27.9263 84.6575 26.3213L90.5787 16.235V24.3C90.5787 26.5138 92.47 28.375 94.6825 28.375H94.8775V10.4075H92.7412Z" fill="#555555"/>
<path d="M179.171 10.4075C177.764 10.4075 176.496 10.8588 175.493 12.4613L169.885 22.215V10.4075H165.586V28.375H167.409C168.795 28.375 170.059 27.9263 171.086 26.3213L177.008 16.235V24.3C177.008 26.5138 178.9 28.375 181.114 28.375H181.304V10.4075H179.171Z" fill="#555555"/>
<path d="M110.141 19.6137C109.146 17.3675 107.659 15.7637 105.508 14.93L113.249 4.185H108.425L100.946 14.8325V4.2325H100.851C98.38 4.2325 96.52 6.0275 96.52 8.46625V28.3737H96.6163C99.0863 28.3737 100.946 26.5775 100.946 24.14V16.7562C103.16 16.7562 104.83 18.2337 105.63 20.1562L108.81 28.3737H113.68L110.141 19.6137Z" fill="#555555"/>
<path d="M195.159 10.4075H182.233V13.8425H186.58V28.375H186.773C189.016 28.375 190.811 26.5438 190.811 24.3313V13.8425H195.159V10.4075Z" fill="#555555"/>
<path d="M150.634 25.1025C152.624 22.9925 153.574 19.1975 154.024 16.2813L154.312 13.6825H157.649L158.675 25.1025H150.634ZM162.652 24.975L161.176 10.4075H150.88L150.239 14.7713C149.661 18.6538 148.751 23.5338 145.272 25.615L145.56 33.0575H145.79C147.485 33.0575 148.861 31.6825 148.861 29.9838L148.919 28.375H160.637L160.797 33.0575H161.025C162.724 33.0575 164.099 31.6825 164.099 29.9838L164.25 25.615L162.652 24.975Z" fill="#555555"/>
<path d="M262.217 22.6313C261.265 20.7463 260.134 19.3063 258.432 18.6013L264.797 10.4088H260.167L254.006 18.505V10.4088H249.705V28.3738H249.897C252.112 28.3738 254.006 26.5138 254.006 24.3V20.2088C255.8 20.2088 257.085 21.5413 257.791 23.1125L260.375 28.3738H265L262.217 22.6313Z" fill="#555555"/>
<path d="M209.326 25.4163L206.726 25.4113V16.8275C207.272 16.6988 208.235 16.515 209.069 16.515C212.179 16.515 213.999 18.3675 213.999 20.66C213.999 23.1275 212.246 25.4163 209.326 25.4163ZM209.519 13.24C208.461 13.24 207.336 13.42 206.726 13.58V7.93753H212.422C214.46 7.93753 216.111 6.28753 216.111 4.25003V4.18628H202.429V28.3738H209.391C214.602 28.3738 218.49 25.5625 218.49 20.7538C218.49 16.6338 215.261 13.24 209.519 13.24Z" fill="#555555"/>
<path d="M133.945 18.14C133.945 14.9638 135.068 13.2638 137.473 13.2013H137.635C138.821 13.2013 141.035 13.585 141.164 17.1463L133.945 18.14ZM144.885 18.91C144.885 13.5213 142.285 10.4075 137.603 10.4075C132.854 10.4075 129.968 13.97 129.968 19.4575C129.968 25.1013 133.079 28.6313 138.309 28.6313C141.194 28.6313 143.216 27.925 144.306 27.3475V23.7875C143.216 24.5575 141.709 25.5188 138.725 25.5188C136.031 25.5188 134.554 23.98 134.203 21.06L144.885 19.585V18.91Z" fill="#555555"/>
<path d="M228.884 26.1925C228.468 26.29 227.409 26.3525 226.511 26.3525C224.201 26.3525 222.854 25.3588 222.854 23.145C222.854 20.1613 225.131 19.3913 228.884 19.0388V26.1925ZM219.035 23.2738C219.035 26.6438 221.506 28.6313 226.253 28.6313H227.153C228.819 28.6313 231.58 28.3738 232.768 28.1488V16.7288C232.768 12.2375 229.751 10.4075 226.125 10.4075C223.366 10.4075 221.251 11.2125 220.129 11.7563V14.6125C222.021 13.6175 223.72 12.975 225.42 12.975C227.474 12.975 228.884 13.585 228.884 15.8625V17.05C223.529 17.5638 219.035 18.6538 219.035 23.2738Z" fill="#555555"/>
<path d="M120.296 25.8725C119.686 25.8725 119.204 25.8075 118.787 25.6488V13.425C119.332 13.2325 119.877 13.1363 120.584 13.1363C123.376 13.1363 124.595 15.1575 124.595 19.4563C124.595 22.3425 123.857 25.8725 120.296 25.8725ZM120.68 10.4088C118.245 10.4088 116.221 10.825 114.65 11.66L114.554 11.725V35.4963H114.779C116.991 35.4963 118.787 33.6688 118.787 31.4538V28.3438C119.397 28.5025 120.232 28.6313 121.162 28.6313C125.812 28.6313 128.861 24.91 128.861 19.3275C128.861 13.7775 125.781 10.4088 120.68 10.4088Z" fill="#555555"/>
<path fill-rule="evenodd" clip-rule="evenodd" d="M15.5725 8.22991C15.5813 8.21741 15.59 8.20366 15.6 8.18991C15.8313 7.85366 15.735 7.60366 15.58 7.46991C15.4825 7.38366 13.1625 5.97866 13.1625 5.97866C12.995 5.86616 12.8838 5.67491 12.8838 5.45616C12.8838 5.11241 13.09 4.85241 13.5575 4.72366C15.0488 4.31366 20.2925 4.09866 22.075 4.09866C22.6925 4.09866 23.7575 4.09616 24.7138 4.12366L24.6713 4.08241C22.0588 1.85116 18.6663 0.503662 14.9613 0.503662C6.6975 0.503662 0 7.19991 0 15.4637C0 19.0962 1.29375 22.4249 3.44625 25.0174C5.32625 22.3137 9.96625 15.6524 10.9825 14.2912C12.1538 12.7224 14.8263 9.23491 15.2775 8.64366L15.3 8.61616L15.5725 8.22991Z" fill="#555555"/>
<path fill-rule="evenodd" clip-rule="evenodd" d="M5.83878 27.3225C8.36378 29.2675 11.5263 30.4237 14.9613 30.4237C23.2238 30.4237 29.9213 23.7262 29.9213 15.4637C29.9213 12.9625 29.3075 10.6062 28.2238 8.535L28.225 8.53625C28.74 8.04 29.3338 7.255 28.9438 6.27C28.8213 5.9775 28.24 5.3125 28.09 5.15125L28.1113 5.20875C28.475 6.3075 27.755 6.99625 27.2375 7.46375C26.9538 7.7225 23.155 11.3037 18.7 15.1987C14.7725 18.6325 10.3813 22.1262 7.83628 24.0312C4.25753 26.7087 3.56128 27.0987 3.56128 27.0987C3.46628 27.15 3.30878 27.1937 3.19378 27.1937C2.97503 27.1937 2.78503 27.0962 2.66503 26.9387L2.66128 26.935C2.64253 26.9812 2.63628 27.0212 2.65253 27.0487C3.03628 27.6712 3.67253 28.39 4.04378 28.39C4.15878 28.39 4.31753 28.3462 4.41253 28.2962C4.41253 28.2962 4.69378 28.14 5.83878 27.3225Z" fill="#555555"/>
</g>
<defs>
<clipPath id="clip0_322_26080">
<rect width="265" height="35" fill="white" transform="translate(0 0.5)"/>
</clipPath>
</defs>
</svg>
