<svg width="101" height="100" viewBox="0 0 101 100" fill="none" xmlns="http://www.w3.org/2000/svg">
<path d="M22.3164 34.261C21.8231 33.7622 21.8231 32.9523 22.3164 32.4514C22.8097 31.9526 23.6107 31.9526 24.1061 32.4514L42.6315 51.1846L52.1577 41.7167C52.6531 41.2244 53.45 41.2286 53.9411 41.7274L76.4318 64.5849V60.0961C76.4318 59.3906 76.9988 58.8173 77.6966 58.8173C78.3944 58.8173 78.9614 59.3906 78.9614 60.0961V67.5434C78.9614 68.2489 78.3944 68.8222 77.6966 68.8222H70.3185C69.6207 68.8222 69.0537 68.2489 69.0537 67.5434C69.0537 66.8379 69.6207 66.2645 70.3185 66.2645H74.5177L53.0326 44.4301L43.5085 53.8958C43.0131 54.3881 42.2183 54.3839 41.7272 53.8873L22.3164 34.261ZM90.0012 21.2784V78.7206C90.0012 79.4262 89.4342 79.9995 88.7364 79.9995H11.266C10.5683 79.9995 10.0012 79.4262 10.0012 78.7206V21.2784C10.0012 20.5729 10.5683 19.9995 11.266 19.9995H88.7364C89.4342 19.9995 90.0012 20.5729 90.0012 21.2784ZM87.4716 22.5572H12.5309V77.4418H87.4716V22.5572Z" fill="url(#paint0_linear_468_17749)"/>
<defs>
<linearGradient id="paint0_linear_468_17749" x1="15.5363" y1="15.1521" x2="85.2269" y2="84.0776" gradientUnits="userSpaceOnUse">
<stop stop-color="#A259FF"/>
<stop offset="1" stop-color="#FF6250"/>
</linearGradient>
</defs>
</svg>
