<svg width="101" height="101" viewBox="0 0 101 101" fill="none" xmlns="http://www.w3.org/2000/svg">
<path d="M53.1189 42.2664C52.6578 42.0752 52.1129 42.1814 51.7566 42.5425L42.1369 52.2909C41.6548 52.7794 41.6548 53.5864 42.1369 54.0962C42.6189 54.5846 43.4153 54.5846 43.9183 54.0962L51.4003 46.5141V75.1222C51.4003 75.8231 51.9662 76.3965 52.6578 76.3965C53.3494 76.3965 53.9153 75.8231 53.9153 75.1222V43.4345C53.8944 42.9248 53.58 42.4575 53.1189 42.2664ZM53.1189 42.2664C52.6578 42.0752 52.1129 42.1814 51.7566 42.5425L42.1369 52.2909C41.6548 52.7794 41.6548 53.5864 42.1369 54.0962C42.6189 54.5846 43.4153 54.5846 43.9183 54.0962L51.4003 46.5141V75.1222C51.4003 75.8231 51.9662 76.3965 52.6578 76.3965C53.3494 76.3965 53.9153 75.8231 53.9153 75.1222V43.4345C53.8944 42.9248 53.58 42.4575 53.1189 42.2664ZM53.1189 42.2664C52.6578 42.0752 52.1129 42.1814 51.7566 42.5425L42.1369 52.2909C41.6548 52.7794 41.6548 53.5864 42.1369 54.0962C42.6189 54.5846 43.4153 54.5846 43.9183 54.0962L51.4003 46.5141V75.1222C51.4003 75.8231 51.9662 76.3965 52.6578 76.3965C53.3494 76.3965 53.9153 75.8231 53.9153 75.1222V43.4345C53.8944 42.9248 53.58 42.4575 53.1189 42.2664ZM84.7447 22.1961H78.2057V15.2724C78.2057 14.5715 77.6399 13.998 76.9482 13.998H68.8375C68.1458 13.998 67.58 14.5715 67.58 15.2724V22.1748H34.4243V15.2724C34.4243 14.5715 33.8584 13.998 33.1668 13.998H25.056C24.3644 13.998 23.7985 14.5715 23.7985 15.2724V22.1748H17.2596C16.568 22.1748 16.0021 22.7483 16.0021 23.4491V83.7237C16.0021 84.4246 16.568 84.998 17.2596 84.998H84.7447C85.4363 84.998 86.0021 84.4246 86.0021 83.7237V23.4704C86.0021 22.7695 85.4572 22.1961 84.7447 22.1961ZM83.4872 82.4707H18.5171V34.748H83.4872V82.4707ZM83.4872 32.1994H18.5171V24.7447H83.4872V32.1994Z" fill="url(#paint0_linear_468_17734)"/>
<defs>
<linearGradient id="paint0_linear_468_17734" x1="18.3049" y1="20.3138" x2="84.5682" y2="85.7025" gradientUnits="userSpaceOnUse">
<stop stop-color="#A259FF"/>
<stop offset="1" stop-color="#FF6250"/>
</linearGradient>
</defs>
</svg>
