<svg width="100" height="101" viewBox="0 0 100 101" fill="none" xmlns="http://www.w3.org/2000/svg">
<path d="M93.0011 59.5111C93.0011 60.0708 92.6724 60.5768 92.1644 60.7984L50.5447 78.8861C50.3723 78.9607 50.1861 78.998 50.0022 78.998C49.8184 78.998 49.6322 78.9607 49.4598 78.8861L7.83777 60.7984C7.32979 60.5768 7.0011 60.0708 7.0011 59.5111C7.0011 58.9514 7.32979 58.4453 7.83777 58.2237L12.0487 56.3931C12.7498 56.0899 13.5588 56.4187 13.86 57.1277C14.1611 57.839 13.8347 58.6599 13.1359 58.9654L11.8855 59.5087L50.0022 76.0759L88.119 59.5111L86.9674 59.0097C86.2664 58.7065 85.9423 57.8833 86.2434 57.172C86.5422 56.4607 87.3536 56.1319 88.0546 56.4374L92.1667 58.2237C92.6724 58.4453 93.0011 58.9514 93.0011 59.5111ZM92.1667 49.7116L88.0546 47.9252C87.3559 47.6197 86.5445 47.9509 86.2434 48.6598C85.9446 49.3711 86.2687 50.192 86.9674 50.4975L88.119 50.9989L50.0022 67.5638L11.8855 50.9989L13.1359 50.4555C13.837 50.15 14.1611 49.3291 13.86 48.6179C13.5611 47.9066 12.7498 47.5801 12.0487 47.8832L7.83777 49.7139C7.32979 49.9355 7.0011 50.4392 7.0011 51.0013C7.0011 51.561 7.32979 52.067 7.83777 52.2886L49.4575 70.3763C49.6299 70.4509 49.8161 70.4882 50 70.4882C50.1838 70.4882 50.37 70.4509 50.5424 70.3763L92.1621 52.2886C92.6701 52.067 92.9988 51.561 92.9988 51.0013C92.9988 50.4415 92.6724 49.9332 92.1667 49.7116ZM7.0034 42.4868C7.0034 41.9271 7.33209 41.421 7.84007 41.1995L49.4598 23.1117C49.8069 22.9602 50.1999 22.9602 50.5447 23.1117L92.1644 41.1995C92.6724 41.421 93.0011 41.9271 93.0011 42.4868C93.0011 43.0465 92.6724 43.5525 92.1644 43.7741L50.5447 61.8618C50.3723 61.9364 50.1861 61.9738 50.0022 61.9738C49.8184 61.9738 49.6322 61.9364 49.4598 61.8618L7.83777 43.7741C7.33209 43.5525 7.0034 43.0465 7.0034 42.4868ZM11.8855 42.4868L50.0022 59.0516L88.119 42.4844L50.0022 25.9196L11.8855 42.4868Z" fill="url(#paint0_linear_468_17620)"/>
<defs>
<linearGradient id="paint0_linear_468_17620" x1="24.0219" y1="24.6393" x2="76.7355" y2="76.5944" gradientUnits="userSpaceOnUse">
<stop stop-color="#A259FF"/>
<stop offset="1" stop-color="#FF6250"/>
</linearGradient>
</defs>
</svg>
