<svg width="101" height="100" viewBox="0 0 101 100" fill="none" xmlns="http://www.w3.org/2000/svg">
<path d="M68.104 45.2528H31.891C31.1147 45.2528 30.4837 45.8845 30.4837 46.6619V54.7905V79.1739C30.4837 79.9513 31.1147 80.583 31.891 80.583H68.104C68.8804 80.583 69.5113 79.9513 69.5113 79.1739V54.7905V46.6619C69.5113 45.8845 68.8804 45.2528 68.104 45.2528ZM43.0629 56.1997H66.6966V61.5099H43.0629V56.1997ZM40.2482 61.5076H33.2984V56.1973H40.2482V61.5076ZM33.2984 64.3259H40.2482V69.6361H33.2984V64.3259ZM43.0629 64.3259H66.6966V69.6361H43.0629V64.3259ZM66.6966 53.3813H43.0629V48.0711H66.6966V53.3813ZM33.2984 48.0711H40.2482V53.3813H33.2984V48.0711ZM33.2984 72.4545H40.2482V77.7647H33.2984V72.4545ZM43.0629 77.7647V72.4545H66.6966V77.7647H43.0629ZM77.9975 28.0233C77.9975 28.0068 77.9952 27.9928 77.9952 27.9763C77.9905 27.9152 77.9834 27.8565 77.9741 27.7978C77.9741 27.7978 77.9741 27.7978 77.9741 27.7955C77.9623 27.7368 77.9459 27.678 77.9248 27.6193C77.9201 27.6052 77.9154 27.5911 77.9084 27.577C77.8873 27.523 77.8638 27.469 77.838 27.4173C77.8357 27.415 77.8357 27.4126 77.8357 27.4103C77.8075 27.3563 77.7747 27.3046 77.7371 27.2553C77.7278 27.2435 77.7184 27.2295 77.709 27.2177C77.6715 27.1684 77.6316 27.1191 77.587 27.0744L61.9446 11.4115C61.9 11.3669 61.8531 11.3269 61.8038 11.2894C61.7898 11.28 61.778 11.2706 61.764 11.2612C61.7147 11.226 61.6654 11.1931 61.6115 11.1649C61.6068 11.1625 61.6021 11.1602 61.5951 11.1578C61.5458 11.132 61.4966 11.1109 61.445 11.0921C61.4285 11.085 61.4121 11.0803 61.3957 11.0756C61.3418 11.0569 61.2855 11.0404 61.2292 11.0287C61.2245 11.0287 61.2174 11.0263 61.2127 11.0263C61.1588 11.0169 61.1025 11.0099 61.0462 11.0052C61.0275 11.0052 61.011 11.0028 60.9923 11.0028C60.9782 11.0028 60.9618 11.0005 60.9477 11.0005H23.4095C22.6332 11.0005 22.0022 11.6323 22.0022 12.4097V87.5913C22.0022 88.3687 22.6332 89.0005 23.4095 89.0005H76.5949C77.3712 89.0005 78.0022 88.3687 78.0022 87.5913V28.0703C77.9999 28.0538 77.9998 28.0397 77.9975 28.0233ZM24.8169 86.1821V13.8165H59.5451V28.0703C59.5451 28.8476 60.176 29.4794 60.9524 29.4794H75.1875V86.1821H24.8169ZM30.4837 39.6654C30.4837 38.888 31.1147 38.2562 31.891 38.2562H42.6172C43.3936 38.2562 44.0246 38.888 44.0246 39.6654C44.0246 40.4428 43.3936 41.0746 42.6172 41.0746H31.891C31.1147 41.0746 30.4837 40.4451 30.4837 39.6654ZM69.5113 39.6654C69.5113 40.4428 68.8804 41.0746 68.104 41.0746H49.9987C49.2223 41.0746 48.5914 40.4428 48.5914 39.6654C48.5914 38.888 49.2223 38.2562 49.9987 38.2562H68.104C68.8804 38.2562 69.5113 38.888 69.5113 39.6654ZM32.916 29.881C32.4329 29.2704 32.5361 28.385 33.1436 27.9012C33.7534 27.4173 34.6377 27.5207 35.1209 28.129C35.7659 28.9439 36.8308 29.3902 37.8323 29.2634C38.2193 29.214 38.5571 29.0849 38.7799 28.8993C38.9558 28.7537 39.0778 28.5447 39.0801 28.3779C39.0919 27.8589 38.8245 27.6311 37.0208 27.1332C35.4422 26.6963 32.8035 25.9659 33.1131 23.0419C33.2632 21.6209 34.3351 20.3503 35.78 19.8806C35.8011 19.8736 35.8245 19.8689 35.8456 19.8618V18.7251C35.8456 17.9477 36.4766 17.3159 37.253 17.3159C38.0293 17.3159 38.6603 17.9477 38.6603 18.7251V19.8924C39.8659 20.2705 40.9566 21.0949 41.6298 22.2457C42.0215 22.9174 41.7963 23.7817 41.1255 24.1739C40.4546 24.5685 39.5915 24.3406 39.1998 23.6689C38.6767 22.7718 37.5297 22.2739 36.6502 22.5604C36.2702 22.6849 35.9465 23.0254 35.9137 23.3378C35.8761 23.7018 35.855 23.8827 37.7737 24.4135C39.3428 24.8479 41.9675 25.5737 41.8972 28.4437C41.8737 29.4372 41.3905 30.393 40.5766 31.0671C40.0512 31.5039 39.3945 31.8093 38.6626 31.969V33.0305C38.6626 33.8079 38.0317 34.4397 37.2553 34.4397C36.4789 34.4397 35.848 33.8079 35.848 33.0305V31.8562C34.7104 31.5251 33.676 30.8416 32.916 29.881Z" fill="url(#paint0_linear_468_17649)"/>
<defs>
<linearGradient id="paint0_linear_468_17649" x1="13.0278" y1="20.8091" x2="79.2393" y2="86.934" gradientUnits="userSpaceOnUse">
<stop stop-color="#A259FF"/>
<stop offset="1" stop-color="#FF6250"/>
</linearGradient>
</defs>
</svg>
