<svg width="101" height="100" viewBox="0 0 101 100" fill="none" xmlns="http://www.w3.org/2000/svg">
<path d="M72.8262 73.155C72.3258 67.1059 70.1319 61.3318 66.6294 56.9128C64.0699 53.6722 60.9331 51.2958 57.5268 49.9602C60.9331 48.6247 64.0699 46.2483 66.6102 43.0077C70.1127 38.5691 72.3258 32.7949 72.8069 26.7655C72.8261 26.412 72.7107 26.0781 72.499 25.8228C72.2873 25.5674 71.9409 25.43 71.6137 25.43H28.3714C28.025 25.43 27.7171 25.5674 27.4862 25.8228C27.2552 26.0781 27.1398 26.412 27.1782 26.7655C27.6786 32.8146 29.8725 38.5691 33.375 43.0077C35.9345 46.2483 39.0713 48.6247 42.4584 49.9602C39.0521 51.2958 35.9152 53.6722 33.375 56.9128C29.8725 61.3514 27.6786 67.1255 27.1782 73.155C27.1398 73.5085 27.2745 73.8424 27.4862 74.0977C27.6979 74.353 28.0443 74.4905 28.3714 74.4905H71.6137C71.9601 74.4905 72.2681 74.353 72.499 74.0977C72.7492 73.8424 72.8454 73.4889 72.8262 73.155ZM29.7185 72.0159C31.1041 61.2336 38.34 52.4349 46.9616 51.3154C47.6351 51.2368 48.1355 50.6476 48.1355 49.9406C48.1355 49.2532 47.6351 48.664 46.9616 48.5658C38.34 47.4463 31.1041 38.6673 29.7185 27.8653H70.2666C68.881 38.6476 61.6451 47.4463 53.0236 48.5658C52.35 48.6444 51.8497 49.2336 51.8304 49.9406C51.8304 50.628 52.3308 51.2172 53.0043 51.3154C61.6259 52.4349 68.8618 61.2139 70.2474 72.0159H29.7185ZM75.7898 76.4545H24.2531C23.5795 76.4545 23.0407 77.0044 23.0407 77.6918V84.7622C23.0407 85.4496 23.5795 85.9995 24.2531 85.9995H75.7898C76.4634 85.9995 77.0022 85.4496 77.0022 84.7622V77.6918C77.0022 77.0044 76.4634 76.4545 75.7898 76.4545ZM74.5774 83.5249H25.4655V78.9291H74.5774V83.5249ZM75.7513 13.9995H24.2146C23.541 13.9995 23.0022 14.5494 23.0022 15.2368V22.3072C23.0022 22.9946 23.541 23.5445 24.2146 23.5445H75.7513C76.4249 23.5445 76.9637 22.9946 76.9637 22.3072V15.2368C76.9637 14.5494 76.4249 13.9995 75.7513 13.9995ZM74.5389 21.0699H25.427V16.4741H74.5389V21.0699ZM66.0906 69.6787C65.8596 69.9537 65.5325 70.1108 65.1668 70.1108H34.2987C33.9331 70.1108 33.5674 69.934 33.3557 69.6395C33.1248 69.3448 33.0478 68.9521 33.1248 68.5789C34.0485 64.6313 35.9152 60.9586 38.3978 58.209C41.1112 55.2237 44.4405 53.4365 48.02 53.0044C48.02 53.0044 48.0393 53.0044 48.0585 53.0044C48.2702 52.9848 49.3094 52.8866 49.752 52.8866C50.1754 52.8866 51.2338 52.9848 51.4263 53.0044H51.4455C58.6622 53.8686 65.2246 60.7426 66.36 68.6771C66.4177 69.0306 66.3215 69.4038 66.0906 69.6787Z" fill="url(#paint0_linear_468_17599)"/>
<defs>
<linearGradient id="paint0_linear_468_17599" x1="19.2197" y1="18.5852" x2="82.0368" y2="80.1375" gradientUnits="userSpaceOnUse">
<stop stop-color="#A259FF"/>
<stop offset="1" stop-color="#FF6250"/>
</linearGradient>
</defs>
</svg>
