<svg width="100" height="100" viewBox="0 0 100 100" fill="none" xmlns="http://www.w3.org/2000/svg">
<path d="M80.5072 58.9629L72.0537 42.2559C73.3723 35.6396 69.07 31.4234 66.1583 29.8559L74.1397 12.1443C74.3955 11.5745 74.2444 10.9047 73.7653 10.5047C73.2886 10.1024 72.6025 10.0675 72.0839 10.4164C72.0188 10.4606 65.5072 14.828 61.0653 14.828C58.9607 14.828 57.5234 13.821 55.8607 12.6559C54.163 11.4675 52.2397 10.1187 49.5421 10.1187C46.763 10.1187 44.6583 11.535 42.8002 12.7838C41.17 13.8792 39.7607 14.828 38.1118 14.828C34.9793 14.828 29.2839 11.5513 27.3514 10.2885C26.8304 9.94661 26.1444 9.99312 25.6746 10.4024C25.2025 10.8094 25.0607 11.4815 25.3234 12.0466L33.763 30.1629C33.6374 30.3722 33.5653 30.614 33.5653 30.8768C33.5653 31.028 33.5909 31.1745 33.6351 31.3117L19.5304 58.9629C16.1165 65.6559 16.0746 72.0722 19.4072 77.514C21.749 81.3373 25.7397 84.4908 30.9514 86.6327C36.2955 88.8303 42.6886 89.9443 49.9583 89.9443C57.2328 89.9443 63.6374 88.828 68.9909 86.628C74.2118 84.4815 78.2165 81.3257 80.5676 77.4978C83.9118 72.0582 83.8909 65.6489 80.5072 58.9629ZM38.1118 17.6164C40.6142 17.6164 42.5165 16.335 44.3583 15.0978C46.0328 13.9722 47.6165 12.9071 49.5421 12.9071C51.3607 12.9071 52.7048 13.8489 54.2583 14.9396C56.049 16.1954 58.0793 17.6164 61.0653 17.6164C63.9281 17.6164 67.2816 16.2489 69.8072 14.9582L63.2653 29.4768H36.5211L29.7258 14.8885C32.2816 16.214 35.5793 17.6164 38.1118 17.6164ZM78.1932 76.0327C73.9142 82.9931 63.3607 87.1513 49.9607 87.1513C36.5769 87.1513 26.0444 83.0024 21.7886 76.0536C18.9886 71.4838 19.0676 66.0094 22.0188 60.228L36.2793 32.2675H63.1444C62.749 33.6257 62.2793 35.6024 62.0746 37.8536C61.5607 43.5094 62.9816 48.1908 66.1839 51.3931C66.456 51.6652 66.8141 51.8024 67.17 51.8024C67.5258 51.8024 67.8839 51.6652 68.156 51.3931C68.7002 50.8489 68.7002 49.9652 68.156 49.4187C64.0676 45.3303 64.4862 39.0815 65.3142 35.1187L69.149 42.6954C69.1723 43.0838 69.356 43.442 69.6514 43.6885L78.0188 60.2234C80.9397 65.9978 81.0002 71.4652 78.1932 76.0327ZM42.3118 58.1071C42.3118 55.5885 40.1142 53.5396 37.4142 53.5396H33.4025C32.6328 53.5396 32.0072 54.1652 32.0072 54.935V61.0885C31.9979 61.1513 31.9932 61.214 31.9932 61.2768C31.9932 61.3396 32.0002 61.4047 32.0072 61.4652V66.7931C32.0072 67.5629 32.6328 68.1885 33.4025 68.1885C34.1723 68.1885 34.7979 67.5629 34.7979 66.7931V62.6745H36.8607L39.5397 67.4722C39.7955 67.9303 40.27 68.1885 40.7583 68.1885C40.9886 68.1885 41.2211 68.1303 41.4374 68.0117C42.1095 67.635 42.3514 66.7861 41.9746 66.1141L39.7444 62.121C40.1328 61.9234 40.4955 61.6792 40.8211 61.3838C41.7816 60.5117 42.3118 59.3489 42.3118 58.1071ZM34.7955 56.3327H37.4118C38.5537 56.3327 39.5188 57.1466 39.5188 58.1094C39.5188 58.5513 39.3165 58.9792 38.9467 59.314C38.5444 59.6768 37.9862 59.8861 37.4095 59.8861H34.7932V56.3327H34.7955ZM66.5118 60.4861C67.1909 59.721 67.5607 58.7745 67.5607 57.7699C67.5607 56.6815 67.1211 55.6513 66.3211 54.8722C65.4095 53.9815 64.1421 53.5094 62.749 53.542H59.3444C58.5746 53.542 57.949 54.1675 57.949 54.9373V66.7954C57.949 67.5652 58.5746 68.1908 59.3444 68.1908H63.2234C64.4676 68.1908 65.6514 67.742 66.556 66.9257C67.4955 66.0745 68.0118 64.9373 68.0118 63.7234C68.0095 62.4513 67.4328 61.3024 66.5118 60.4861ZM62.763 56.3327C62.7746 56.3327 62.7862 56.3327 62.7979 56.3327C63.4281 56.3187 64.0025 56.514 64.37 56.8722C64.5514 57.0489 64.7676 57.3489 64.7676 57.7722C64.7676 58.2652 64.4676 58.6117 64.2909 58.7722C63.9467 59.0815 63.4676 59.2606 62.9769 59.2606H60.7374V56.335H62.763V56.3327ZM64.6816 64.8582C64.2979 65.2048 63.7676 65.4024 63.2211 65.4024H60.7374V62.0489H62.9769H63.2211C64.3048 62.0489 65.2188 62.8164 65.2188 63.7257C65.2188 64.142 65.0281 64.5443 64.6816 64.8582ZM55.449 54.9373V62.5047C55.449 65.642 52.8979 68.1931 49.7607 68.1931C46.6235 68.1931 44.0723 65.642 44.0723 62.5047V54.9373C44.0723 54.1675 44.6979 53.542 45.4676 53.542C46.2374 53.542 46.863 54.1675 46.863 54.9373V62.5047C46.863 64.1024 48.163 65.4024 49.7607 65.4024C51.3583 65.4024 52.6583 64.1024 52.6583 62.5047V54.9373C52.6583 54.1675 53.2839 53.542 54.0537 53.542C54.8234 53.542 55.449 54.1652 55.449 54.9373Z" fill="url(#paint0_linear_520_18055)"/>
<defs>
<linearGradient id="paint0_linear_520_18055" x1="19.1483" y1="16.9206" x2="80.4991" y2="78.2714" gradientUnits="userSpaceOnUse">
<stop stop-color="#A259FF"/>
<stop offset="1" stop-color="#FF6250"/>
</linearGradient>
</defs>
</svg>
