<svg width="100" height="100" viewBox="0 0 100 100" fill="none" xmlns="http://www.w3.org/2000/svg">
<path d="M81.6316 87.3254H80.1811L79.2596 82.9011C78.7761 80.5809 77.41 78.5816 75.4942 77.2644C77.4077 75.9471 78.7739 73.9501 79.2574 71.6343L80.1811 67.21H81.6316C82.3865 67.21 83 66.6105 83 65.8727C83 65.135 82.3865 64.5354 81.6316 64.5354H79.0635H61.16H58.5919C57.837 64.5354 57.2235 65.135 57.2235 65.8727C57.2235 66.6105 57.837 67.21 58.5919 67.21H60.0425L60.9661 71.6343C61.4496 73.9523 62.8181 75.9493 64.7316 77.2666C62.8203 78.5838 61.4542 80.5764 60.9707 82.89L60.0402 87.3254H58.5919C57.837 87.3254 57.2235 87.9249 57.2235 88.6627C57.2235 89.4004 57.837 90 58.5919 90H79.0612H81.6293C82.3842 90 82.9977 89.4004 82.9977 88.6627C82.9977 87.9249 82.3888 87.3254 81.6316 87.3254ZM63.6551 83.4271C64.1432 81.098 65.8925 79.228 68.2211 78.546C68.8004 78.3766 69.1972 77.855 69.1972 77.2644C69.1972 76.6737 68.8004 76.1522 68.2211 75.9828C65.8902 75.3008 64.1409 73.4285 63.6528 71.0971L62.8409 67.2078H77.3918L76.5798 71.0971C76.094 73.4263 74.3447 75.2985 72.0139 75.9828C71.4346 76.1522 71.0377 76.6737 71.0377 77.2644C71.0377 77.855 71.4346 78.3766 72.0139 78.546C74.347 79.2302 76.0963 81.1024 76.5821 83.4361L77.3918 87.3254L62.8409 87.3165L63.6551 83.4271ZM52.9221 87.3254H20.7346V18.6234H30.9316V24.2758C30.9316 25.0135 31.5451 25.6131 32.3 25.6131H58.17C58.9249 25.6131 59.5384 25.0135 59.5384 24.2758V18.6234H69.7354V60.4031C69.7354 61.1409 70.3489 61.7405 71.1039 61.7405C71.8588 61.7405 72.4723 61.1409 72.4723 60.4031V17.2861C72.4723 16.5484 71.8588 15.9488 71.1039 15.9488H59.5384C59.5384 15.211 58.9249 14.6115 58.17 14.6115H52.3451V11.3373C52.3451 10.5996 51.7316 10 50.9767 10H39.4956C38.7407 10 38.1272 10.5996 38.1272 11.3373V14.6115H32.3023C31.5474 14.6115 30.9339 15.211 30.9339 15.9488H19.3684C18.6135 15.9488 18 16.5484 18 17.2861V88.6627C18 89.4004 18.6135 90 19.3684 90H52.9244C53.6793 90 54.2928 89.4004 54.2928 88.6627C54.2928 87.9249 53.677 87.3254 52.9221 87.3254ZM33.6684 17.2995C33.6684 17.295 33.6684 17.2906 33.6684 17.2861H56.7993C56.7993 17.2906 56.7993 17.295 56.7993 17.2995V22.9385H33.6684V17.2995ZM62.7725 48.695C62.7725 49.4328 62.1589 50.0323 61.404 50.0323H35.3721C34.6172 50.0323 34.0037 49.4328 34.0037 48.695C34.0037 47.9573 34.6172 47.3577 35.3721 47.3577H61.404C62.1589 47.3577 62.7725 47.9573 62.7725 48.695ZM62.7725 37.8918C62.7725 38.6295 62.1589 39.2291 61.404 39.2291H35.3721C34.6172 39.2291 34.0037 38.6295 34.0037 37.8918C34.0037 37.154 34.6172 36.5545 35.3721 36.5545H61.404C62.1589 36.5545 62.7725 37.154 62.7725 37.8918ZM62.7725 59.5005C62.7725 60.2382 62.1589 60.8378 61.404 60.8378H35.3721C34.6172 60.8378 34.0037 60.2382 34.0037 59.5005C34.0037 58.7627 34.6172 58.1632 35.3721 58.1632H61.404C62.1589 58.1632 62.7725 58.7605 62.7725 59.5005ZM54.4707 70.3037C54.4707 71.0414 53.8572 71.641 53.1023 71.641H35.3721C34.6172 71.641 34.0037 71.0414 34.0037 70.3037C34.0037 69.5659 34.6172 68.9664 35.3721 68.9664H53.1023C53.8572 68.9664 54.4707 69.5637 54.4707 70.3037ZM30.3226 39.0664C29.627 39.7462 28.5004 39.7462 27.8047 39.0664C27.1091 38.3866 27.1091 37.2855 27.8047 36.6057C28.5004 35.9259 29.627 35.9259 30.3226 36.6057C31.0182 37.2855 31.0182 38.3866 30.3226 39.0664ZM30.3226 49.7938C29.627 50.4736 28.5004 50.4736 27.8047 49.7938C27.1091 49.114 27.1091 48.013 27.8047 47.3332C28.5004 46.6534 29.627 46.6534 30.3226 47.3332C31.0182 48.013 31.0182 49.114 30.3226 49.7938ZM30.3226 60.6862C29.627 61.366 28.5004 61.366 27.8047 60.6862C27.1091 60.0064 27.1091 58.9054 27.8047 58.2256C28.5004 57.5458 29.627 57.5458 30.3226 58.2256C31.0182 58.9054 31.0182 60.0064 30.3226 60.6862ZM30.3226 68.953C31.0182 69.6328 31.0182 70.7338 30.3226 71.4136C29.627 72.0934 28.5004 72.0934 27.8047 71.4136C27.1091 70.7338 27.1091 69.6328 27.8047 68.953C28.5004 68.2732 29.627 68.2732 30.3226 68.953Z" fill="url(#paint0_linear_586_18096)"/>
<defs>
<linearGradient id="paint0_linear_586_18096" x1="13.0731" y1="21.5456" x2="81.0594" y2="91.1137" gradientUnits="userSpaceOnUse">
<stop stop-color="#A259FF"/>
<stop offset="1" stop-color="#FF6250"/>
</linearGradient>
</defs>
</svg>
