<svg width="18" height="19" viewBox="0 0 18 19" fill="none" xmlns="http://www.w3.org/2000/svg">
<g clip-path="url(#clip0_322_26447)">
<path d="M8.56356 0.51041C3.80978 0.736758 0.0583742 4.69574 0.0727953 9.4549C0.0771863 10.9044 0.427126 12.2726 1.04444 13.4815L0.0966441 18.0822C0.0453736 18.331 0.269827 18.5489 0.517054 18.4904L5.0252 17.4223C6.18341 17.9993 7.48433 18.3325 8.86115 18.3535C13.72 18.4277 17.7714 14.5697 17.9228 9.71267C18.0851 4.50628 13.7882 0.26159 8.56356 0.51041ZM13.9427 14.37C12.6225 15.6903 10.8671 16.4174 9.00002 16.4174C7.90677 16.4174 6.86009 16.1721 5.88896 15.6883L5.26115 15.3756L2.49719 16.0304L3.07899 13.2062L2.76968 12.6005C2.26555 11.6132 2.00993 10.5455 2.00993 9.42726C2.00993 7.56013 2.73701 5.80479 4.05726 4.4845C5.36571 3.17605 7.14972 2.43712 9.00015 2.43712C10.8672 2.43717 12.6225 3.16425 13.9428 4.48446C15.263 5.8047 15.9901 7.56004 15.9902 9.42713C15.9901 11.2776 15.2512 13.0616 13.9427 14.37Z" fill="#ABA3BC"/>
<path d="M13.3325 11.3633L11.6033 10.8668C11.376 10.8015 11.1312 10.866 10.9655 11.0348L10.5426 11.4656C10.3643 11.6473 10.0938 11.7057 9.85779 11.6102C9.03979 11.2791 7.31906 9.74921 6.87962 8.98394C6.75285 8.76319 6.77381 8.4872 6.92947 8.28578L7.29865 7.80816C7.4433 7.62103 7.47382 7.36971 7.37817 7.15339L6.65065 5.50796C6.47639 5.11385 5.97277 4.99913 5.64375 5.27739C5.16113 5.68558 4.58851 6.30586 4.5189 6.99304C4.39617 8.20459 4.91576 9.73186 6.88061 11.5657C9.15055 13.6843 10.9683 13.9642 12.1518 13.6775C12.8231 13.5149 13.3596 12.8631 13.6982 12.3294C13.929 11.9655 13.7467 11.4822 13.3325 11.3633Z" fill="#ABA3BC"/>
</g>
<defs>
<clipPath id="clip0_322_26447">
<rect width="18" height="18" fill="white" transform="translate(0 0.5)"/>
</clipPath>
</defs>
</svg>
