<svg width="101" height="100" viewBox="0 0 101 100" fill="none" xmlns="http://www.w3.org/2000/svg">
<g clip-path="url(#clip0_501_5206)">
<g filter="url(#filter0_b_501_5206)">
<rect x="0.5" width="100" height="100" rx="20" fill="url(#paint0_linear_501_5206)" fill-opacity="0.6"/>
<rect x="1.5" y="1" width="98" height="98" rx="19" stroke="url(#paint1_radial_501_5206)" stroke-width="2"/>
<rect x="1.5" y="1" width="98" height="98" rx="19" stroke="url(#paint2_radial_501_5206)" stroke-width="2"/>
</g>
<path d="M65.0439 56.4993C62.5062 54.3895 59.3098 53.2293 55.9993 53.2293H55.1281V51.6013C58.117 49.583 60.086 46.1663 60.086 42.3006V37.7254C61.4897 36.3218 61.4033 33.4195 61.2874 29.5418C61.2736 29.0843 61.2598 28.6147 61.2477 28.1347C61.1388 23.7339 57.0054 21.8797 56.8291 21.8037C56.7755 21.7795 56.7202 21.7605 56.6632 21.7467C56.4332 21.6897 50.9982 20.3776 47.1173 21.9815C47.0862 21.9953 47.0533 22.0091 47.0239 22.0264C46.0109 22.5685 45.074 22.6687 44.7178 22.6859C44.4551 22.698 44.1958 22.6082 43.9883 22.4304C43.8518 22.313 43.6754 22.1524 43.4905 21.9798C42.9736 21.5033 42.3322 20.9094 41.6546 20.476C40.7211 19.8787 39.2984 19.8389 38.3459 20.3828C35.6629 21.9176 34.6067 25.3775 35.21 30.6658C35.6335 34.3795 36.733 37.6426 36.7797 37.7807C36.8799 38.0759 37.1029 38.2952 37.3743 38.4057V42.3006C37.3743 46.0678 39.2431 49.4069 42.1041 51.4441V53.2311H41.6477C33.8461 53.2311 27.5 59.569 27.5 67.3607V72.6023C27.5 74.5792 29.1094 76.1865 31.0888 76.1865H34.2851C37.6941 76.4559 39.224 77.2311 40.5759 77.9165C41.6598 78.4655 42.6832 78.9835 44.2839 78.9835H52.9551C52.9845 78.9835 53.0122 78.9835 53.0381 78.9817C54.4262 78.9766 55.3787 78.5795 56.3192 78.1168C58.4558 79.914 61.2114 81 64.2193 81C70.9906 81 76.5 75.4977 76.5 68.735C76.4948 62.2485 71.4297 56.9275 65.0439 56.4993ZM39.3744 22.1801C39.5024 22.1058 39.696 22.0713 39.8965 22.0713C40.1351 22.0713 40.3805 22.1214 40.5344 22.2198C41.0565 22.5547 41.6235 23.0778 42.0799 23.4991C42.2821 23.6856 42.4723 23.8617 42.6417 24.0067C43.2536 24.5281 44.0281 24.794 44.8181 24.7543C45.4266 24.7249 46.6367 24.5713 47.954 23.8772C50.955 22.6652 55.3805 23.5803 56.0737 23.7356C56.5664 23.9774 59.1041 25.3551 59.175 28.1848C59.1871 28.6665 59.2009 29.1396 59.2147 29.6023C59.2458 30.652 59.2787 31.7535 59.2649 32.7566C58.4074 30.5605 56.6787 28.0156 53.2023 26.2045C52.9257 26.0612 52.5973 26.0509 52.3103 26.1752C52.0233 26.2995 51.8072 26.5481 51.7225 26.8485C51.7174 26.8658 51.2022 28.632 49.2246 30.6779C47.4751 32.489 44.2079 34.8767 38.4617 36.2303C37.2965 32.3301 35.7597 24.2484 39.3744 22.1801ZM39.4453 42.2989V38.1208C48.7077 35.7987 52.115 30.9092 53.2352 28.6164C57.429 31.3063 57.9597 35.3014 58.0133 36.6843C58.0133 36.6947 58.0115 36.7033 58.0115 36.7137V42.3006C58.0115 47.3437 53.9024 51.4476 48.8529 51.4476H48.604C43.5544 51.4459 39.4453 47.3437 39.4453 42.2989ZM44.1768 52.6095C45.5355 53.1948 47.0326 53.5177 48.604 53.5177H48.8529C50.3379 53.5177 51.7554 53.2293 53.0519 52.7045V54.248C53.0519 54.2497 53.0519 54.2514 53.0519 54.2532V54.2549C53.0139 56.5442 51.1175 58.4071 48.8218 58.4071H48.4069C46.1112 58.4071 44.2165 56.5459 44.1768 54.2566C44.1768 54.2549 44.1768 54.2532 44.1768 54.2514C44.1768 54.2497 44.1768 54.248 44.1768 54.2462V52.6095ZM53.0035 76.9082C52.9845 76.9082 52.9655 76.9082 52.9482 76.9099H44.2788C43.1741 76.9099 42.512 76.575 41.5094 76.0657C40.1333 75.3682 38.2491 74.4134 34.401 74.1147C34.375 74.113 34.3474 74.1113 34.3214 74.1113H31.0853C30.2504 74.1113 29.571 73.4328 29.571 72.5989V67.3572C29.571 60.7085 34.987 55.2994 41.6442 55.2994H42.2026C42.735 58.2344 45.3315 60.4789 48.4069 60.4789H48.8218C51.8989 60.4789 54.4936 58.2344 55.0261 55.2994H55.9993C58.0029 55.2994 59.9563 55.7966 61.6971 56.7272C56.129 57.8909 51.9334 62.8304 51.9334 68.7315C51.9334 71.6994 52.9949 74.4255 54.7599 76.5491C54.2188 76.7753 53.6984 76.9082 53.0035 76.9082ZM64.2141 78.9265C58.5872 78.9265 54.0079 74.353 54.0079 68.7333C54.0079 63.1135 58.5872 58.54 64.2141 58.54C69.841 58.54 74.4204 63.1135 74.4204 68.7333C74.4204 74.353 69.8428 78.9265 64.2141 78.9265ZM70.3199 64.9315C70.7244 65.3355 70.7244 65.9916 70.3199 66.3973L62.0636 74.6431C61.8614 74.8451 61.5951 74.9469 61.3307 74.9469C61.0644 74.9469 60.7999 74.8451 60.5977 74.6431L57.1541 71.2039C56.7496 70.7999 56.7496 70.1438 57.1541 69.7381C57.5586 69.3341 58.2155 69.3341 58.6201 69.7381L61.3307 72.4452L68.854 64.9315C69.2585 64.5275 69.9154 64.5275 70.3199 64.9315Z" fill="url(#paint3_linear_501_5206)"/>
</g>
<defs>
<filter id="filter0_b_501_5206" x="-29.5" y="-30" width="160" height="160" filterUnits="userSpaceOnUse" color-interpolation-filters="sRGB">
<feFlood flood-opacity="0" result="BackgroundImageFix"/>
<feGaussianBlur in="BackgroundImageFix" stdDeviation="15"/>
<feComposite in2="SourceAlpha" operator="in" result="effect1_backgroundBlur_501_5206"/>
<feBlend mode="normal" in="SourceGraphic" in2="effect1_backgroundBlur_501_5206" result="shape"/>
</filter>
<linearGradient id="paint0_linear_501_5206" x1="50.5" y1="0" x2="50.5" y2="100" gradientUnits="userSpaceOnUse">
<stop stop-color="white" stop-opacity="0"/>
<stop offset="1" stop-color="white"/>
</linearGradient>
<radialGradient id="paint1_radial_501_5206" cx="0" cy="0" r="1" gradientUnits="userSpaceOnUse" gradientTransform="translate(83.1923 80.4762) rotate(77.5615) scale(108.255 45.9545)">
<stop stop-color="white" stop-opacity="0.57"/>
<stop offset="1" stop-color="white" stop-opacity="0"/>
</radialGradient>
<radialGradient id="paint2_radial_501_5206" cx="0" cy="0" r="1" gradientUnits="userSpaceOnUse" gradientTransform="translate(10.9567 21.9048) rotate(-95.3611) scale(111.918 31.8727)">
<stop stop-color="white" stop-opacity="0.28"/>
<stop offset="1" stop-color="white" stop-opacity="0"/>
</radialGradient>
<linearGradient id="paint3_linear_501_5206" x1="26.4896" y1="31.9441" x2="72.3906" y2="77.9038" gradientUnits="userSpaceOnUse">
<stop stop-color="#A259FF"/>
<stop offset="1" stop-color="#FF6250"/>
</linearGradient>
<clipPath id="clip0_501_5206">
<rect width="100" height="100" fill="white" transform="translate(0.5)"/>
</clipPath>
</defs>
</svg>
