<svg width="101" height="100" viewBox="0 0 101 100" fill="none" xmlns="http://www.w3.org/2000/svg">
<g clip-path="url(#clip0_586_5198)">
<g filter="url(#filter0_b_586_5198)">
<rect x="0.5" width="100" height="100" rx="20" fill="url(#paint0_linear_586_5198)" fill-opacity="0.6"/>
<rect x="1.5" y="1" width="98" height="98" rx="19" stroke="url(#paint1_radial_586_5198)" stroke-width="2"/>
<rect x="1.5" y="1" width="98" height="98" rx="19" stroke="url(#paint2_radial_586_5198)" stroke-width="2"/>
</g>
<path d="M71.8598 68.4932C65.3062 66.2286 60.6228 65.6657 56.6759 66.6725C55.5421 66.9621 54.4414 67.1084 53.407 67.1084H45.1851C44.034 67.1084 42.9522 67.5652 42.1385 68.3951C41.7664 68.7747 41.4715 69.2122 41.2586 69.6866L34.5584 65.4518C34.5411 65.4405 34.5237 65.4309 34.5064 65.4212C32.4422 64.2937 29.864 65.0883 28.757 67.192C28.5095 67.6617 28.4464 68.2037 28.5804 68.72C28.7223 69.2669 29.0771 69.7349 29.5597 70.0131L43.6539 79.3273C43.6713 79.3385 43.687 79.3482 43.7044 79.3595C45.5935 80.4419 47.7128 81 49.8527 81C50.69 81 51.5321 80.9148 52.3631 80.7411L58.8914 79.382C62.6507 78.5987 66.5047 78.2014 70.3428 78.2014H71.5539C72.0758 78.2014 72.5 77.7688 72.5 77.2364V69.4068C72.5016 68.9934 72.243 68.6267 71.8598 68.4932ZM70.6093 76.2714H70.3444C66.3785 76.2714 62.4 76.6815 58.5145 77.4905L51.9862 78.8496C49.4868 79.3707 46.885 78.959 44.6584 77.69L30.561 68.3742C30.5389 68.3597 30.5153 68.3453 30.4916 68.3324C30.4396 68.3034 30.4191 68.2584 30.4096 68.2262C30.4017 68.1973 30.3986 68.1523 30.4238 68.104C31.0325 66.9444 32.447 66.5021 33.587 67.1084L40.8849 71.7212C40.9338 72.1812 41.1325 72.6075 41.4589 72.9404C41.8358 73.3264 42.3372 73.5387 42.8702 73.5387H52.4246C52.9465 73.5387 53.3707 73.1061 53.3707 72.5737C53.3707 72.0413 52.9465 71.6087 52.4246 71.6087H42.8702C42.8434 71.6087 42.8182 71.5974 42.7992 71.5781C42.7851 71.5636 42.7661 71.5363 42.7661 71.4977C42.7661 71.4285 42.7693 71.361 42.774 71.2934C42.7756 71.2806 42.7756 71.2693 42.7772 71.2564C42.8324 70.6919 43.0736 70.1676 43.4726 69.7606C43.9299 69.2942 44.537 69.0385 45.1819 69.0385H53.4038C54.5928 69.0385 55.848 68.8728 57.1316 68.5447C60.5803 67.6649 64.7559 68.1458 70.6061 70.1032V76.2714H70.6093ZM29.4461 45.1685H37.8825C36.2394 49.0061 36.6178 53.6543 38.9185 57.4501C41.3785 61.508 45.6187 63.8354 50.5528 63.8354C59.3424 63.8354 64.0841 56.8325 64.0841 50.2429C64.0841 48.5976 63.7814 46.9715 63.2058 45.4982C63.7814 44.879 64.1078 44.0796 64.1078 43.2674C64.1078 42.7479 63.9958 42.2573 63.7971 41.8182C64.718 41.8166 65.5806 41.4499 66.2271 40.7889C66.8784 40.1246 67.2379 39.2416 67.2379 38.3023C67.2379 37.4643 66.9225 36.702 66.4085 36.1262C66.4526 36.0843 66.4999 36.0457 66.5425 36.0023C67.1685 35.3654 67.5139 34.5162 67.5139 33.6123C67.5139 32.525 67.0061 31.5584 66.2208 30.9391C66.7601 30.3022 67.0566 29.4996 67.0566 28.6488C67.0566 26.8313 65.5412 25.4079 63.6079 25.4079L59.7981 25.4063L61.293 20.2933C61.4081 19.9008 61.2662 19.4778 60.943 19.2366C60.6181 18.9953 60.1797 18.9905 59.8502 19.2221C59.0948 19.7528 56.8083 21.1312 55.3198 21.1312C54.5297 21.1312 53.9558 20.7114 53.2903 20.2273C52.5176 19.6644 51.6425 19.0259 50.3683 19.0259C49.0642 19.0259 48.1118 19.6933 47.2713 20.282C46.6185 20.7388 46.0555 21.1328 45.4579 21.1328C44.343 21.1328 42.1527 19.9249 41.0331 19.1626C40.7004 18.9358 40.2636 18.947 39.9419 19.1915C39.6202 19.436 39.4846 19.859 39.6029 20.2498L41.369 26.1092H29.4461C28.9242 26.1092 28.5 26.5418 28.5 27.0742V44.2035C28.5 44.7374 28.9242 45.1685 29.4461 45.1685ZM50.5528 61.9053C44.7152 61.9053 41.7664 58.4778 40.5285 56.4352C38.4896 53.0721 38.2152 48.7713 39.8268 45.4805C39.8363 45.4628 39.8442 45.4435 39.852 45.4258L39.9593 45.1685H41.7191C42.405 45.4548 44.7909 46.3506 48.2159 46.5887C47.5835 47.105 47.1562 47.8432 47.0742 48.6378C46.8235 51.0439 48.9523 51.6438 50.362 52.0411C51.9736 52.4963 52.4735 52.7568 52.4546 53.5095C52.4482 53.7588 52.3 54.0355 52.0666 54.2333C51.7497 54.5003 51.3381 54.6016 51.048 54.6386C50.0356 54.7705 48.9617 54.3137 48.3105 53.4758C47.9856 53.0576 47.3912 52.9884 46.9812 53.3198C46.5712 53.6511 46.5034 54.2574 46.8282 54.6756C47.5236 55.5699 48.4887 56.1859 49.5389 56.4481V57.7782C49.5389 58.3106 49.9631 58.7432 50.485 58.7432C51.007 58.7432 51.4311 58.3106 51.4311 57.7782V56.5301C52.1439 56.4143 52.7778 56.1376 53.2714 55.7211C53.9242 55.171 54.3263 54.362 54.3452 53.5578C54.402 51.179 52.2732 50.5791 50.865 50.1818C49.1226 49.6896 48.8908 49.4548 48.9554 48.842C48.9996 48.4222 49.3717 48.0057 49.8401 47.8497C50.7862 47.536 51.9626 48.0475 52.5161 49.0141C52.7794 49.4741 53.3597 49.6301 53.8107 49.3599C54.2617 49.0913 54.4131 48.4994 54.1497 48.0394C53.828 47.4781 53.3912 47.0069 52.8866 46.6466H56.6333H59.918H60.6197C60.9366 46.6466 61.252 46.5999 61.5564 46.5115C61.9711 47.6792 62.1919 48.9498 62.1919 50.2429C62.1919 55.8964 58.1124 61.9053 50.5528 61.9053ZM45.4563 23.0597C46.6421 23.0597 47.5441 22.4276 48.3404 21.8695C49.0437 21.3773 49.6493 20.9527 50.3667 20.9527C51.0338 20.9527 51.5431 21.3242 52.1865 21.7939C52.9592 22.3568 53.9195 23.0597 55.3166 23.0597C56.4614 23.0597 57.7466 22.5788 58.8 22.0593L57.8223 25.4047H56.6317C56.6207 25.4047 56.6112 25.4063 56.6018 25.4063H53.4653C53.4464 25.4063 53.4275 25.4063 53.4086 25.4079L43.3196 26.0191L42.1133 22.0207C43.1793 22.5563 44.4439 23.0597 45.4563 23.0597ZM30.3923 28.0344H41.9099C41.9288 28.0344 41.9461 28.0344 41.9651 28.0328L53.4953 27.3348H59.5584C59.56 27.3348 59.5616 27.3348 59.5632 27.3348L63.6079 27.3364C64.4957 27.3364 65.1643 27.8993 65.1643 28.6472C65.1643 29.0718 65.0034 29.4707 64.707 29.7715C64.4373 30.0465 64.0794 30.2105 63.7072 30.2314H59.7808C59.7808 30.2314 59.7808 30.2314 59.7792 30.2314C59.7461 30.2314 59.7146 30.2331 59.683 30.2363C59.672 30.2379 59.6609 30.2395 59.6499 30.2411C59.6294 30.2443 59.6089 30.2459 59.5884 30.2507C59.5758 30.254 59.5648 30.2572 59.5521 30.2604C59.5332 30.2652 59.5159 30.2684 59.4969 30.2749C59.4938 30.2765 59.4906 30.2781 59.4859 30.2781C59.4607 30.2861 59.4339 30.2958 59.4086 30.307C59.4055 30.3086 59.4023 30.3103 59.3992 30.3119C59.3739 30.3231 59.3487 30.3344 59.3251 30.3489C59.3219 30.3505 59.3188 30.3521 59.3156 30.3537C59.292 30.3666 59.2683 30.381 59.2462 30.3971C59.2446 30.3987 59.2431 30.4003 59.2415 30.4003C59.2178 30.4164 59.1958 30.4341 59.1737 30.4518C59.1705 30.455 59.1674 30.4582 59.1642 30.4598C59.1437 30.4775 59.1248 30.4952 59.1059 30.5145C59.1059 30.5145 59.1059 30.5145 59.1043 30.5161C59.0838 30.537 59.0633 30.5596 59.0444 30.5837C59.0255 30.6078 59.0065 30.6319 58.9908 30.6577C58.9892 30.6593 58.9876 30.6625 58.986 30.6641C58.9703 30.6882 58.9561 30.7124 58.9435 30.7365C58.9419 30.7397 58.9419 30.7413 58.9403 30.7445C58.9277 30.7703 58.9151 30.7944 58.904 30.8217C58.9025 30.8265 58.9009 30.8314 58.8993 30.8362C58.8898 30.8603 58.8804 30.8844 58.8725 30.9102C58.8693 30.9182 58.8693 30.9263 58.8662 30.9343C58.8599 30.9568 58.8536 30.9793 58.8488 31.0019C58.8457 31.0131 58.8457 31.026 58.8441 31.0389C58.841 31.0582 58.8378 31.0775 58.8347 31.0984C58.8331 31.1128 58.8331 31.1273 58.8331 31.1402C58.8315 31.1595 58.8299 31.1772 58.8299 31.1965C58.8299 31.2142 58.8315 31.2303 58.8331 31.2479C58.8347 31.264 58.8347 31.2785 58.8347 31.2946C58.8362 31.3139 58.8394 31.3332 58.8425 31.3525C58.8441 31.3654 58.8457 31.3782 58.8488 31.3911C58.8536 31.4104 58.8583 31.4297 58.863 31.449C58.8662 31.4602 58.8678 31.4715 58.8709 31.4828C58.8772 31.5021 58.8851 31.5214 58.8914 31.5407C58.8946 31.5503 58.8977 31.5616 58.9025 31.5712C58.9103 31.5889 58.9182 31.6066 58.9277 31.6243C58.9324 31.6356 58.9372 31.6452 58.9435 31.6565C58.9513 31.6726 58.9624 31.687 58.9718 31.7031C58.9781 31.7144 58.9845 31.7256 58.9908 31.7353C59.0002 31.7498 59.0113 31.7642 59.0223 31.7771C59.0302 31.7884 59.0381 31.7996 59.046 31.8093C59.0554 31.8221 59.068 31.8334 59.0775 31.8463C59.087 31.8575 59.0964 31.8688 59.1059 31.8784C59.1153 31.8881 59.1264 31.8977 59.1374 31.9074C59.15 31.9186 59.1611 31.9299 59.1737 31.9412C59.1831 31.9492 59.1926 31.9556 59.2021 31.9637C59.2163 31.9749 59.2304 31.9862 59.2462 31.9974C59.2541 32.0039 59.2636 32.0087 59.2715 32.0135C59.2888 32.0248 59.3061 32.0361 59.3235 32.0457C59.3314 32.0505 59.3408 32.0537 59.3503 32.0586C59.3692 32.0682 59.3881 32.0779 59.4071 32.0859C59.4149 32.0891 59.4244 32.0923 59.4323 32.0956C59.4528 32.1036 59.4733 32.1116 59.4938 32.1181C59.5033 32.1213 59.5111 32.1229 59.5206 32.1245C59.5411 32.1309 59.5632 32.1374 59.5837 32.1406C59.5963 32.1438 59.6073 32.1438 59.6199 32.147C59.6389 32.1502 59.6578 32.1535 59.6767 32.1567C59.6909 32.1583 59.7067 32.1583 59.7209 32.1583C59.7382 32.1599 59.7556 32.1615 59.7729 32.1615L63.6032 32.1647C63.6473 32.1647 63.6946 32.1631 63.7451 32.1615H64.1961C64.9798 32.1615 65.6169 32.8113 65.6169 33.6107C65.6169 33.9983 65.4686 34.3618 65.199 34.6368C64.9325 34.9102 64.5761 35.0598 64.1961 35.0598H64.0557H60.4021C59.8801 35.0598 59.4559 35.4925 59.4559 36.0248C59.4559 36.5572 59.8801 36.9899 60.4021 36.9899H64.0557C64.7638 36.9899 65.3409 37.5785 65.3409 38.3007C65.3409 38.7237 65.1785 39.1226 64.8836 39.425C64.5919 39.7241 64.2008 39.8882 63.7845 39.8882H60.8452H58.6675C58.1456 39.8882 57.7214 40.3208 57.7214 40.8532C57.7214 41.3856 58.1456 41.8182 58.6675 41.8182H60.8452C60.8799 41.8182 60.9161 41.8198 60.965 41.8247C61.6778 41.8842 62.2155 42.505 62.2155 43.2674C62.2155 43.7515 61.9206 44.0973 61.7456 44.2581C61.6809 44.3176 61.61 44.3739 61.5374 44.4238C61.2583 44.612 60.9319 44.7165 60.6197 44.7165H59.918H56.6333H49.8953C45.3885 44.7165 42.3293 43.3381 42.301 43.3253C42.178 43.269 42.0455 43.2384 41.9099 43.2384H39.3411C39.3364 43.2384 39.3301 43.2384 39.3254 43.2384H30.3923V28.0344Z" fill="url(#paint3_linear_586_5198)"/>
</g>
<defs>
<filter id="filter0_b_586_5198" x="-29.5" y="-30" width="160" height="160" filterUnits="userSpaceOnUse" color-interpolation-filters="sRGB">
<feFlood flood-opacity="0" result="BackgroundImageFix"/>
<feGaussianBlur in="BackgroundImageFix" stdDeviation="15"/>
<feComposite in2="SourceAlpha" operator="in" result="effect1_backgroundBlur_586_5198"/>
<feBlend mode="normal" in="SourceGraphic" in2="effect1_backgroundBlur_586_5198" result="shape"/>
</filter>
<linearGradient id="paint0_linear_586_5198" x1="50.5" y1="0" x2="50.5" y2="100" gradientUnits="userSpaceOnUse">
<stop stop-color="white" stop-opacity="0"/>
<stop offset="1" stop-color="white"/>
</linearGradient>
<radialGradient id="paint1_radial_586_5198" cx="0" cy="0" r="1" gradientUnits="userSpaceOnUse" gradientTransform="translate(83.1923 80.4762) rotate(77.5615) scale(108.255 45.9545)">
<stop stop-color="white" stop-opacity="0.57"/>
<stop offset="1" stop-color="white" stop-opacity="0"/>
</radialGradient>
<radialGradient id="paint2_radial_586_5198" cx="0" cy="0" r="1" gradientUnits="userSpaceOnUse" gradientTransform="translate(10.9567 21.9048) rotate(-95.3611) scale(111.918 31.8727)">
<stop stop-color="white" stop-opacity="0.28"/>
<stop offset="1" stop-color="white" stop-opacity="0"/>
</radialGradient>
<linearGradient id="paint3_linear_586_5198" x1="28.0524" y1="27.1268" x2="75.9662" y2="74.1025" gradientUnits="userSpaceOnUse">
<stop stop-color="#A259FF"/>
<stop offset="1" stop-color="#FF6250"/>
</linearGradient>
<clipPath id="clip0_586_5198">
<rect width="100" height="100" fill="white" transform="translate(0.5)"/>
</clipPath>
</defs>
</svg>
