<svg width="101" height="100" viewBox="0 0 101 100" fill="none" xmlns="http://www.w3.org/2000/svg">
<g clip-path="url(#clip0_322_23723)">
<g filter="url(#filter0_b_322_23723)">
<rect x="0.5" width="100" height="100" rx="20" fill="url(#paint0_linear_322_23723)" fill-opacity="0.6"/>
<rect x="1.5" y="1" width="98" height="98" rx="19" stroke="url(#paint1_radial_322_23723)" stroke-width="2"/>
<rect x="1.5" y="1" width="98" height="98" rx="19" stroke="url(#paint2_radial_322_23723)" stroke-width="2"/>
</g>
<path d="M73.5105 77.0609H72.4617L71.7954 73.8533C71.4458 72.1711 70.458 70.7217 69.0727 69.7667C70.4564 68.8117 71.4442 67.3638 71.7938 65.6849L72.4617 62.4773H73.5105C74.0564 62.4773 74.5 62.0426 74.5 61.5077C74.5 60.9729 74.0564 60.5382 73.5105 60.5382H71.6536H58.708H56.8511C56.3052 60.5382 55.8616 60.9729 55.8616 61.5077C55.8616 62.0426 56.3052 62.4773 56.8511 62.4773H57.8999L58.5678 65.6849C58.9174 67.3654 59.9069 68.8133 61.2905 69.7683C59.9086 70.7233 58.9207 72.1679 58.5711 73.8452L57.8983 77.0609H56.8511C56.3052 77.0609 55.8616 77.4956 55.8616 78.0305C55.8616 78.5653 56.3052 79 56.8511 79H71.652H73.5089C74.0547 79 74.4984 78.5653 74.4984 78.0305C74.4984 77.4956 74.058 77.0609 73.5105 77.0609ZM60.5121 74.2347C60.8651 72.546 62.1299 71.1903 63.8137 70.6958C64.2326 70.573 64.5195 70.1949 64.5195 69.7667C64.5195 69.3385 64.2326 68.9603 63.8137 68.8375C62.1283 68.343 60.8634 66.9857 60.5105 65.2954L59.9234 62.4757H70.4448L69.8577 65.2954C69.5065 66.9841 68.2416 68.3414 66.5562 68.8375C66.1373 68.9603 65.8504 69.3385 65.8504 69.7667C65.8504 70.1949 66.1373 70.573 66.5562 70.6958C68.2432 71.1919 69.5081 72.5493 69.8594 74.2411L70.4448 77.0609L59.9234 77.0544L60.5121 74.2347ZM52.7514 77.0609H29.4773V27.252H36.8505V31.3499C36.8505 31.8848 37.2941 32.3195 37.84 32.3195H56.546C57.0919 32.3195 57.5355 31.8848 57.5355 31.3499V27.252H64.9087V57.5423C64.9087 58.0771 65.3523 58.5118 65.8982 58.5118C66.444 58.5118 66.8876 58.0771 66.8876 57.5423V26.2824C66.8876 25.7476 66.444 25.3129 65.8982 25.3129H57.5355C57.5355 24.778 57.0919 24.3433 56.546 24.3433H52.3341V21.9695C52.3341 21.4347 51.8905 21 51.3447 21H43.043C42.4971 21 42.0535 21.4347 42.0535 21.9695V24.3433H37.8417C37.2958 24.3433 36.8522 24.778 36.8522 25.3129H28.4895C27.9436 25.3129 27.5 25.7476 27.5 26.2824V78.0305C27.5 78.5653 27.9436 79 28.4895 79H52.753C53.2989 79 53.7425 78.5653 53.7425 78.0305C53.7425 77.4956 53.2972 77.0609 52.7514 77.0609ZM38.8295 26.2921C38.8295 26.2889 38.8295 26.2857 38.8295 26.2824H55.5549C55.5549 26.2857 55.5549 26.2889 55.5549 26.2921V30.3804H38.8295V26.2921ZM59.8739 49.0539C59.8739 49.5887 59.4303 50.0234 58.8845 50.0234H40.0614C39.5155 50.0234 39.0719 49.5887 39.0719 49.0539C39.0719 48.519 39.5155 48.0843 40.0614 48.0843H58.8845C59.4303 48.0843 59.8739 48.519 59.8739 49.0539ZM59.8739 41.2215C59.8739 41.7564 59.4303 42.1911 58.8845 42.1911H40.0614C39.5155 42.1911 39.0719 41.7564 39.0719 41.2215C39.0719 40.6867 39.5155 40.252 40.0614 40.252H58.8845C59.4303 40.252 59.8739 40.6867 59.8739 41.2215ZM59.8739 56.8878C59.8739 57.4227 59.4303 57.8574 58.8845 57.8574H40.0614C39.5155 57.8574 39.0719 57.4227 39.0719 56.8878C39.0719 56.353 39.5155 55.9183 40.0614 55.9183H58.8845C59.4303 55.9183 59.8739 56.3513 59.8739 56.8878ZM53.8711 64.7202C53.8711 65.255 53.4275 65.6897 52.8817 65.6897H40.0614C39.5155 65.6897 39.0719 65.255 39.0719 64.7202C39.0719 64.1853 39.5155 63.7506 40.0614 63.7506H52.8817C53.4275 63.7506 53.8711 64.1837 53.8711 64.7202ZM36.4102 42.0731C35.9072 42.566 35.0926 42.566 34.5896 42.0731C34.0866 41.5803 34.0866 40.782 34.5896 40.2892C35.0926 39.7963 35.9072 39.7963 36.4102 40.2892C36.9132 40.782 36.9132 41.5803 36.4102 42.0731ZM36.4102 49.8505C35.9072 50.3434 35.0926 50.3434 34.5896 49.8505C34.0866 49.3577 34.0866 48.5594 34.5896 48.0666C35.0926 47.5737 35.9072 47.5737 36.4102 48.0666C36.9132 48.5594 36.9132 49.3577 36.4102 49.8505ZM36.4102 57.7475C35.9072 58.2404 35.0926 58.2404 34.5896 57.7475C34.0866 57.2546 34.0866 56.4564 34.5896 55.9635C35.0926 55.4707 35.9072 55.4707 36.4102 55.9635C36.9132 56.4564 36.9132 57.2546 36.4102 57.7475ZM36.4102 63.7409C36.9132 64.2338 36.9132 65.032 36.4102 65.5249C35.9072 66.0177 35.0926 66.0177 34.5896 65.5249C34.0866 65.032 34.0866 64.2338 34.5896 63.7409C35.0926 63.2481 35.9072 63.2481 36.4102 63.7409Z" fill="url(#paint3_linear_322_23723)"/>
</g>
<defs>
<filter id="filter0_b_322_23723" x="-29.5" y="-30" width="160" height="160" filterUnits="userSpaceOnUse" color-interpolation-filters="sRGB">
<feFlood flood-opacity="0" result="BackgroundImageFix"/>
<feGaussianBlur in="BackgroundImageFix" stdDeviation="15"/>
<feComposite in2="SourceAlpha" operator="in" result="effect1_backgroundBlur_322_23723"/>
<feBlend mode="normal" in="SourceGraphic" in2="effect1_backgroundBlur_322_23723" result="shape"/>
</filter>
<linearGradient id="paint0_linear_322_23723" x1="50.5" y1="0" x2="50.5" y2="100" gradientUnits="userSpaceOnUse">
<stop stop-color="white" stop-opacity="0"/>
<stop offset="1" stop-color="white"/>
</linearGradient>
<radialGradient id="paint1_radial_322_23723" cx="0" cy="0" r="1" gradientUnits="userSpaceOnUse" gradientTransform="translate(83.1923 80.4762) rotate(77.5615) scale(108.255 45.9545)">
<stop stop-color="white" stop-opacity="0.57"/>
<stop offset="1" stop-color="white" stop-opacity="0"/>
</radialGradient>
<radialGradient id="paint2_radial_322_23723" cx="0" cy="0" r="1" gradientUnits="userSpaceOnUse" gradientTransform="translate(10.9567 21.9048) rotate(-95.3611) scale(111.918 31.8727)">
<stop stop-color="white" stop-opacity="0.28"/>
<stop offset="1" stop-color="white" stop-opacity="0"/>
</radialGradient>
<linearGradient id="paint3_linear_322_23723" x1="23.9374" y1="29.3706" x2="73.2304" y2="79.6765" gradientUnits="userSpaceOnUse">
<stop stop-color="#A259FF"/>
<stop offset="1" stop-color="#FF6250"/>
</linearGradient>
<clipPath id="clip0_322_23723">
<rect width="100" height="100" fill="white" transform="translate(0.5)"/>
</clipPath>
</defs>
</svg>
