<svg width="101" height="100" viewBox="0 0 101 100" fill="none" xmlns="http://www.w3.org/2000/svg">
<g clip-path="url(#clip0_501_5210)">
<g filter="url(#filter0_b_501_5210)">
<rect x="0.5" width="100" height="100" rx="20" fill="url(#paint0_linear_501_5210)" fill-opacity="0.6"/>
<rect x="1.5" y="1" width="98" height="98" rx="19" stroke="url(#paint1_radial_501_5210)" stroke-width="2"/>
<rect x="1.5" y="1" width="98" height="98" rx="19" stroke="url(#paint2_radial_501_5210)" stroke-width="2"/>
</g>
<path d="M42.7885 44.3613H63.4407C63.9814 44.3613 64.417 43.9227 64.417 43.3782C64.417 42.8336 63.9814 42.395 63.4407 42.395H42.7885C42.2478 42.395 41.8123 42.8336 41.8123 43.3782C41.8123 43.9227 42.2478 44.3613 42.7885 44.3613ZM63.4407 50.2454H42.7885C42.2478 50.2454 41.8123 50.684 41.8123 51.2286C41.8123 51.7731 42.2478 52.2118 42.7885 52.2118H63.4407C63.9814 52.2118 64.417 51.7731 64.417 51.2286C64.402 50.684 63.9814 50.2454 63.4407 50.2454ZM63.4407 58.0807H42.7885C42.2478 58.0807 41.8123 58.5193 41.8123 59.0639C41.8123 59.6084 42.2478 60.0471 42.7885 60.0471H63.4407C63.9814 60.0471 64.417 59.6084 64.417 59.0639C64.417 58.5193 63.9814 58.0807 63.4407 58.0807ZM63.4407 65.916H42.7885C42.2478 65.916 41.8123 66.3546 41.8123 66.8992C41.8123 67.4437 42.2478 67.8824 42.7885 67.8824H63.4407C63.9814 67.8824 64.417 67.4437 64.417 66.8992C64.417 66.3546 63.9814 65.916 63.4407 65.916ZM42.7885 44.3613H63.4407C63.9814 44.3613 64.417 43.9227 64.417 43.3782C64.417 42.8336 63.9814 42.395 63.4407 42.395H42.7885C42.2478 42.395 41.8123 42.8336 41.8123 43.3782C41.8123 43.9227 42.2478 44.3613 42.7885 44.3613ZM63.4407 50.2454H42.7885C42.2478 50.2454 41.8123 50.684 41.8123 51.2286C41.8123 51.7731 42.2478 52.2118 42.7885 52.2118H63.4407C63.9814 52.2118 64.417 51.7731 64.417 51.2286C64.402 50.684 63.9814 50.2454 63.4407 50.2454ZM63.4407 58.0807H42.7885C42.2478 58.0807 41.8123 58.5193 41.8123 59.0639C41.8123 59.6084 42.2478 60.0471 42.7885 60.0471H63.4407C63.9814 60.0471 64.417 59.6084 64.417 59.0639C64.417 58.5193 63.9814 58.0807 63.4407 58.0807ZM63.4407 65.916H42.7885C42.2478 65.916 41.8123 66.3546 41.8123 66.8992C41.8123 67.4437 42.2478 67.8824 42.7885 67.8824H63.4407C63.9814 67.8824 64.417 67.4437 64.417 66.8992C64.417 66.3546 63.9814 65.916 63.4407 65.916ZM63.4407 42.4101H42.7885C42.2478 42.4101 41.8123 42.8487 41.8123 43.3933C41.8123 43.9378 42.2478 44.3765 42.7885 44.3765H63.4407C63.9814 44.3765 64.417 43.9378 64.417 43.3933C64.402 42.8487 63.9814 42.4101 63.4407 42.4101ZM63.4407 50.2454H42.7885C42.2478 50.2454 41.8123 50.684 41.8123 51.2286C41.8123 51.7731 42.2478 52.2118 42.7885 52.2118H63.4407C63.9814 52.2118 64.417 51.7731 64.417 51.2286C64.402 50.684 63.9814 50.2454 63.4407 50.2454ZM63.4407 58.0807H42.7885C42.2478 58.0807 41.8123 58.5193 41.8123 59.0639C41.8123 59.6084 42.2478 60.0471 42.7885 60.0471H63.4407C63.9814 60.0471 64.417 59.6084 64.417 59.0639C64.417 58.5193 63.9814 58.0807 63.4407 58.0807ZM63.4407 65.916H42.7885C42.2478 65.916 41.8123 66.3546 41.8123 66.8992C41.8123 67.4437 42.2478 67.8824 42.7885 67.8824H63.4407C63.9814 67.8824 64.417 67.4437 64.417 66.8992C64.417 66.3546 63.9814 65.916 63.4407 65.916ZM70.1996 37.6151L66.0541 33.4403V25.9832C66.0541 25.4387 65.6186 25 65.0779 25H33.4763C32.9356 25 32.5 25.4387 32.5 25.9832V74.1143C32.5 74.6437 32.9206 75.0824 33.4613 75.0975L36.3451 75.158V78.0168C36.3451 78.5613 36.7806 79 37.3213 79H69.5237C70.0644 79 70.5 78.5613 70.5 78.0168V38.3109C70.485 38.0538 70.3798 37.7966 70.1996 37.6151ZM36.3451 29.3261V73.1765L34.4526 73.1462V26.9513H64.1166V31.4739L61.2779 28.6454C61.0976 28.4639 60.8423 28.358 60.587 28.358H37.3063C36.7806 28.358 36.3451 28.7966 36.3451 29.3261ZM68.5324 77.0185H38.2976V30.3092H59.7008V37.9782C59.7008 38.5227 60.1364 38.9613 60.6771 38.9613H68.5625L68.5324 77.0185Z" fill="url(#paint3_linear_501_5210)"/>
</g>
<defs>
<filter id="filter0_b_501_5210" x="-29.5" y="-30" width="160" height="160" filterUnits="userSpaceOnUse" color-interpolation-filters="sRGB">
<feFlood flood-opacity="0" result="BackgroundImageFix"/>
<feGaussianBlur in="BackgroundImageFix" stdDeviation="15"/>
<feComposite in2="SourceAlpha" operator="in" result="effect1_backgroundBlur_501_5210"/>
<feBlend mode="normal" in="SourceGraphic" in2="effect1_backgroundBlur_501_5210" result="shape"/>
</filter>
<linearGradient id="paint0_linear_501_5210" x1="50.5" y1="0" x2="50.5" y2="100" gradientUnits="userSpaceOnUse">
<stop stop-color="white" stop-opacity="0"/>
<stop offset="1" stop-color="white"/>
</linearGradient>
<radialGradient id="paint1_radial_501_5210" cx="0" cy="0" r="1" gradientUnits="userSpaceOnUse" gradientTransform="translate(83.1923 80.4762) rotate(77.5615) scale(108.255 45.9545)">
<stop stop-color="white" stop-opacity="0.57"/>
<stop offset="1" stop-color="white" stop-opacity="0"/>
</radialGradient>
<radialGradient id="paint2_radial_501_5210" cx="0" cy="0" r="1" gradientUnits="userSpaceOnUse" gradientTransform="translate(10.9567 21.9048) rotate(-95.3611) scale(111.918 31.8727)">
<stop stop-color="white" stop-opacity="0.28"/>
<stop offset="1" stop-color="white" stop-opacity="0"/>
</radialGradient>
<linearGradient id="paint3_linear_501_5210" x1="28.7364" y1="29.3648" x2="74.2783" y2="74.5867" gradientUnits="userSpaceOnUse">
<stop stop-color="#A259FF"/>
<stop offset="1" stop-color="#FF6250"/>
</linearGradient>
<clipPath id="clip0_501_5210">
<rect width="100" height="100" fill="white" transform="translate(0.5)"/>
</clipPath>
</defs>
</svg>
