<svg width="19" height="19" viewBox="0 0 19 19" fill="none" xmlns="http://www.w3.org/2000/svg">
<g clip-path="url(#clip0_506_16630)">
<path d="M3.85156 3.09521H15.8516C16.2494 3.09521 16.6309 3.25325 16.9122 3.53455C17.1935 3.81586 17.3516 4.19739 17.3516 4.59521V9.09521C17.3516 11.0843 16.5614 12.992 15.1549 14.3985C13.7483 15.805 11.8407 16.5952 9.85156 16.5952C8.86665 16.5952 7.89138 16.4012 6.98144 16.0243C6.07149 15.6474 5.2447 15.095 4.54826 14.3985C3.14174 12.992 2.35156 11.0843 2.35156 9.09521V4.59521C2.35156 4.19739 2.5096 3.81586 2.7909 3.53455C3.07221 3.25325 3.45374 3.09521 3.85156 3.09521Z" stroke="white" stroke-width="2" stroke-linecap="round" stroke-linejoin="round"/>
<path d="M6.85156 8.34521L9.85156 11.3452L12.8516 8.34521" stroke="white" stroke-width="2" stroke-linecap="round" stroke-linejoin="round"/>
</g>
<defs>
<clipPath id="clip0_506_16630">
<rect width="18" height="18" fill="white" transform="translate(0.851562 0.845215)"/>
</clipPath>
</defs>
</svg>
