<svg width="158" height="158" viewBox="0 0 158 158" fill="none" xmlns="http://www.w3.org/2000/svg">
<g clip-path="url(#clip0_501_8859)">
<path d="M18.0137 102.152C18.0137 98.0168 21.3873 94.6648 25.5488 94.6648H32.4501C36.6116 94.6648 39.9852 98.0168 39.9852 102.152C39.9852 106.287 36.6116 109.639 32.4501 109.639H25.5488C21.3873 109.639 18.0137 106.287 18.0137 102.152Z" fill="#B56DEF"/>
<path d="M22.3438 93.7916C22.3438 90.1388 25.3238 87.1777 28.9999 87.1777C32.6761 87.1777 35.6561 90.1388 35.6561 93.7916V95.538C35.6561 99.1907 32.6761 102.152 28.9999 102.152C25.3238 102.152 22.3438 99.1907 22.3438 95.538V93.7916Z" fill="#B56DEF"/>
<path d="M18.0137 113.969C18.0137 109.834 21.3873 106.482 25.5488 106.482H32.4501C36.6116 106.482 39.9852 109.834 39.9852 113.969C39.9852 118.104 36.6116 121.456 32.4501 121.456H25.5488C21.3873 121.456 18.0137 118.104 18.0137 113.969Z" fill="#B56DEF"/>
<path fill-rule="evenodd" clip-rule="evenodd" d="M28.9994 94.6648H25.5488C21.3873 94.6648 18.0137 98.0168 18.0137 102.152C18.0137 106.287 21.3873 109.639 25.5489 109.639H28.9994V94.6648Z" fill="#CA8FFA"/>
<path fill-rule="evenodd" clip-rule="evenodd" d="M28.9999 87.1777C25.3238 87.1778 22.3438 90.1389 22.3438 93.7916V95.538C22.3438 99.1907 25.3238 102.152 28.9999 102.152V87.1777Z" fill="#CA8FFA"/>
<path fill-rule="evenodd" clip-rule="evenodd" d="M28.9994 106.482H25.5488C21.3873 106.482 18.0137 109.834 18.0137 113.969C18.0137 118.104 21.3873 121.456 25.5489 121.456H28.9994V106.482Z" fill="#CA8FFA"/>
<path fill-rule="evenodd" clip-rule="evenodd" d="M28.7428 101.381C29.3246 101.381 29.7962 101.85 29.7962 102.428V129.835C29.7962 130.413 29.3246 130.882 28.7429 130.882C28.1611 130.882 27.6895 130.413 27.6895 129.835V102.428C27.6895 101.85 28.1611 101.381 28.7428 101.381Z" fill="#7521CE"/>
<path fill-rule="evenodd" clip-rule="evenodd" d="M24.1125 107.929C24.5146 107.512 25.1814 107.497 25.6018 107.897L29.3225 111.433C29.7429 111.833 29.7577 112.495 29.3555 112.913C28.9534 113.331 28.2866 113.345 27.8662 112.946L24.1455 109.409C23.7252 109.01 23.7104 108.347 24.1125 107.929Z" fill="#7521CE"/>
<path fill-rule="evenodd" clip-rule="evenodd" d="M34.0298 112.547C33.6363 112.122 32.97 112.093 32.5414 112.484L28.2871 116.367C27.8587 116.758 27.8303 117.42 28.2238 117.845C28.6173 118.271 29.2837 118.299 29.7121 117.908L33.9664 114.026C34.3949 113.635 34.4233 112.973 34.0298 112.547Z" fill="#7521CE"/>
<path d="M0.646484 135.318C0.646484 132.71 2.77471 130.595 5.40001 130.595H152.583C155.208 130.595 157.336 132.71 157.336 135.318C157.336 137.927 155.208 140.041 152.583 140.041H5.40001C2.77471 140.041 0.646484 137.927 0.646484 135.318Z" fill="#E0E4ED"/>
<path d="M66.3936 19.9381V0.958618H67.5762V19.9381H66.3936Z" fill="#DCB9FF"/>
<path d="M48.0654 27.5918H85.9066V130.595H48.0654V27.5918Z" fill="url(#paint0_linear_501_8859)"/>
<path d="M45.9883 25.3801H88.0241V27.5914H45.9883V25.3801Z" fill="#9F55FB"/>
<path d="M47.5479 23.2036H86.4237V25.3805H47.5479V23.2036Z" fill="#C791FF"/>
<path d="M51.9199 21.0266H82.4826V23.2035H51.9199V21.0266Z" fill="#9F55FB"/>
<path d="M57.4346 18.8496H76.5357V21.0265H57.4346V18.8496Z" fill="#C790FF"/>
<path d="M65.5293 18.8498V17.0166H68.4847V18.8498H65.5293Z" fill="#7C29E3"/>
<path d="M49.0342 29.1875H56.2027V31.0999H49.0342V29.1875Z" fill="#FBFCFE"/>
<path d="M49.0342 39.9326H56.2027V41.8451H49.0342V39.9326Z" fill="#FBFCFE"/>
<path d="M49.0342 50.7878H56.2027V52.7003H49.0342V50.7878Z" fill="#FBFCFE"/>
<path d="M49.0342 61.6433H56.2027V63.5557H49.0342V61.6433Z" fill="#FBFCFE"/>
<path d="M49.0342 72.4983H56.2027V74.4108H49.0342V72.4983Z" fill="#FBFCFE"/>
<path d="M49.0342 83.3538H56.2027V85.2663H49.0342V83.3538Z" fill="#FBFCFE"/>
<path d="M49.0342 94.209H56.2027V96.1215H49.0342V94.209Z" fill="#FBFCFE"/>
<path d="M49.0342 105.064H56.2027V106.977H49.0342V105.064Z" fill="#FBFCFE"/>
<path d="M49.0342 115.92H56.2027V117.832H49.0342V115.92Z" fill="#FBFCFE"/>
<path d="M49.0342 32.8059H56.2027V34.7183H49.0342V32.8059Z" fill="#FBFCFE"/>
<path d="M49.0342 43.551H56.2027V45.4635H49.0342V43.551Z" fill="#FBFCFE"/>
<path d="M49.0342 54.4065H56.2027V56.3189H49.0342V54.4065Z" fill="#FBFCFE"/>
<path d="M49.0342 65.2617H56.2027V67.1742H49.0342V65.2617Z" fill="#FBFCFE"/>
<path d="M49.0342 76.1167H56.2027V78.0292H49.0342V76.1167Z" fill="#FBFCFE"/>
<path d="M49.0342 86.9722H56.2027V88.8846H49.0342V86.9722Z" fill="#FBFCFE"/>
<path d="M49.0342 97.8274H56.2027V99.7399H49.0342V97.8274Z" fill="#FBFCFE"/>
<path d="M49.0342 108.683H56.2027V110.595H49.0342V108.683Z" fill="#FBFCFE"/>
<path d="M49.0342 119.538H56.2027V121.45H49.0342V119.538Z" fill="#FBFCFE"/>
<path d="M49.0342 36.4243H56.2027V38.3368H49.0342V36.4243Z" fill="#FBFCFE"/>
<path d="M49.0342 47.1694H56.2027V49.0819H49.0342V47.1694Z" fill="#FBFCFE"/>
<path d="M49.0342 58.0249H56.2027V59.9373H49.0342V58.0249Z" fill="#FBFCFE"/>
<path d="M49.0342 68.8799H56.2027V70.7924H49.0342V68.8799Z" fill="#FBFCFE"/>
<path d="M49.0342 79.7351H56.2027V81.6476H49.0342V79.7351Z" fill="#FBFCFE"/>
<path d="M49.0342 90.5906H56.2027V92.503H49.0342V90.5906Z" fill="#FBFCFE"/>
<path d="M49.0342 101.446H56.2027V103.358H49.0342V101.446Z" fill="#FBFCFE"/>
<path d="M49.0342 112.301H56.2027V114.214H49.0342V112.301Z" fill="#FBFCFE"/>
<path d="M49.0342 123.156H56.2027V125.069H49.0342V123.156Z" fill="#FBFCFE"/>
<path d="M71.5215 29.1875H84.7717V31.0999H71.5215V29.1875Z" fill="#FBFCFE"/>
<path d="M71.5215 39.9326H84.7717V41.8451H71.5215V39.9326Z" fill="#FBFCFE"/>
<path d="M71.5215 50.7878H84.7717V52.7003H71.5215V50.7878Z" fill="#FBFCFE"/>
<path d="M71.5215 61.6433H84.7717V63.5557H71.5215V61.6433Z" fill="#FBFCFE"/>
<path d="M71.5215 72.4983H84.7717V74.4108H71.5215V72.4983Z" fill="#FBFCFE"/>
<path d="M71.5215 83.3538H84.7717V85.2663H71.5215V83.3538Z" fill="#FBFCFE"/>
<path d="M71.5215 94.209H84.7717V96.1215H71.5215V94.209Z" fill="#FBFCFE"/>
<path d="M71.5215 105.064H84.7717V106.977H71.5215V105.064Z" fill="#FBFCFE"/>
<path d="M71.5215 115.92H84.7717V117.832H71.5215V115.92Z" fill="#FBFCFE"/>
<path d="M71.5215 32.8059H84.7717V34.7183H71.5215V32.8059Z" fill="#FBFCFE"/>
<path d="M71.5215 43.551H84.7717V45.4635H71.5215V43.551Z" fill="#FBFCFE"/>
<path d="M71.5215 54.4065H84.7717V56.3189H71.5215V54.4065Z" fill="#FBFCFE"/>
<path d="M71.5215 65.2617H84.7717V67.1742H71.5215V65.2617Z" fill="#FBFCFE"/>
<path d="M71.5215 76.1167H84.7717V78.0292H71.5215V76.1167Z" fill="#FBFCFE"/>
<path d="M71.5215 86.9722H84.7717V88.8846H71.5215V86.9722Z" fill="#FBFCFE"/>
<path d="M71.5215 97.8274H84.7717V99.7399H71.5215V97.8274Z" fill="#FBFCFE"/>
<path d="M71.5215 108.683H84.7717V110.595H71.5215V108.683Z" fill="#FBFCFE"/>
<path d="M71.5215 119.538H84.7717V121.45H71.5215V119.538Z" fill="#FBFCFE"/>
<path d="M71.5215 36.4243H84.7717V38.3368H71.5215V36.4243Z" fill="#FBFCFE"/>
<path d="M71.5215 47.1694H84.7717V49.0819H71.5215V47.1694Z" fill="#FBFCFE"/>
<path d="M71.5215 58.0249H84.7717V59.9373H71.5215V58.0249Z" fill="#FBFCFE"/>
<path d="M71.5215 68.8799H84.7717V70.7924H71.5215V68.8799Z" fill="#FBFCFE"/>
<path d="M71.5215 79.7351H84.7717V81.6476H71.5215V79.7351Z" fill="#FBFCFE"/>
<path d="M71.5215 90.5906H84.7717V92.503H71.5215V90.5906Z" fill="#FBFCFE"/>
<path d="M71.5215 101.446H84.7717V103.358H71.5215V101.446Z" fill="#FBFCFE"/>
<path d="M71.5215 112.301H84.7717V114.214H71.5215V112.301Z" fill="#FBFCFE"/>
<path d="M71.5215 123.156H84.7717V125.069H71.5215V123.156Z" fill="#FBFCFE"/>
<path d="M58.3633 29.1875H61.7587V31.0999H58.3633V29.1875Z" fill="#FBFCFE"/>
<path d="M58.3633 39.9326H61.7587V41.8451H58.3633V39.9326Z" fill="#FBFCFE"/>
<path d="M58.3633 50.7878H61.7587V52.7003H58.3633V50.7878Z" fill="#FBFCFE"/>
<path d="M58.3633 61.6433H61.7587V63.5557H58.3633V61.6433Z" fill="#FBFCFE"/>
<path d="M58.3633 72.4983H61.7587V74.4108H58.3633V72.4983Z" fill="#FBFCFE"/>
<path d="M58.3633 83.3538H61.7587V85.2663H58.3633V83.3538Z" fill="#FBFCFE"/>
<path d="M58.3633 94.209H61.7587V96.1215H58.3633V94.209Z" fill="#FBFCFE"/>
<path d="M58.3633 105.064H61.7587V106.977H58.3633V105.064Z" fill="#FBFCFE"/>
<path d="M58.3633 115.92H61.7587V117.832H58.3633V115.92Z" fill="#FBFCFE"/>
<path d="M58.3633 32.8059H61.7587V34.7183H58.3633V32.8059Z" fill="#FBFCFE"/>
<path d="M58.3633 43.551H61.7587V45.4635H58.3633V43.551Z" fill="#FBFCFE"/>
<path d="M58.3633 54.4065H61.7587V56.3189H58.3633V54.4065Z" fill="#FBFCFE"/>
<path d="M58.3633 65.2617H61.7587V67.1742H58.3633V65.2617Z" fill="#FBFCFE"/>
<path d="M58.3633 76.1167H61.7587V78.0292H58.3633V76.1167Z" fill="#FBFCFE"/>
<path d="M58.3633 86.9722H61.7587V88.8846H58.3633V86.9722Z" fill="#FBFCFE"/>
<path d="M58.3633 97.8274H61.7587V99.7399H58.3633V97.8274Z" fill="#FBFCFE"/>
<path d="M58.3633 108.683H61.7587V110.595H58.3633V108.683Z" fill="#FBFCFE"/>
<path d="M58.3633 119.538H61.7587V121.45H58.3633V119.538Z" fill="#FBFCFE"/>
<path d="M58.3633 36.4243H61.7587V38.3368H58.3633V36.4243Z" fill="#FBFCFE"/>
<path d="M58.3633 47.1694H61.7587V49.0819H58.3633V47.1694Z" fill="#FBFCFE"/>
<path d="M58.3633 58.0249H61.7587V59.9373H58.3633V58.0249Z" fill="#FBFCFE"/>
<path d="M58.3633 68.8799H61.7587V70.7924H58.3633V68.8799Z" fill="#FBFCFE"/>
<path d="M58.3633 79.7351H61.7587V81.6476H58.3633V79.7351Z" fill="#FBFCFE"/>
<path d="M58.3633 90.5906H61.7587V92.503H58.3633V90.5906Z" fill="#FBFCFE"/>
<path d="M58.3633 101.446H61.7587V103.358H58.3633V101.446Z" fill="#FBFCFE"/>
<path d="M58.3633 112.301H61.7587V114.214H58.3633V112.301Z" fill="#FBFCFE"/>
<path d="M58.3633 123.156H61.7587V125.069H58.3633V123.156Z" fill="#FBFCFE"/>
<path d="M65.7871 29.1875H69.1825V31.0999H65.7871V29.1875Z" fill="#FBFCFE"/>
<path d="M65.7871 39.9326H69.1825V41.8451H65.7871V39.9326Z" fill="#FBFCFE"/>
<path d="M65.7871 50.7878H69.1825V52.7003H65.7871V50.7878Z" fill="#FBFCFE"/>
<path d="M65.7871 61.6433H69.1825V63.5557H65.7871V61.6433Z" fill="#FBFCFE"/>
<path d="M65.7871 72.4983H69.1825V74.4108H65.7871V72.4983Z" fill="#FBFCFE"/>
<path d="M65.7871 83.3538H69.1825V85.2663H65.7871V83.3538Z" fill="#FBFCFE"/>
<path d="M65.7871 94.209H69.1825V96.1215H65.7871V94.209Z" fill="#FBFCFE"/>
<path d="M65.7871 105.064H69.1825V106.977H65.7871V105.064Z" fill="#FBFCFE"/>
<path d="M65.7871 115.92H69.1825V117.832H65.7871V115.92Z" fill="#FBFCFE"/>
<path d="M65.7871 32.8059H69.1825V34.7183H65.7871V32.8059Z" fill="#FBFCFE"/>
<path d="M65.7871 43.551H69.1825V45.4635H65.7871V43.551Z" fill="#FBFCFE"/>
<path d="M65.7871 54.4065H69.1825V56.3189H65.7871V54.4065Z" fill="#FBFCFE"/>
<path d="M65.7871 65.2617H69.1825V67.1742H65.7871V65.2617Z" fill="#FBFCFE"/>
<path d="M65.7871 76.1167H69.1825V78.0292H65.7871V76.1167Z" fill="#FBFCFE"/>
<path d="M65.7871 86.9722H69.1825V88.8846H65.7871V86.9722Z" fill="#FBFCFE"/>
<path d="M65.7871 97.8274H69.1825V99.7399H65.7871V97.8274Z" fill="#FBFCFE"/>
<path d="M65.7871 108.683H69.1825V110.595H65.7871V108.683Z" fill="#FBFCFE"/>
<path d="M65.7871 119.538H69.1825V121.45H65.7871V119.538Z" fill="#FBFCFE"/>
<path d="M65.7871 36.4243H69.1825V38.3368H65.7871V36.4243Z" fill="#FBFCFE"/>
<path d="M65.7871 47.1694H69.1825V49.0819H65.7871V47.1694Z" fill="#FBFCFE"/>
<path d="M65.7871 58.0249H69.1825V59.9373H65.7871V58.0249Z" fill="#FBFCFE"/>
<path d="M65.7871 68.8799H69.1825V70.7924H65.7871V68.8799Z" fill="#FBFCFE"/>
<path d="M65.7871 79.7351H69.1825V81.6476H65.7871V79.7351Z" fill="#FBFCFE"/>
<path d="M65.7871 90.5906H69.1825V92.503H65.7871V90.5906Z" fill="#FBFCFE"/>
<path d="M65.7871 101.446H69.1825V103.358H65.7871V101.446Z" fill="#FBFCFE"/>
<path d="M65.7871 112.301H69.1825V114.214H65.7871V112.301Z" fill="#FBFCFE"/>
<path d="M65.7871 123.156H69.1825V125.069H65.7871V123.156Z" fill="#FBFCFE"/>
<path d="M79.9941 58.3545V130.595H106.549V74.531L79.9941 58.3545Z" fill="#FF7668"/>
<path d="M80.0233 55.5283L109.186 73.2556L107.871 75.3919L78.708 57.6646L80.0233 55.5283Z" fill="#EC5546"/>
<path d="M83.333 77.4028H87.4439V81.3812H83.333V77.4028Z" fill="#FBFCFE"/>
<path d="M83.333 96.926H87.4439V100.905H83.333V96.926Z" fill="#FBFCFE"/>
<path d="M83.333 83.8191H87.4439V87.7975H83.333V83.8191Z" fill="#FBFCFE"/>
<path d="M83.333 103.342H87.4439V107.321H83.333V103.342Z" fill="#FBFCFE"/>
<path d="M83.333 90.4673H87.4439V94.4457H83.333V90.4673Z" fill="#FBFCFE"/>
<path d="M83.333 109.991H87.4439V113.969H83.333V109.991Z" fill="#FBFCFE"/>
<path d="M83.333 116.639H87.4439V120.617H83.333V116.639Z" fill="#FBFCFE"/>
<path d="M91.2129 77.4028H95.3238V81.3812H91.2129V77.4028Z" fill="#FBFCFE"/>
<path d="M91.2129 96.926H95.3238V100.905H91.2129V96.926Z" fill="#FBFCFE"/>
<path d="M91.2129 83.8191H95.3238V87.7975H91.2129V83.8191Z" fill="#FBFCFE"/>
<path d="M91.2129 103.342H95.3238V107.321H91.2129V103.342Z" fill="#FBFCFE"/>
<path d="M91.2129 90.4673H95.3238V94.4457H91.2129V90.4673Z" fill="#FBFCFE"/>
<path d="M91.2129 109.991H95.3238V113.969H91.2129V109.991Z" fill="#FBFCFE"/>
<path d="M91.2129 116.639H95.3238V120.617H91.2129V116.639Z" fill="#FBFCFE"/>
<path d="M99.0234 77.4028H103.135V81.3812H99.0234V77.4028Z" fill="#FBFCFE"/>
<path d="M99.0234 96.926H103.135V100.905H99.0234V96.926Z" fill="#FBFCFE"/>
<path d="M99.0234 83.8191H103.135V87.7975H99.0234V83.8191Z" fill="#FBFCFE"/>
<path d="M99.0234 103.342H103.135V107.321H99.0234V103.342Z" fill="#FBFCFE"/>
<path d="M99.0234 90.4673H103.135V94.4457H99.0234V90.4673Z" fill="#FBFCFE"/>
<path d="M99.0234 109.991H103.135V113.969H99.0234V109.991Z" fill="#FBFCFE"/>
<path d="M99.0234 116.639H103.135V120.617H99.0234V116.639Z" fill="#FBFCFE"/>
</g>
<defs>
<linearGradient id="paint0_linear_501_8859" x1="50.5952" y1="79.0933" x2="83.2578" y2="79.0933" gradientUnits="userSpaceOnUse">
<stop stop-color="#AE6DFF"/>
<stop offset="1" stop-color="#FF7668"/>
</linearGradient>
<clipPath id="clip0_501_8859">
<rect width="157" height="157" fill="white" transform="translate(0.5 0.5)"/>
</clipPath>
</defs>
</svg>
