<svg width="158" height="158" viewBox="0 0 158 158" fill="none" xmlns="http://www.w3.org/2000/svg">
<g clip-path="url(#clip0_501_9037)">
<path d="M0.664062 135.687C0.664062 133.078 2.76535 130.964 5.35742 130.964H150.677C153.269 130.964 155.371 133.078 155.371 135.687C155.371 138.295 153.269 140.41 150.677 140.41H5.35741C2.76534 140.41 0.664062 138.295 0.664062 135.687Z" fill="#E0E4ED"/>
<path d="M57.6494 27.3512C57.6494 26.2157 58.5642 25.2952 59.6925 25.2952H104.621C105.749 25.2952 106.664 26.2157 106.664 27.3512V59.4296C106.664 60.5651 105.749 61.4857 104.621 61.4857H59.6925C58.5642 61.4857 57.6494 60.5651 57.6494 59.4296V27.3512Z" fill="#B063FD"/>
<path d="M14.8232 130.219C14.8232 128.805 15.9623 127.658 17.3674 127.658H26.0639C27.469 127.658 28.6081 128.805 28.6081 130.219V132.88C28.6081 134.294 27.469 135.441 26.0639 135.441H17.3674C15.9623 135.441 14.8232 134.294 14.8232 132.88V130.219Z" fill="#A455F2"/>
<path d="M103.946 130.219C103.946 128.805 105.086 127.658 106.491 127.658H115.188C116.593 127.658 117.731 128.805 117.731 130.219V132.88C117.731 134.294 116.593 135.441 115.188 135.441H106.491C105.086 135.441 103.946 134.294 103.946 132.88V130.219Z" fill="#A455F2"/>
<path d="M17.5088 81.3731C17.5088 74.6562 22.9194 69.2111 29.5938 69.2111H103.626C110.3 69.2111 115.711 74.6562 115.711 81.3731V123.818C115.711 125.939 114.003 127.658 111.895 127.658H25.1415C20.926 127.658 17.5088 124.219 17.5088 119.977V81.3731Z" fill="url(#paint0_linear_501_9037)"/>
<path d="M26.0127 112.051V100.306C43.4128 95.1808 60.2294 98.1705 66.4626 100.306V112.051H26.0127Z" fill="#F185A9"/>
<path fill-rule="evenodd" clip-rule="evenodd" d="M25.7341 99.3461C43.3688 94.1519 60.3979 97.1716 66.7833 99.3592L67.4567 99.5899V113.051H25.0195V99.5566L25.7341 99.3461ZM27.0069 101.06V111.051H65.4694V101.032C58.9986 99.0023 43.3194 96.46 27.0069 101.06Z" fill="#FBFCFE"/>
<path d="M66.4629 112.051V100.306C83.863 95.1808 100.679 98.1705 106.913 100.306V112.051H66.4629Z" fill="#F185A9"/>
<path fill-rule="evenodd" clip-rule="evenodd" d="M66.1833 99.3461C83.818 94.1519 100.847 97.1716 107.233 99.3592L107.906 99.5899V113.051H65.4688V99.5566L66.1833 99.3461ZM67.4561 101.06V111.051H105.918V101.032C99.4478 99.0023 83.7686 96.46 67.4561 101.06Z" fill="#FBFCFE"/>
<path fill-rule="evenodd" clip-rule="evenodd" d="M11.4169 104.191C11.4169 103.149 10.7745 102.234 9.88356 101.703C6.49186 99.6808 4.21777 95.9606 4.21777 91.7059C4.21777 85.2937 9.38303 80.0955 15.7547 80.0955C21.9621 80.0955 27.0244 85.029 27.2814 91.2123C27.2816 91.2171 27.2856 91.221 27.2904 91.221C27.2953 91.221 27.2994 91.225 27.2994 91.23V125.098C27.2994 126.512 26.1603 127.658 24.7551 127.658H13.9611C12.5559 127.658 11.4169 126.512 11.4169 125.098V104.191Z" fill="#A455F2"/>
<path fill-rule="evenodd" clip-rule="evenodd" d="M6.20511 91.7059C6.20511 95.2253 8.08373 98.3052 10.8964 99.9818C12.2445 100.785 13.4042 102.286 13.4042 104.191V125.098C13.4042 125.407 13.6535 125.658 13.9611 125.658H24.7551C25.0627 125.658 25.3121 125.407 25.3121 125.098V91.4812C25.3039 91.4202 25.2984 91.3584 25.2959 91.2958C25.0831 86.1792 20.8923 82.0955 15.7547 82.0955C10.4806 82.0955 6.20511 86.3982 6.20511 91.7059ZM9.88356 101.703C10.7745 102.234 11.4169 103.149 11.4169 104.191V125.098C11.4169 126.512 12.5559 127.658 13.9611 127.658H24.7551C26.1603 127.658 27.2994 126.512 27.2994 125.098V91.23C27.2994 91.225 27.2953 91.221 27.2904 91.221C27.2856 91.221 27.2816 91.2171 27.2814 91.2123C27.0244 85.029 21.9621 80.0955 15.7547 80.0955C9.38303 80.0955 4.21777 85.2937 4.21777 91.7059C4.21777 95.9606 6.49186 99.6808 9.88356 101.703Z" fill="#FBFCFE"/>
<path fill-rule="evenodd" clip-rule="evenodd" d="M121.44 104.187C121.44 103.145 122.082 102.23 122.972 101.699C126.36 99.6764 128.632 95.9581 128.632 91.7059C128.632 85.2937 123.467 80.0955 117.095 80.0955C110.887 80.0955 105.823 85.031 105.569 91.2161C105.568 91.2188 105.566 91.221 105.563 91.221C105.561 91.221 105.558 91.2232 105.558 91.226V91.6893C105.558 91.6948 105.558 91.7004 105.558 91.7059C105.558 91.7115 105.558 91.717 105.558 91.7225V125.098C105.558 126.512 106.697 127.658 108.102 127.658H118.897C120.302 127.658 121.44 126.512 121.44 125.098V104.187Z" fill="#A455F2"/>
<path fill-rule="evenodd" clip-rule="evenodd" d="M107.545 91.7059V91.7225V125.098C107.545 125.407 107.794 125.658 108.102 125.658H118.897C119.204 125.658 119.453 125.407 119.453 125.098V104.187C119.453 102.283 120.612 100.783 121.958 99.9788C124.768 98.3015 126.644 95.2232 126.644 91.7059C126.644 86.3982 122.37 82.0955 117.095 82.0955C111.956 82.0955 107.765 86.1808 107.554 91.299C107.552 91.3388 107.549 91.3783 107.545 91.4175V91.7059ZM105.558 125.098C105.558 126.512 106.697 127.658 108.102 127.658H118.897C120.302 127.658 121.44 126.512 121.44 125.098V104.187C121.44 103.145 122.082 102.23 122.972 101.699C126.36 99.6764 128.632 95.9581 128.632 91.7059C128.632 85.2937 123.467 80.0955 117.095 80.0955C110.887 80.0955 105.823 85.031 105.569 91.2161C105.568 91.2188 105.566 91.221 105.563 91.221C105.561 91.221 105.558 91.2232 105.558 91.226V91.7059V125.098Z" fill="#FBFCFE"/>
<path fill-rule="evenodd" clip-rule="evenodd" d="M44.2672 77.4233C44.9697 77.4233 45.5393 77.9965 45.5393 78.7036V84.2412C45.5393 84.9482 44.9697 85.5214 44.2672 85.5214C43.5646 85.5214 42.9951 84.9482 42.9951 84.2412V78.7036C42.9951 77.9965 43.5646 77.4233 44.2672 77.4233Z" fill="#FBFCFE"/>
<path fill-rule="evenodd" clip-rule="evenodd" d="M66.4625 77.4233C67.1651 77.4233 67.7346 77.9965 67.7346 78.7036V84.2412C67.7346 84.9482 67.1651 85.5214 66.4625 85.5214C65.76 85.5214 65.1904 84.9482 65.1904 84.2412V78.7036C65.1904 77.9965 65.76 77.4233 66.4625 77.4233Z" fill="#FBFCFE"/>
<path fill-rule="evenodd" clip-rule="evenodd" d="M87.9186 77.4233C88.6211 77.4233 89.1907 77.9965 89.1907 78.7036V84.2412C89.1907 84.9482 88.6211 85.5214 87.9186 85.5214C87.216 85.5214 86.6465 84.9482 86.6465 84.2412V78.7036C86.6465 77.9965 87.216 77.4233 87.9186 77.4233Z" fill="#FBFCFE"/>
<path fill-rule="evenodd" clip-rule="evenodd" d="M39.5513 88.9872C39.0545 88.4873 39.0545 87.6767 39.5513 87.1767L43.3677 83.336C43.8646 82.8361 44.6699 82.8361 45.1668 83.336C45.6636 83.836 45.6636 84.6466 45.1668 85.1465L41.3504 88.9872C40.8535 89.4872 40.0482 89.4872 39.5513 88.9872Z" fill="#FBFCFE"/>
<path fill-rule="evenodd" clip-rule="evenodd" d="M61.7467 88.9872C61.2498 88.4873 61.2498 87.6767 61.7467 87.1767L65.563 83.336C66.0598 82.8361 66.8652 82.8361 67.3621 83.336C67.8588 83.836 67.8588 84.6466 67.3621 85.1465L63.5457 88.9872C63.0489 89.4872 62.2434 89.4872 61.7467 88.9872Z" fill="#FBFCFE"/>
<path fill-rule="evenodd" clip-rule="evenodd" d="M83.2027 88.9872C82.7059 88.4873 82.7059 87.6767 83.2027 87.1767L87.0191 83.336C87.5159 82.8361 88.3213 82.8361 88.8181 83.336C89.315 83.836 89.315 84.6466 88.8181 85.1465L85.0017 88.9872C84.5049 89.4872 83.6994 89.4872 83.2027 88.9872Z" fill="#FBFCFE"/>
<path fill-rule="evenodd" clip-rule="evenodd" d="M43.3677 83.3359C43.8645 82.8359 44.67 82.8359 45.1667 83.3359L48.9831 87.1766C49.4799 87.6765 49.4799 88.4871 48.9831 88.9871C48.4864 89.487 47.6809 89.487 47.1841 88.9871L43.3677 85.1464C42.8709 84.6464 42.8709 83.8358 43.3677 83.3359Z" fill="#FBFCFE"/>
<path fill-rule="evenodd" clip-rule="evenodd" d="M65.5631 83.3359C66.0598 82.8359 66.8653 82.8359 67.3621 83.3359L71.1785 87.1766C71.6752 87.6765 71.6752 88.4871 71.1785 88.9871C70.6817 89.487 69.8762 89.487 69.3794 88.9871L65.5631 85.1464C65.0662 84.6464 65.0662 83.8358 65.5631 83.3359Z" fill="#FBFCFE"/>
<path fill-rule="evenodd" clip-rule="evenodd" d="M87.019 83.3359C87.5159 82.8359 88.3213 82.8359 88.8181 83.3359L92.6345 87.1766C93.1313 87.6765 93.1313 88.4871 92.6345 88.9871C92.1377 89.487 91.3323 89.487 90.8354 88.9871L87.019 85.1464C86.5223 84.6464 86.5223 83.8358 87.019 83.3359Z" fill="#FBFCFE"/>
<path d="M119.295 91.36C119.295 92.5826 118.311 93.5737 117.095 93.5737C115.88 93.5737 114.896 92.5826 114.896 91.36C114.896 90.1373 115.88 89.1462 117.095 89.1462C118.311 89.1462 119.295 90.1373 119.295 91.36Z" fill="#FBFCFE"/>
<path d="M17.9581 91.36C17.9581 92.5826 16.9732 93.5737 15.7583 93.5737C14.5434 93.5737 13.5586 92.5826 13.5586 91.36C13.5586 90.1373 14.5434 89.1462 15.7583 89.1462C16.9732 89.1462 17.9581 90.1373 17.9581 91.36Z" fill="#FBFCFE"/>
<path d="M141.277 64.5278H144.785V128.529H141.277V64.5278Z" fill="#8536D3"/>
<path d="M149.041 60.6645C149.041 59.867 149.683 59.2205 150.476 59.2205C151.268 59.2205 151.911 59.867 151.911 60.6645V78.6513C151.911 79.4488 151.268 80.0954 150.476 80.0954C149.683 80.0954 149.041 79.4488 149.041 78.6513V60.6645Z" fill="#B163FD"/>
<path d="M133.985 40.0477L128.95 63.1496C128.795 63.8577 129.331 64.5279 130.051 64.5279H156.009C156.731 64.5279 157.266 63.857 157.111 63.1486L152.055 40.0468C151.942 39.5264 151.483 39.1558 150.954 39.1558H135.087C134.557 39.1558 134.098 39.5269 133.985 40.0477Z" fill="#FF8387"/>
<path d="M136.139 129.585C136.139 128.171 137.277 127.024 138.682 127.024H147.379C148.784 127.024 149.924 128.171 149.924 129.585V129.86C149.924 131.274 148.784 132.42 147.379 132.42H138.682C137.277 132.42 136.139 131.274 136.139 129.86V129.585Z" fill="#FB666C"/>
<path fill-rule="evenodd" clip-rule="evenodd" d="M142.933 64.5279V39.1558H150.938C151.466 39.1558 151.924 39.5264 152.039 40.0468L157.094 63.1486C157.249 63.857 156.714 64.5279 155.992 64.5279H142.933Z" fill="#F67479"/>
<path d="M64.0127 31.6567C64.0127 31.0889 64.4701 30.6287 65.0342 30.6287H99.2786C99.8428 30.6287 100.3 31.0889 100.3 31.6567V55.1245C100.3 55.6922 99.8428 56.1525 99.2786 56.1525H65.0342C64.4701 56.1525 64.0127 55.6922 64.0127 55.1245V31.6567Z" fill="#E0E4ED"/>
<path fill-rule="evenodd" clip-rule="evenodd" d="M78.0166 52.3263L89.5533 40.217C90.6458 39.0703 92.4699 39.0786 93.5522 40.2351L101.848 49.101V55.6976H78.0166V52.3263Z" fill="#B96EEA"/>
<path fill-rule="evenodd" clip-rule="evenodd" d="M89.1846 39.8613C90.4793 38.5022 92.6414 38.512 93.9239 39.8827L102.359 48.8972V56.2117H77.5059V52.1197L89.1846 39.8613ZM93.1802 40.5875C92.2984 39.6451 90.8121 39.6384 89.922 40.5727L78.5274 52.5329V55.1837H101.337V49.305L93.1802 40.5875Z" fill="#FBFCFE"/>
<path d="M99.2949 31.6193L106.038 26.843L106.457 59.4164L105.148 60.5764L99.2949 55.6598V31.6193Z" fill="#8536D3"/>
<path d="M71.9606 44.2305L63.415 53.2004V55.6977H85.6402L74.9227 44.2439C74.1211 43.3871 72.7699 43.381 71.9606 44.2305Z" fill="#D399F9"/>
<path fill-rule="evenodd" clip-rule="evenodd" d="M74.551 44.5962C73.9497 43.9537 72.9363 43.9491 72.3294 44.5862L63.9259 53.407V55.1837H84.4577L74.551 44.5962ZM71.5921 43.8747C72.6036 42.813 74.2927 42.8206 75.2947 43.8915L86.8228 56.2117H62.9043V52.9938L71.5921 43.8747Z" fill="#FBFCFE"/>
<path d="M64.4722 31.493L58.6863 26.4136L58.21 57.6207L58.8383 60.7211L64.4722 55.9363V31.493Z" fill="#8536D3"/>
<path fill-rule="evenodd" clip-rule="evenodd" d="M65.5529 32.1787V54.6025H98.76V32.1787H65.5529ZM65.0342 30.6287C64.4701 30.6287 64.0127 31.0889 64.0127 31.6567V55.1245C64.0127 55.6922 64.4701 56.1525 65.0342 56.1525H99.2786C99.8428 56.1525 100.3 55.6922 100.3 55.1245V31.6567C100.3 31.0889 99.8428 30.6287 99.2786 30.6287H65.0342Z" fill="#FBFCFE"/>
<path fill-rule="evenodd" clip-rule="evenodd" d="M104.621 26.3232H59.6925C59.1283 26.3232 58.671 26.7834 58.671 27.3512V59.4296C58.671 59.9974 59.1283 60.4576 59.6925 60.4576H104.621C105.184 60.4576 105.642 59.9974 105.642 59.4296V27.3512C105.642 26.7834 105.184 26.3232 104.621 26.3232ZM59.6925 25.2952C58.5642 25.2952 57.6494 26.2157 57.6494 27.3512V59.4296C57.6494 60.5651 58.5642 61.4857 59.6925 61.4857H104.621C105.749 61.4857 106.664 60.5651 106.664 59.4296V27.3512C106.664 26.2157 105.749 25.2952 104.621 25.2952H59.6925Z" fill="#FBFCFE"/>
<path fill-rule="evenodd" clip-rule="evenodd" d="M65.5267 31.0319C65.5387 31.0453 65.5808 31.0926 65.6208 31.1596L64.3001 31.9572C64.3364 32.018 64.3729 32.0587 64.3793 32.0659C64.3907 32.0787 64.3994 32.0873 64.4006 32.0885C64.401 32.089 64.4014 32.0892 64.4014 32.0892C64.4013 32.0892 64.3964 32.0846 64.3844 32.0738C64.3561 32.0486 64.3107 32.0098 64.2462 31.956C64.1183 31.8495 63.9354 31.7008 63.708 31.5174C63.5187 31.3648 63.2868 31.1787 63.0313 30.9736C62.7019 30.7093 62.3334 30.4136 61.9668 30.1179C60.6344 29.0429 59.0636 27.7561 58.1602 26.9045L59.213 25.7732C60.065 26.5764 61.5868 27.8247 62.9302 28.9085C63.3131 29.2175 63.6618 29.4972 63.9781 29.751C64.2292 29.9524 64.4598 30.1375 64.6711 30.3078C64.8988 30.4915 65.0903 30.647 65.2286 30.7623C65.2971 30.8194 65.3577 30.8709 65.4049 30.9129C65.428 30.9334 65.4541 30.9572 65.4786 30.9814C65.4907 30.9934 65.5082 31.0111 65.5267 31.0319Z" fill="#FBFCFE"/>
<path fill-rule="evenodd" clip-rule="evenodd" d="M106.407 60.2161C106.419 60.2295 106.46 60.2768 106.501 60.3439L105.18 61.1414C105.216 61.2023 105.253 61.2429 105.259 61.2501L105.26 61.2508C105.271 61.2636 105.28 61.2715 105.281 61.2728C105.281 61.2728 105.277 61.2688 105.264 61.258C105.236 61.2329 105.19 61.1941 105.126 61.1402C104.999 61.0337 104.816 60.885 104.588 60.7016C104.398 60.549 104.167 60.3629 103.912 60.1579C103.582 59.8936 103.213 59.5979 102.846 59.3021C101.514 58.2271 99.9438 56.9403 99.04 56.0887L100.093 54.9574C100.945 55.7606 102.467 57.0089 103.81 58.0927C104.193 58.4017 104.541 58.6815 104.858 58.9352C105.109 59.1367 105.339 59.3217 105.551 59.492C105.779 59.6757 105.97 59.8312 106.109 59.9465C106.177 60.0036 106.238 60.0551 106.284 60.0972C106.308 60.1177 106.334 60.1415 106.359 60.1657C106.371 60.1776 106.388 60.1953 106.407 60.2161Z" fill="#FBFCFE"/>
<path fill-rule="evenodd" clip-rule="evenodd" d="M106.202 27.0379L99.8535 32.1307L98.8936 30.9186L105.243 25.8258L106.202 27.0379Z" fill="#FBFCFE"/>
<path fill-rule="evenodd" clip-rule="evenodd" d="M65.237 56.2342L58.8877 61.327L57.9277 60.1149L64.277 55.0221L65.237 56.2342Z" fill="#FBFCFE"/>
</g>
<defs>
<linearGradient id="paint0_linear_501_9037" x1="23.4956" y1="102.465" x2="109.656" y2="102.177" gradientUnits="userSpaceOnUse">
<stop stop-color="#AD6CFF"/>
<stop offset="1" stop-color="#FF7567"/>
</linearGradient>
<clipPath id="clip0_501_9037">
<rect width="157" height="157" fill="white" transform="translate(0.5 0.5)"/>
</clipPath>
</defs>
</svg>
