<svg width="158" height="158" viewBox="0 0 158 158" fill="none" xmlns="http://www.w3.org/2000/svg">
<g clip-path="url(#clip0_501_9085)">
<path d="M0.539062 135.318C0.539062 132.71 2.66729 130.595 5.29259 130.595H152.476C155.1 130.595 157.229 132.71 157.229 135.318C157.229 137.927 155.1 140.041 152.476 140.041H5.29259C2.66729 140.041 0.539062 137.927 0.539062 135.318Z" fill="#E0E4ED"/>
<path d="M21.7881 130.719L24.4159 126.602C25.012 125.668 24.7321 124.43 23.7912 123.84L22.9527 123.313C22.4479 122.996 21.8276 122.918 21.2595 123.101L19.0617 123.805C18.2304 124.072 17.667 124.841 17.667 125.709V129.648C17.667 130.752 18.5681 131.648 19.6797 131.648H20.0883C20.7776 131.648 21.419 131.297 21.7881 130.719Z" fill="#A455F2"/>
<path d="M61.1578 130.719L58.53 126.602C57.934 125.668 58.2138 124.43 59.1547 123.84L59.9933 123.313C60.4981 122.996 61.1183 122.918 61.6865 123.101L63.8842 123.805C64.7156 124.072 65.279 124.841 65.279 125.709V129.648C65.279 130.752 64.3779 131.648 63.2662 131.648H62.8576C62.1683 131.648 61.5269 131.297 61.1578 130.719Z" fill="#A455F2"/>
<path d="M64.0552 125.241H18.0813V96.8475L14.5449 95.5569L12.6322 73.2615C12.2317 68.5921 15.9381 64.582 20.6544 64.582H60.6834C65.3668 64.582 69.0618 68.5387 68.7122 73.1794L66.9286 96.8475H64.0552V125.241Z" fill="url(#paint0_linear_501_9085)"/>
<path fill-rule="evenodd" clip-rule="evenodd" d="M8.62153 107.812C8.62153 107.038 8.13835 106.358 7.46813 105.963C4.91674 104.462 3.20605 101.699 3.20605 98.5384C3.20605 93.7758 7.0916 89.915 11.8846 89.915C16.5541 89.915 20.3622 93.5792 20.5556 98.1717C20.5558 98.1753 20.5588 98.1782 20.5624 98.1782C20.5661 98.1782 20.5691 98.1812 20.5691 98.1849V123.34C20.5691 124.39 19.7123 125.241 18.6553 125.241H15.0776C11.512 125.241 8.62153 122.369 8.62153 118.826V107.812Z" fill="#A455F2"/>
<path fill-rule="evenodd" clip-rule="evenodd" d="M4.71567 98.5384C4.71567 101.147 6.12594 103.43 8.23748 104.673C9.25499 105.271 10.1311 106.391 10.1311 107.812V118.826C10.1311 121.541 12.3458 123.741 15.0776 123.741H18.6553C18.8785 123.741 19.0595 123.561 19.0595 123.34V98.3726C19.0534 98.3271 19.0493 98.281 19.0473 98.2344C18.8876 94.4419 15.7415 91.415 11.8846 91.415C7.92534 91.415 4.71567 94.6043 4.71567 98.5384ZM7.46813 105.963C8.13835 106.358 8.62153 107.038 8.62153 107.812V118.826C8.62153 122.369 11.512 125.241 15.0776 125.241H18.6553C19.7123 125.241 20.5691 124.39 20.5691 123.34V98.1849C20.5691 98.1812 20.5661 98.1782 20.5624 98.1782C20.5588 98.1782 20.5558 98.1753 20.5556 98.1717C20.3622 93.5792 16.5541 89.915 11.8846 89.915C7.0916 89.915 3.20605 93.7758 3.20605 98.5384C3.20605 101.699 4.91674 104.462 7.46813 105.963Z" fill="#FBFCFE"/>
<path fill-rule="evenodd" clip-rule="evenodd" d="M72.6253 107.812C72.6253 107.038 73.1085 106.358 73.7787 105.963C76.3301 104.462 78.0408 101.699 78.0408 98.5384C78.0408 93.7758 74.1553 89.915 69.3622 89.915C64.6927 89.915 60.8846 93.5792 60.6912 98.1717C60.6911 98.1753 60.6881 98.1782 60.6845 98.1782C60.6808 98.1782 60.6777 98.1812 60.6777 98.1849V123.34C60.6777 124.39 61.5346 125.241 62.5916 125.241H66.1692C69.7348 125.241 72.6253 122.369 72.6253 118.826V107.812Z" fill="#A455F2"/>
<path fill-rule="evenodd" clip-rule="evenodd" d="M76.5312 98.5384C76.5312 101.147 75.1209 103.43 73.0094 104.673C71.9918 105.271 71.1157 106.391 71.1157 107.812V118.826C71.1157 121.541 68.9011 123.741 66.1692 123.741H62.5916C62.3683 123.741 62.1873 123.561 62.1873 123.34V98.3726C62.1935 98.3271 62.1976 98.281 62.1995 98.2344C62.3592 94.4419 65.5053 91.415 69.3622 91.415C73.3215 91.415 76.5312 94.6043 76.5312 98.5384ZM73.7787 105.963C73.1085 106.358 72.6253 107.038 72.6253 107.812V118.826C72.6253 122.369 69.7348 125.241 66.1692 125.241H62.5916C61.5346 125.241 60.6777 124.39 60.6777 123.34V98.1849C60.6777 98.1812 60.6808 98.1782 60.6845 98.1782C60.6881 98.1782 60.6911 98.1753 60.6912 98.1717C60.8846 93.5792 64.6927 89.915 69.3622 89.915C74.1553 89.915 78.0408 93.7758 78.0408 98.5384C78.0408 101.699 76.3301 104.462 73.7787 105.963Z" fill="#FBFCFE"/>
<path fill-rule="evenodd" clip-rule="evenodd" d="M61.3659 98.4253H20.0996V96.9253H61.3659V98.4253Z" fill="#FBFCFE"/>
<path fill-rule="evenodd" clip-rule="evenodd" d="M61.3659 105.293H20.0996V103.793H61.3659V105.293Z" fill="#FBFCFE"/>
<path d="M71.1007 98.6794C71.1007 99.6345 70.3215 100.409 69.3604 100.409C68.3993 100.409 67.6201 99.6345 67.6201 98.6794C67.6201 97.7244 68.3993 96.9502 69.3604 96.9502C70.3215 96.9502 71.1007 97.7244 71.1007 98.6794Z" fill="#FBFCFE"/>
<path d="M29.7543 78.3383C29.7543 79.4325 28.8616 80.3195 27.7604 80.3195C26.6593 80.3195 25.7666 79.4325 25.7666 78.3383C25.7666 77.2442 26.6593 76.3572 27.7604 76.3572C28.8616 76.3572 29.7543 77.2442 29.7543 78.3383Z" fill="#FBFCFE"/>
<path d="M42.6177 78.3383C42.6177 79.4325 41.725 80.3195 40.6238 80.3195C39.5226 80.3195 38.6299 79.4325 38.6299 78.3383C38.6299 77.2442 39.5226 76.3572 40.6238 76.3572C41.725 76.3572 42.6177 77.2442 42.6177 78.3383Z" fill="#FBFCFE"/>
<path d="M55.4809 78.3383C55.4809 79.4325 54.5882 80.3195 53.4871 80.3195C52.3859 80.3195 51.4932 79.4325 51.4932 78.3383C51.4932 77.2442 52.3859 76.3572 53.4871 76.3572C54.5882 76.3572 55.4809 77.2442 55.4809 78.3383Z" fill="#FBFCFE"/>
<path d="M83.0225 62.6909H148.738V107.576H83.0225V62.6909Z" fill="#E0E4ED"/>
<path d="M13.6281 98.6794C13.6281 99.6345 12.8489 100.409 11.8878 100.409C10.9267 100.409 10.1475 99.6345 10.1475 98.6794C10.1475 97.7244 10.9267 96.9502 11.8878 96.9502C12.8489 96.9502 13.6281 97.7244 13.6281 98.6794Z" fill="#FBFCFE"/>
<path fill-rule="evenodd" clip-rule="evenodd" d="M84.3429 61.5127H81.7363V64.1026V106.837V113.312V130.633H149.997V113.312V106.837V64.1026V61.5127H147.39H84.3429ZM84.3429 64.1026V106.837H147.39V64.1026H84.3429Z" fill="url(#paint1_linear_501_9085)"/>
<path fill-rule="evenodd" clip-rule="evenodd" d="M114.586 130.595V107.462H116.599V130.595H114.586Z" fill="#FBFCFE"/>
<path fill-rule="evenodd" clip-rule="evenodd" d="M84.3252 107.208V64.2239H86.338V107.208H84.3252Z" fill="#FBFCFE"/>
<path fill-rule="evenodd" clip-rule="evenodd" d="M145.369 107.208V64.2239H147.382V107.208H145.369Z" fill="#FBFCFE"/>
<path fill-rule="evenodd" clip-rule="evenodd" d="M151.747 108.576H80.9541V106.576H151.747V108.576Z" fill="#FBFCFE"/>
<path fill-rule="evenodd" clip-rule="evenodd" d="M147.37 66.1138H84.3203V64.1138H147.37V66.1138Z" fill="#FBFCFE"/>
<path fill-rule="evenodd" clip-rule="evenodd" d="M147.37 86.1338H84.3203V84.1338H147.37V86.1338Z" fill="#FBFCFE"/>
<path fill-rule="evenodd" clip-rule="evenodd" d="M102.737 118.866H94.9697V116.866H102.737V118.866Z" fill="#FBFCFE"/>
<path fill-rule="evenodd" clip-rule="evenodd" d="M135.232 118.866H127.466V116.866H135.232V118.866Z" fill="#FBFCFE"/>
<path d="M88.7891 103.225H107.856V106.514H88.7891V103.225Z" fill="#B26DF7"/>
<path d="M122.305 80.6382H141.371V83.927H122.305V80.6382Z" fill="#FE756B"/>
<path d="M113.476 106.514V89.1177H118.285V106.514H113.476Z" fill="#AF6CFC"/>
<path d="M118.285 106.514V93.3574H121.439V106.514H118.285Z" fill="#A756F0"/>
<path d="M121.439 106.514V90.8135H125.784V106.514H121.439Z" fill="#FE756B"/>
<path d="M98.4756 84.1465V69.3218H102.666V84.1465H98.4756Z" fill="#FF8477"/>
<path d="M89.3633 84.1465V69.3218H92.861V84.1465H89.3633Z" fill="#A756F0"/>
<path d="M92.8604 84.1465V67.2837H98.4757V84.1465H92.8604Z" fill="#F36156"/>
<path d="M133.684 106.514L125.784 92.9169L128.606 91.2981L136.506 104.895L133.684 106.514Z" fill="#EE7387"/>
<path d="M110.653 84.0706L102.753 70.4738L105.575 68.855L113.475 82.4517L110.653 84.0706Z" fill="#B26DF7"/>
<path d="M71.6436 4.22913H86.1243V5.20794C86.1243 6.04683 85.4398 6.72688 84.5956 6.72688H73.1722C72.3279 6.72688 71.6436 6.04683 71.6436 5.20794V4.22913Z" fill="#B26DF7"/>
<path d="M73.7822 6.20105H83.9867V7.17987C83.9867 8.01875 83.3024 8.69881 82.4581 8.69881H75.3109C74.4666 8.69881 73.7822 8.01875 73.7822 7.17987V6.20105Z" fill="#B26DF7"/>
<path fill-rule="evenodd" clip-rule="evenodd" d="M80.0626 27.7888V36.1951C80.0626 39.984 83.1538 43.0555 86.967 43.0555C90.7802 43.0555 93.8714 39.984 93.8714 36.1951V27.7888H95.8842V36.1951C95.8842 41.0885 91.8918 45.0555 86.967 45.0555C82.0421 45.0555 78.0498 41.0885 78.0498 36.1951V27.7888H80.0626Z" fill="#7521CE"/>
<path fill-rule="evenodd" clip-rule="evenodd" d="M78.0501 36.195V8.69885H80.0629V36.195C80.0629 41.0885 76.0705 45.0554 71.1457 45.0554C66.2208 45.0554 62.2285 41.0885 62.2285 36.195V27.7888H64.2413V36.195C64.2413 39.9839 67.3325 43.0554 71.1457 43.0554C74.9589 43.0554 78.0501 39.9839 78.0501 36.195Z" fill="#7521CE"/>
<path d="M97.9451 19.7555C97.9451 21.6271 96.4181 23.1443 94.5345 23.1443C92.6509 23.1443 91.124 21.6271 91.124 19.7555C91.124 17.8839 92.6509 16.3667 94.5345 16.3667C96.4181 16.3667 97.9451 17.8839 97.9451 19.7555Z" fill="#A455F2"/>
<path d="M66.6443 19.7555C66.6443 21.6271 65.1174 23.1443 63.2338 23.1443C61.3502 23.1443 59.8232 21.6271 59.8232 19.7555C59.8232 17.8839 61.3502 16.3667 63.2338 16.3667C65.1174 16.3667 66.6443 17.8839 66.6443 19.7555Z" fill="#A455F2"/>
</g>
<defs>
<linearGradient id="paint0_linear_501_9085" x1="20.3964" y1="98.7091" x2="65.2086" y2="98.7091" gradientUnits="userSpaceOnUse">
<stop stop-color="#AD6CFF"/>
<stop offset="1" stop-color="#FF7567"/>
</linearGradient>
<linearGradient id="paint1_linear_501_9085" x1="81.7363" y1="108.828" x2="148.105" y2="108.828" gradientUnits="userSpaceOnUse">
<stop stop-color="#AD6CFF"/>
<stop offset="1" stop-color="#FF7567"/>
</linearGradient>
<clipPath id="clip0_501_9085">
<rect width="157" height="157" fill="white" transform="translate(0.5 0.5)"/>
</clipPath>
</defs>
</svg>
