<svg width="158" height="158" viewBox="0 0 158 158" fill="none" xmlns="http://www.w3.org/2000/svg">
<g clip-path="url(#clip0_501_8734)">
<path d="M16.7598 99.2011C16.7598 93.883 21.071 89.5718 26.3891 89.5718C31.7072 89.5718 36.0184 93.883 36.0184 99.2011V112.794C36.0184 118.112 31.7072 122.424 26.3891 122.424C21.071 122.424 16.7598 118.112 16.7598 112.794V99.2011Z" fill="#B56DEF"/>
<path fill-rule="evenodd" clip-rule="evenodd" d="M26.3891 89.5718C21.071 89.5718 16.7598 93.883 16.7598 99.2011V112.794C16.7598 118.112 21.071 122.424 26.3891 122.424V89.5718Z" fill="#CA8FFA"/>
<path fill-rule="evenodd" clip-rule="evenodd" d="M26.3435 101.51C26.9215 101.51 27.3901 101.978 27.3901 102.556V129.964C27.3901 130.542 26.9215 131.01 26.3435 131.01C25.7655 131.01 25.2969 130.542 25.2969 129.964V102.556C25.2969 101.978 25.7655 101.51 26.3435 101.51Z" fill="#7521CE"/>
<path fill-rule="evenodd" clip-rule="evenodd" d="M21.7424 108.058C22.142 107.64 22.8045 107.626 23.2222 108.025L26.9193 111.562C27.337 111.962 27.3516 112.624 26.9521 113.042C26.5525 113.459 25.89 113.474 25.4723 113.075L21.7752 109.538C21.3576 109.138 21.3429 108.476 21.7424 108.058Z" fill="#7521CE"/>
<path fill-rule="evenodd" clip-rule="evenodd" d="M31.5975 112.676C31.2065 112.25 30.5444 112.222 30.1187 112.613L25.8914 116.495C25.4656 116.886 25.4375 117.548 25.8284 117.974C26.2194 118.4 26.8816 118.428 27.3074 118.037L31.5345 114.155C31.9602 113.764 31.9885 113.102 31.5975 112.676Z" fill="#7521CE"/>
<path d="M42.875 30.7125V131.567H114.637V30.7125H103V11.3174H54.9V30.7125H42.875Z" fill="url(#paint0_linear_501_8734)"/>
<path fill-rule="evenodd" clip-rule="evenodd" d="M66.3734 30.5796H49.4639V28.5796H68.3734V132.633H66.3734V30.5796Z" fill="#FBFCFE"/>
<path fill-rule="evenodd" clip-rule="evenodd" d="M89.4863 28.5796H105.541V30.5796H91.4863V132.991H89.4863V28.5796Z" fill="#FBFCFE"/>
<path fill-rule="evenodd" clip-rule="evenodd" d="M73.2295 120.714H84.5386V132.703H82.5386V122.714H75.2295V132.703H73.2295V120.714Z" fill="#FBFCFE"/>
<path d="M48.7031 40.2947H52.7207V44.3124H48.7031V40.2947Z" fill="#FBFCFE"/>
<path d="M56.373 40.2947H60.3906V44.3124H56.373V40.2947Z" fill="#FBFCFE"/>
<path d="M48.7031 89.5718H52.7207V93.5895H48.7031V89.5718Z" fill="#FBFCFE"/>
<path d="M56.373 89.5718H60.3906V93.5895H56.373V89.5718Z" fill="#FBFCFE"/>
<path d="M48.7031 64.9415H52.7207V68.9592H48.7031V64.9415Z" fill="#FBFCFE"/>
<path d="M56.373 64.9415H60.3906V68.9592H56.373V64.9415Z" fill="#FBFCFE"/>
<path d="M48.7031 48.0363H52.7207V52.054H48.7031V48.0363Z" fill="#FBFCFE"/>
<path d="M56.373 48.0363H60.3906V52.054H56.373V48.0363Z" fill="#FBFCFE"/>
<path d="M48.7031 97.3134H52.7207V101.331H48.7031V97.3134Z" fill="#FBFCFE"/>
<path d="M56.373 97.3134H60.3906V101.331H56.373V97.3134Z" fill="#FBFCFE"/>
<path d="M48.7031 72.6831H52.7207V76.7008H48.7031V72.6831Z" fill="#FBFCFE"/>
<path d="M56.373 72.6831H60.3906V76.7008H56.373V72.6831Z" fill="#FBFCFE"/>
<path d="M48.7031 56.489H52.7207V60.5066H48.7031V56.489Z" fill="#FBFCFE"/>
<path d="M57.1484 56.4889H61.166V60.5066H57.1484V56.4889Z" fill="#FBFCFE"/>
<path d="M48.7031 105.766H52.7207V109.784H48.7031V105.766Z" fill="#FBFCFE"/>
<path d="M57.1484 105.766H61.166V109.784H57.1484V105.766Z" fill="#FBFCFE"/>
<path d="M48.7031 81.1357H52.7207V85.1534H48.7031V81.1357Z" fill="#FBFCFE"/>
<path d="M56.373 81.1357H60.3906V85.1534H56.373V81.1357Z" fill="#FBFCFE"/>
<path d="M96.8467 40.2947H100.865V44.3124H96.8467V40.2947Z" fill="#FBFCFE"/>
<path d="M104.516 40.2947H108.533V44.3124H104.516V40.2947Z" fill="#FBFCFE"/>
<path d="M96.8467 89.5718H100.865V93.5895H96.8467V89.5718Z" fill="#FBFCFE"/>
<path d="M104.516 89.5718H108.533V93.5895H104.516V89.5718Z" fill="#FBFCFE"/>
<path d="M96.8467 64.9415H100.865V68.9592H96.8467V64.9415Z" fill="#FBFCFE"/>
<path d="M104.516 64.9415H108.533V68.9592H104.516V64.9415Z" fill="#FBFCFE"/>
<path d="M96.8467 48.0363H100.865V52.054H96.8467V48.0363Z" fill="#FBFCFE"/>
<path d="M104.516 48.0363H108.533V52.054H104.516V48.0363Z" fill="#FBFCFE"/>
<path d="M96.8467 97.3135H100.865V101.331H96.8467V97.3135Z" fill="#FBFCFE"/>
<path d="M104.516 97.3135H108.533V101.331H104.516V97.3135Z" fill="#FBFCFE"/>
<path d="M96.8467 72.6831H100.865V76.7008H96.8467V72.6831Z" fill="#FBFCFE"/>
<path d="M104.516 72.6831H108.533V76.7008H104.516V72.6831Z" fill="#FBFCFE"/>
<path d="M96.8467 56.489H100.865V60.5066H96.8467V56.489Z" fill="#FBFCFE"/>
<path d="M105.291 56.4889H109.309V60.5066H105.291V56.4889Z" fill="#FBFCFE"/>
<path d="M96.8467 105.766H100.865V109.784H96.8467V105.766Z" fill="#FBFCFE"/>
<path d="M105.291 105.766H109.309V109.784H105.291V105.766Z" fill="#FBFCFE"/>
<path d="M96.8467 81.1357H100.865V85.1534H96.8467V81.1357Z" fill="#FBFCFE"/>
<path d="M104.516 81.1357H108.533V85.1534H104.516V81.1357Z" fill="#FBFCFE"/>
<path d="M73.0625 40.2947H77.0802V44.3124H73.0625V40.2947Z" fill="#FBFCFE"/>
<path d="M80.7324 40.2947H84.7501V44.3124H80.7324V40.2947Z" fill="#FBFCFE"/>
<path d="M73.0625 89.5718H77.0802V93.5895H73.0625V89.5718Z" fill="#FBFCFE"/>
<path d="M80.7324 89.5718H84.75V93.5895H80.7324V89.5718Z" fill="#FBFCFE"/>
<path d="M73.0625 64.9415H77.0802V68.9592H73.0625V64.9415Z" fill="#FBFCFE"/>
<path d="M80.7324 64.9415H84.75V68.9592H80.7324V64.9415Z" fill="#FBFCFE"/>
<path d="M73.0625 48.0363H77.0802V52.054H73.0625V48.0363Z" fill="#FBFCFE"/>
<path d="M80.7324 48.0363H84.75V52.054H80.7324V48.0363Z" fill="#FBFCFE"/>
<path d="M73.0625 97.3135H77.0802V101.331H73.0625V97.3135Z" fill="#FBFCFE"/>
<path d="M80.7324 97.3135H84.75V101.331H80.7324V97.3135Z" fill="#FBFCFE"/>
<path d="M73.0625 72.6831H77.0802V76.7008H73.0625V72.6831Z" fill="#FBFCFE"/>
<path d="M80.7324 72.6831H84.75V76.7008H80.7324V72.6831Z" fill="#FBFCFE"/>
<path d="M73.0625 56.489H77.0802V60.5066H73.0625V56.489Z" fill="#FBFCFE"/>
<path d="M81.5078 56.4889H85.5255V60.5066H81.5078V56.4889Z" fill="#FBFCFE"/>
<path d="M73.0625 105.766H77.0802V109.784H73.0625V105.766Z" fill="#FBFCFE"/>
<path d="M81.5078 105.766H85.5255V109.784H81.5078V105.766Z" fill="#FBFCFE"/>
<path d="M73.0625 81.1357H77.0802V85.1534H73.0625V81.1357Z" fill="#FBFCFE"/>
<path d="M80.7324 81.1357H84.75V85.1534H80.7324V81.1357Z" fill="#FBFCFE"/>
<path d="M72.6992 16.3219H76.7169V20.3396H72.6992V16.3219Z" fill="#FBFCFE"/>
<path d="M64.2402 16.3219H68.2578V20.3396H64.2402V16.3219Z" fill="#FBFCFE"/>
<path d="M80.3682 16.3219H84.3859V20.3396H80.3682V16.3219Z" fill="#FBFCFE"/>
<path d="M88.4775 16.3219H92.4951V20.3396H88.4775V16.3219Z" fill="#FBFCFE"/>
<path d="M72.6992 24.0635H76.7169V28.0812H72.6992V24.0635Z" fill="#FBFCFE"/>
<path d="M80.3682 24.0635H84.3858V28.0811H80.3682V24.0635Z" fill="#FBFCFE"/>
<path d="M72.6992 32.5161H76.7169V36.5338H72.6992V32.5161Z" fill="#FBFCFE"/>
<path d="M81.1426 32.5161H85.1602V36.5337H81.1426V32.5161Z" fill="#FBFCFE"/>
<path d="M0.910156 135.687C0.910156 133.078 3.02483 130.964 5.63341 130.964H151.878C154.487 130.964 156.602 133.078 156.602 135.687C156.602 138.295 154.487 140.41 151.878 140.41H5.63341C3.02483 140.41 0.910156 138.295 0.910156 135.687Z" fill="#E0E4ED"/>
</g>
<defs>
<linearGradient id="paint0_linear_501_8734" x1="47.272" y1="93.8308" x2="106.827" y2="93.8308" gradientUnits="userSpaceOnUse">
<stop stop-color="#AD6CFF"/>
<stop offset="1" stop-color="#FF7567"/>
</linearGradient>
<clipPath id="clip0_501_8734">
<rect width="157" height="157" fill="white" transform="translate(0.5 0.5)"/>
</clipPath>
</defs>
</svg>
