<svg width="158" height="158" viewBox="0 0 158 158" fill="none" xmlns="http://www.w3.org/2000/svg">
<g clip-path="url(#clip0_501_8812)">
<path d="M99.0029 88.9559C99.0029 82.8263 104.004 77.8574 110.173 77.8574H120.403C126.572 77.8574 131.572 82.8263 131.572 88.9559C131.572 95.0854 126.572 100.054 120.403 100.054H110.173C104.004 100.054 99.0029 95.0854 99.0029 88.9559Z" fill="#E0E4ED"/>
<path d="M105.421 76.5629C105.421 71.1483 109.839 66.7588 115.288 66.7588C120.737 66.7588 125.155 71.1483 125.155 76.5629V79.1518C125.155 84.5664 120.737 88.9559 115.288 88.9559C109.839 88.9559 105.421 84.5664 105.421 79.1518V76.5629Z" fill="#E0E4ED"/>
<path d="M99.0029 106.473C99.0029 100.344 104.004 95.3748 110.173 95.3748H120.403C126.572 95.3748 131.572 100.344 131.572 106.473C131.572 112.603 126.572 117.572 120.403 117.572H110.173C104.004 117.572 99.0029 112.603 99.0029 106.473Z" fill="#E0E4ED"/>
<path fill-rule="evenodd" clip-rule="evenodd" d="M115.288 77.8574H110.173C104.004 77.8574 99.0029 82.8263 99.0029 88.9559C99.0029 95.0854 104.004 100.054 110.173 100.054H115.288V77.8574Z" fill="#E0E4ED"/>
<path fill-rule="evenodd" clip-rule="evenodd" d="M115.288 66.7588C109.839 66.7588 105.421 71.1483 105.421 76.5629V79.1518C105.421 84.5664 109.839 88.9559 115.288 88.9559V66.7588Z" fill="#E0E4ED"/>
<path fill-rule="evenodd" clip-rule="evenodd" d="M115.288 95.3748H110.173C104.004 95.3748 99.0029 100.344 99.0029 106.473C99.0029 112.603 104.004 117.572 110.173 117.572H115.288V95.3748Z" fill="#E0E4ED"/>
<path fill-rule="evenodd" clip-rule="evenodd" d="M115.289 81.2224C115.844 81.2224 116.295 81.6701 116.295 82.2224V130.173C116.295 130.725 115.844 131.173 115.289 131.173C114.733 131.173 114.282 130.725 114.282 130.173V82.2224C114.282 81.6701 114.733 81.2224 115.289 81.2224Z" fill="#FBFCFE"/>
<path fill-rule="evenodd" clip-rule="evenodd" d="M108.825 89.4509C109.209 89.0518 109.846 89.0377 110.247 89.4195L115.763 94.6622C116.165 95.0439 116.179 95.6769 115.795 96.076C115.41 96.4751 114.773 96.4891 114.372 96.1074L108.856 90.8647C108.455 90.4829 108.441 89.8499 108.825 89.4509Z" fill="#FBFCFE"/>
<path fill-rule="evenodd" clip-rule="evenodd" d="M122.717 97.1454C122.341 96.7386 121.704 96.7117 121.296 97.0852L114.989 102.84C114.579 103.213 114.553 103.846 114.928 104.253C115.305 104.66 115.941 104.687 116.35 104.313L122.656 98.5583C123.066 98.1847 123.093 97.5521 122.717 97.1454Z" fill="#FBFCFE"/>
<path d="M152.211 110.415V113.603H103.941V110.415L152.211 110.415Z" fill="#F87576"/>
<path d="M152.211 120.146V123.335H103.941V120.146H152.211Z" fill="#F87576"/>
<path d="M8.27441 77.5122H102.334V130.578H8.27441V77.5122Z" fill="url(#paint0_linear_501_8812)"/>
<path fill-rule="evenodd" clip-rule="evenodd" d="M24.3981 93.1365V114.336H53.3705V93.1365H24.3981ZM23.4315 91.2156C22.8976 91.2156 22.4648 91.6456 22.4648 92.176V115.297C22.4648 115.827 22.8976 116.257 23.4315 116.257H54.3372C54.8711 116.257 55.3038 115.827 55.3038 115.297V92.176C55.3038 91.6456 54.8711 91.2156 54.3372 91.2156H23.4315Z" fill="#FBFCFE"/>
<path fill-rule="evenodd" clip-rule="evenodd" d="M37.918 115.474V91.998H39.8513V115.474H37.918Z" fill="#FBFCFE"/>
<path fill-rule="evenodd" clip-rule="evenodd" d="M54.3992 104.697H23.749V102.776H54.3992V104.697Z" fill="#FBFCFE"/>
<path fill-rule="evenodd" clip-rule="evenodd" d="M84.9097 97.6367H71.8434V123.193H84.9097V97.6367ZM69.9102 95.7158V125.114H86.8429V95.7158H69.9102Z" fill="#FBFCFE"/>
<path d="M22.4648 30.5923H33.95V59.1712H22.4648V30.5923Z" fill="#A659F7"/>
<path fill-rule="evenodd" clip-rule="evenodd" d="M33.95 36.1045H22.4648V34.1836H33.95V36.1045Z" fill="#FBFCFE"/>
<path fill-rule="evenodd" clip-rule="evenodd" d="M33.95 49.4446H22.4648V47.5237H33.95V49.4446Z" fill="#FBFCFE"/>
<path fill-rule="evenodd" clip-rule="evenodd" d="M66.1888 126.805H8.27441V124.884H66.1888V126.805Z" fill="#FBFCFE"/>
<path fill-rule="evenodd" clip-rule="evenodd" d="M102.69 126.805H91.6475V124.884H102.69V126.805Z" fill="#FBFCFE"/>
<path fill-rule="evenodd" clip-rule="evenodd" d="M102.491 79.3207H8.11035V77.3997H102.491V79.3207Z" fill="#FBFCFE"/>
<path fill-rule="evenodd" clip-rule="evenodd" d="M15.768 92.5629H8.27441V90.6418H15.768V92.5629Z" fill="#FBFCFE"/>
<path fill-rule="evenodd" clip-rule="evenodd" d="M102.333 92.5629H95.6729V90.6418H102.333V92.5629Z" fill="#FBFCFE"/>
<path fill-rule="evenodd" clip-rule="evenodd" d="M15.768 98.6145H8.27441V96.6936H15.768V98.6145Z" fill="#FBFCFE"/>
<path fill-rule="evenodd" clip-rule="evenodd" d="M102.333 98.6145H95.6729V96.6936H102.333V98.6145Z" fill="#FBFCFE"/>
<path fill-rule="evenodd" clip-rule="evenodd" d="M15.768 104.652H8.27441V102.731H15.768V104.652Z" fill="#FBFCFE"/>
<path fill-rule="evenodd" clip-rule="evenodd" d="M102.333 104.652H95.6729V102.731H102.333V104.652Z" fill="#FBFCFE"/>
<path fill-rule="evenodd" clip-rule="evenodd" d="M15.768 110.652H8.27441V108.731H15.768V110.652Z" fill="#FBFCFE"/>
<path fill-rule="evenodd" clip-rule="evenodd" d="M102.333 110.652H95.6729V108.731H102.333V110.652Z" fill="#FBFCFE"/>
<path fill-rule="evenodd" clip-rule="evenodd" d="M15.768 116.746H8.27441V114.825H15.768V116.746Z" fill="#FBFCFE"/>
<path fill-rule="evenodd" clip-rule="evenodd" d="M102.333 116.746H95.6729V114.825H102.333V116.746Z" fill="#FBFCFE"/>
<path fill-rule="evenodd" clip-rule="evenodd" d="M89.7141 125.256H67.0387V131.038H89.7141V125.256ZM65.1055 123.335V132.959H91.6474V123.335H65.1055Z" fill="#FBFCFE"/>
<path d="M75.9444 109.692C75.9444 110.417 75.3528 111.004 74.6231 111.004C73.8933 111.004 73.3018 110.417 73.3018 109.692C73.3018 108.966 73.8933 108.379 74.6231 108.379C75.3528 108.379 75.9444 108.966 75.9444 109.692Z" fill="#FBFCFE"/>
<path d="M14.2897 49.2102L8.11719 75.1955H102.491L96.3182 49.2102H14.2897Z" fill="#A95AF1"/>
<path d="M5.71387 73.6228H104.724V77.5123H5.71387V73.6228Z" fill="#7521CE"/>
<path d="M109.448 104.045H114.38V130.578H109.448V104.045Z" fill="#FF8D8E"/>
<path d="M120.046 104.045H124.978V130.578H120.046V104.045Z" fill="#FF8D8E"/>
<path d="M130.644 104.045H135.575V130.578H130.644V104.045Z" fill="#FF8D8E"/>
<path d="M141.242 104.045H146.174V130.578H141.242V104.045Z" fill="#FF8D8E"/>
<path d="M0.641602 135.318C0.641602 132.71 2.76983 130.595 5.39513 130.595H152.578C155.204 130.595 157.331 132.71 157.331 135.318C157.331 137.927 155.204 140.041 152.578 140.041H5.39513C2.76983 140.041 0.641602 137.927 0.641602 135.318Z" fill="#E0E4ED"/>
</g>
<defs>
<linearGradient id="paint0_linear_501_8812" x1="14.4404" y1="109.509" x2="96.0039" y2="109.509" gradientUnits="userSpaceOnUse">
<stop stop-color="#AC6BFF"/>
<stop offset="1" stop-color="#FF7567"/>
</linearGradient>
<clipPath id="clip0_501_8812">
<rect width="157" height="157" fill="white" transform="translate(0.5 0.5)"/>
</clipPath>
</defs>
</svg>
