<svg width="158" height="158" viewBox="0 0 158 158" fill="none" xmlns="http://www.w3.org/2000/svg">
<g clip-path="url(#clip0_501_9013)">
<path d="M113.795 70.9727C113.795 61.6362 121.364 54.0674 130.701 54.0674C140.037 54.0674 147.606 61.6362 147.606 70.9727V94.8367C147.606 104.173 140.037 111.742 130.701 111.742C121.364 111.742 113.795 104.173 113.795 94.8367V70.9727Z" fill="#F87576"/>
<path fill-rule="evenodd" clip-rule="evenodd" d="M130.701 54.0674C121.364 54.0674 113.795 61.6362 113.795 70.9727V94.8367C113.795 104.173 121.364 111.742 130.701 111.742V54.0674Z" fill="#FF8D8E"/>
<path fill-rule="evenodd" clip-rule="evenodd" d="M130.621 75.0256C131.635 75.0256 132.458 75.8483 132.458 76.8631V124.98C132.458 125.994 131.635 126.817 130.621 126.817C129.606 126.817 128.783 125.994 128.783 124.98V76.8631C128.783 75.8483 129.606 75.0256 130.621 75.0256Z" fill="#EC4C4D"/>
<path fill-rule="evenodd" clip-rule="evenodd" d="M122.542 86.5221C123.244 85.7888 124.407 85.763 125.14 86.4645L131.631 92.6735C132.364 93.375 132.39 94.5381 131.688 95.2714C130.987 96.0047 129.824 96.0305 129.09 95.329L122.6 89.12C121.867 88.4185 121.841 87.2554 122.542 86.5221Z" fill="#EC4C4D"/>
<path fill-rule="evenodd" clip-rule="evenodd" d="M139.844 94.6295C139.157 93.8821 137.995 93.8326 137.247 94.5191L129.826 101.334C129.079 102.021 129.029 103.183 129.716 103.931C130.402 104.678 131.564 104.728 132.312 104.041L139.733 97.2258C140.481 96.5393 140.53 95.377 139.844 94.6295Z" fill="#EC4C4D"/>
<path d="M85.6543 85.2874C85.6543 79.1134 90.6593 74.1084 96.8333 74.1084C103.008 74.1084 108.013 79.1134 108.013 85.2874V101.068C108.013 107.242 103.008 112.247 96.8333 112.247C90.6593 112.247 85.6543 107.242 85.6543 101.068V85.2874Z" fill="#B56DEF"/>
<path fill-rule="evenodd" clip-rule="evenodd" d="M96.8333 74.1084C90.6593 74.1084 85.6543 79.1135 85.6543 85.2874V101.068C85.6543 107.242 90.6593 112.247 96.8333 112.247V74.1084Z" fill="#CA8EFA"/>
<path fill-rule="evenodd" clip-rule="evenodd" d="M96.7796 87.9675C97.4507 87.9675 97.9947 88.5115 97.9947 89.1826V121.001C97.9947 121.672 97.4507 122.216 96.7796 122.216C96.1085 122.216 95.5645 121.672 95.5645 121.001V89.1826C95.5645 88.5115 96.1085 87.9675 96.7796 87.9675Z" fill="#7521CE"/>
<path fill-rule="evenodd" clip-rule="evenodd" d="M91.4376 95.57C91.9015 95.0851 92.6706 95.068 93.1556 95.5319L97.4476 99.6378C97.9325 100.102 97.9495 100.871 97.4856 101.356C97.0218 101.841 96.2526 101.858 95.7677 101.394L91.4757 97.288C90.9908 96.8241 90.9737 96.0549 91.4376 95.57Z" fill="#7521CE"/>
<path fill-rule="evenodd" clip-rule="evenodd" d="M102.879 100.931C102.425 100.437 101.656 100.404 101.162 100.858L96.2545 105.365C95.7603 105.819 95.7276 106.588 96.1815 107.082C96.6354 107.576 97.404 107.609 97.8983 107.155L102.806 102.648C103.3 102.194 103.333 101.426 102.879 100.931Z" fill="#7521CE"/>
<path d="M147.607 130.96H68.418C81.9474 120.754 119.487 110.133 147.607 130.96Z" fill="#FFA5A5"/>
<path d="M13.8496 130.779H117.811C101.265 115.709 57.308 95.5757 13.8496 130.779Z" fill="url(#paint0_linear_501_9013)"/>
<path fill-rule="evenodd" clip-rule="evenodd" d="M76.4265 132.158C59.3984 119.036 39.5824 118.834 30.4873 119.056C29.9352 119.069 29.4767 118.632 29.4632 118.08C29.4497 117.528 29.8864 117.07 30.4385 117.056C39.6094 116.833 60.0386 117.005 77.6473 130.574C78.0848 130.911 78.1661 131.539 77.829 131.977C77.4919 132.414 76.864 132.495 76.4265 132.158Z" fill="#FBFCFE"/>
<path fill-rule="evenodd" clip-rule="evenodd" d="M56.2166 110.125C56.399 109.603 56.9695 109.329 57.4908 109.511C57.5635 109.537 57.6368 109.562 57.7106 109.588C64.6871 112.029 76.2693 116.081 87.8186 130.482C88.1641 130.913 88.0949 131.543 87.664 131.888C87.2332 132.234 86.6038 132.164 86.2583 131.734C75.0673 117.779 63.9188 113.879 57.0614 111.48C56.9837 111.453 56.9066 111.426 56.8301 111.399C56.3088 111.217 56.0341 110.646 56.2166 110.125Z" fill="#FBFCFE"/>
<path fill-rule="evenodd" clip-rule="evenodd" d="M98.7323 117.487C98.9582 116.983 99.55 116.758 100.054 116.984C106.029 119.663 115.486 124.918 122.557 134.209C122.892 134.649 122.807 135.276 122.367 135.611C121.928 135.945 121.3 135.86 120.966 135.42C114.183 126.507 105.067 121.424 99.2356 118.809C98.7317 118.583 98.5063 117.991 98.7323 117.487Z" fill="#FBFCFE"/>
<path d="M1.4248 135.318C1.4248 132.71 3.53948 130.595 6.14806 130.595H152.393C155.002 130.595 157.117 132.71 157.117 135.318C157.117 137.927 155.002 140.041 152.393 140.041H6.14805C3.53947 140.041 1.4248 137.927 1.4248 135.318Z" fill="#E0E4ED"/>
<path fill-rule="evenodd" clip-rule="evenodd" d="M44.6991 58.2033C45.7012 57.6982 46.8335 57.4136 48.0323 57.4136C52.1272 57.4136 55.4468 60.7332 55.4468 64.8281V65.523C55.4468 69.6179 52.1272 72.9375 48.0323 72.9375L47.9964 72.9374L47.9709 72.9375H24.0321C20.7762 72.9375 18.1367 70.298 18.1367 67.0421C18.1367 63.7862 20.7762 61.1468 24.0321 61.1468H24.8006C25.1071 55.7502 29.5805 51.4685 35.0538 51.4685C39.4835 51.4685 43.2582 54.273 44.6991 58.2033Z" fill="#E0E4ED"/>
<path fill-rule="evenodd" clip-rule="evenodd" d="M65.2661 39.7255C65.639 33.1611 71.0803 27.9529 77.738 27.9529C83.0075 27.9529 87.5149 31.2155 89.3504 35.831C90.3186 35.4149 91.3854 35.1845 92.5061 35.1845H94.5438C98.962 35.1845 102.544 38.7662 102.544 43.1845V46.0675C102.544 50.4858 98.9621 54.0675 94.5438 54.0675H92.5061H92.4964H63.1602C59.8465 54.0675 57.1602 51.3812 57.1602 48.0675V45.7255C57.1602 42.4118 59.8465 39.7255 63.1602 39.7255H65.2661Z" fill="#E0E4ED"/>
</g>
<defs>
<linearGradient id="paint0_linear_501_9013" x1="28.0199" y1="128.135" x2="103.654" y2="128.135" gradientUnits="userSpaceOnUse">
<stop stop-color="#AD6CFF"/>
<stop offset="1" stop-color="#FF7668"/>
</linearGradient>
<clipPath id="clip0_501_9013">
<rect width="157" height="157" fill="white" transform="translate(0.5 0.5)"/>
</clipPath>
</defs>
</svg>
