<svg width="158" height="158" viewBox="0 0 158 158" fill="none" xmlns="http://www.w3.org/2000/svg">
<g clip-path="url(#clip0_501_18230)">
<path d="M6.12598 57.4839C6.12598 44.781 16.4897 34.4832 29.2742 34.4832C42.0586 34.4832 52.4223 44.781 52.4223 57.4839V89.9526C52.4223 102.655 42.0586 112.953 29.2742 112.953C16.4897 112.953 6.12598 102.655 6.12598 89.9526V57.4839Z" fill="#B56DEF"/>
<path fill-rule="evenodd" clip-rule="evenodd" d="M29.2741 34.4832C16.4897 34.4832 6.12598 44.781 6.12598 57.4839V89.9526C6.12598 102.655 16.4897 112.953 29.2741 112.953V34.4832Z" fill="#CA8FFA"/>
<path fill-rule="evenodd" clip-rule="evenodd" d="M29.1654 62.998C30.555 62.998 31.6815 64.1173 31.6815 65.498V130.964C31.6815 132.344 30.555 133.464 29.1654 133.464C27.7759 133.464 26.6494 132.344 26.6494 130.964V65.498C26.6494 64.1173 27.7759 62.998 29.1654 62.998Z" fill="#7521CE"/>
<path fill-rule="evenodd" clip-rule="evenodd" d="M18.1033 78.6398C19.0638 77.6421 20.6564 77.607 21.6605 78.5615L30.5479 87.0092C31.552 87.9636 31.5873 89.5461 30.6268 90.5438C29.6662 91.5416 28.0736 91.5766 27.0695 90.6222L18.1821 82.1745C17.178 81.22 17.1426 79.6375 18.1033 78.6398Z" fill="#7521CE"/>
<path fill-rule="evenodd" clip-rule="evenodd" d="M41.7937 89.6705C40.8538 88.6536 39.2622 88.5863 38.2388 89.5202L28.0769 98.7931C27.0534 99.727 26.9857 101.309 27.9256 102.325C28.8655 103.342 30.4571 103.41 31.4805 102.476L41.6425 93.2028C42.6659 92.2689 42.7336 90.6874 41.7937 89.6705Z" fill="#7521CE"/>
<path d="M56.9248 25.3953H72.6337V64.4841H56.9248V25.3953Z" fill="#A659F7"/>
<path fill-rule="evenodd" clip-rule="evenodd" d="M74.5558 44.9964L56.2569 63.0461L54.8389 61.6267L73.1377 43.577L74.5558 44.9964Z" fill="#FBFCFE"/>
<path d="M136.224 72.8399H57.1289L95.3397 33.3101L136.224 72.8399Z" fill="#A95AF1"/>
<path d="M49.9902 69.0709H137.036V130.964H49.9902V69.0709Z" fill="url(#paint0_linear_501_18230)"/>
<path fill-rule="evenodd" clip-rule="evenodd" d="M78.9855 87.9811V110.053H109.15V87.9811H78.9855ZM77.9791 85.9811C77.4232 85.9811 76.9727 86.4289 76.9727 86.9811V111.053C76.9727 111.606 77.4232 112.053 77.9791 112.053H110.157C110.712 112.053 111.163 111.606 111.163 111.053V86.9811C111.163 86.4289 110.712 85.9811 110.157 85.9811H77.9791Z" fill="#FBFCFE"/>
<path fill-rule="evenodd" clip-rule="evenodd" d="M93.0615 111.239V86.796H95.0743V111.239H93.0615Z" fill="#FBFCFE"/>
<path fill-rule="evenodd" clip-rule="evenodd" d="M110.22 100.017H78.3086V98.0173H110.22V100.017Z" fill="#FBFCFE"/>
<path fill-rule="evenodd" clip-rule="evenodd" d="M72.6337 32.6213H56.9248V30.6213H72.6337V32.6213Z" fill="#FBFCFE"/>
<path fill-rule="evenodd" clip-rule="evenodd" d="M137.036 124.941H49.9902V122.942H137.036V124.941Z" fill="#FBFCFE"/>
<path fill-rule="evenodd" clip-rule="evenodd" d="M56.925 91.384H49.9902V89.384H56.925V91.384Z" fill="#FBFCFE"/>
<path fill-rule="evenodd" clip-rule="evenodd" d="M137.036 91.384H130.101V89.384H137.036V91.384Z" fill="#FBFCFE"/>
<path fill-rule="evenodd" clip-rule="evenodd" d="M56.925 97.6849H49.9902V95.6849H56.925V97.6849Z" fill="#FBFCFE"/>
<path fill-rule="evenodd" clip-rule="evenodd" d="M137.036 97.6849H130.101V95.6849H137.036V97.6849Z" fill="#FBFCFE"/>
<path fill-rule="evenodd" clip-rule="evenodd" d="M56.925 103.971H49.9902V101.971H56.925V103.971Z" fill="#FBFCFE"/>
<path fill-rule="evenodd" clip-rule="evenodd" d="M137.036 103.971H130.101V101.971H137.036V103.971Z" fill="#FBFCFE"/>
<path fill-rule="evenodd" clip-rule="evenodd" d="M56.925 110.218H49.9902V108.218H56.925V110.218Z" fill="#FBFCFE"/>
<path fill-rule="evenodd" clip-rule="evenodd" d="M137.036 110.218H130.101V108.218H137.036V110.218Z" fill="#FBFCFE"/>
<path fill-rule="evenodd" clip-rule="evenodd" d="M56.925 116.562H49.9902V114.562H56.925V116.562Z" fill="#FBFCFE"/>
<path fill-rule="evenodd" clip-rule="evenodd" d="M137.036 116.562H130.101V114.562H137.036V116.562Z" fill="#FBFCFE"/>
<path fill-rule="evenodd" clip-rule="evenodd" d="M129.351 70.072H62.1865V68.072H129.351V70.072Z" fill="#FBFCFE"/>
<path fill-rule="evenodd" clip-rule="evenodd" d="M94.0129 38.1094L142.057 85.581L140.638 86.9991L94.0189 40.9359L49.9088 84.8942L48.4834 83.4821L94.0129 38.1094Z" fill="#FBFCFE"/>
<path fill-rule="evenodd" clip-rule="evenodd" d="M94.0431 25.3982L94.0401 25.3953L39.9756 79.1154L46.3824 85.4814L94.0488 38.1187L141.758 85.4385L148.159 79.0667L94.0459 25.3953L94.0431 25.3982Z" fill="#8C30EE"/>
<path d="M0.695312 135.687C0.695312 133.078 2.82354 130.964 5.44884 130.964H152.631C155.257 130.964 157.386 133.078 157.386 135.687C157.386 138.295 155.257 140.41 152.631 140.41H5.44883C2.82353 140.41 0.695312 138.295 0.695312 135.687Z" fill="#E0E4ED"/>
</g>
<defs>
<linearGradient id="paint0_linear_501_18230" x1="55.6964" y1="106.39" x2="131.178" y2="106.39" gradientUnits="userSpaceOnUse">
<stop stop-color="#AC6BFF"/>
<stop offset="1" stop-color="#FF7567"/>
</linearGradient>
<clipPath id="clip0_501_18230">
<rect width="157" height="157" fill="white" transform="translate(0.5 0.5)"/>
</clipPath>
</defs>
</svg>
