<svg width="158" height="158" viewBox="0 0 158 158" fill="none" xmlns="http://www.w3.org/2000/svg">
<path d="M51.7246 101.716V127.872H152.94V101.716H145.138V72.4466L102.48 58.1904L59.8205 72.4466V101.716H51.7246Z" fill="#E0E4ED"/>
<path fill-rule="evenodd" clip-rule="evenodd" d="M147.074 80.8638H58.4258V77.8638H147.074V80.8638Z" fill="#FBFCFE"/>
<path fill-rule="evenodd" clip-rule="evenodd" d="M56.8477 130.53V99.8658H59.8477V130.53H56.8477Z" fill="#FBFCFE"/>
<path fill-rule="evenodd" clip-rule="evenodd" d="M145.174 130.823V100.159H148.174V130.823H145.174Z" fill="#FBFCFE"/>
<path fill-rule="evenodd" clip-rule="evenodd" d="M135.738 89.0027H70.0615V127.53H135.738V89.0027ZM67.0615 86.0027V130.53H138.738V86.0027H67.0615Z" fill="#FBFCFE"/>
<path fill-rule="evenodd" clip-rule="evenodd" d="M137.652 95.5702H68.3027V92.5702H137.652V95.5702Z" fill="#FBFCFE"/>
<path fill-rule="evenodd" clip-rule="evenodd" d="M137.652 102.707H68.3027V99.7069H137.652V102.707Z" fill="#FBFCFE"/>
<path fill-rule="evenodd" clip-rule="evenodd" d="M137.652 109.766H68.3027V106.766H137.652V109.766Z" fill="#FBFCFE"/>
<path fill-rule="evenodd" clip-rule="evenodd" d="M137.652 116.698H68.3027V113.698H137.652V116.698Z" fill="#FBFCFE"/>
<path fill-rule="evenodd" clip-rule="evenodd" d="M137.652 123.834H68.3027V120.834H137.652V123.834Z" fill="#FBFCFE"/>
<path d="M39.5439 106.442H123.619V130.823H39.5439V106.442Z" fill="#FBFCFE"/>
<path d="M1.12695 135.546C1.12695 132.938 3.24162 130.823 5.8502 130.823H152.096C154.704 130.823 156.819 132.938 156.819 135.546C156.819 138.155 154.704 140.27 152.096 140.27H5.8502C3.24162 140.27 1.12695 138.155 1.12695 135.546Z" fill="#E0E4ED"/>
<path fill-rule="evenodd" clip-rule="evenodd" d="M18.2889 72.3093L2.98633 98.3592V118.654C2.98633 121.768 5.51036 124.292 8.6239 124.292H9.98159C9.9627 123.988 9.95312 123.681 9.95312 123.372C9.95312 115.294 16.5014 108.746 24.5792 108.746C32.657 108.746 39.2054 115.294 39.2054 123.372C39.2054 123.681 39.1959 123.988 39.1769 124.292H87.9249C87.9109 124.031 87.9038 123.768 87.9038 123.503C87.9038 115.425 94.4522 108.877 102.53 108.877C110.608 108.877 117.156 115.425 117.156 123.503C117.156 123.768 117.149 124.031 117.135 124.292H120.258C122.204 124.292 123.782 122.714 123.782 120.769V108.336C123.782 103.08 120.356 98.4384 115.335 96.8886L97.4977 91.3841C95.9494 90.9063 94.5426 90.0545 93.4016 88.9039L76.5985 71.9591C74.6137 69.9575 71.9117 68.8317 69.0928 68.8317H24.3651C21.8664 68.8317 19.5545 70.1548 18.2889 72.3093Z" fill="url(#paint0_linear_501_8702)"/>
<path fill-rule="evenodd" clip-rule="evenodd" d="M25.0471 79.2816H11.602V77.2816H25.5779C26.9143 77.2816 27.731 78.7494 27.0264 79.885L17.8463 94.6801C17.4069 95.3883 16.6325 95.8192 15.799 95.8192H1.73926V93.8192H15.799C15.9407 93.8192 16.0722 93.746 16.1469 93.6256L25.0471 79.2816Z" fill="#FBFCFE"/>
<path fill-rule="evenodd" clip-rule="evenodd" d="M34.7487 77.571H70.5033L88.0013 95.0654V125.374H86.0013V95.894L69.675 79.571H35.8561L27.5889 92.7744C27.1243 93.5164 27.6577 94.4797 28.5332 94.4797H78.339V96.4797H28.5332C26.0861 96.4797 24.5951 93.787 25.8938 91.713L34.7487 77.571Z" fill="#FBFCFE"/>
<path fill-rule="evenodd" clip-rule="evenodd" d="M76.4922 95.5333V86.0349H78.4922V95.5333C78.4922 96.927 79.622 98.0568 81.0157 98.0568H86.3373V100.057H81.0157C78.5174 100.057 76.4922 98.0316 76.4922 95.5333Z" fill="#FBFCFE"/>
<path fill-rule="evenodd" clip-rule="evenodd" d="M44.1752 94.9392V79.0786H46.1752V95.4962L41.3027 103.566V126.201H39.3027V103.009L44.1752 94.9392Z" fill="#FBFCFE"/>
<path fill-rule="evenodd" clip-rule="evenodd" d="M110.439 100.319V93.4156H112.439V100.319C112.439 104.437 115.777 107.775 119.895 107.775H126.46V109.775H119.895C114.673 109.775 110.439 105.541 110.439 100.319Z" fill="#FBFCFE"/>
<path fill-rule="evenodd" clip-rule="evenodd" d="M1.28906 112.763H8.4368C11.6705 112.763 14.2919 110.141 14.2919 106.907C14.2919 103.674 11.6705 101.052 8.4368 101.052H1.28906V103.871H8.4368C10.1137 103.871 11.4731 105.23 11.4731 106.907C11.4731 108.584 10.1137 109.944 8.4368 109.944H1.28906V112.763Z" fill="#FBFCFE"/>
<path fill-rule="evenodd" clip-rule="evenodd" d="M24.6732 132.995C30.0444 132.995 34.3987 128.641 34.3987 123.27C34.3987 117.898 30.0444 113.544 24.6732 113.544C19.302 113.544 14.9477 117.898 14.9477 123.27C14.9477 128.641 19.302 132.995 24.6732 132.995ZM24.6732 135.814C31.6012 135.814 37.2175 130.198 37.2175 123.27C37.2175 116.342 31.6012 110.725 24.6732 110.725C17.7452 110.725 12.1289 116.342 12.1289 123.27C12.1289 130.198 17.7452 135.814 24.6732 135.814Z" fill="#B96EEC"/>
<path fill-rule="evenodd" clip-rule="evenodd" d="M102.496 132.995C107.867 132.995 112.221 128.641 112.221 123.27C112.221 117.898 107.867 113.544 102.496 113.544C97.1243 113.544 92.77 117.898 92.77 123.27C92.77 128.641 97.1243 132.995 102.496 132.995ZM102.496 135.814C109.424 135.814 115.04 130.198 115.04 123.27C115.04 116.342 109.424 110.725 102.496 110.725C95.5675 110.725 89.9512 116.342 89.9512 123.27C89.9512 130.198 95.5675 135.814 102.496 135.814Z" fill="#F27580"/>
<path fill-rule="evenodd" clip-rule="evenodd" d="M102.497 125.239C103.584 125.239 104.466 124.357 104.466 123.27C104.466 122.182 103.584 121.301 102.497 121.301C101.409 121.301 100.528 122.182 100.528 123.27C100.528 124.357 101.409 125.239 102.497 125.239ZM102.497 128.762C105.53 128.762 107.989 126.303 107.989 123.27C107.989 120.236 105.53 117.777 102.497 117.777C99.4629 117.777 97.0039 120.236 97.0039 123.27C97.0039 126.303 99.4629 128.762 102.497 128.762Z" fill="#F27580"/>
<path fill-rule="evenodd" clip-rule="evenodd" d="M24.6721 125.239C25.7594 125.239 26.6409 124.357 26.6409 123.27C26.6409 122.182 25.7594 121.301 24.6721 121.301C23.5847 121.301 22.7032 122.182 22.7032 123.27C22.7032 124.357 23.5847 125.239 24.6721 125.239ZM24.6721 128.762C27.7054 128.762 30.1644 126.303 30.1644 123.27C30.1644 120.236 27.7054 117.777 24.6721 117.777C21.6387 117.777 19.1797 120.236 19.1797 123.27C19.1797 126.303 21.6387 128.762 24.6721 128.762Z" fill="#B96EEC"/>
<path d="M46.2139 101.973H54.0906V105.26H46.2139V101.973Z" fill="#FBFCFE"/>
<path d="M86.8037 101.973H94.6804V104.399H86.8037V101.973Z" fill="#FBFCFE"/>
<path d="M86.8037 106.349H94.6804V108.775H86.8037V106.349Z" fill="#FBFCFE"/>
<defs>
<linearGradient id="paint0_linear_501_8702" x1="9.90642" y1="108.795" x2="118.084" y2="108.795" gradientUnits="userSpaceOnUse">
<stop stop-color="#AE6DFF"/>
<stop offset="1" stop-color="#FF7668"/>
</linearGradient>
</defs>
</svg>
