<svg width="100" height="100" viewBox="0 0 100 100" fill="none" xmlns="http://www.w3.org/2000/svg">
<g clip-path="url(#clip0_802_961)">
<g filter="url(#filter0_b_802_961)">
<rect width="100" height="100" rx="20" fill="url(#paint0_linear_802_961)" fill-opacity="0.6"/>
<rect x="1" y="1" width="98" height="98" rx="19" stroke="url(#paint1_radial_802_961)" stroke-width="2"/>
<rect x="1" y="1" width="98" height="98" rx="19" stroke="url(#paint2_radial_802_961)" stroke-width="2"/>
</g>
<path d="M76.0684 41.9334C76.5487 41.9334 76.9634 41.5955 77.0595 41.1225L77.9781 36.6203C77.9882 36.5696 77.9949 36.5173 77.9966 36.4632C77.9966 36.4531 77.9983 36.4446 77.9983 36.4345C77.9983 36.4277 78 36.4193 78 36.4125C78 36.3703 77.9966 36.3297 77.9916 36.2892C77.9899 36.2808 77.9882 36.2723 77.9882 36.2639C77.9815 36.2149 77.9713 36.1676 77.9579 36.122C77.9579 36.1203 77.9579 36.1186 77.9562 36.1169C77.941 36.0696 77.9225 36.0223 77.9022 35.9784C77.8989 35.9716 77.8955 35.9632 77.8921 35.9564C77.8702 35.9125 77.8466 35.8719 77.818 35.8314C77.8129 35.8246 77.8078 35.8196 77.8045 35.8128C77.7775 35.7756 77.7489 35.7402 77.7168 35.7081C77.7135 35.7047 77.7101 35.6996 77.7067 35.6962C77.673 35.6624 77.6359 35.6303 77.5972 35.6016C77.5904 35.5966 77.582 35.5898 77.5752 35.5847C77.5348 35.556 77.4926 35.5307 77.4488 35.5087C77.4455 35.507 77.4438 35.5053 77.4404 35.5036L50.4478 22.1052C50.1647 21.9649 49.8326 21.9649 49.5494 22.1052L22.5619 35.502C22.5585 35.5036 22.5569 35.5053 22.5535 35.507C22.5097 35.529 22.4675 35.5543 22.4271 35.583C22.4186 35.5881 22.4119 35.5949 22.4052 35.5999C22.3664 35.6287 22.3293 35.6608 22.2956 35.6945C22.2922 35.6979 22.2889 35.7013 22.2855 35.7064C22.2535 35.7402 22.2248 35.7756 22.1978 35.8111C22.1928 35.8179 22.1877 35.8229 22.1844 35.8297C22.1574 35.8685 22.1321 35.9108 22.1102 35.9547C22.1068 35.9615 22.1034 35.9699 22.1001 35.9767C22.0782 36.0206 22.0596 36.0679 22.0461 36.1152C22.0461 36.1169 22.0445 36.1186 22.0445 36.1203C22.031 36.1659 22.0209 36.2132 22.0141 36.2622C22.0124 36.2706 22.0107 36.2791 22.0107 36.2875C22.0057 36.3281 22.0023 36.3686 22.0023 36.4108C22.0023 36.4176 22.004 36.426 22.004 36.4328C22.004 36.4429 22.0057 36.4514 22.0057 36.4615C22.0091 36.5156 22.0141 36.568 22.0242 36.6186L22.9429 41.1208C23.0389 41.5922 23.4536 41.9317 23.934 41.9317H26.7219V46.51C26.7219 46.5775 26.7286 46.6468 26.7421 46.7144C26.7556 46.7819 26.7775 46.8478 26.8045 46.912L28.5507 51.0155V66.5055L27.0657 69.994H25.7105C25.3128 69.994 24.9537 70.2272 24.7885 70.5904L22.09 76.5674C21.9484 76.8816 21.9753 77.2448 22.1608 77.5354C22.3462 77.826 22.6664 78 23.0103 78H76.9887C77.3325 78 77.6528 77.8243 77.8382 77.5354C78.0236 77.2465 78.0506 76.8816 77.909 76.5674L75.2104 70.5904C75.0469 70.2272 74.6862 69.994 74.2884 69.994H72.9349L71.4499 66.5055V51.0172L73.1962 46.9137C73.2231 46.8512 73.2433 46.7853 73.2585 46.7161C73.272 46.6485 73.2787 46.5792 73.2787 46.5116V41.9334H76.0684ZM24.2492 37.4245H37.5432C38.1011 37.4245 38.5545 36.97 38.5545 36.4108C38.5545 35.8517 38.1011 35.3972 37.5432 35.3972H27.3304L49.9995 24.1442L72.6686 35.3972H62.4558C61.8978 35.3972 61.4444 35.8517 61.4444 36.4108C61.4444 36.97 61.8978 37.4245 62.4558 37.4245H75.7498L75.2424 39.9062H72.2674H27.7332H24.7565L24.2492 37.4245ZM43.8809 47.527L45.3659 51.0155V66.5055L43.8809 69.994H39.3046L37.8196 66.5055V51.0172L39.3046 47.5287H43.8809V47.527ZM60.696 47.527L62.181 51.0155V66.5055L60.696 69.994H56.1181L54.6331 66.5055V51.0172L56.1181 47.5287H60.696V47.527ZM64.2054 51.8231H69.4272V65.6996H64.2054V51.8231ZM69.7711 49.7958H63.8615L62.8957 47.527H70.7369L69.7711 49.7958ZM52.6104 65.6996H47.3885V51.8231H52.6104V65.6996ZM47.0447 67.7269H52.9543L53.9201 69.9957H46.0789L47.0447 67.7269ZM52.9543 49.7958H47.0447L46.0789 47.527H53.9201L52.9543 49.7958ZM30.5734 51.8231H35.7953V65.6996H30.5734V51.8231ZM36.1391 49.7958H30.2295L29.2637 47.527H37.1049L36.1391 49.7958ZM30.2295 67.7269H36.1391L37.1049 69.9957H29.2637L30.2295 67.7269ZM75.4211 75.9727H24.5779L26.3612 72.023H27.7214C27.7265 72.023 27.7332 72.023 27.7383 72.023H38.6321C38.6337 72.023 38.6354 72.023 38.6371 72.023C38.6388 72.023 38.6422 72.023 38.6439 72.023H44.5366C44.5416 72.023 44.5484 72.023 44.5534 72.023H55.4472C55.4489 72.023 55.4506 72.023 55.4523 72.023C55.4539 72.023 55.4573 72.023 55.459 72.023H61.3534C61.3585 72.023 61.3652 72.023 61.3703 72.023H72.264C72.2657 72.023 72.2674 72.023 72.2691 72.023C72.2708 72.023 72.2742 72.023 72.2758 72.023H73.6395L75.4211 75.9727ZM62.8957 69.9957L63.8615 67.7269H69.7711L70.7369 69.9957H62.8957ZM71.2561 45.4997H61.3719C61.3652 45.4997 61.3585 45.4997 61.3534 45.4997H55.4607C55.4556 45.4997 55.4506 45.4997 55.4472 45.4997H44.5551C44.5484 45.4997 44.5416 45.4997 44.5366 45.4997H38.6472C38.6422 45.4997 38.6371 45.4997 38.6337 45.4997H28.7446V41.9317H71.2561V45.4997ZM49.9995 38.1644C53.0369 38.1644 55.5096 35.6878 55.5096 32.6418C55.5096 29.5959 53.0369 27.1209 49.9995 27.1209C46.9621 27.1209 44.4894 29.5976 44.4894 32.6435C44.4894 35.6895 46.9621 38.1644 49.9995 38.1644ZM49.9995 29.1482C51.9227 29.1482 53.4869 30.7159 53.4869 32.6435C53.4869 34.5711 51.9227 36.1388 49.9995 36.1388C48.0762 36.1388 46.512 34.5711 46.512 32.6435C46.512 30.7159 48.0762 29.1482 49.9995 29.1482Z" fill="url(#paint3_linear_802_961)"/>
</g>
<defs>
<filter id="filter0_b_802_961" x="-30" y="-30" width="160" height="160" filterUnits="userSpaceOnUse" color-interpolation-filters="sRGB">
<feFlood flood-opacity="0" result="BackgroundImageFix"/>
<feGaussianBlur in="BackgroundImageFix" stdDeviation="15"/>
<feComposite in2="SourceAlpha" operator="in" result="effect1_backgroundBlur_802_961"/>
<feBlend mode="normal" in="SourceGraphic" in2="effect1_backgroundBlur_802_961" result="shape"/>
</filter>
<linearGradient id="paint0_linear_802_961" x1="50" y1="0" x2="50" y2="100" gradientUnits="userSpaceOnUse">
<stop stop-color="white" stop-opacity="0"/>
<stop offset="1" stop-color="white"/>
</linearGradient>
<radialGradient id="paint1_radial_802_961" cx="0" cy="0" r="1" gradientUnits="userSpaceOnUse" gradientTransform="translate(82.6923 80.4762) rotate(77.5615) scale(108.255 45.9545)">
<stop stop-color="white" stop-opacity="0.57"/>
<stop offset="1" stop-color="white" stop-opacity="0"/>
</radialGradient>
<radialGradient id="paint2_radial_802_961" cx="0" cy="0" r="1" gradientUnits="userSpaceOnUse" gradientTransform="translate(10.4567 21.9048) rotate(-95.3611) scale(111.918 31.8727)">
<stop stop-color="white" stop-opacity="0.28"/>
<stop offset="1" stop-color="white" stop-opacity="0"/>
</radialGradient>
<linearGradient id="paint3_linear_802_961" x1="25.669" y1="32.3131" x2="74.4401" y2="80.9739" gradientUnits="userSpaceOnUse">
<stop stop-color="#CB5EEE"/>
<stop offset="1" stop-color="#FF6250"/>
</linearGradient>
<clipPath id="clip0_802_961">
<rect width="100" height="100" fill="white"/>
</clipPath>
</defs>
</svg>
