<svg width="494" height="107" viewBox="0 0 494 107" fill="none" xmlns="http://www.w3.org/2000/svg">
<g filter="url(#filter0_b_322_25404)">
<rect width="212" height="107" rx="30" fill="white" fill-opacity="0.8"/>
<path d="M69.4834 28.24C69.4834 27.5467 69.6007 26.8693 69.8354 26.208C70.0807 25.536 70.4327 24.928 70.8914 24.384C71.3607 23.8293 71.9314 23.392 72.6034 23.072C73.2754 22.7413 74.038 22.576 74.8914 22.576C75.9047 22.576 76.774 22.8107 77.4994 23.28C78.2247 23.7387 78.7634 24.3307 79.1154 25.056L77.9794 25.792C77.7554 25.312 77.4674 24.9333 77.1154 24.656C76.774 24.368 76.4007 24.1653 75.9954 24.048C75.6007 23.9307 75.2114 23.872 74.8274 23.872C74.198 23.872 73.638 24 73.1474 24.256C72.6674 24.512 72.262 24.8533 71.9314 25.28C71.6007 25.7067 71.35 26.1867 71.1794 26.72C71.0194 27.2427 70.9394 27.7707 70.9394 28.304C70.9394 28.8907 71.0354 29.456 71.2274 30C71.43 30.544 71.7074 31.024 72.0594 31.44C72.4114 31.856 72.8274 32.1867 73.3074 32.432C73.7874 32.6773 74.31 32.8 74.8754 32.8C75.27 32.8 75.6754 32.7307 76.0914 32.592C76.5074 32.4533 76.8967 32.24 77.2594 31.952C77.622 31.6533 77.91 31.2693 78.1234 30.8L79.3234 31.456C79.0887 32.0213 78.726 32.5013 78.2354 32.896C77.7447 33.2907 77.1954 33.5893 76.5874 33.792C75.99 33.9947 75.398 34.096 74.8114 34.096C74.0327 34.096 73.318 33.9307 72.6674 33.6C72.0167 33.2587 71.4514 32.8107 70.9714 32.256C70.502 31.6907 70.134 31.0613 69.8674 30.368C69.6114 29.664 69.4834 28.9547 69.4834 28.24ZM81.9416 37.504C81.7603 37.504 81.5736 37.4773 81.3816 37.424C81.2003 37.3707 81.0136 37.2907 80.8216 37.184L81.3016 36.224C81.3976 36.2773 81.4883 36.3147 81.5736 36.336C81.6696 36.368 81.7603 36.384 81.8456 36.384C82.1016 36.384 82.3416 36.2613 82.5656 36.016C82.8003 35.7813 83.019 35.4187 83.2216 34.928L83.6216 33.92L79.9576 25.648H81.4456L84.2616 32.576L86.8056 25.648H88.1976L84.2936 35.36C84.1016 35.84 83.883 36.2347 83.6376 36.544C83.3923 36.864 83.1256 37.104 82.8376 37.264C82.5496 37.424 82.251 37.504 81.9416 37.504ZM89.6044 34V25.648H91.0604L94.1644 31.12L97.2844 25.648H98.7084V34H97.3644V27.68L94.6124 32.512H93.7164L90.9484 27.68V34H89.6044ZM100.964 34V25.648H102.42L105.524 31.12L108.644 25.648H110.068V34H108.724V27.68L105.972 32.512H105.076L102.308 27.68V34H100.964ZM111.683 31.584C111.683 31.0507 111.832 30.592 112.131 30.208C112.44 29.8133 112.862 29.5093 113.395 29.296C113.928 29.0827 114.547 28.976 115.251 28.976C115.624 28.976 116.019 29.008 116.435 29.072C116.851 29.1253 117.219 29.2107 117.539 29.328V28.72C117.539 28.08 117.347 27.5787 116.963 27.216C116.579 26.8427 116.035 26.656 115.331 26.656C114.872 26.656 114.43 26.7413 114.003 26.912C113.587 27.072 113.144 27.3067 112.675 27.616L112.163 26.624C112.707 26.2507 113.251 25.9733 113.795 25.792C114.339 25.6 114.904 25.504 115.491 25.504C116.558 25.504 117.4 25.8027 118.019 26.4C118.638 26.9867 118.947 27.808 118.947 28.864V32.4C118.947 32.5707 118.979 32.6987 119.043 32.784C119.118 32.8587 119.235 32.9013 119.395 32.912V34C119.256 34.0213 119.134 34.0373 119.027 34.048C118.931 34.0587 118.851 34.064 118.787 34.064C118.456 34.064 118.206 33.9733 118.035 33.792C117.875 33.6107 117.784 33.4187 117.763 33.216L117.731 32.688C117.368 33.1573 116.894 33.52 116.307 33.776C115.72 34.032 115.139 34.16 114.563 34.16C114.008 34.16 113.512 34.048 113.075 33.824C112.638 33.5893 112.296 33.28 112.051 32.896C111.806 32.5013 111.683 32.064 111.683 31.584ZM117.123 32.176C117.251 32.0267 117.352 31.8773 117.427 31.728C117.502 31.568 117.539 31.4347 117.539 31.328V30.288C117.208 30.16 116.862 30.064 116.499 30C116.136 29.9253 115.779 29.888 115.427 29.888C114.712 29.888 114.131 30.032 113.683 30.32C113.246 30.5973 113.027 30.9813 113.027 31.472C113.027 31.7387 113.096 32 113.235 32.256C113.384 32.5013 113.598 32.704 113.875 32.864C114.163 33.024 114.515 33.104 114.931 33.104C115.368 33.104 115.784 33.0187 116.179 32.848C116.574 32.6667 116.888 32.4427 117.123 32.176ZM124.317 35.968V32.752H124.493C124.728 32.752 124.941 32.6827 125.133 32.544C125.336 32.4053 125.512 32.1653 125.661 31.824C125.821 31.472 125.949 30.992 126.045 30.384C126.141 29.776 126.205 29.0027 126.237 28.064L126.317 25.648H131.997V32.752H133.133V35.968H131.885V34H125.565V35.968H124.317ZM126.461 32.752H130.589V26.896H127.565L127.517 28.192C127.485 29.0987 127.421 29.8613 127.325 30.48C127.24 31.088 127.123 31.5733 126.973 31.936C126.835 32.2987 126.664 32.5707 126.461 32.752ZM138.347 34.16C137.717 34.16 137.147 34.048 136.635 33.824C136.123 33.5893 135.68 33.2747 135.307 32.88C134.933 32.4747 134.645 32.0107 134.443 31.488C134.24 30.9653 134.139 30.416 134.139 29.84C134.139 29.2533 134.24 28.6987 134.443 28.176C134.645 27.6533 134.933 27.1947 135.307 26.8C135.68 26.3947 136.123 26.08 136.635 25.856C137.157 25.6213 137.728 25.504 138.347 25.504C138.976 25.504 139.547 25.6213 140.059 25.856C140.571 26.08 141.013 26.3947 141.387 26.8C141.771 27.1947 142.064 27.6533 142.267 28.176C142.469 28.6987 142.571 29.2533 142.571 29.84C142.571 30.416 142.469 30.9653 142.267 31.488C142.064 32.0107 141.776 32.4747 141.403 32.88C141.029 33.2747 140.581 33.5893 140.059 33.824C139.547 34.048 138.976 34.16 138.347 34.16ZM135.579 29.856C135.579 30.432 135.701 30.9547 135.947 31.424C136.203 31.8933 136.539 32.2667 136.955 32.544C137.371 32.8107 137.835 32.944 138.347 32.944C138.859 32.944 139.323 32.8053 139.739 32.528C140.165 32.2507 140.501 31.8773 140.747 31.408C141.003 30.928 141.131 30.4 141.131 29.824C141.131 29.248 141.003 28.7253 140.747 28.256C140.501 27.7867 140.165 27.4133 139.739 27.136C139.323 26.8587 138.859 26.72 138.347 26.72C137.835 26.72 137.371 26.864 136.955 27.152C136.539 27.4293 136.203 27.8027 135.947 28.272C135.701 28.7413 135.579 29.2693 135.579 29.856Z" fill="#2A2E33"/>
<path d="M29.3193 47.8H34.8393V80H28.4913V54.516L22.4193 56.218L20.8553 50.79L29.3193 47.8ZM50.5583 59.53C53.6557 59.53 56.2623 60.4653 58.3783 62.336C60.4943 64.176 61.5523 66.752 61.5523 70.064C61.5523 73.376 60.433 75.9673 58.1943 77.838C55.9863 79.7087 53.2723 80.644 50.0523 80.644C47.4457 80.644 45.1457 80.0613 43.1523 78.896C41.159 77.7307 39.7177 76.0133 38.8283 73.744L44.2563 70.57C45.0537 73.146 46.9857 74.434 50.0523 74.434C51.6777 74.434 52.935 74.0507 53.8243 73.284C54.7443 72.4867 55.2043 71.4133 55.2043 70.064C55.2043 68.7453 54.7597 67.6873 53.8703 66.89C52.981 66.0927 51.7697 65.694 50.2363 65.694H40.4843L41.7723 47.8H60.0343V53.734H47.6603L47.2463 59.53H50.5583ZM100.093 57V80H94.3435V66.568L88.5015 75.768H87.7655L81.8775 66.476V80H76.1735V57H82.0155L88.1335 66.66L94.2515 57H100.093ZM124.781 57V80H118.847V62.704H112.499V70.386C112.499 77.5007 109.264 80.7053 102.793 80V74.434C104.02 74.7407 104.955 74.5413 105.599 73.836C106.243 73.1 106.565 71.8427 106.565 70.064V57H124.781ZM144.787 57H150.721V80H144.787V71.26H135.633V80H129.699V57H135.633V65.694H144.787V57ZM180.078 68.822H174.374V71.352H184.632V75.4H174.374V80H168.072V75.4H164.622V71.352H168.072V68.822H164.622V63.256H168.072V47.8H180.078C183.114 47.8 185.674 48.8427 187.76 50.928C189.876 53.0133 190.934 55.528 190.934 58.472C190.934 61.416 189.891 63.8847 187.806 65.878C185.72 67.8407 183.144 68.822 180.078 68.822ZM174.374 53.734V63.256H180.078C181.366 63.256 182.439 62.796 183.298 61.876C184.187 60.956 184.632 59.8213 184.632 58.472C184.632 57.1227 184.187 56.0033 183.298 55.114C182.439 54.194 181.366 53.734 180.078 53.734H174.374Z" fill="url(#paint0_linear_322_25404)"/>
<rect x="1" y="1" width="210" height="105" rx="29" stroke="url(#paint1_radial_322_25404)" stroke-width="2"/>
<rect x="1" y="1" width="210" height="105" rx="29" stroke="url(#paint2_radial_322_25404)" stroke-width="2"/>
</g>
<g filter="url(#filter1_b_322_25404)">
<rect x="222" width="115" height="107" rx="30" fill="white" fill-opacity="0.8"/>
<path d="M242.765 28.24C242.765 27.5467 242.882 26.8693 243.117 26.208C243.362 25.536 243.714 24.928 244.173 24.384C244.642 23.8293 245.213 23.392 245.885 23.072C246.557 22.7413 247.319 22.576 248.173 22.576C249.186 22.576 250.055 22.8107 250.781 23.28C251.506 23.7387 252.045 24.3307 252.397 25.056L251.261 25.792C251.037 25.312 250.749 24.9333 250.397 24.656C250.055 24.368 249.682 24.1653 249.277 24.048C248.882 23.9307 248.493 23.872 248.109 23.872C247.479 23.872 246.919 24 246.429 24.256C245.949 24.512 245.543 24.8533 245.213 25.28C244.882 25.7067 244.631 26.1867 244.461 26.72C244.301 27.2427 244.221 27.7707 244.221 28.304C244.221 28.8907 244.317 29.456 244.509 30C244.711 30.544 244.989 31.024 245.341 31.44C245.693 31.856 246.109 32.1867 246.589 32.432C247.069 32.6773 247.591 32.8 248.157 32.8C248.551 32.8 248.957 32.7307 249.373 32.592C249.789 32.4533 250.178 32.24 250.541 31.952C250.903 31.6533 251.191 31.2693 251.405 30.8L252.605 31.456C252.37 32.0213 252.007 32.5013 251.517 32.896C251.026 33.2907 250.477 33.5893 249.869 33.792C249.271 33.9947 248.679 34.096 248.093 34.096C247.314 34.096 246.599 33.9307 245.949 33.6C245.298 33.2587 244.733 32.8107 244.253 32.256C243.783 31.6907 243.415 31.0613 243.149 30.368C242.893 29.664 242.765 28.9547 242.765 28.24ZM256.215 34V26.896H253.335V25.648H260.503V26.896H257.623V34H256.215ZM261.261 31.584C261.261 31.0507 261.411 30.592 261.709 30.208C262.019 29.8133 262.44 29.5093 262.973 29.296C263.507 29.0827 264.125 28.976 264.829 28.976C265.203 28.976 265.597 29.008 266.013 29.072C266.429 29.1253 266.797 29.2107 267.117 29.328V28.72C267.117 28.08 266.925 27.5787 266.541 27.216C266.157 26.8427 265.613 26.656 264.909 26.656C264.451 26.656 264.008 26.7413 263.581 26.912C263.165 27.072 262.723 27.3067 262.253 27.616L261.741 26.624C262.285 26.2507 262.829 25.9733 263.373 25.792C263.917 25.6 264.483 25.504 265.069 25.504C266.136 25.504 266.979 25.8027 267.597 26.4C268.216 26.9867 268.525 27.808 268.525 28.864V32.4C268.525 32.5707 268.557 32.6987 268.621 32.784C268.696 32.8587 268.813 32.9013 268.973 32.912V34C268.835 34.0213 268.712 34.0373 268.605 34.048C268.509 34.0587 268.429 34.064 268.365 34.064C268.035 34.064 267.784 33.9733 267.613 33.792C267.453 33.6107 267.363 33.4187 267.341 33.216L267.309 32.688C266.947 33.1573 266.472 33.52 265.885 33.776C265.299 34.032 264.717 34.16 264.141 34.16C263.587 34.16 263.091 34.048 262.653 33.824C262.216 33.5893 261.875 33.28 261.629 32.896C261.384 32.5013 261.261 32.064 261.261 31.584ZM266.701 32.176C266.829 32.0267 266.931 31.8773 267.005 31.728C267.08 31.568 267.117 31.4347 267.117 31.328V30.288C266.787 30.16 266.44 30.064 266.077 30C265.715 29.9253 265.357 29.888 265.005 29.888C264.291 29.888 263.709 30.032 263.261 30.32C262.824 30.5973 262.605 30.9813 262.605 31.472C262.605 31.7387 262.675 32 262.813 32.256C262.963 32.5013 263.176 32.704 263.453 32.864C263.741 33.024 264.093 33.104 264.509 33.104C264.947 33.104 265.363 33.0187 265.757 32.848C266.152 32.6667 266.467 32.4427 266.701 32.176ZM270.761 34V25.648H275.081C275.582 25.648 275.998 25.7493 276.329 25.952C276.659 26.144 276.905 26.3947 277.065 26.704C277.235 27.0133 277.321 27.344 277.321 27.696C277.321 28.144 277.214 28.5493 277.001 28.912C276.787 29.264 276.478 29.5307 276.073 29.712C276.553 29.8507 276.942 30.1013 277.241 30.464C277.539 30.816 277.689 31.2533 277.689 31.776C277.689 32.2453 277.577 32.6453 277.353 32.976C277.129 33.3067 276.814 33.5627 276.409 33.744C276.003 33.9147 275.534 34 275.001 34H270.761ZM272.105 33.008H274.969C275.225 33.008 275.454 32.944 275.657 32.816C275.87 32.688 276.035 32.5173 276.153 32.304C276.27 32.0907 276.329 31.8667 276.329 31.632C276.329 31.376 276.27 31.1467 276.153 30.944C276.046 30.7307 275.891 30.5653 275.689 30.448C275.497 30.32 275.273 30.256 275.017 30.256H272.105V33.008ZM272.105 29.328H274.713C274.969 29.328 275.193 29.264 275.385 29.136C275.577 28.9973 275.726 28.8213 275.833 28.608C275.939 28.3947 275.993 28.1707 275.993 27.936C275.993 27.584 275.875 27.28 275.641 27.024C275.417 26.768 275.123 26.64 274.761 26.64H272.105V29.328ZM279.464 34V25.648H280.872V29.088H281.8L284.424 25.648H286.024L282.904 29.696L286.392 34H284.76L281.8 30.384H280.872V34H279.464ZM287.121 31.584C287.121 31.0507 287.27 30.592 287.569 30.208C287.878 29.8133 288.299 29.5093 288.833 29.296C289.366 29.0827 289.985 28.976 290.689 28.976C291.062 28.976 291.457 29.008 291.873 29.072C292.289 29.1253 292.657 29.2107 292.977 29.328V28.72C292.977 28.08 292.785 27.5787 292.401 27.216C292.017 26.8427 291.473 26.656 290.769 26.656C290.31 26.656 289.867 26.7413 289.441 26.912C289.025 27.072 288.582 27.3067 288.113 27.616L287.601 26.624C288.145 26.2507 288.689 25.9733 289.233 25.792C289.777 25.6 290.342 25.504 290.929 25.504C291.995 25.504 292.838 25.8027 293.457 26.4C294.075 26.9867 294.385 27.808 294.385 28.864V32.4C294.385 32.5707 294.417 32.6987 294.481 32.784C294.555 32.8587 294.673 32.9013 294.833 32.912V34C294.694 34.0213 294.571 34.0373 294.465 34.048C294.369 34.0587 294.289 34.064 294.225 34.064C293.894 34.064 293.643 33.9733 293.473 33.792C293.313 33.6107 293.222 33.4187 293.201 33.216L293.169 32.688C292.806 33.1573 292.331 33.52 291.745 33.776C291.158 34.032 290.577 34.16 290.001 34.16C289.446 34.16 288.95 34.048 288.513 33.824C288.075 33.5893 287.734 33.28 287.489 32.896C287.243 32.5013 287.121 32.064 287.121 31.584ZM292.561 32.176C292.689 32.0267 292.79 31.8773 292.865 31.728C292.939 31.568 292.977 31.4347 292.977 31.328V30.288C292.646 30.16 292.299 30.064 291.937 30C291.574 29.9253 291.217 29.888 290.865 29.888C290.15 29.888 289.569 30.032 289.121 30.32C288.683 30.5973 288.465 30.9813 288.465 31.472C288.465 31.7387 288.534 32 288.673 32.256C288.822 32.5013 289.035 32.704 289.313 32.864C289.601 33.024 289.953 33.104 290.369 33.104C290.806 33.104 291.222 33.0187 291.617 32.848C292.011 32.6667 292.326 32.4427 292.561 32.176ZM304.331 34.16C303.702 34.16 303.131 34.048 302.619 33.824C302.107 33.5893 301.664 33.2747 301.291 32.88C300.918 32.4747 300.63 32.0107 300.427 31.488C300.224 30.9653 300.123 30.416 300.123 29.84C300.123 29.2533 300.224 28.6987 300.427 28.176C300.63 27.6533 300.918 27.1947 301.291 26.8C301.664 26.3947 302.107 26.08 302.619 25.856C303.142 25.6213 303.712 25.504 304.331 25.504C304.96 25.504 305.531 25.6213 306.043 25.856C306.555 26.08 306.998 26.3947 307.371 26.8C307.755 27.1947 308.048 27.6533 308.251 28.176C308.454 28.6987 308.555 29.2533 308.555 29.84C308.555 30.416 308.454 30.9653 308.251 31.488C308.048 32.0107 307.76 32.4747 307.387 32.88C307.014 33.2747 306.566 33.5893 306.043 33.824C305.531 34.048 304.96 34.16 304.331 34.16ZM301.563 29.856C301.563 30.432 301.686 30.9547 301.931 31.424C302.187 31.8933 302.523 32.2667 302.939 32.544C303.355 32.8107 303.819 32.944 304.331 32.944C304.843 32.944 305.307 32.8053 305.723 32.528C306.15 32.2507 306.486 31.8773 306.731 31.408C306.987 30.928 307.115 30.4 307.115 29.824C307.115 29.248 306.987 28.7253 306.731 28.256C306.486 27.7867 306.15 27.4133 305.723 27.136C305.307 26.8587 304.843 26.72 304.331 26.72C303.819 26.72 303.355 26.864 302.939 27.152C302.523 27.4293 302.187 27.8027 301.931 28.272C301.686 28.7413 301.563 29.2693 301.563 29.856ZM312.293 34V26.896H309.413V25.648H316.581V26.896H313.701V34H312.293Z" fill="#2A2E33"/>
<path d="M263.236 58.242C266.579 58.334 269.293 59.4227 271.378 61.508C273.464 63.5627 274.506 66.2 274.506 69.42C274.506 72.7013 273.418 75.4 271.24 77.516C269.063 79.6013 266.257 80.644 262.822 80.644C259.388 80.644 256.582 79.6013 254.404 77.516C252.258 75.4307 251.184 72.732 251.184 69.42C251.184 66.9667 251.813 64.8047 253.07 62.934L263.098 47.8H270.366L263.236 58.242ZM259.004 73.238C260.016 74.1887 261.289 74.664 262.822 74.664C264.356 74.664 265.628 74.1887 266.64 73.238C267.683 72.2873 268.204 71.0147 268.204 69.42C268.204 67.856 267.683 66.5987 266.64 65.648C265.628 64.6973 264.356 64.222 262.822 64.222C261.289 64.222 260.016 64.6973 259.004 65.648C257.992 66.568 257.486 67.8253 257.486 69.42C257.486 71.0147 257.992 72.2873 259.004 73.238ZM289.064 60.174C287.592 61.6153 285.752 62.336 283.544 62.336C281.336 62.336 279.48 61.6 277.978 60.128C276.506 58.656 275.77 56.862 275.77 54.746C275.77 52.63 276.506 50.836 277.978 49.364C279.48 47.892 281.336 47.156 283.544 47.156C285.752 47.156 287.592 47.892 289.064 49.364C290.536 50.8053 291.272 52.5993 291.272 54.746C291.272 56.8927 290.536 58.702 289.064 60.174ZM279.036 75.124L300.012 51.802L302.818 53.366L281.796 76.734L279.036 75.124ZM281.428 56.862C281.98 57.414 282.67 57.69 283.498 57.69C284.326 57.69 285.016 57.414 285.568 56.862C286.12 56.2793 286.396 55.574 286.396 54.746C286.396 53.918 286.12 53.228 285.568 52.676C285.016 52.124 284.326 51.848 283.498 51.848C282.67 51.848 281.98 52.124 281.428 52.676C280.906 53.228 280.646 53.918 280.646 54.746C280.646 55.574 280.906 56.2793 281.428 56.862ZM304.612 78.344C303.14 79.816 301.3 80.552 299.092 80.552C296.884 80.552 295.044 79.816 293.572 78.344C292.1 76.872 291.364 75.078 291.364 72.962C291.364 70.846 292.1 69.052 293.572 67.58C295.044 66.108 296.884 65.372 299.092 65.372C301.3 65.372 303.14 66.108 304.612 67.58C306.084 69.052 306.82 70.846 306.82 72.962C306.82 75.078 306.084 76.872 304.612 78.344ZM297.022 75.078C297.574 75.63 298.264 75.906 299.092 75.906C299.92 75.906 300.594 75.6147 301.116 75.032C301.668 74.4493 301.944 73.7593 301.944 72.962C301.944 72.134 301.668 71.444 301.116 70.892C300.594 70.3093 299.92 70.018 299.092 70.018C298.264 70.018 297.574 70.3093 297.022 70.892C296.5 71.444 296.24 72.134 296.24 72.962C296.24 73.79 296.5 74.4953 297.022 75.078Z" fill="url(#paint3_linear_322_25404)"/>
<rect x="223" y="1" width="113" height="105" rx="29" stroke="url(#paint4_radial_322_25404)" stroke-width="2"/>
<rect x="223" y="1" width="113" height="105" rx="29" stroke="url(#paint5_radial_322_25404)" stroke-width="2"/>
</g>
<g filter="url(#filter2_b_322_25404)">
<rect x="347" width="147" height="107" rx="30" fill="white" fill-opacity="0.8"/>
<path d="M390.21 28.24C390.21 27.5467 390.327 26.8693 390.562 26.208C390.807 25.536 391.159 24.928 391.618 24.384C392.087 23.8293 392.658 23.392 393.33 23.072C394.002 22.7413 394.765 22.576 395.618 22.576C396.631 22.576 397.501 22.8107 398.226 23.28C398.951 23.7387 399.49 24.3307 399.842 25.056L398.706 25.792C398.482 25.312 398.194 24.9333 397.842 24.656C397.501 24.368 397.127 24.1653 396.722 24.048C396.327 23.9307 395.938 23.872 395.554 23.872C394.925 23.872 394.365 24 393.874 24.256C393.394 24.512 392.989 24.8533 392.658 25.28C392.327 25.7067 392.077 26.1867 391.906 26.72C391.746 27.2427 391.666 27.7707 391.666 28.304C391.666 28.8907 391.762 29.456 391.954 30C392.157 30.544 392.434 31.024 392.786 31.44C393.138 31.856 393.554 32.1867 394.034 32.432C394.514 32.6773 395.037 32.8 395.602 32.8C395.997 32.8 396.402 32.7307 396.818 32.592C397.234 32.4533 397.623 32.24 397.986 31.952C398.349 31.6533 398.637 31.2693 398.85 30.8L400.05 31.456C399.815 32.0213 399.453 32.5013 398.962 32.896C398.471 33.2907 397.922 33.5893 397.314 33.792C396.717 33.9947 396.125 34.096 395.538 34.096C394.759 34.096 394.045 33.9307 393.394 33.6C392.743 33.2587 392.178 32.8107 391.698 32.256C391.229 31.6907 390.861 31.0613 390.594 30.368C390.338 29.664 390.21 28.9547 390.21 28.24ZM406.124 34.16C405.442 34.16 404.834 33.9893 404.3 33.648C403.767 33.3067 403.346 32.8747 403.036 32.352V37.408H401.628V25.648H402.876V27.216C403.207 26.704 403.639 26.2933 404.172 25.984C404.706 25.664 405.287 25.504 405.916 25.504C406.492 25.504 407.02 25.6213 407.5 25.856C407.98 26.0907 408.396 26.4107 408.748 26.816C409.1 27.2213 409.372 27.6853 409.564 28.208C409.767 28.72 409.868 29.2587 409.868 29.824C409.868 30.6133 409.708 31.3387 409.388 32C409.079 32.6613 408.642 33.1893 408.076 33.584C407.511 33.968 406.86 34.16 406.124 34.16ZM405.692 32.944C406.108 32.944 406.482 32.8587 406.812 32.688C407.154 32.5067 407.442 32.272 407.676 31.984C407.922 31.6853 408.108 31.3493 408.236 30.976C408.364 30.6027 408.428 30.2187 408.428 29.824C408.428 29.408 408.354 29.0133 408.204 28.64C408.066 28.2667 407.863 27.936 407.596 27.648C407.34 27.36 407.036 27.136 406.684 26.976C406.343 26.8053 405.97 26.72 405.564 26.72C405.308 26.72 405.042 26.768 404.764 26.864C404.498 26.96 404.242 27.0987 403.996 27.28C403.751 27.4507 403.543 27.648 403.372 27.872C403.202 28.096 403.09 28.336 403.036 28.592V30.976C403.196 31.3387 403.41 31.6693 403.676 31.968C403.943 32.2667 404.252 32.5067 404.604 32.688C404.956 32.8587 405.319 32.944 405.692 32.944ZM415.245 34.16C414.616 34.16 414.045 34.048 413.533 33.824C413.021 33.5893 412.578 33.2747 412.205 32.88C411.832 32.4747 411.544 32.0107 411.341 31.488C411.138 30.9653 411.037 30.416 411.037 29.84C411.037 29.2533 411.138 28.6987 411.341 28.176C411.544 27.6533 411.832 27.1947 412.205 26.8C412.578 26.3947 413.021 26.08 413.533 25.856C414.056 25.6213 414.626 25.504 415.245 25.504C415.874 25.504 416.445 25.6213 416.957 25.856C417.469 26.08 417.912 26.3947 418.285 26.8C418.669 27.1947 418.962 27.6533 419.165 28.176C419.368 28.6987 419.469 29.2533 419.469 29.84C419.469 30.416 419.368 30.9653 419.165 31.488C418.962 32.0107 418.674 32.4747 418.301 32.88C417.928 33.2747 417.48 33.5893 416.957 33.824C416.445 34.048 415.874 34.16 415.245 34.16ZM412.477 29.856C412.477 30.432 412.6 30.9547 412.845 31.424C413.101 31.8933 413.437 32.2667 413.853 32.544C414.269 32.8107 414.733 32.944 415.245 32.944C415.757 32.944 416.221 32.8053 416.637 32.528C417.064 32.2507 417.4 31.8773 417.645 31.408C417.901 30.928 418.029 30.4 418.029 29.824C418.029 29.248 417.901 28.7253 417.645 28.256C417.4 27.7867 417.064 27.4133 416.637 27.136C416.221 26.8587 415.757 26.72 415.245 26.72C414.733 26.72 414.269 26.864 413.853 27.152C413.437 27.4293 413.101 27.8027 412.845 28.272C412.6 28.7413 412.477 29.2693 412.477 29.856ZM421.159 34V25.648H422.567V29.088H423.495L426.119 25.648H427.719L424.599 29.696L428.087 34H426.455L423.495 30.384H422.567V34H421.159ZM432.591 35.968V32.752H432.767C433.001 32.752 433.215 32.6827 433.407 32.544C433.609 32.4053 433.785 32.1653 433.935 31.824C434.095 31.472 434.223 30.992 434.319 30.384C434.415 29.776 434.479 29.0027 434.511 28.064L434.591 25.648H440.271V32.752H441.407V35.968H440.159V34H433.839V35.968H432.591ZM434.735 32.752H438.863V26.896H435.839L435.791 28.192C435.759 29.0987 435.695 29.8613 435.599 30.48C435.513 31.088 435.396 31.5733 435.247 31.936C435.108 32.2987 434.937 32.5707 434.735 32.752ZM446.62 34.16C445.991 34.16 445.42 34.048 444.908 33.824C444.396 33.5893 443.953 33.2747 443.58 32.88C443.207 32.4747 442.919 32.0107 442.716 31.488C442.513 30.9653 442.412 30.416 442.412 29.84C442.412 29.2533 442.513 28.6987 442.716 28.176C442.919 27.6533 443.207 27.1947 443.58 26.8C443.953 26.3947 444.396 26.08 444.908 25.856C445.431 25.6213 446.001 25.504 446.62 25.504C447.249 25.504 447.82 25.6213 448.332 25.856C448.844 26.08 449.287 26.3947 449.66 26.8C450.044 27.1947 450.337 27.6533 450.54 28.176C450.743 28.6987 450.844 29.2533 450.844 29.84C450.844 30.416 450.743 30.9653 450.54 31.488C450.337 32.0107 450.049 32.4747 449.676 32.88C449.303 33.2747 448.855 33.5893 448.332 33.824C447.82 34.048 447.249 34.16 446.62 34.16ZM443.852 29.856C443.852 30.432 443.975 30.9547 444.22 31.424C444.476 31.8933 444.812 32.2667 445.228 32.544C445.644 32.8107 446.108 32.944 446.62 32.944C447.132 32.944 447.596 32.8053 448.012 32.528C448.439 32.2507 448.775 31.8773 449.02 31.408C449.276 30.928 449.404 30.4 449.404 29.824C449.404 29.248 449.276 28.7253 449.02 28.256C448.775 27.7867 448.439 27.4133 448.012 27.136C447.596 26.8587 447.132 26.72 446.62 26.72C446.108 26.72 445.644 26.864 445.228 27.152C444.812 27.4293 444.476 27.8027 444.22 28.272C443.975 28.7413 443.852 29.2693 443.852 29.856Z" fill="#2A2E33"/>
<path d="M383.258 60.864C385.435 61.508 387.198 62.6427 388.548 64.268C389.928 65.8627 390.618 67.7947 390.618 70.064C390.618 73.376 389.498 75.9673 387.26 77.838C385.052 79.7087 382.338 80.644 379.118 80.644C376.603 80.644 374.349 80.0767 372.356 78.942C370.393 77.7767 368.967 76.0747 368.078 73.836L373.506 70.708C374.303 73.192 376.174 74.434 379.118 74.434C380.743 74.434 382 74.0507 382.89 73.284C383.81 72.4867 384.27 71.4133 384.27 70.064C384.27 68.7453 383.81 67.6873 382.89 66.89C382 66.0927 380.743 65.694 379.118 65.694H377.738L375.3 62.014L381.648 53.734H369.044V47.8H389.284V53.044L383.258 60.864ZM425.114 57V80H419.18V62.704H412.832V70.386C412.832 77.5007 409.597 80.7053 403.126 80V74.434C404.353 74.7407 405.288 74.5413 405.932 73.836C406.576 73.1 406.898 71.8427 406.898 70.064V57H425.114ZM435.045 70.938C435.843 73.8207 438.005 75.262 441.531 75.262C443.801 75.262 445.518 74.4953 446.683 72.962L451.467 75.722C449.198 79.0033 445.855 80.644 441.439 80.644C437.637 80.644 434.585 79.494 432.285 77.194C429.985 74.894 428.835 71.996 428.835 68.5C428.835 65.0347 429.97 62.152 432.239 59.852C434.509 57.5213 437.422 56.356 440.979 56.356C444.353 56.356 447.128 57.5213 449.305 59.852C451.513 62.1827 452.617 65.0653 452.617 68.5C452.617 69.2667 452.541 70.0793 452.387 70.938H435.045ZM434.953 66.338H446.683C446.346 64.774 445.641 63.6087 444.567 62.842C443.525 62.0753 442.329 61.692 440.979 61.692C439.385 61.692 438.066 62.106 437.023 62.934C435.981 63.7313 435.291 64.866 434.953 66.338ZM473.525 57V62.704H466.349V80H460.415V62.704H453.147V57H473.525Z" fill="url(#paint6_linear_322_25404)"/>
<rect x="348" y="1" width="145" height="105" rx="29" stroke="url(#paint7_radial_322_25404)" stroke-width="2"/>
<rect x="348" y="1" width="145" height="105" rx="29" stroke="url(#paint8_radial_322_25404)" stroke-width="2"/>
</g>
<defs>
<filter id="filter0_b_322_25404" x="-20" y="-20" width="252" height="147" filterUnits="userSpaceOnUse" color-interpolation-filters="sRGB">
<feFlood flood-opacity="0" result="BackgroundImageFix"/>
<feGaussianBlur in="BackgroundImageFix" stdDeviation="10"/>
<feComposite in2="SourceAlpha" operator="in" result="effect1_backgroundBlur_322_25404"/>
<feBlend mode="normal" in="SourceGraphic" in2="effect1_backgroundBlur_322_25404" result="shape"/>
</filter>
<filter id="filter1_b_322_25404" x="202" y="-20" width="155" height="147" filterUnits="userSpaceOnUse" color-interpolation-filters="sRGB">
<feFlood flood-opacity="0" result="BackgroundImageFix"/>
<feGaussianBlur in="BackgroundImageFix" stdDeviation="10"/>
<feComposite in2="SourceAlpha" operator="in" result="effect1_backgroundBlur_322_25404"/>
<feBlend mode="normal" in="SourceGraphic" in2="effect1_backgroundBlur_322_25404" result="shape"/>
</filter>
<filter id="filter2_b_322_25404" x="327" y="-20" width="187" height="147" filterUnits="userSpaceOnUse" color-interpolation-filters="sRGB">
<feFlood flood-opacity="0" result="BackgroundImageFix"/>
<feGaussianBlur in="BackgroundImageFix" stdDeviation="10"/>
<feComposite in2="SourceAlpha" operator="in" result="effect1_backgroundBlur_322_25404"/>
<feBlend mode="normal" in="SourceGraphic" in2="effect1_backgroundBlur_322_25404" result="shape"/>
</filter>
<linearGradient id="paint0_linear_322_25404" x1="47.8476" y1="20" x2="186.398" y2="88.5957" gradientUnits="userSpaceOnUse">
<stop stop-color="#A259FF"/>
<stop offset="1" stop-color="#FF6250"/>
</linearGradient>
<radialGradient id="paint1_radial_322_25404" cx="0" cy="0" r="1" gradientUnits="userSpaceOnUse" gradientTransform="translate(175.308 86.1095) rotate(66.3939) scale(123.444 91.4169)">
<stop stop-color="white"/>
<stop offset="1" stop-color="white" stop-opacity="0"/>
</radialGradient>
<radialGradient id="paint2_radial_322_25404" cx="0" cy="0" r="1" gradientUnits="userSpaceOnUse" gradientTransform="translate(22.1683 23.4381) rotate(-100.533) scale(121.272 66.7235)">
<stop stop-color="white"/>
<stop offset="1" stop-color="white" stop-opacity="0"/>
</radialGradient>
<linearGradient id="paint3_linear_322_25404" x1="254.143" y1="20" x2="326.016" y2="35.5164" gradientUnits="userSpaceOnUse">
<stop stop-color="#A259FF"/>
<stop offset="1" stop-color="#FF6250"/>
</linearGradient>
<radialGradient id="paint4_radial_322_25404" cx="0" cy="0" r="1" gradientUnits="userSpaceOnUse" gradientTransform="translate(317.096 86.1095) rotate(76.6636) scale(116.249 52.6585)">
<stop stop-color="white"/>
<stop offset="1" stop-color="white" stop-opacity="0"/>
</radialGradient>
<radialGradient id="paint5_radial_322_25404" cx="0" cy="0" r="1" gradientUnits="userSpaceOnUse" gradientTransform="translate(234.025 23.4381) rotate(-95.7593) scale(119.833 36.6288)">
<stop stop-color="white"/>
<stop offset="1" stop-color="white" stop-opacity="0"/>
</radialGradient>
<linearGradient id="paint6_linear_322_25404" x1="384.324" y1="20" x2="482.344" y2="50.1898" gradientUnits="userSpaceOnUse">
<stop stop-color="#A259FF"/>
<stop offset="1" stop-color="#FF6250"/>
</linearGradient>
<radialGradient id="paint7_radial_322_25404" cx="0" cy="0" r="1" gradientUnits="userSpaceOnUse" gradientTransform="translate(468.558 86.1095) rotate(73.1419) scale(118.194 66.204)">
<stop stop-color="white"/>
<stop offset="1" stop-color="white" stop-opacity="0"/>
</radialGradient>
<radialGradient id="paint8_radial_322_25404" cx="0" cy="0" r="1" gradientUnits="userSpaceOnUse" gradientTransform="translate(362.371 23.4381) rotate(-97.3463) scale(120.215 46.6725)">
<stop stop-color="white"/>
<stop offset="1" stop-color="white" stop-opacity="0"/>
</radialGradient>
</defs>
</svg>
