<svg width="558" height="107" viewBox="0 0 558 107" fill="none" xmlns="http://www.w3.org/2000/svg">
<g filter="url(#filter0_b_322_24543)">
<rect x="0.681152" width="246" height="107" rx="30" fill="white" fill-opacity="0.8"/>
<path d="M87.1645 28.24C87.1645 27.5467 87.2819 26.8693 87.5165 26.208C87.7619 25.536 88.1139 24.928 88.5725 24.384C89.0419 23.8293 89.6125 23.392 90.2845 23.072C90.9565 22.7413 91.7192 22.576 92.5725 22.576C93.5859 22.576 94.4552 22.8107 95.1805 23.28C95.9059 23.7387 96.4445 24.3307 96.7965 25.056L95.6605 25.792C95.4365 25.312 95.1485 24.9333 94.7965 24.656C94.4552 24.368 94.0819 24.1653 93.6765 24.048C93.2819 23.9307 92.8925 23.872 92.5085 23.872C91.8792 23.872 91.3192 24 90.8285 24.256C90.3485 24.512 89.9432 24.8533 89.6125 25.28C89.2819 25.7067 89.0312 26.1867 88.8605 26.72C88.7005 27.2427 88.6205 27.7707 88.6205 28.304C88.6205 28.8907 88.7165 29.456 88.9085 30C89.1112 30.544 89.3885 31.024 89.7405 31.44C90.0925 31.856 90.5085 32.1867 90.9885 32.432C91.4685 32.6773 91.9912 32.8 92.5565 32.8C92.9512 32.8 93.3565 32.7307 93.7725 32.592C94.1885 32.4533 94.5779 32.24 94.9405 31.952C95.3032 31.6533 95.5912 31.2693 95.8045 30.8L97.0045 31.456C96.7699 32.0213 96.4072 32.5013 95.9165 32.896C95.4259 33.2907 94.8765 33.5893 94.2685 33.792C93.6712 33.9947 93.0792 34.096 92.4925 34.096C91.7139 34.096 90.9992 33.9307 90.3485 33.6C89.6979 33.2587 89.1325 32.8107 88.6525 32.256C88.1832 31.6907 87.8152 31.0613 87.5485 30.368C87.2925 29.664 87.1645 28.9547 87.1645 28.24ZM99.6228 37.504C99.4414 37.504 99.2548 37.4773 99.0628 37.424C98.8814 37.3707 98.6948 37.2907 98.5028 37.184L98.9828 36.224C99.0788 36.2773 99.1694 36.3147 99.2548 36.336C99.3508 36.368 99.4414 36.384 99.5268 36.384C99.7828 36.384 100.023 36.2613 100.247 36.016C100.481 35.7813 100.7 35.4187 100.903 34.928L101.303 33.92L97.6388 25.648H99.1268L101.943 32.576L104.487 25.648H105.879L101.975 35.36C101.783 35.84 101.564 36.2347 101.319 36.544C101.073 36.864 100.807 37.104 100.519 37.264C100.231 37.424 99.9321 37.504 99.6228 37.504ZM107.286 34V25.648H108.742L111.846 31.12L114.966 25.648H116.39V34H115.046V27.68L112.294 32.512H111.398L108.63 27.68V34H107.286ZM118.645 34V25.648H120.101L123.205 31.12L126.325 25.648H127.749V34H126.405V27.68L123.653 32.512H122.757L119.989 27.68V34H118.645ZM129.364 31.584C129.364 31.0507 129.514 30.592 129.812 30.208C130.122 29.8133 130.543 29.5093 131.076 29.296C131.61 29.0827 132.228 28.976 132.932 28.976C133.306 28.976 133.7 29.008 134.116 29.072C134.532 29.1253 134.9 29.2107 135.22 29.328V28.72C135.22 28.08 135.028 27.5787 134.644 27.216C134.26 26.8427 133.716 26.656 133.012 26.656C132.554 26.656 132.111 26.7413 131.684 26.912C131.268 27.072 130.826 27.3067 130.356 27.616L129.844 26.624C130.388 26.2507 130.932 25.9733 131.476 25.792C132.02 25.6 132.586 25.504 133.172 25.504C134.239 25.504 135.082 25.8027 135.7 26.4C136.319 26.9867 136.628 27.808 136.628 28.864V32.4C136.628 32.5707 136.66 32.6987 136.724 32.784C136.799 32.8587 136.916 32.9013 137.076 32.912V34C136.938 34.0213 136.815 34.0373 136.708 34.048C136.612 34.0587 136.532 34.064 136.468 34.064C136.138 34.064 135.887 33.9733 135.716 33.792C135.556 33.6107 135.466 33.4187 135.444 33.216L135.412 32.688C135.05 33.1573 134.575 33.52 133.988 33.776C133.402 34.032 132.82 34.16 132.244 34.16C131.69 34.16 131.194 34.048 130.756 33.824C130.319 33.5893 129.978 33.28 129.732 32.896C129.487 32.5013 129.364 32.064 129.364 31.584ZM134.804 32.176C134.932 32.0267 135.034 31.8773 135.108 31.728C135.183 31.568 135.22 31.4347 135.22 31.328V30.288C134.89 30.16 134.543 30.064 134.18 30C133.818 29.9253 133.46 29.888 133.108 29.888C132.394 29.888 131.812 30.032 131.364 30.32C130.927 30.5973 130.708 30.9813 130.708 31.472C130.708 31.7387 130.778 32 130.916 32.256C131.066 32.5013 131.279 32.704 131.556 32.864C131.844 33.024 132.196 33.104 132.612 33.104C133.05 33.104 133.466 33.0187 133.86 32.848C134.255 32.6667 134.57 32.4427 134.804 32.176ZM141.999 35.968V32.752H142.175C142.409 32.752 142.623 32.6827 142.815 32.544C143.017 32.4053 143.193 32.1653 143.343 31.824C143.503 31.472 143.631 30.992 143.727 30.384C143.823 29.776 143.887 29.0027 143.919 28.064L143.999 25.648H149.679V32.752H150.815V35.968H149.567V34H143.247V35.968H141.999ZM144.143 32.752H148.271V26.896H145.247L145.199 28.192C145.167 29.0987 145.103 29.8613 145.007 30.48C144.921 31.088 144.804 31.5733 144.655 31.936C144.516 32.2987 144.345 32.5707 144.143 32.752ZM156.028 34.16C155.398 34.16 154.828 34.048 154.316 33.824C153.804 33.5893 153.361 33.2747 152.988 32.88C152.614 32.4747 152.326 32.0107 152.124 31.488C151.921 30.9653 151.82 30.416 151.82 29.84C151.82 29.2533 151.921 28.6987 152.124 28.176C152.326 27.6533 152.614 27.1947 152.988 26.8C153.361 26.3947 153.804 26.08 154.316 25.856C154.838 25.6213 155.409 25.504 156.028 25.504C156.657 25.504 157.228 25.6213 157.74 25.856C158.252 26.08 158.694 26.3947 159.068 26.8C159.452 27.1947 159.745 27.6533 159.948 28.176C160.15 28.6987 160.252 29.2533 160.252 29.84C160.252 30.416 160.15 30.9653 159.948 31.488C159.745 32.0107 159.457 32.4747 159.084 32.88C158.71 33.2747 158.262 33.5893 157.74 33.824C157.228 34.048 156.657 34.16 156.028 34.16ZM153.26 29.856C153.26 30.432 153.382 30.9547 153.628 31.424C153.884 31.8933 154.22 32.2667 154.636 32.544C155.052 32.8107 155.516 32.944 156.028 32.944C156.54 32.944 157.004 32.8053 157.42 32.528C157.846 32.2507 158.182 31.8773 158.428 31.408C158.684 30.928 158.812 30.4 158.812 29.824C158.812 29.248 158.684 28.7253 158.428 28.256C158.182 27.7867 157.846 27.4133 157.42 27.136C157.004 26.8587 156.54 26.72 156.028 26.72C155.516 26.72 155.052 26.864 154.636 27.152C154.22 27.4293 153.884 27.8027 153.628 28.272C153.382 28.7413 153.26 29.2693 153.26 29.856Z" fill="#2A2E33"/>
<path d="M22.1176 80V75.262L33.1116 63.946C35.565 61.37 36.7916 59.2233 36.7916 57.506C36.7916 56.2487 36.393 55.2367 35.5956 54.47C34.829 53.7033 33.8323 53.32 32.6056 53.32C30.183 53.32 28.389 54.5773 27.2236 57.092L21.8876 53.964C22.8996 51.756 24.3563 50.0693 26.2576 48.904C28.159 47.7387 30.2443 47.156 32.5136 47.156C35.427 47.156 37.9263 48.076 40.0116 49.916C42.097 51.7253 43.1396 54.1787 43.1396 57.276C43.1396 60.6187 41.3763 64.0533 37.8496 67.58L31.5476 73.882H43.6456V80H22.1176ZM57.1492 59.53C60.2465 59.53 62.8532 60.4653 64.9692 62.336C67.0852 64.176 68.1432 66.752 68.1432 70.064C68.1432 73.376 67.0238 75.9673 64.7852 77.838C62.5772 79.7087 59.8632 80.644 56.6432 80.644C54.0365 80.644 51.7365 80.0613 49.7432 78.896C47.7498 77.7307 46.3085 76.0133 45.4192 73.744L50.8472 70.57C51.6445 73.146 53.5765 74.434 56.6432 74.434C58.2685 74.434 59.5258 74.0507 60.4152 73.284C61.3352 72.4867 61.7952 71.4133 61.7952 70.064C61.7952 68.7453 61.3505 67.6873 60.4612 66.89C59.5718 66.0927 58.3605 65.694 56.8272 65.694H47.0752L48.3632 47.8H66.6252V53.734H54.2512L53.8372 59.53H57.1492ZM83.2308 80.644C79.2135 80.644 76.0548 79.126 73.7548 76.09C71.4855 73.0233 70.3508 68.96 70.3508 63.9C70.3508 58.84 71.4855 54.792 73.7548 51.756C76.0548 48.6893 79.2135 47.156 83.2308 47.156C87.2788 47.156 90.4375 48.6893 92.7068 51.756C94.9761 54.792 96.1108 58.84 96.1108 63.9C96.1108 68.96 94.9761 73.0233 92.7068 76.09C90.4375 79.126 87.2788 80.644 83.2308 80.644ZM78.3548 71.766C79.4588 73.5447 81.0841 74.434 83.2308 74.434C85.3775 74.434 87.0028 73.5293 88.1068 71.72C89.2415 69.9107 89.8088 67.304 89.8088 63.9C89.8088 60.4653 89.2415 57.8433 88.1068 56.034C87.0028 54.2247 85.3775 53.32 83.2308 53.32C81.0841 53.32 79.4588 54.2247 78.3548 56.034C77.2508 57.8433 76.6988 60.4653 76.6988 63.9C76.6988 67.3347 77.2508 69.9567 78.3548 71.766ZM134.929 57V80H129.179V66.568L123.337 75.768H122.601L116.713 66.476V80H111.009V57H116.851L122.969 66.66L129.087 57H134.929ZM159.617 57V80H153.683V62.704H147.335V70.386C147.335 77.5007 144.1 80.7053 137.629 80V74.434C138.856 74.7407 139.791 74.5413 140.435 73.836C141.079 73.1 141.401 71.8427 141.401 70.064V57H159.617ZM179.623 57H185.557V80H179.623V71.26H170.469V80H164.535V57H170.469V65.694H179.623V57ZM214.914 68.822H209.21V71.352H219.468V75.4H209.21V80H202.908V75.4H199.458V71.352H202.908V68.822H199.458V63.256H202.908V47.8H214.914C217.95 47.8 220.51 48.8427 222.596 50.928C224.712 53.0133 225.77 55.528 225.77 58.472C225.77 61.416 224.727 63.8847 222.642 65.878C220.556 67.8407 217.98 68.822 214.914 68.822ZM209.21 53.734V63.256H214.914C216.202 63.256 217.275 62.796 218.134 61.876C219.023 60.956 219.468 59.8213 219.468 58.472C219.468 57.1227 219.023 56.0033 218.134 55.114C217.275 54.194 216.202 53.734 214.914 53.734H209.21Z" fill="url(#paint0_linear_322_24543)"/>
<rect x="1.68115" y="1" width="244" height="105" rx="29" stroke="url(#paint1_radial_322_24543)" stroke-width="2"/>
<rect x="1.68115" y="1" width="244" height="105" rx="29" stroke="url(#paint2_radial_322_24543)" stroke-width="2"/>
</g>
<g filter="url(#filter1_b_322_24543)">
<rect x="256.681" width="115" height="107" rx="30" fill="white" fill-opacity="0.8"/>
<path d="M277.446 28.24C277.446 27.5467 277.563 26.8693 277.798 26.208C278.043 25.536 278.395 24.928 278.854 24.384C279.323 23.8293 279.894 23.392 280.566 23.072C281.238 22.7413 282 22.576 282.854 22.576C283.867 22.576 284.736 22.8107 285.462 23.28C286.187 23.7387 286.726 24.3307 287.078 25.056L285.942 25.792C285.718 25.312 285.43 24.9333 285.078 24.656C284.736 24.368 284.363 24.1653 283.958 24.048C283.563 23.9307 283.174 23.872 282.79 23.872C282.16 23.872 281.6 24 281.11 24.256C280.63 24.512 280.224 24.8533 279.894 25.28C279.563 25.7067 279.312 26.1867 279.142 26.72C278.982 27.2427 278.902 27.7707 278.902 28.304C278.902 28.8907 278.998 29.456 279.19 30C279.392 30.544 279.67 31.024 280.022 31.44C280.374 31.856 280.79 32.1867 281.27 32.432C281.75 32.6773 282.272 32.8 282.838 32.8C283.232 32.8 283.638 32.7307 284.054 32.592C284.47 32.4533 284.859 32.24 285.222 31.952C285.584 31.6533 285.872 31.2693 286.086 30.8L287.286 31.456C287.051 32.0213 286.688 32.5013 286.198 32.896C285.707 33.2907 285.158 33.5893 284.55 33.792C283.952 33.9947 283.36 34.096 282.774 34.096C281.995 34.096 281.28 33.9307 280.63 33.6C279.979 33.2587 279.414 32.8107 278.934 32.256C278.464 31.6907 278.096 31.0613 277.83 30.368C277.574 29.664 277.446 28.9547 277.446 28.24ZM290.896 34V26.896H288.016V25.648H295.184V26.896H292.304V34H290.896ZM295.942 31.584C295.942 31.0507 296.092 30.592 296.39 30.208C296.7 29.8133 297.121 29.5093 297.654 29.296C298.188 29.0827 298.806 28.976 299.51 28.976C299.884 28.976 300.278 29.008 300.694 29.072C301.11 29.1253 301.478 29.2107 301.798 29.328V28.72C301.798 28.08 301.606 27.5787 301.222 27.216C300.838 26.8427 300.294 26.656 299.59 26.656C299.132 26.656 298.689 26.7413 298.262 26.912C297.846 27.072 297.404 27.3067 296.934 27.616L296.422 26.624C296.966 26.2507 297.51 25.9733 298.054 25.792C298.598 25.6 299.164 25.504 299.75 25.504C300.817 25.504 301.66 25.8027 302.278 26.4C302.897 26.9867 303.206 27.808 303.206 28.864V32.4C303.206 32.5707 303.238 32.6987 303.302 32.784C303.377 32.8587 303.494 32.9013 303.654 32.912V34C303.516 34.0213 303.393 34.0373 303.286 34.048C303.19 34.0587 303.11 34.064 303.046 34.064C302.716 34.064 302.465 33.9733 302.294 33.792C302.134 33.6107 302.044 33.4187 302.022 33.216L301.99 32.688C301.628 33.1573 301.153 33.52 300.566 33.776C299.98 34.032 299.398 34.16 298.822 34.16C298.268 34.16 297.772 34.048 297.334 33.824C296.897 33.5893 296.556 33.28 296.31 32.896C296.065 32.5013 295.942 32.064 295.942 31.584ZM301.382 32.176C301.51 32.0267 301.612 31.8773 301.686 31.728C301.761 31.568 301.798 31.4347 301.798 31.328V30.288C301.468 30.16 301.121 30.064 300.758 30C300.396 29.9253 300.038 29.888 299.686 29.888C298.972 29.888 298.39 30.032 297.942 30.32C297.505 30.5973 297.286 30.9813 297.286 31.472C297.286 31.7387 297.356 32 297.494 32.256C297.644 32.5013 297.857 32.704 298.134 32.864C298.422 33.024 298.774 33.104 299.19 33.104C299.628 33.104 300.044 33.0187 300.438 32.848C300.833 32.6667 301.148 32.4427 301.382 32.176ZM305.442 34V25.648H309.762C310.263 25.648 310.679 25.7493 311.01 25.952C311.34 26.144 311.586 26.3947 311.746 26.704C311.916 27.0133 312.002 27.344 312.002 27.696C312.002 28.144 311.895 28.5493 311.682 28.912C311.468 29.264 311.159 29.5307 310.754 29.712C311.234 29.8507 311.623 30.1013 311.922 30.464C312.22 30.816 312.37 31.2533 312.37 31.776C312.37 32.2453 312.258 32.6453 312.034 32.976C311.81 33.3067 311.495 33.5627 311.09 33.744C310.684 33.9147 310.215 34 309.682 34H305.442ZM306.786 33.008H309.65C309.906 33.008 310.135 32.944 310.338 32.816C310.551 32.688 310.716 32.5173 310.834 32.304C310.951 32.0907 311.01 31.8667 311.01 31.632C311.01 31.376 310.951 31.1467 310.834 30.944C310.727 30.7307 310.572 30.5653 310.37 30.448C310.178 30.32 309.954 30.256 309.698 30.256H306.786V33.008ZM306.786 29.328H309.394C309.65 29.328 309.874 29.264 310.066 29.136C310.258 28.9973 310.407 28.8213 310.514 28.608C310.62 28.3947 310.674 28.1707 310.674 27.936C310.674 27.584 310.556 27.28 310.322 27.024C310.098 26.768 309.804 26.64 309.442 26.64H306.786V29.328ZM314.145 34V25.648H315.553V29.088H316.481L319.105 25.648H320.705L317.585 29.696L321.073 34H319.441L316.481 30.384H315.553V34H314.145ZM321.802 31.584C321.802 31.0507 321.951 30.592 322.25 30.208C322.559 29.8133 322.98 29.5093 323.514 29.296C324.047 29.0827 324.666 28.976 325.37 28.976C325.743 28.976 326.138 29.008 326.554 29.072C326.97 29.1253 327.338 29.2107 327.658 29.328V28.72C327.658 28.08 327.466 27.5787 327.082 27.216C326.698 26.8427 326.154 26.656 325.45 26.656C324.991 26.656 324.548 26.7413 324.122 26.912C323.706 27.072 323.263 27.3067 322.794 27.616L322.282 26.624C322.826 26.2507 323.37 25.9733 323.914 25.792C324.458 25.6 325.023 25.504 325.61 25.504C326.676 25.504 327.519 25.8027 328.138 26.4C328.756 26.9867 329.066 27.808 329.066 28.864V32.4C329.066 32.5707 329.098 32.6987 329.162 32.784C329.236 32.8587 329.354 32.9013 329.514 32.912V34C329.375 34.0213 329.252 34.0373 329.146 34.048C329.05 34.0587 328.97 34.064 328.906 34.064C328.575 34.064 328.324 33.9733 328.154 33.792C327.994 33.6107 327.903 33.4187 327.882 33.216L327.85 32.688C327.487 33.1573 327.012 33.52 326.426 33.776C325.839 34.032 325.258 34.16 324.682 34.16C324.127 34.16 323.631 34.048 323.194 33.824C322.756 33.5893 322.415 33.28 322.17 32.896C321.924 32.5013 321.802 32.064 321.802 31.584ZM327.242 32.176C327.37 32.0267 327.471 31.8773 327.546 31.728C327.62 31.568 327.658 31.4347 327.658 31.328V30.288C327.327 30.16 326.98 30.064 326.618 30C326.255 29.9253 325.898 29.888 325.546 29.888C324.831 29.888 324.25 30.032 323.802 30.32C323.364 30.5973 323.146 30.9813 323.146 31.472C323.146 31.7387 323.215 32 323.354 32.256C323.503 32.5013 323.716 32.704 323.994 32.864C324.282 33.024 324.634 33.104 325.05 33.104C325.487 33.104 325.903 33.0187 326.298 32.848C326.692 32.6667 327.007 32.4427 327.242 32.176ZM339.012 34.16C338.383 34.16 337.812 34.048 337.3 33.824C336.788 33.5893 336.345 33.2747 335.972 32.88C335.599 32.4747 335.311 32.0107 335.108 31.488C334.905 30.9653 334.804 30.416 334.804 29.84C334.804 29.2533 334.905 28.6987 335.108 28.176C335.311 27.6533 335.599 27.1947 335.972 26.8C336.345 26.3947 336.788 26.08 337.3 25.856C337.823 25.6213 338.393 25.504 339.012 25.504C339.641 25.504 340.212 25.6213 340.724 25.856C341.236 26.08 341.679 26.3947 342.052 26.8C342.436 27.1947 342.729 27.6533 342.932 28.176C343.135 28.6987 343.236 29.2533 343.236 29.84C343.236 30.416 343.135 30.9653 342.932 31.488C342.729 32.0107 342.441 32.4747 342.068 32.88C341.695 33.2747 341.247 33.5893 340.724 33.824C340.212 34.048 339.641 34.16 339.012 34.16ZM336.244 29.856C336.244 30.432 336.367 30.9547 336.612 31.424C336.868 31.8933 337.204 32.2667 337.62 32.544C338.036 32.8107 338.5 32.944 339.012 32.944C339.524 32.944 339.988 32.8053 340.404 32.528C340.831 32.2507 341.167 31.8773 341.412 31.408C341.668 30.928 341.796 30.4 341.796 29.824C341.796 29.248 341.668 28.7253 341.412 28.256C341.167 27.7867 340.831 27.4133 340.404 27.136C339.988 26.8587 339.524 26.72 339.012 26.72C338.5 26.72 338.036 26.864 337.62 27.152C337.204 27.4293 336.868 27.8027 336.612 28.272C336.367 28.7413 336.244 29.2693 336.244 29.856ZM346.974 34V26.896H344.094V25.648H351.262V26.896H348.382V34H346.974Z" fill="#2A2E33"/>
<path d="M297.918 58.242C301.26 58.334 303.974 59.4227 306.06 61.508C308.145 63.5627 309.188 66.2 309.188 69.42C309.188 72.7013 308.099 75.4 305.922 77.516C303.744 79.6013 300.938 80.644 297.504 80.644C294.069 80.644 291.263 79.6013 289.086 77.516C286.939 75.4307 285.866 72.732 285.866 69.42C285.866 66.9667 286.494 64.8047 287.752 62.934L297.78 47.8H305.048L297.918 58.242ZM293.686 73.238C294.698 74.1887 295.97 74.664 297.504 74.664C299.037 74.664 300.31 74.1887 301.322 73.238C302.364 72.2873 302.886 71.0147 302.886 69.42C302.886 67.856 302.364 66.5987 301.322 65.648C300.31 64.6973 299.037 64.222 297.504 64.222C295.97 64.222 294.698 64.6973 293.686 65.648C292.674 66.568 292.168 67.8253 292.168 69.42C292.168 71.0147 292.674 72.2873 293.686 73.238ZM323.745 60.174C322.273 61.6153 320.433 62.336 318.225 62.336C316.017 62.336 314.162 61.6 312.659 60.128C311.187 58.656 310.451 56.862 310.451 54.746C310.451 52.63 311.187 50.836 312.659 49.364C314.162 47.892 316.017 47.156 318.225 47.156C320.433 47.156 322.273 47.892 323.745 49.364C325.217 50.8053 325.953 52.5993 325.953 54.746C325.953 56.8927 325.217 58.702 323.745 60.174ZM313.717 75.124L334.693 51.802L337.499 53.366L316.477 76.734L313.717 75.124ZM316.109 56.862C316.661 57.414 317.351 57.69 318.179 57.69C319.007 57.69 319.697 57.414 320.249 56.862C320.801 56.2793 321.077 55.574 321.077 54.746C321.077 53.918 320.801 53.228 320.249 52.676C319.697 52.124 319.007 51.848 318.179 51.848C317.351 51.848 316.661 52.124 316.109 52.676C315.588 53.228 315.327 53.918 315.327 54.746C315.327 55.574 315.588 56.2793 316.109 56.862ZM339.293 78.344C337.821 79.816 335.981 80.552 333.773 80.552C331.565 80.552 329.725 79.816 328.253 78.344C326.781 76.872 326.045 75.078 326.045 72.962C326.045 70.846 326.781 69.052 328.253 67.58C329.725 66.108 331.565 65.372 333.773 65.372C335.981 65.372 337.821 66.108 339.293 67.58C340.765 69.052 341.501 70.846 341.501 72.962C341.501 75.078 340.765 76.872 339.293 78.344ZM331.703 75.078C332.255 75.63 332.945 75.906 333.773 75.906C334.601 75.906 335.276 75.6147 335.797 75.032C336.349 74.4493 336.625 73.7593 336.625 72.962C336.625 72.134 336.349 71.444 335.797 70.892C335.276 70.3093 334.601 70.018 333.773 70.018C332.945 70.018 332.255 70.3093 331.703 70.892C331.182 71.444 330.921 72.134 330.921 72.962C330.921 73.79 331.182 74.4953 331.703 75.078Z" fill="url(#paint3_linear_322_24543)"/>
<rect x="257.681" y="1" width="113" height="105" rx="29" stroke="url(#paint4_radial_322_24543)" stroke-width="2"/>
<rect x="257.681" y="1" width="113" height="105" rx="29" stroke="url(#paint5_radial_322_24543)" stroke-width="2"/>
</g>
<g filter="url(#filter2_b_322_24543)">
<rect x="381.681" width="176" height="107" rx="30" fill="white" fill-opacity="0.8"/>
<path d="M439.391 28.24C439.391 27.5467 439.508 26.8693 439.743 26.208C439.988 25.536 440.34 24.928 440.799 24.384C441.268 23.8293 441.839 23.392 442.511 23.072C443.183 22.7413 443.946 22.576 444.799 22.576C445.812 22.576 446.682 22.8107 447.407 23.28C448.132 23.7387 448.671 24.3307 449.023 25.056L447.887 25.792C447.663 25.312 447.375 24.9333 447.023 24.656C446.682 24.368 446.308 24.1653 445.903 24.048C445.508 23.9307 445.119 23.872 444.735 23.872C444.106 23.872 443.546 24 443.055 24.256C442.575 24.512 442.17 24.8533 441.839 25.28C441.508 25.7067 441.258 26.1867 441.087 26.72C440.927 27.2427 440.847 27.7707 440.847 28.304C440.847 28.8907 440.943 29.456 441.135 30C441.338 30.544 441.615 31.024 441.967 31.44C442.319 31.856 442.735 32.1867 443.215 32.432C443.695 32.6773 444.218 32.8 444.783 32.8C445.178 32.8 445.583 32.7307 445.999 32.592C446.415 32.4533 446.804 32.24 447.167 31.952C447.53 31.6533 447.818 31.2693 448.031 30.8L449.231 31.456C448.996 32.0213 448.634 32.5013 448.143 32.896C447.652 33.2907 447.103 33.5893 446.495 33.792C445.898 33.9947 445.306 34.096 444.719 34.096C443.94 34.096 443.226 33.9307 442.575 33.6C441.924 33.2587 441.359 32.8107 440.879 32.256C440.41 31.6907 440.042 31.0613 439.775 30.368C439.519 29.664 439.391 28.9547 439.391 28.24ZM455.305 34.16C454.623 34.16 454.015 33.9893 453.481 33.648C452.948 33.3067 452.527 32.8747 452.217 32.352V37.408H450.809V25.648H452.057V27.216C452.388 26.704 452.82 26.2933 453.353 25.984C453.887 25.664 454.468 25.504 455.097 25.504C455.673 25.504 456.201 25.6213 456.681 25.856C457.161 26.0907 457.577 26.4107 457.929 26.816C458.281 27.2213 458.553 27.6853 458.745 28.208C458.948 28.72 459.049 29.2587 459.049 29.824C459.049 30.6133 458.889 31.3387 458.569 32C458.26 32.6613 457.823 33.1893 457.257 33.584C456.692 33.968 456.041 34.16 455.305 34.16ZM454.873 32.944C455.289 32.944 455.663 32.8587 455.993 32.688C456.335 32.5067 456.623 32.272 456.857 31.984C457.103 31.6853 457.289 31.3493 457.417 30.976C457.545 30.6027 457.609 30.2187 457.609 29.824C457.609 29.408 457.535 29.0133 457.385 28.64C457.247 28.2667 457.044 27.936 456.777 27.648C456.521 27.36 456.217 27.136 455.865 26.976C455.524 26.8053 455.151 26.72 454.745 26.72C454.489 26.72 454.223 26.768 453.945 26.864C453.679 26.96 453.423 27.0987 453.177 27.28C452.932 27.4507 452.724 27.648 452.553 27.872C452.383 28.096 452.271 28.336 452.217 28.592V30.976C452.377 31.3387 452.591 31.6693 452.857 31.968C453.124 32.2667 453.433 32.5067 453.785 32.688C454.137 32.8587 454.5 32.944 454.873 32.944ZM464.426 34.16C463.797 34.16 463.226 34.048 462.714 33.824C462.202 33.5893 461.759 33.2747 461.386 32.88C461.013 32.4747 460.725 32.0107 460.522 31.488C460.319 30.9653 460.218 30.416 460.218 29.84C460.218 29.2533 460.319 28.6987 460.522 28.176C460.725 27.6533 461.013 27.1947 461.386 26.8C461.759 26.3947 462.202 26.08 462.714 25.856C463.237 25.6213 463.807 25.504 464.426 25.504C465.055 25.504 465.626 25.6213 466.138 25.856C466.65 26.08 467.093 26.3947 467.466 26.8C467.85 27.1947 468.143 27.6533 468.346 28.176C468.549 28.6987 468.65 29.2533 468.65 29.84C468.65 30.416 468.549 30.9653 468.346 31.488C468.143 32.0107 467.855 32.4747 467.482 32.88C467.109 33.2747 466.661 33.5893 466.138 33.824C465.626 34.048 465.055 34.16 464.426 34.16ZM461.658 29.856C461.658 30.432 461.781 30.9547 462.026 31.424C462.282 31.8933 462.618 32.2667 463.034 32.544C463.45 32.8107 463.914 32.944 464.426 32.944C464.938 32.944 465.402 32.8053 465.818 32.528C466.245 32.2507 466.581 31.8773 466.826 31.408C467.082 30.928 467.21 30.4 467.21 29.824C467.21 29.248 467.082 28.7253 466.826 28.256C466.581 27.7867 466.245 27.4133 465.818 27.136C465.402 26.8587 464.938 26.72 464.426 26.72C463.914 26.72 463.45 26.864 463.034 27.152C462.618 27.4293 462.282 27.8027 462.026 28.272C461.781 28.7413 461.658 29.2693 461.658 29.856ZM470.34 34V25.648H471.748V29.088H472.676L475.3 25.648H476.9L473.78 29.696L477.268 34H475.636L472.676 30.384H471.748V34H470.34ZM481.772 35.968V32.752H481.948C482.183 32.752 482.396 32.6827 482.588 32.544C482.791 32.4053 482.967 32.1653 483.116 31.824C483.276 31.472 483.404 30.992 483.5 30.384C483.596 29.776 483.66 29.0027 483.692 28.064L483.772 25.648H489.452V32.752H490.588V35.968H489.34V34H483.02V35.968H481.772ZM483.916 32.752H488.044V26.896H485.02L484.972 28.192C484.94 29.0987 484.876 29.8613 484.78 30.48C484.695 31.088 484.577 31.5733 484.428 31.936C484.289 32.2987 484.119 32.5707 483.916 32.752ZM495.801 34.16C495.172 34.16 494.601 34.048 494.089 33.824C493.577 33.5893 493.134 33.2747 492.761 32.88C492.388 32.4747 492.1 32.0107 491.897 31.488C491.694 30.9653 491.593 30.416 491.593 29.84C491.593 29.2533 491.694 28.6987 491.897 28.176C492.1 27.6533 492.388 27.1947 492.761 26.8C493.134 26.3947 493.577 26.08 494.089 25.856C494.612 25.6213 495.182 25.504 495.801 25.504C496.43 25.504 497.001 25.6213 497.513 25.856C498.025 26.08 498.468 26.3947 498.841 26.8C499.225 27.1947 499.518 27.6533 499.721 28.176C499.924 28.6987 500.025 29.2533 500.025 29.84C500.025 30.416 499.924 30.9653 499.721 31.488C499.518 32.0107 499.23 32.4747 498.857 32.88C498.484 33.2747 498.036 33.5893 497.513 33.824C497.001 34.048 496.43 34.16 495.801 34.16ZM493.033 29.856C493.033 30.432 493.156 30.9547 493.401 31.424C493.657 31.8933 493.993 32.2667 494.409 32.544C494.825 32.8107 495.289 32.944 495.801 32.944C496.313 32.944 496.777 32.8053 497.193 32.528C497.62 32.2507 497.956 31.8773 498.201 31.408C498.457 30.928 498.585 30.4 498.585 29.824C498.585 29.248 498.457 28.7253 498.201 28.256C497.956 27.7867 497.62 27.4133 497.193 27.136C496.777 26.8587 496.313 26.72 495.801 26.72C495.289 26.72 494.825 26.864 494.409 27.152C493.993 27.4293 493.657 27.8027 493.401 28.272C493.156 28.7413 493.033 29.2693 493.033 29.856Z" fill="#2A2E33"/>
<path d="M418.181 60.864C420.359 61.508 422.122 62.6427 423.471 64.268C424.851 65.8627 425.541 67.7947 425.541 70.064C425.541 73.376 424.422 75.9673 422.183 77.838C419.975 79.7087 417.261 80.644 414.041 80.644C411.527 80.644 409.273 80.0767 407.279 78.942C405.317 77.7767 403.891 76.0747 403.001 73.836L408.429 70.708C409.227 73.192 411.097 74.434 414.041 74.434C415.667 74.434 416.924 74.0507 417.813 73.284C418.733 72.4867 419.193 71.4133 419.193 70.064C419.193 68.7453 418.733 67.6873 417.813 66.89C416.924 66.0927 415.667 65.694 414.041 65.694H412.661L410.223 62.014L416.571 53.734H403.967V47.8H424.207V53.044L418.181 60.864ZM441.04 80.644C437.023 80.644 433.864 79.126 431.564 76.09C429.295 73.0233 428.16 68.96 428.16 63.9C428.16 58.84 429.295 54.792 431.564 51.756C433.864 48.6893 437.023 47.156 441.04 47.156C445.088 47.156 448.247 48.6893 450.516 51.756C452.785 54.792 453.92 58.84 453.92 63.9C453.92 68.96 452.785 73.0233 450.516 76.09C448.247 79.126 445.088 80.644 441.04 80.644ZM436.164 71.766C437.268 73.5447 438.893 74.434 441.04 74.434C443.187 74.434 444.812 73.5293 445.916 71.72C447.051 69.9107 447.618 67.304 447.618 63.9C447.618 60.4653 447.051 57.8433 445.916 56.034C444.812 54.2247 443.187 53.32 441.04 53.32C438.893 53.32 437.268 54.2247 436.164 56.034C435.06 57.8433 434.508 60.4653 434.508 63.9C434.508 67.3347 435.06 69.9567 436.164 71.766ZM488.552 57V80H482.618V62.704H476.27V70.386C476.27 77.5007 473.035 80.7053 466.564 80V74.434C467.791 74.7407 468.726 74.5413 469.37 73.836C470.014 73.1 470.336 71.8427 470.336 70.064V57H488.552ZM498.484 70.938C499.281 73.8207 501.443 75.262 504.97 75.262C507.239 75.262 508.956 74.4953 510.122 72.962L514.906 75.722C512.636 79.0033 509.294 80.644 504.878 80.644C501.075 80.644 498.024 79.494 495.724 77.194C493.424 74.894 492.274 71.996 492.274 68.5C492.274 65.0347 493.408 62.152 495.678 59.852C497.947 57.5213 500.86 56.356 504.418 56.356C507.791 56.356 510.566 57.5213 512.744 59.852C514.952 62.1827 516.056 65.0653 516.056 68.5C516.056 69.2667 515.979 70.0793 515.826 70.938H498.484ZM498.392 66.338H510.122C509.784 64.774 509.079 63.6087 508.006 62.842C506.963 62.0753 505.767 61.692 504.418 61.692C502.823 61.692 501.504 62.106 500.462 62.934C499.419 63.7313 498.729 64.866 498.392 66.338ZM536.964 57V62.704H529.788V80H523.854V62.704H516.586V57H536.964Z" fill="url(#paint6_linear_322_24543)"/>
<rect x="382.681" y="1" width="174" height="105" rx="29" stroke="url(#paint7_radial_322_24543)" stroke-width="2"/>
<rect x="382.681" y="1" width="174" height="105" rx="29" stroke="url(#paint8_radial_322_24543)" stroke-width="2"/>
</g>
<defs>
<filter id="filter0_b_322_24543" x="-19.3188" y="-20" width="286" height="147" filterUnits="userSpaceOnUse" color-interpolation-filters="sRGB">
<feFlood flood-opacity="0" result="BackgroundImageFix"/>
<feGaussianBlur in="BackgroundImageFix" stdDeviation="10"/>
<feComposite in2="SourceAlpha" operator="in" result="effect1_backgroundBlur_322_24543"/>
<feBlend mode="normal" in="SourceGraphic" in2="effect1_backgroundBlur_322_24543" result="shape"/>
</filter>
<filter id="filter1_b_322_24543" x="236.681" y="-20" width="155" height="147" filterUnits="userSpaceOnUse" color-interpolation-filters="sRGB">
<feFlood flood-opacity="0" result="BackgroundImageFix"/>
<feGaussianBlur in="BackgroundImageFix" stdDeviation="10"/>
<feComposite in2="SourceAlpha" operator="in" result="effect1_backgroundBlur_322_24543"/>
<feBlend mode="normal" in="SourceGraphic" in2="effect1_backgroundBlur_322_24543" result="shape"/>
</filter>
<filter id="filter2_b_322_24543" x="361.681" y="-20" width="216" height="147" filterUnits="userSpaceOnUse" color-interpolation-filters="sRGB">
<feFlood flood-opacity="0" result="BackgroundImageFix"/>
<feGaussianBlur in="BackgroundImageFix" stdDeviation="10"/>
<feComposite in2="SourceAlpha" operator="in" result="effect1_backgroundBlur_322_24543"/>
<feBlend mode="normal" in="SourceGraphic" in2="effect1_backgroundBlur_322_24543" result="shape"/>
</filter>
<linearGradient id="paint0_linear_322_24543" x1="54.0335" y1="20" x2="206.898" y2="110.643" gradientUnits="userSpaceOnUse">
<stop stop-color="#A259FF"/>
<stop offset="1" stop-color="#FF6250"/>
</linearGradient>
<radialGradient id="paint1_radial_322_24543" cx="0" cy="0" r="1" gradientUnits="userSpaceOnUse" gradientTransform="translate(204.104 86.1095) rotate(63.1103) scale(126.827 103.249)">
<stop stop-color="white"/>
<stop offset="1" stop-color="white" stop-opacity="0"/>
</radialGradient>
<radialGradient id="paint2_radial_322_24543" cx="0" cy="0" r="1" gradientUnits="userSpaceOnUse" gradientTransform="translate(26.4047 23.4381) rotate(-102.175) scale(121.972 76.9801)">
<stop stop-color="white"/>
<stop offset="1" stop-color="white" stop-opacity="0"/>
</radialGradient>
<linearGradient id="paint3_linear_322_24543" x1="288.824" y1="20" x2="360.697" y2="35.5164" gradientUnits="userSpaceOnUse">
<stop stop-color="#A259FF"/>
<stop offset="1" stop-color="#FF6250"/>
</linearGradient>
<radialGradient id="paint4_radial_322_24543" cx="0" cy="0" r="1" gradientUnits="userSpaceOnUse" gradientTransform="translate(351.777 86.1095) rotate(76.6636) scale(116.249 52.6585)">
<stop stop-color="white"/>
<stop offset="1" stop-color="white" stop-opacity="0"/>
</radialGradient>
<radialGradient id="paint5_radial_322_24543" cx="0" cy="0" r="1" gradientUnits="userSpaceOnUse" gradientTransform="translate(268.706 23.4381) rotate(-95.7593) scale(119.833 36.6288)">
<stop stop-color="white"/>
<stop offset="1" stop-color="white" stop-opacity="0"/>
</radialGradient>
<linearGradient id="paint6_linear_322_24543" x1="423.7" y1="20" x2="541.979" y2="66.3027" gradientUnits="userSpaceOnUse">
<stop stop-color="#A259FF"/>
<stop offset="1" stop-color="#FF6250"/>
</linearGradient>
<radialGradient id="paint7_radial_322_24543" cx="0" cy="0" r="1" gradientUnits="userSpaceOnUse" gradientTransform="translate(527.22 86.1095) rotate(70.059) scale(120.329 77.8582)">
<stop stop-color="white"/>
<stop offset="1" stop-color="white" stop-opacity="0"/>
</radialGradient>
<radialGradient id="paint8_radial_322_24543" cx="0" cy="0" r="1" gradientUnits="userSpaceOnUse" gradientTransform="translate(400.085 23.4381) rotate(-98.7748) scale(120.641 55.683)">
<stop stop-color="white"/>
<stop offset="1" stop-color="white" stop-opacity="0"/>
</radialGradient>
</defs>
</svg>
