<svg width="70" height="71" viewBox="0 0 70 71" fill="none" xmlns="http://www.w3.org/2000/svg">
<path d="M56.9083 26.7859H43.9062V19.4701C43.9062 19.462 43.9046 19.4538 43.9046 19.4441C43.9046 19.4294 43.903 19.4131 43.903 19.3985C43.8997 19.3643 43.8965 19.3301 43.8899 19.2959C43.8883 19.2878 43.8867 19.278 43.8851 19.2699C43.8769 19.2325 43.8672 19.1966 43.8541 19.1608C43.8509 19.1494 43.846 19.138 43.8411 19.125C43.8281 19.0892 43.8134 19.055 43.7955 19.0208C43.7939 19.0176 43.7923 19.0143 43.7906 19.0111C43.7711 18.9736 43.7483 18.9378 43.7223 18.9036C43.7158 18.8955 43.7109 18.8873 43.7044 18.8792C43.6783 18.845 43.649 18.8108 43.6181 18.7783L33.6846 8.84478C33.6537 8.81385 33.6195 8.78617 33.5853 8.76013C33.5772 8.75362 33.569 8.7471 33.5609 8.74222C33.5267 8.7178 33.4909 8.69501 33.4534 8.67548C33.4502 8.67385 33.4469 8.67222 33.4437 8.67059C33.4095 8.65269 33.3737 8.63804 33.3379 8.62338C33.3265 8.6185 33.3151 8.61524 33.3037 8.61199C33.2662 8.59897 33.2288 8.5892 33.1897 8.58106C33.1832 8.57943 33.1783 8.57943 33.1718 8.5778C33.136 8.57129 33.1002 8.56641 33.0627 8.56478C33.0481 8.56315 33.0351 8.56315 33.0204 8.56315C33.0106 8.56315 33.0025 8.56152 32.9927 8.56152H9.15204C8.6132 8.56152 8.17529 8.99943 8.17529 9.53827V57.2229C8.17529 57.7618 8.6132 58.1997 9.15204 58.1997H34.1518C34.492 60.7034 36.6425 62.639 39.2374 62.639H56.9083C59.7392 62.639 62.0411 60.3355 62.0411 57.5062V31.9204C62.0427 29.0894 59.7392 26.7859 56.9083 26.7859ZM10.1288 10.5134H32.0192V19.4701C32.0192 20.009 32.4572 20.4469 32.996 20.4469H41.9527V26.7859H39.2374C38.5081 26.7859 37.8146 26.939 37.1862 27.2157V25.2118C37.1862 24.6729 36.7483 24.235 36.2095 24.235H15.8737C15.3348 24.235 14.8969 24.6729 14.8969 25.2118V31.5443V50.542C14.8969 51.0808 15.3348 51.5187 15.8737 51.5187H26.302C26.3053 51.5187 26.3085 51.5187 26.3118 51.5187C26.3151 51.5187 26.3183 51.5187 26.3216 51.5187H34.1046V56.2445H10.1288V10.5134ZM16.8504 49.5652V45.1862H25.3351V49.5652H16.8504ZM35.2327 28.7134C34.7997 29.2538 34.4741 29.8822 34.2869 30.5676H27.2885V26.1885H35.2327V28.7134ZM16.8504 38.8536H25.3351V43.2327H16.8504V38.8536ZM27.2885 38.8536H34.1046V43.2327H27.2885V38.8536ZM27.2885 32.5211H34.1046V36.9001H27.2885V32.5211ZM25.3351 30.5676H16.8504V26.1885H25.3351V30.5676ZM25.3351 32.5211V36.9001H16.8504V32.5211H25.3351ZM27.2885 45.1862H34.1046V49.5652H27.2885V45.1862ZM60.0892 57.5045C60.0892 59.2578 58.6632 60.6838 56.9099 60.6838H39.2374C37.4841 60.6838 36.0581 59.2578 36.0581 57.5045V57.2278C36.0581 57.2262 36.0581 57.2229 36.0581 57.2213C36.0581 57.2197 36.0581 57.2164 36.0581 57.2148V50.5485C36.0581 50.5469 36.0581 50.5436 36.0581 50.542C36.0581 50.5404 36.0581 50.5371 36.0581 50.5355V44.2159C36.0581 44.2143 36.0581 44.2111 36.0581 44.2094C36.0581 44.2078 36.0581 44.2045 36.0581 44.2029V37.8834C36.0581 37.8818 36.0581 37.8785 36.0581 37.8769C36.0581 37.8752 36.0581 37.872 36.0581 37.8704V31.9187C36.0581 31.0918 36.3772 30.3413 36.8965 29.7748C36.9209 29.7504 36.9453 29.7243 36.9681 29.6966C37.546 29.1057 38.3502 28.7378 39.239 28.7378H56.9099C58.6632 28.7378 60.0892 30.1638 60.0892 31.9187V57.5045ZM55.409 31.4255H40.7383C39.3741 31.4255 38.2655 32.5341 38.2655 33.8983V34.9808C38.2655 36.345 39.3741 37.4536 40.7383 37.4536H55.409C56.7732 37.4536 57.8818 36.345 57.8818 34.9808V33.8983C57.8818 32.5357 56.7716 31.4255 55.409 31.4255ZM55.9283 34.9808C55.9283 35.2625 55.6906 35.5001 55.409 35.5001H40.7383C40.4567 35.5001 40.219 35.2625 40.219 34.9808V33.8983C40.219 33.6166 40.4567 33.379 40.7383 33.379H55.409C55.6906 33.379 55.9283 33.6166 55.9283 33.8983V34.9808ZM43.0386 42.4138C43.0386 43.4036 42.2376 44.2045 41.2479 44.2045H40.779C39.7892 44.2045 38.9883 43.4036 38.9883 42.4138C38.9883 41.4241 39.7892 40.6231 40.779 40.6231H41.2479C42.236 40.6231 43.0386 41.4257 43.0386 42.4138ZM50.0988 42.4138C50.0988 43.4036 49.2979 44.2045 48.3081 44.2045H47.8392C46.8495 44.2045 46.0485 43.4036 46.0485 42.4138C46.0485 41.4241 46.8495 40.6231 47.8392 40.6231H48.3081C49.2962 40.6231 50.0988 41.4257 50.0988 42.4138ZM43.0386 48.9255C43.0386 49.9152 42.2376 50.7162 41.2479 50.7162H40.779C39.7892 50.7162 38.9883 49.9152 38.9883 48.9255C38.9883 47.9357 39.7892 47.1348 40.779 47.1348H41.2479C42.236 47.1348 43.0386 47.9373 43.0386 48.9255ZM50.0988 48.9255C50.0988 49.9152 49.2979 50.7162 48.3081 50.7162H47.8392C46.8495 50.7162 46.0485 49.9152 46.0485 48.9255C46.0485 47.9357 46.8495 47.1348 47.8392 47.1348H48.3081C49.2962 47.1348 50.0988 47.9373 50.0988 48.9255ZM43.0386 55.7627C43.0386 56.7525 42.2376 57.5534 41.2479 57.5534H40.779C39.7892 57.5534 38.9883 56.7525 38.9883 55.7627C38.9883 54.7729 39.7892 53.972 40.779 53.972H41.2479C42.236 53.972 43.0386 54.7745 43.0386 55.7627ZM50.0988 55.7627C50.0988 56.7525 49.2979 57.5534 48.3081 57.5534H47.8392C46.8495 57.5534 46.0485 56.7525 46.0485 55.7627C46.0485 54.7729 46.8495 53.972 47.8392 53.972H48.3081C49.2962 53.972 50.0988 54.7745 50.0988 55.7627ZM57.0679 42.4138C57.0679 43.4036 56.2669 44.2045 55.2772 44.2045H54.8083C53.8186 44.2045 53.0176 43.4036 53.0176 42.4138C53.0176 41.4241 53.8186 40.6231 54.8083 40.6231H55.2772C56.2653 40.6231 57.0679 41.4257 57.0679 42.4138ZM57.0679 48.9255C57.0679 49.9152 56.2669 50.7162 55.2772 50.7162H54.8083C53.8186 50.7162 53.0176 49.9152 53.0176 48.9255C53.0176 47.9357 53.8186 47.1348 54.8083 47.1348H55.2772C56.2653 47.1348 57.0679 47.9373 57.0679 48.9255ZM57.0679 55.7627C57.0679 56.7525 56.2669 57.5534 55.2772 57.5534H54.8083C53.8186 57.5534 53.0176 56.7525 53.0176 55.7627C53.0176 54.7729 53.8186 53.972 54.8083 53.972H55.2772C56.2653 53.972 57.0679 54.7745 57.0679 55.7627Z" fill="url(#paint0_linear_598_8818)"/>
<defs>
<linearGradient id="paint0_linear_598_8818" x1="4.35258" y1="12.9548" x2="56.5336" y2="65.1358" gradientUnits="userSpaceOnUse">
<stop stop-color="#A259FF"/>
<stop offset="1" stop-color="#FF6250"/>
</linearGradient>
</defs>
</svg>
