<svg width="100" height="100" viewBox="0 0 100 100" fill="none" xmlns="http://www.w3.org/2000/svg">
<g clip-path="url(#clip0_496_1276)">
<g filter="url(#filter0_b_496_1276)">
<rect width="100" height="100" rx="20" fill="url(#paint0_linear_496_1276)" fill-opacity="0.6"/>
<rect x="1" y="1" width="98" height="98" rx="19" stroke="url(#paint1_radial_496_1276)" stroke-width="2"/>
<rect x="1" y="1" width="98" height="98" rx="19" stroke="url(#paint2_radial_496_1276)" stroke-width="2"/>
</g>
<path d="M66.5346 21.7901H56.5732C55.7042 19.0192 53.0861 17 50 17C46.9139 17 44.2958 19.0192 43.4268 21.7901H33.4654C28.246 21.7901 24 25.9869 24 31.1436V73.6483C24 78.805 28.246 83 33.4654 83H66.5346C71.754 83 76 78.805 76 73.6483V31.1436C76 25.9851 71.754 21.7901 66.5346 21.7901ZM73.7623 73.6483C73.7623 77.5854 70.5195 80.7892 66.5346 80.7892H33.4654C29.4805 80.7892 26.2377 77.5854 26.2377 73.6483V31.1436C26.2377 27.2047 29.4805 24.0009 33.4654 24.0009H43.1191V27.938C43.1191 28.5478 43.6207 29.0434 44.238 29.0434H55.7602C56.3774 29.0434 56.879 28.5478 56.879 27.938V24.0009H66.5327C70.5177 24.0009 73.7605 27.2047 73.7605 31.1436V73.6483H73.7623ZM63.3683 48.5446C63.1352 47.078 61.9212 46.0076 60.4593 45.9542L58.9134 37.6434C58.602 35.9724 57.2053 34.7602 55.5886 34.7602H44.4077C42.7928 34.7602 41.3942 35.9724 41.0828 37.6434L39.537 45.9542C38.075 46.0076 36.8611 47.078 36.628 48.5446L35.4457 55.971C35.3954 56.2897 35.4886 56.6158 35.7012 56.8609C35.9138 57.1059 36.2252 57.2478 36.5515 57.2478H37.5193V60.9214C37.5193 61.5312 38.0209 62.0268 38.6382 62.0268H44.4319C45.0491 62.0268 45.5507 61.5312 45.5507 60.9214V57.2478H54.4437V60.9214C54.4437 61.5312 54.9453 62.0268 55.5625 62.0268H61.3562C61.9735 62.0268 62.4751 61.5312 62.4751 60.9214V57.2478H63.4429C63.7692 57.2478 64.0806 57.1059 64.2932 56.8609C64.5058 56.6158 64.599 56.2897 64.5487 55.971L63.3683 48.5446ZM43.287 38.0432C43.4026 37.4223 43.8743 36.971 44.4114 36.971H55.5923C56.1275 36.971 56.6012 37.4223 56.7168 38.0432L58.1862 45.9505H41.8175L43.287 38.0432ZM38.8414 48.8872C38.9086 48.4653 39.2498 48.1595 39.6526 48.1595H59.5232H59.5251H59.5269H60.3456C60.7483 48.1595 61.0896 48.4653 61.1567 48.8872L62.1357 55.037H61.3674C61.3637 55.037 61.36 55.037 61.3562 55.037C61.3525 55.037 61.3488 55.037 61.345 55.037H55.5756C55.5718 55.037 55.5681 55.037 55.5644 55.037C55.5606 55.037 55.5569 55.037 55.5532 55.037H44.4431C44.4394 55.037 44.4356 55.037 44.4319 55.037C44.4282 55.037 44.4244 55.037 44.4207 55.037H38.6475C38.6438 55.037 38.64 55.037 38.6363 55.037C38.6326 55.037 38.6288 55.037 38.6251 55.037H37.8568L38.8414 48.8872ZM43.3149 59.816H39.7589V57.2478H43.3149V59.816ZM60.2411 59.816H56.6851V57.2478H60.2411V59.816ZM41.2656 51.94C41.2656 51.3302 41.7672 50.8346 42.3844 50.8346H45.6011C46.2183 50.8346 46.7199 51.3302 46.7199 51.94C46.7199 52.5498 46.2183 53.0454 45.6011 53.0454H42.3844C41.7653 53.0454 41.2656 52.5498 41.2656 51.94ZM53.2801 51.94C53.2801 51.3302 53.7817 50.8346 54.3989 50.8346H57.6156C58.2328 50.8346 58.7344 51.3302 58.7344 51.94C58.7344 52.5498 58.2328 53.0454 57.6156 53.0454H54.3989C53.7817 53.0454 53.2801 52.5498 53.2801 51.94ZM63.5659 69.7867C63.5659 70.3965 63.0643 70.8921 62.4471 70.8921H37.5529C36.9357 70.8921 36.4341 70.3965 36.4341 69.7867C36.4341 69.1769 36.9357 68.6813 37.5529 68.6813H62.4471C63.0643 68.6813 63.5659 69.1769 63.5659 69.7867ZM57.5 75.8443C57.5 76.4542 56.9983 76.9498 56.3811 76.9498H43.6189C43.0016 76.9498 42.5 76.4542 42.5 75.8443C42.5 75.2345 43.0016 74.7389 43.6189 74.7389H56.3811C56.9983 74.7389 57.5 75.2327 57.5 75.8443Z" fill="url(#paint3_linear_496_1276)"/>
</g>
<defs>
<filter id="filter0_b_496_1276" x="-30" y="-30" width="160" height="160" filterUnits="userSpaceOnUse" color-interpolation-filters="sRGB">
<feFlood flood-opacity="0" result="BackgroundImageFix"/>
<feGaussianBlur in="BackgroundImageFix" stdDeviation="15"/>
<feComposite in2="SourceAlpha" operator="in" result="effect1_backgroundBlur_496_1276"/>
<feBlend mode="normal" in="SourceGraphic" in2="effect1_backgroundBlur_496_1276" result="shape"/>
</filter>
<linearGradient id="paint0_linear_496_1276" x1="50" y1="0" x2="50" y2="100" gradientUnits="userSpaceOnUse">
<stop stop-color="white" stop-opacity="0"/>
<stop offset="1" stop-color="white"/>
</linearGradient>
<radialGradient id="paint1_radial_496_1276" cx="0" cy="0" r="1" gradientUnits="userSpaceOnUse" gradientTransform="translate(82.6923 80.4762) rotate(77.5615) scale(108.255 45.9545)">
<stop stop-color="white" stop-opacity="0.57"/>
<stop offset="1" stop-color="white" stop-opacity="0"/>
</radialGradient>
<radialGradient id="paint2_radial_496_1276" cx="0" cy="0" r="1" gradientUnits="userSpaceOnUse" gradientTransform="translate(10.4567 21.9048) rotate(-95.3611) scale(111.918 31.8727)">
<stop stop-color="white" stop-opacity="0.28"/>
<stop offset="1" stop-color="white" stop-opacity="0"/>
</radialGradient>
<linearGradient id="paint3_linear_496_1276" x1="24.2871" y1="26.9907" x2="75.0916" y2="78.4127" gradientUnits="userSpaceOnUse">
<stop stop-color="#A259FF"/>
<stop offset="1" stop-color="#FF6250"/>
</linearGradient>
<clipPath id="clip0_496_1276">
<rect width="100" height="100" fill="white"/>
</clipPath>
</defs>
</svg>
