<svg width="100" height="100" viewBox="0 0 100 100" fill="none" xmlns="http://www.w3.org/2000/svg">
<g clip-path="url(#clip0_802_1424)">
<g filter="url(#filter0_b_802_1424)">
<rect width="100" height="100" rx="20" fill="url(#paint0_linear_802_1424)" fill-opacity="0.6"/>
<rect x="1" y="1" width="98" height="98" rx="19" stroke="url(#paint1_radial_802_1424)" stroke-width="2"/>
<rect x="1" y="1" width="98" height="98" rx="19" stroke="url(#paint2_radial_802_1424)" stroke-width="2"/>
</g>
<path d="M69.1439 42.3166C69.1871 42.4021 69.2158 42.4875 69.2734 42.5515C69.4604 42.8292 69.7194 43 69.9928 43C70.0647 43 70.1223 42.9786 70.1942 42.9786C70.2518 42.9573 70.3237 42.9359 70.3813 42.8932C70.4389 42.8505 70.4964 42.8078 70.554 42.7651C70.6115 42.701 70.6691 42.6583 70.7122 42.5729C70.7554 42.5088 70.7986 42.4234 70.8417 42.338C70.8849 42.2526 70.9137 42.1671 70.9281 42.0817C70.9568 41.9963 70.9712 41.8895 70.9856 41.8041C71 41.6973 71 41.6119 71 41.5051C71 41.1207 70.8849 40.7363 70.7122 40.4374C70.6691 40.3733 70.6115 40.3092 70.554 40.2452C70.4964 40.1811 70.4389 40.1384 70.3813 40.117C70.3237 40.0743 70.2518 40.053 70.1942 40.0316C69.8633 39.9248 69.518 40.0957 69.2878 40.4374C69.2446 40.5014 69.2014 40.5868 69.1583 40.6723C69.1151 40.7577 69.0863 40.8431 69.0719 40.9285C69.0432 41.014 69.0288 41.1207 69.0144 41.2062C69 41.3129 69 41.3983 69 41.5051C69 41.5905 69 41.6973 69.0144 41.8041C69.0288 41.8895 69.0432 41.9963 69.0719 42.0817C69.0863 42.1458 69.1151 42.2312 69.1439 42.3166Z" fill="url(#paint3_linear_802_1424)"/>
<path d="M63 60L64 61C63.7297 60.9189 63.4595 60.7297 63.2703 60.4865C63.1622 60.3243 63.0541 60.1622 63 60Z" fill="url(#paint4_linear_802_1424)"/>
<path d="M76 37.0556V58.1736C76 58.7117 75.5475 59.152 74.9944 59.152H67.7542C67.4358 59.152 67.1508 59.0052 66.9665 58.7933L65.4413 60L64 58.5976L66.1788 56.8853L65.6592 55.4666C65.4749 54.961 65.743 54.3903 66.2626 54.2109C66.7821 54.0315 67.352 54.2924 67.5531 54.798L68.4413 57.1951H73.9721V37.9851C72.8492 37.9688 70.8883 38.0014 69.0112 38.4091C68.257 38.5721 67.5363 38.7841 66.8492 39.0287C66.3799 39.1918 65.9274 39.3875 65.4916 39.5832C64.9888 39.8115 64.3855 39.6158 64.1508 39.1266C63.9162 38.6374 64.1173 38.0503 64.6201 37.822C64.8883 37.6915 65.1732 37.5774 65.4581 37.4469C66.4302 37.0556 67.4693 36.7294 68.5587 36.4848C71.6927 35.7836 74.9274 36.0445 75.0615 36.0608C75.5978 36.1097 76 36.5337 76 37.0556Z" fill="url(#paint5_linear_802_1424)"/>
<path d="M60.9784 42.1671C60.8664 42.73 60.3543 43.0994 59.8422 42.9763C59.0901 42.8004 58.354 42.6245 57.6659 42.4838C53.6172 41.5866 50.6408 41.0765 49.3445 41.1117C48.8325 41.1117 48.1604 41.3756 47.3922 41.8681L46.9442 41.3756L46.208 40.5664L46 40.3377C47.2322 39.4758 48.3524 39.0184 49.3125 39.0008C51.4089 38.9657 56.4017 40.0387 59.5862 40.7775C59.8102 40.8303 60.0343 40.883 60.2423 40.9358C60.7544 41.0413 61.0905 41.6042 60.9784 42.1671Z" fill="url(#paint6_linear_802_1424)"/>
<path d="M47 41L46 40C46.5217 40.1087 46.913 40.5 47 41Z" fill="url(#paint7_linear_802_1424)"/>
<path d="M63.1987 61.1571L62.5929 60.5461L62.3964 60.3479C62.9859 61.058 63.4607 62.1645 62.8057 62.9572C62.7566 63.0233 62.6256 63.1389 62.4946 63.2545C62.3145 63.4197 62.1016 63.5848 62.0033 63.6344C61.7905 63.75 61.6103 63.849 61.3483 63.849C61.1682 63.75 60.9717 63.7004 60.7916 63.7169C60.5132 63.6013 60.1693 63.3866 59.7436 63.0233C58.3353 61.8673 56.2557 59.5552 52.997 55.8723C52.6368 55.4595 52.0145 55.4264 51.6051 55.7898C51.1958 56.1531 51.163 56.7807 51.5233 57.1935C54.8474 60.9589 56.9598 63.3206 58.4991 64.5592C58.7774 64.7904 59.0558 64.9886 59.3178 65.1537C58.9412 65.5996 58.4991 66.029 58.0406 66.2767C57.6312 66.5079 57.3364 66.607 56.6159 66.0786C56.5504 65.996 56.4686 65.9299 56.3703 65.8804C56.3539 65.8639 56.3376 65.8639 56.3212 65.8474C55.3387 65.0381 53.9468 63.4197 51.8671 61.0415C51.1303 60.1993 50.3115 59.2579 49.3617 58.1844C49.0015 57.7716 48.3792 57.7385 47.9699 58.1019C47.5605 58.4652 47.5277 59.0928 47.888 59.5056C48.8214 60.5626 49.6565 61.5039 50.377 62.3462C52.2601 64.4931 53.5374 65.963 54.5527 66.9043C54.1105 67.4988 53.5538 68.0769 53.0134 68.3741C52.5713 68.6219 52.2765 68.7209 51.4414 68.0603C50.4589 67.2841 49.0179 65.6327 46.84 63.1389C46.1031 62.2966 45.268 61.3553 44.3346 60.2818C43.9743 59.869 43.3521 59.8359 42.9427 60.1993C42.5333 60.5626 42.5006 61.1901 42.8608 61.603C43.7942 62.66 44.6293 63.6013 45.3498 64.4436C47.1838 66.541 48.4447 67.9778 49.4436 68.9356C49.0015 69.0347 48.3629 69.0347 47.4295 68.7705C43.7451 67.7466 34.5586 58.9937 30.8415 55.2117L34.1329 42.6769H42.8117C42.6971 42.7925 42.5661 42.9081 42.4514 43.0403C41.125 44.378 39.946 45.8643 39.5203 46.7891C38.9144 48.1103 38.6852 50.0921 39.5367 51.5289C39.9788 52.2721 40.863 53.1804 42.6807 53.296C42.7789 53.296 42.8772 53.296 42.9754 53.296C45.2516 53.296 47.8716 51.5785 49.591 50.2242C49.853 50.0261 50.0822 49.8279 50.2951 49.6462C50.3279 49.6132 50.3606 49.5802 50.3934 49.5637L50.4098 49.5471C50.8191 49.2003 51.0484 48.9691 51.0648 48.9691L51.0811 48.9526L49.6892 47.5488C49.6892 47.5488 49.6892 47.5488 49.7056 47.5323C49.7056 47.5323 49.7056 47.5323 49.6892 47.5488C49.6237 47.6149 49.3781 47.8296 49.0179 48.1434C48.7395 48.3746 48.4611 48.6058 48.1827 48.8205C46.0376 50.4885 44.0726 51.4133 42.8117 51.3307C42.0421 51.2812 41.5181 51.017 41.2397 50.538C40.7812 49.7618 40.9285 48.4902 41.3215 47.6479C41.5672 47.1029 42.5006 45.8313 43.8433 44.4605C44.0562 44.2459 44.2854 44.0312 44.5311 43.7999C44.7931 43.5687 45.0551 43.3375 45.3171 43.1228L42.9427 40.7282H34.706L35.0171 39.5061C35.1317 39.0932 34.9516 38.6473 34.5914 38.4161C34.5095 38.3665 32.6755 37.2435 28.2051 36.4343C25.1593 35.8893 22.0644 36.0049 21.9498 36.0214C21.4094 36.0379 21 36.4673 21 37.0123V58.3991C21 58.9441 21.4421 59.39 21.9825 59.39H29.0566C29.4987 59.39 29.8917 59.0928 30.0063 58.6469L30.3175 57.4743C33.6252 60.7608 42.7462 69.5632 46.971 70.7192C47.7079 70.9174 48.3301 71 48.8869 71C50.0495 71 50.8191 70.6367 51.3104 70.2899C51.7034 70.4715 52.0964 70.5706 52.4894 70.5706C52.9806 70.5706 53.4719 70.422 53.9959 70.1412C54.9293 69.6293 55.6825 68.787 56.1738 68.1099C56.6323 68.3411 57.0581 68.4567 57.5002 68.4567C57.9914 68.4567 58.4827 68.3081 59.0067 68.0273C60.0547 67.4658 60.8571 66.4914 61.332 65.8308H61.3483C61.8887 65.8308 62.4127 65.6822 62.9695 65.3684C63.1987 65.2363 63.5917 64.9225 63.9192 64.6418C64.0994 64.4766 64.2631 64.328 64.345 64.2124C64.6725 63.816 64.8854 63.3866 65 62.9407L63.1987 61.1571ZM28.3033 57.4082H22.965V37.9867C24.0785 37.9867 25.9944 38.0528 27.8612 38.3996C30.4976 38.8785 32.1187 39.4565 32.9211 39.8033L28.3033 57.4082Z" fill="url(#paint8_linear_802_1424)"/>
<path d="M28.5319 41.2939C28.4681 41.2509 28.383 41.2079 28.2979 41.1649C28.2128 41.1219 28.1277 41.0932 28.0426 41.0789C27.9574 41.0502 27.8511 41.0358 27.766 41.0215C27.5745 40.9928 27.383 40.9928 27.1915 41.0215C27.1064 41.0358 27 41.0502 26.9149 41.0789C26.8298 41.1075 26.7447 41.1362 26.6596 41.1649C26.5745 41.2079 26.4894 41.2366 26.4255 41.2939C26.1489 41.4803 26 41.7384 26 42.0108C26 42.2688 26.1702 42.5269 26.4255 42.7133C26.4894 42.7563 26.5745 42.7993 26.6596 42.8423C26.7447 42.8853 26.8298 42.914 26.9149 42.9283C27 42.957 27.1064 42.9713 27.1915 42.9857C27.2979 43 27.383 43 27.4894 43C27.5957 43 27.6808 42.9857 27.7872 42.9857C27.8936 42.9713 27.9787 42.957 28.0638 42.9283C28.1489 42.8996 28.234 42.871 28.3191 42.8423C28.4043 42.7993 28.4681 42.7706 28.5532 42.7133C28.8298 42.5269 29 42.2688 29 42.0108C28.9787 41.7384 28.8085 41.4803 28.5319 41.2939Z" fill="url(#paint9_linear_802_1424)"/>
<path d="M74.9937 48.9936C74.9603 49.2981 74.8103 49.5705 74.5602 49.7468L73.8098 50.3237L63.922 58L62.2713 56.3974L72.1924 48.6891L64.5223 39.6987L53.6674 48.1282L52 46.5416L63.9554 37.2468C64.3722 36.9262 64.9392 36.9262 65.356 37.1987C65.4394 37.2628 65.5227 37.3269 65.5894 37.407L66.7233 38.7532L68.6408 40.9968L73.8098 47.0705L74.7269 48.1442C74.927 48.4006 75.027 48.6891 74.9937 48.9936Z" fill="url(#paint10_linear_802_1424)"/>
<path d="M63.8214 50.1251C63.7729 50.1725 63.7245 50.2041 63.676 50.2515C63.6437 50.2673 63.6114 50.2989 63.5791 50.3147C63.5629 50.3305 63.5306 50.3463 63.5145 50.3779C63.1429 50.6306 62.7229 50.757 62.3998 50.6938C61.8829 50.5832 61.366 50.8991 61.2367 51.4046C61.1236 51.9101 61.4467 52.4156 61.9637 52.5419C62.1737 52.5893 62.3837 52.6051 62.5937 52.6051C63.0621 52.6051 63.5306 52.4945 63.9668 52.305L64.2575 52.6525C64.4514 52.8894 64.726 53 65.0168 53C65.2268 53 65.453 52.9368 65.6307 52.7947C66.0507 52.4629 66.1153 51.8627 65.776 51.4678L65.4853 51.1203C65.7114 50.8044 65.873 50.4569 65.9537 50.1094C66.083 49.4933 65.9376 48.8615 65.566 48.3876C64.4999 47.0292 62.9491 47.6926 62.1252 48.0401C61.8344 48.1665 61.366 48.3718 61.2044 48.3402C61.1883 48.3244 61.1721 48.3086 61.156 48.277C61.1075 48.1981 61.1075 48.0243 61.2044 47.8821C61.2367 47.8347 61.2852 47.7874 61.3175 47.74C61.3498 47.7242 61.3821 47.7084 61.3983 47.6926C61.4629 47.6452 61.5275 47.582 61.576 47.503C61.8829 47.2661 62.2544 47.1555 62.4967 47.2345C62.9975 47.4241 63.5629 47.1713 63.7406 46.6816C63.9345 46.192 63.676 45.6391 63.1752 45.4654C62.4321 45.1968 61.6406 45.3232 60.9621 45.6549L60.7198 45.3548C60.3806 44.9441 59.7667 44.8809 59.3628 45.2126C58.9428 45.5443 58.8782 46.1446 59.2175 46.5395L59.5405 46.9344C59.0882 47.6768 59.0721 48.6245 59.5405 49.3196C60.5259 50.8044 62.0767 50.1409 62.9168 49.7776C63.8537 49.3827 63.9506 49.4301 64.0475 49.5407C64.0637 49.5565 64.0799 49.6355 64.0637 49.7303C64.0475 49.8408 63.9506 49.983 63.8214 50.1251Z" fill="url(#paint11_linear_802_1424)"/>
<path d="M78.7004 77.7025C78.502 77.9008 78.2541 78 78.0061 78C77.7582 78 77.4937 77.9008 77.3119 77.7025L24.2851 24.6897C23.905 24.3096 23.905 23.6817 24.2851 23.2851C24.6818 22.905 25.31 22.905 25.6901 23.2851L63.6254 61.2104L65.4106 63.0116L78.7169 76.3144C79.0971 76.678 79.0971 77.3059 78.7004 77.7025Z" fill="url(#paint12_linear_802_1424)"/>
</g>
<defs>
<filter id="filter0_b_802_1424" x="-30" y="-30" width="160" height="160" filterUnits="userSpaceOnUse" color-interpolation-filters="sRGB">
<feFlood flood-opacity="0" result="BackgroundImageFix"/>
<feGaussianBlur in="BackgroundImageFix" stdDeviation="15"/>
<feComposite in2="SourceAlpha" operator="in" result="effect1_backgroundBlur_802_1424"/>
<feBlend mode="normal" in="SourceGraphic" in2="effect1_backgroundBlur_802_1424" result="shape"/>
</filter>
<linearGradient id="paint0_linear_802_1424" x1="50" y1="0" x2="50" y2="100" gradientUnits="userSpaceOnUse">
<stop stop-color="white" stop-opacity="0"/>
<stop offset="1" stop-color="white"/>
</linearGradient>
<radialGradient id="paint1_radial_802_1424" cx="0" cy="0" r="1" gradientUnits="userSpaceOnUse" gradientTransform="translate(82.6923 80.4762) rotate(77.5615) scale(108.255 45.9545)">
<stop stop-color="white" stop-opacity="0.57"/>
<stop offset="1" stop-color="white" stop-opacity="0"/>
</radialGradient>
<radialGradient id="paint2_radial_802_1424" cx="0" cy="0" r="1" gradientUnits="userSpaceOnUse" gradientTransform="translate(10.4567 21.9048) rotate(-95.3611) scale(111.918 31.8727)">
<stop stop-color="white" stop-opacity="0.28"/>
<stop offset="1" stop-color="white" stop-opacity="0"/>
</radialGradient>
<linearGradient id="paint3_linear_802_1424" x1="44.0732" y1="32.6828" x2="69.7207" y2="66.6763" gradientUnits="userSpaceOnUse">
<stop stop-color="#A259FF"/>
<stop offset="1" stop-color="#FF6250"/>
</linearGradient>
<linearGradient id="paint4_linear_802_1424" x1="25.3673" y1="18.4832" x2="52.6389" y2="72.1314" gradientUnits="userSpaceOnUse">
<stop stop-color="#A259FF"/>
<stop offset="1" stop-color="#FF6250"/>
</linearGradient>
<linearGradient id="paint5_linear_802_1424" x1="39.5741" y1="35.2435" x2="55.7619" y2="67.9712" gradientUnits="userSpaceOnUse">
<stop stop-color="#A259FF"/>
<stop offset="1" stop-color="#FF6250"/>
</linearGradient>
<linearGradient id="paint6_linear_802_1424" x1="40.3765" y1="34.6187" x2="59.0871" y2="68.1032" gradientUnits="userSpaceOnUse">
<stop stop-color="#A259FF"/>
<stop offset="1" stop-color="#FF6250"/>
</linearGradient>
<linearGradient id="paint7_linear_802_1424" x1="38.078" y1="32.6496" x2="60.0139" y2="75.8013" gradientUnits="userSpaceOnUse">
<stop stop-color="#A259FF"/>
<stop offset="1" stop-color="#FF6250"/>
</linearGradient>
<linearGradient id="paint8_linear_802_1424" x1="39.7919" y1="35.1772" x2="56.5396" y2="67.8439" gradientUnits="userSpaceOnUse">
<stop stop-color="#A259FF"/>
<stop offset="1" stop-color="#FF6250"/>
</linearGradient>
<linearGradient id="paint9_linear_802_1424" x1="43.6296" y1="35.7008" x2="54.6086" y2="67.7526" gradientUnits="userSpaceOnUse">
<stop stop-color="#A259FF"/>
<stop offset="1" stop-color="#FF6250"/>
</linearGradient>
<linearGradient id="paint10_linear_802_1424" x1="39.5709" y1="35.0493" x2="55.36" y2="67.3661" gradientUnits="userSpaceOnUse">
<stop stop-color="#A259FF"/>
<stop offset="1" stop-color="#FF6250"/>
</linearGradient>
<linearGradient id="paint11_linear_802_1424" x1="40.4882" y1="35.3857" x2="56.2152" y2="67.0252" gradientUnits="userSpaceOnUse">
<stop stop-color="#A259FF"/>
<stop offset="1" stop-color="#FF6250"/>
</linearGradient>
<linearGradient id="paint12_linear_802_1424" x1="39.9814" y1="35.2143" x2="56.6536" y2="68.02" gradientUnits="userSpaceOnUse">
<stop stop-color="#A259FF"/>
<stop offset="1" stop-color="#FF6250"/>
</linearGradient>
<clipPath id="clip0_802_1424">
<rect width="100" height="100" fill="white"/>
</clipPath>
</defs>
</svg>
