<svg width="100" height="100" viewBox="0 0 100 100" fill="none" xmlns="http://www.w3.org/2000/svg">
<g clip-path="url(#clip0_802_977)">
<g filter="url(#filter0_b_802_977)">
<rect width="100" height="100" rx="20" fill="url(#paint0_linear_802_977)" fill-opacity="0.6"/>
<rect x="1" y="1" width="98" height="98" rx="19" stroke="url(#paint1_radial_802_977)" stroke-width="2"/>
<rect x="1" y="1" width="98" height="98" rx="19" stroke="url(#paint2_radial_802_977)" stroke-width="2"/>
</g>
<path d="M42.2885 44.3613H62.9407C63.4814 44.3613 63.917 43.9227 63.917 43.3782C63.917 42.8336 63.4814 42.395 62.9407 42.395H42.2885C41.7478 42.395 41.3123 42.8336 41.3123 43.3782C41.3123 43.9227 41.7478 44.3613 42.2885 44.3613ZM62.9407 50.2454H42.2885C41.7478 50.2454 41.3123 50.684 41.3123 51.2286C41.3123 51.7731 41.7478 52.2118 42.2885 52.2118H62.9407C63.4814 52.2118 63.917 51.7731 63.917 51.2286C63.902 50.684 63.4814 50.2454 62.9407 50.2454ZM62.9407 58.0807H42.2885C41.7478 58.0807 41.3123 58.5193 41.3123 59.0639C41.3123 59.6084 41.7478 60.0471 42.2885 60.0471H62.9407C63.4814 60.0471 63.917 59.6084 63.917 59.0639C63.917 58.5193 63.4814 58.0807 62.9407 58.0807ZM62.9407 65.916H42.2885C41.7478 65.916 41.3123 66.3546 41.3123 66.8992C41.3123 67.4437 41.7478 67.8824 42.2885 67.8824H62.9407C63.4814 67.8824 63.917 67.4437 63.917 66.8992C63.917 66.3546 63.4814 65.916 62.9407 65.916ZM42.2885 44.3613H62.9407C63.4814 44.3613 63.917 43.9227 63.917 43.3782C63.917 42.8336 63.4814 42.395 62.9407 42.395H42.2885C41.7478 42.395 41.3123 42.8336 41.3123 43.3782C41.3123 43.9227 41.7478 44.3613 42.2885 44.3613ZM62.9407 50.2454H42.2885C41.7478 50.2454 41.3123 50.684 41.3123 51.2286C41.3123 51.7731 41.7478 52.2118 42.2885 52.2118H62.9407C63.4814 52.2118 63.917 51.7731 63.917 51.2286C63.902 50.684 63.4814 50.2454 62.9407 50.2454ZM62.9407 58.0807H42.2885C41.7478 58.0807 41.3123 58.5193 41.3123 59.0639C41.3123 59.6084 41.7478 60.0471 42.2885 60.0471H62.9407C63.4814 60.0471 63.917 59.6084 63.917 59.0639C63.917 58.5193 63.4814 58.0807 62.9407 58.0807ZM62.9407 65.916H42.2885C41.7478 65.916 41.3123 66.3546 41.3123 66.8992C41.3123 67.4437 41.7478 67.8824 42.2885 67.8824H62.9407C63.4814 67.8824 63.917 67.4437 63.917 66.8992C63.917 66.3546 63.4814 65.916 62.9407 65.916ZM62.9407 42.4101H42.2885C41.7478 42.4101 41.3123 42.8487 41.3123 43.3933C41.3123 43.9378 41.7478 44.3765 42.2885 44.3765H62.9407C63.4814 44.3765 63.917 43.9378 63.917 43.3933C63.902 42.8487 63.4814 42.4101 62.9407 42.4101ZM62.9407 50.2454H42.2885C41.7478 50.2454 41.3123 50.684 41.3123 51.2286C41.3123 51.7731 41.7478 52.2118 42.2885 52.2118H62.9407C63.4814 52.2118 63.917 51.7731 63.917 51.2286C63.902 50.684 63.4814 50.2454 62.9407 50.2454ZM62.9407 58.0807H42.2885C41.7478 58.0807 41.3123 58.5193 41.3123 59.0639C41.3123 59.6084 41.7478 60.0471 42.2885 60.0471H62.9407C63.4814 60.0471 63.917 59.6084 63.917 59.0639C63.917 58.5193 63.4814 58.0807 62.9407 58.0807ZM62.9407 65.916H42.2885C41.7478 65.916 41.3123 66.3546 41.3123 66.8992C41.3123 67.4437 41.7478 67.8824 42.2885 67.8824H62.9407C63.4814 67.8824 63.917 67.4437 63.917 66.8992C63.917 66.3546 63.4814 65.916 62.9407 65.916ZM69.6996 37.6151L65.5541 33.4403V25.9832C65.5541 25.4387 65.1186 25 64.5779 25H32.9763C32.4356 25 32 25.4387 32 25.9832V74.1143C32 74.6437 32.4206 75.0824 32.9613 75.0975L35.8451 75.158V78.0168C35.8451 78.5613 36.2806 79 36.8213 79H69.0237C69.5644 79 70 78.5613 70 78.0168V38.3109C69.985 38.0538 69.8798 37.7966 69.6996 37.6151ZM35.8451 29.3261V73.1765L33.9526 73.1462V26.9513H63.6166V31.4739L60.7779 28.6454C60.5976 28.4639 60.3423 28.358 60.087 28.358H36.8063C36.2806 28.358 35.8451 28.7966 35.8451 29.3261ZM68.0324 77.0185H37.7976V30.3092H59.2008V37.9782C59.2008 38.5227 59.6364 38.9613 60.1771 38.9613H68.0625L68.0324 77.0185Z" fill="url(#paint3_linear_802_977)"/>
</g>
<defs>
<filter id="filter0_b_802_977" x="-30" y="-30" width="160" height="160" filterUnits="userSpaceOnUse" color-interpolation-filters="sRGB">
<feFlood flood-opacity="0" result="BackgroundImageFix"/>
<feGaussianBlur in="BackgroundImageFix" stdDeviation="15"/>
<feComposite in2="SourceAlpha" operator="in" result="effect1_backgroundBlur_802_977"/>
<feBlend mode="normal" in="SourceGraphic" in2="effect1_backgroundBlur_802_977" result="shape"/>
</filter>
<linearGradient id="paint0_linear_802_977" x1="50" y1="0" x2="50" y2="100" gradientUnits="userSpaceOnUse">
<stop stop-color="white" stop-opacity="0"/>
<stop offset="1" stop-color="white"/>
</linearGradient>
<radialGradient id="paint1_radial_802_977" cx="0" cy="0" r="1" gradientUnits="userSpaceOnUse" gradientTransform="translate(82.6923 80.4762) rotate(77.5615) scale(108.255 45.9545)">
<stop stop-color="white" stop-opacity="0.57"/>
<stop offset="1" stop-color="white" stop-opacity="0"/>
</radialGradient>
<radialGradient id="paint2_radial_802_977" cx="0" cy="0" r="1" gradientUnits="userSpaceOnUse" gradientTransform="translate(10.4567 21.9048) rotate(-95.3611) scale(111.918 31.8727)">
<stop stop-color="white" stop-opacity="0.28"/>
<stop offset="1" stop-color="white" stop-opacity="0"/>
</radialGradient>
<linearGradient id="paint3_linear_802_977" x1="28.2364" y1="29.3648" x2="73.7783" y2="74.5867" gradientUnits="userSpaceOnUse">
<stop stop-color="#A259FF"/>
<stop offset="1" stop-color="#FF6250"/>
</linearGradient>
<clipPath id="clip0_802_977">
<rect width="100" height="100" fill="white"/>
</clipPath>
</defs>
</svg>
