<svg width="65" height="81" viewBox="0 0 65 81" fill="none" xmlns="http://www.w3.org/2000/svg">
<path d="M63.6316 77.8254H62.1811L61.2596 73.4011C60.7761 71.0809 59.41 69.0816 57.4942 67.7644C59.4077 66.4471 60.7739 64.4501 61.2574 62.1343L62.1811 57.71H63.6316C64.3865 57.71 65 57.1105 65 56.3727C65 55.635 64.3865 55.0354 63.6316 55.0354H61.0635H43.16H40.5919C39.837 55.0354 39.2235 55.635 39.2235 56.3727C39.2235 57.1105 39.837 57.71 40.5919 57.71H42.0425L42.9661 62.1343C43.4496 64.4523 44.8181 66.4493 46.7316 67.7666C44.8203 69.0838 43.4542 71.0764 42.9707 73.39L42.0402 77.8254H40.5919C39.837 77.8254 39.2235 78.4249 39.2235 79.1627C39.2235 79.9004 39.837 80.5 40.5919 80.5H61.0612H63.6293C64.3842 80.5 64.9977 79.9004 64.9977 79.1627C64.9977 78.4249 64.3888 77.8254 63.6316 77.8254ZM45.6551 73.9271C46.1432 71.598 47.8925 69.728 50.2211 69.046C50.8004 68.8766 51.1972 68.355 51.1972 67.7644C51.1972 67.1737 50.8004 66.6522 50.2211 66.4828C47.8902 65.8008 46.1409 63.9285 45.6528 61.5971L44.8409 57.7078H59.3918L58.5798 61.5971C58.094 63.9263 56.3447 65.7985 54.0139 66.4828C53.4346 66.6522 53.0377 67.1737 53.0377 67.7644C53.0377 68.355 53.4346 68.8766 54.0139 69.046C56.347 69.7302 58.0963 71.6024 58.5821 73.9361L59.3918 77.8254L44.8409 77.8165L45.6551 73.9271ZM34.9221 77.8254H2.73456V9.12341H12.9316V14.7758C12.9316 15.5135 13.5451 16.1131 14.3 16.1131H40.17C40.9249 16.1131 41.5384 15.5135 41.5384 14.7758V9.12341H51.7354V50.9031C51.7354 51.6409 52.3489 52.2405 53.1039 52.2405C53.8588 52.2405 54.4723 51.6409 54.4723 50.9031V7.7861C54.4723 7.04835 53.8588 6.44879 53.1039 6.44879H41.5384C41.5384 5.71104 40.9249 5.11148 40.17 5.11148H34.3451V1.83731C34.3451 1.09956 33.7316 0.5 32.9767 0.5H21.4956C20.7407 0.5 20.1272 1.09956 20.1272 1.83731V5.11148H14.3023C13.5474 5.11148 12.9339 5.71104 12.9339 6.44879H1.36842C0.613509 6.44879 0 7.04835 0 7.7861V79.1627C0 79.9004 0.613509 80.5 1.36842 80.5H34.9244C35.6793 80.5 36.2928 79.9004 36.2928 79.1627C36.2928 78.4249 35.677 77.8254 34.9221 77.8254ZM15.6684 7.79947C15.6684 7.79502 15.6684 7.79056 15.6684 7.7861H38.7993C38.7993 7.79056 38.7993 7.79502 38.7993 7.79947V13.4385H15.6684V7.79947ZM44.7725 39.195C44.7725 39.9328 44.1589 40.5323 43.404 40.5323H17.3721C16.6172 40.5323 16.0037 39.9328 16.0037 39.195C16.0037 38.4573 16.6172 37.8577 17.3721 37.8577H43.404C44.1589 37.8577 44.7725 38.4573 44.7725 39.195ZM44.7725 28.3918C44.7725 29.1295 44.1589 29.7291 43.404 29.7291H17.3721C16.6172 29.7291 16.0037 29.1295 16.0037 28.3918C16.0037 27.654 16.6172 27.0545 17.3721 27.0545H43.404C44.1589 27.0545 44.7725 27.654 44.7725 28.3918ZM44.7725 50.0005C44.7725 50.7382 44.1589 51.3378 43.404 51.3378H17.3721C16.6172 51.3378 16.0037 50.7382 16.0037 50.0005C16.0037 49.2627 16.6172 48.6632 17.3721 48.6632H43.404C44.1589 48.6632 44.7725 49.2605 44.7725 50.0005ZM36.4707 60.8037C36.4707 61.5414 35.8572 62.141 35.1023 62.141H17.3721C16.6172 62.141 16.0037 61.5414 16.0037 60.8037C16.0037 60.0659 16.6172 59.4664 17.3721 59.4664H35.1023C35.8572 59.4664 36.4707 60.0637 36.4707 60.8037ZM12.3226 29.5664C11.627 30.2462 10.5004 30.2462 9.80474 29.5664C9.10912 28.8866 9.10912 27.7855 9.80474 27.1057C10.5004 26.4259 11.627 26.4259 12.3226 27.1057C13.0182 27.7855 13.0182 28.8866 12.3226 29.5664ZM12.3226 40.2938C11.627 40.9736 10.5004 40.9736 9.80474 40.2938C9.10912 39.614 9.10912 38.513 9.80474 37.8332C10.5004 37.1534 11.627 37.1534 12.3226 37.8332C13.0182 38.513 13.0182 39.614 12.3226 40.2938ZM12.3226 51.1862C11.627 51.866 10.5004 51.866 9.80474 51.1862C9.10912 50.5064 9.10912 49.4054 9.80474 48.7256C10.5004 48.0458 11.627 48.0458 12.3226 48.7256C13.0182 49.4054 13.0182 50.5064 12.3226 51.1862ZM12.3226 59.453C13.0182 60.1328 13.0182 61.2338 12.3226 61.9136C11.627 62.5934 10.5004 62.5934 9.80474 61.9136C9.10912 61.2338 9.10912 60.1328 9.80474 59.453C10.5004 58.7732 11.627 58.7732 12.3226 59.453Z" fill="url(#paint0_linear_716_17612)"/>
<defs>
<linearGradient id="paint0_linear_716_17612" x1="-4.92693" y1="12.0456" x2="63.0594" y2="81.6137" gradientUnits="userSpaceOnUse">
<stop stop-color="#A259FF"/>
<stop offset="1" stop-color="#FF6250"/>
</linearGradient>
</defs>
</svg>
