<svg width="100" height="100" viewBox="0 0 100 100" fill="none" xmlns="http://www.w3.org/2000/svg">
<path d="M43.5821 81.6512H40.3728V75.8373C40.3728 75.0698 39.7449 74.4419 38.9774 74.4419H12.8379C12.0704 74.4419 11.4425 75.0698 11.4425 75.8373V81.6512H8.23324C7.4658 81.6512 6.83789 82.2791 6.83789 83.0466V90.2559C6.83789 91.0233 7.4658 91.6512 8.23324 91.6512H43.5821C44.3495 91.6512 44.9774 91.0233 44.9774 90.2559V83.0466C44.9774 82.2791 44.3728 81.6512 43.5821 81.6512ZM14.2332 77.2326H37.6053V81.6512H14.2332V77.2326ZM42.1867 88.8605H9.62859V84.4419H42.1867V88.8605ZM85.5588 60.2326C81.1635 55.8373 74.4193 50.3024 67.5123 45.4187C68.1635 43.7675 67.9077 41.907 66.6984 40.6977L65.5588 39.5582L70.0007 35.1163C71.9077 36.6047 74.6984 36.4652 76.4426 34.721L77.7681 33.3954C78.6984 32.4652 79.21 31.2559 79.21 29.9303C79.21 28.6047 78.6984 27.3954 77.7681 26.4884L61.117 9.81402C59.21 7.90704 56.117 7.90704 54.21 9.81402L52.8844 11.1396C51.9542 12.0698 51.4425 13.2791 51.4425 14.5815C51.4425 15.6745 51.8146 16.721 52.4658 17.5815L32.7914 37.2326C31.9309 36.5582 30.9077 36.2094 29.7914 36.2094C28.4891 36.2094 27.2565 36.721 26.3495 37.628L25.0239 38.9536C23.117 40.8605 23.117 43.9536 25.0239 45.8605L41.6751 62.5117C42.6286 63.4652 43.8844 63.9303 45.1402 63.9303C46.396 63.9303 47.6518 63.4419 48.5821 62.5117L49.9077 61.1861C51.6518 59.4419 51.7914 56.6512 50.303 54.7443L53.8379 51.2094C54.1635 51.535 54.5356 51.907 54.9774 52.3489C55.7449 53.1163 56.7914 53.535 57.9077 53.535C58.5588 53.535 59.21 53.3954 59.8146 53.1396C63.7216 58.6745 69.4425 66.0001 74.6053 71.1396C79.6751 76.2094 83.7216 78.721 86.9542 78.721C88.5821 78.721 90.0007 78.0931 91.2332 76.8605C95.0007 73.1396 93.1867 67.8373 85.5588 60.2326ZM54.8611 13.0931L56.1867 11.7675C57.0007 10.9536 58.3263 10.9536 59.1402 11.7675L75.7914 28.4187C75.9774 28.628 76.1402 28.8373 76.2565 29.0931C76.3728 29.3489 76.4193 29.6047 76.4193 29.907C76.4193 30.4652 76.21 31.0001 75.8146 31.3954L74.4891 32.721C73.6751 33.535 72.3495 33.535 71.5356 32.721L70.9774 32.1629L55.4193 16.6047L54.8611 16.0466C54.4658 15.6512 54.2565 15.1163 54.2565 14.5582C54.2332 14.0233 54.4658 13.4884 54.8611 13.0931ZM47.9542 59.2326L46.6286 60.5582C45.8146 61.3722 44.4891 61.3722 43.6751 60.5582L27.0239 43.907C26.21 43.0931 26.21 41.7675 27.0239 40.9536L28.3495 39.628C28.7449 39.2326 29.2798 39.0233 29.8379 39.0233C30.396 39.0233 30.9309 39.2326 31.3263 39.628L47.4193 55.721L47.9774 56.2791C48.7681 57.0931 48.7681 58.4187 47.9542 59.2326ZM48.3728 52.7675L34.7914 39.1861L54.4193 19.5582L68.0007 33.1396L48.3728 52.7675ZM74.2565 66.721C69.8844 61.9536 65.3495 56.0698 62.0937 51.4652L65.8844 47.6745C71.4891 51.6512 76.9774 56.0233 81.1402 59.8373L74.2565 66.721ZM89.303 74.8838C88.6518 75.535 87.9077 76.1396 86.3495 75.8838C85.21 75.6977 83.396 74.9768 80.7216 72.8605L87.303 66.2791C89.4193 68.9536 90.1402 70.7675 90.3263 71.9303C90.5588 73.4884 89.9542 74.2559 89.303 74.8838Z" fill="url(#paint0_linear_716_17643)"/>
<defs>
<linearGradient id="paint0_linear_716_17643" x1="20.8093" y1="8.38377" x2="104.035" y2="25.0179" gradientUnits="userSpaceOnUse">
<stop stop-color="#A259FF"/>
<stop offset="1" stop-color="#FF6250"/>
</linearGradient>
</defs>
</svg>
