<svg width="100" height="100" viewBox="0 0 100 100" fill="none" xmlns="http://www.w3.org/2000/svg">
<path d="M93 58.513C93 59.0727 92.6713 59.5788 92.1633 59.8003L50.5436 77.8881C50.3712 77.9627 50.185 78 50.0012 78C49.8173 78 49.6311 77.9627 49.4587 77.8881L7.83667 59.8003C7.32869 59.5788 7 59.0727 7 58.513C7 57.9533 7.32869 57.4473 7.83667 57.2257L12.0476 55.395C12.7487 55.0918 13.5577 55.4207 13.8589 56.1296C14.16 56.8409 13.8336 57.6618 13.1348 57.9673L11.8844 58.5107L50.0012 75.0779L88.1179 58.513L86.9663 58.0116C86.2653 57.7084 85.9412 56.8852 86.2423 56.1739C86.5411 55.4626 87.3525 55.1338 88.0535 55.4393L92.1656 57.2257C92.6713 57.4473 93 57.9533 93 58.513ZM92.1656 48.7136L88.0535 46.9272C87.3548 46.6217 86.5434 46.9528 86.2423 47.6618C85.9435 48.3731 86.2676 49.194 86.9663 49.4995L88.1179 50.0009L50.0012 66.5657L11.8844 50.0009L13.1348 49.4575C13.8359 49.152 14.16 48.3311 13.8589 47.6198C13.56 46.9085 12.7487 46.582 12.0476 46.8852L7.83667 48.7159C7.32869 48.9374 7 49.4412 7 50.0032C7 50.5629 7.32869 51.069 7.83667 51.2905L49.4564 69.3782C49.6288 69.4529 49.815 69.4902 49.9989 69.4902C50.1827 69.4902 50.3689 69.4529 50.5413 69.3782L92.161 51.2905C92.669 51.069 92.9977 50.5629 92.9977 50.0032C92.9977 49.4435 92.6713 48.9351 92.1656 48.7136ZM7.0023 41.4887C7.0023 40.929 7.33099 40.423 7.83897 40.2014L49.4587 22.1137C49.8058 21.9621 50.1988 21.9621 50.5436 22.1137L92.1633 40.2014C92.6713 40.423 93 40.929 93 41.4887C93 42.0484 92.6713 42.5545 92.1633 42.776L50.5436 60.8638C50.3712 60.9384 50.185 60.9757 50.0012 60.9757C49.8173 60.9757 49.6311 60.9384 49.4587 60.8638L7.83667 42.776C7.33099 42.5545 7.0023 42.0484 7.0023 41.4887ZM11.8844 41.4887L50.0012 58.0536L88.1179 41.4864L50.0012 24.9215L11.8844 41.4887Z" fill="url(#paint0_linear_716_17596)"/>
<defs>
<linearGradient id="paint0_linear_716_17596" x1="24.0209" y1="23.6413" x2="76.7344" y2="75.5964" gradientUnits="userSpaceOnUse">
<stop stop-color="#A259FF"/>
<stop offset="1" stop-color="#FF6250"/>
</linearGradient>
</defs>
</svg>
