<svg width="100" height="100" viewBox="0 0 100 100" fill="none" xmlns="http://www.w3.org/2000/svg">
<path d="M77.1852 73.2657C68.8443 70.4167 62.8836 69.7085 57.8602 70.9751C56.4172 71.3394 55.0164 71.5235 53.6998 71.5235H43.2356C41.7705 71.5235 40.3937 72.0981 39.3581 73.1422C38.8845 73.6198 38.5092 74.1702 38.2382 74.7671L29.7107 69.4393C29.6886 69.4252 29.6666 69.413 29.6445 69.4009C27.0174 67.9825 23.736 68.982 22.3271 71.6287C22.012 72.2195 21.9318 72.9014 22.1024 73.551C22.283 74.2389 22.7345 74.8278 23.3487 75.1778L41.2868 86.8956C41.3089 86.9098 41.329 86.9219 41.351 86.9361C43.7554 88.2979 46.4527 89 49.1761 89C50.2418 89 51.3135 88.8928 52.3712 88.6742L60.68 86.9644C65.4646 85.979 70.3695 85.4792 75.2545 85.4792H76.7958C77.4601 85.4792 78 84.9349 78 84.2651V74.415C78.002 73.895 77.6729 73.4336 77.1852 73.2657ZM75.5936 83.0511H75.2565C70.209 83.0511 65.1455 83.567 60.2003 84.5848L51.8915 86.2946C48.7105 86.9502 45.3991 86.4322 42.5652 84.8357L24.6231 73.1159C24.595 73.0977 24.5649 73.0795 24.5348 73.0633C24.4686 73.0269 24.4425 72.9702 24.4304 72.9298C24.4204 72.8934 24.4164 72.8367 24.4485 72.776C25.2232 71.3171 27.0234 70.7606 28.4744 71.5235L37.7626 77.3267C37.8248 77.9054 38.0777 78.4417 38.4931 78.8605C38.9728 79.3461 39.611 79.6132 40.2894 79.6132H52.4495C53.1138 79.6132 53.6537 79.0689 53.6537 78.3992C53.6537 77.7294 53.1138 77.1851 52.4495 77.1851H40.2894C40.2552 77.1851 40.2231 77.1709 40.199 77.1466C40.181 77.1284 40.1569 77.094 40.1569 77.0455C40.1569 76.9585 40.1609 76.8735 40.1669 76.7885C40.1689 76.7723 40.1689 76.7581 40.1709 76.742C40.2412 76.0317 40.5483 75.3721 41.056 74.8601C41.638 74.2733 42.4107 73.9516 43.2315 73.9516H53.6958C55.209 73.9516 56.8066 73.7432 58.4402 73.3304C62.8294 72.2236 68.1438 72.8286 75.5896 75.2911V83.0511H75.5936ZM23.2042 43.9216H33.9414C31.8501 48.7496 32.3318 54.5973 35.2599 59.3727C38.3908 64.4778 43.7875 67.4058 50.0672 67.4058C61.254 67.4058 67.2889 58.5957 67.2889 50.3056C67.2889 48.2356 66.9035 46.1899 66.171 44.3364C66.9035 43.5574 67.319 42.5518 67.319 41.5299C67.319 40.8763 67.1765 40.2592 66.9236 39.7068C68.0957 39.7048 69.1935 39.2434 70.0163 38.4118C70.8452 37.5761 71.3028 36.4652 71.3028 35.2835C71.3028 34.2293 70.9014 33.2702 70.2471 32.5458C70.3033 32.4932 70.3635 32.4446 70.4177 32.39C71.2145 31.5887 71.654 30.5203 71.654 29.3832C71.654 28.0153 71.0078 26.7992 70.0083 26.0202C70.6947 25.2189 71.072 24.2092 71.072 23.1388C71.072 20.8523 69.1433 19.0616 66.6828 19.0616L61.834 19.0595L63.7366 12.627C63.8831 12.1333 63.7025 11.6011 63.291 11.2976C62.8776 10.9941 62.3197 10.988 61.9002 11.2794C60.9389 11.9471 58.0288 13.6812 56.1342 13.6812C55.1288 13.6812 54.3982 13.1531 53.5513 12.544C52.5679 11.8358 51.454 11.0325 49.8324 11.0325C48.1727 11.0325 46.9605 11.8723 45.8908 12.6128C45.0599 13.1875 44.3434 13.6832 43.5828 13.6832C42.1638 13.6832 39.3762 12.1636 37.9513 11.2045C37.5278 10.9192 36.9719 10.9334 36.5624 11.2409C36.153 11.5485 35.9804 12.0807 36.1309 12.5724L38.3787 19.9438H23.2042C22.5399 19.9438 22 20.4881 22 21.1579V42.7076C22 43.3794 22.5399 43.9216 23.2042 43.9216ZM50.0672 64.9776C42.6375 64.9776 38.8845 60.6657 37.309 58.0959C34.714 53.8649 34.3648 48.4542 36.4159 44.3142C36.428 44.2919 36.438 44.2677 36.448 44.2454L36.5845 43.9216H38.8243C39.6973 44.2818 42.7338 45.4089 47.0929 45.7083C46.2881 46.3579 45.7443 47.2866 45.6399 48.2862C45.3208 51.3133 48.0302 52.068 49.8244 52.5678C51.8755 53.1405 52.5117 53.4683 52.4876 54.4152C52.4796 54.7289 52.2909 55.0769 51.9939 55.3258C51.5905 55.6617 51.0667 55.7892 50.6974 55.8357C49.4089 56.0016 48.0422 55.427 47.2133 54.3727C46.7999 53.8466 46.0433 53.7596 45.5215 54.1765C44.9997 54.5933 44.9134 55.3561 45.3268 55.8822C46.2119 57.0073 47.4401 57.7823 48.7768 58.1121V59.7855C48.7768 60.4552 49.3166 60.9995 49.9809 60.9995C50.6452 60.9995 51.1851 60.4552 51.1851 59.7855V58.2153C52.0922 58.0696 52.899 57.7215 53.5272 57.1975C54.3581 56.5055 54.8699 55.4877 54.8939 54.4759C54.9662 51.4833 52.2568 50.7285 50.4646 50.2287C48.2469 49.6095 47.9519 49.3141 48.0342 48.5432C48.0904 48.0151 48.564 47.491 49.1601 47.2947C50.3643 46.9002 51.8614 47.5436 52.5659 48.7597C52.901 49.3384 53.6396 49.5347 54.2136 49.1947C54.7876 48.8568 54.9802 48.1122 54.6451 47.5335C54.2357 46.8273 53.6797 46.2344 53.0375 45.7812H57.806H61.9865H62.8796C63.283 45.7812 63.6844 45.7225 64.0717 45.6112C64.5996 47.0802 64.8805 48.6788 64.8805 50.3056C64.8805 57.418 59.6886 64.9776 50.0672 64.9776ZM43.5808 16.1073C45.09 16.1073 46.238 15.3121 47.2515 14.61C48.1466 13.9908 48.9172 13.4566 49.8304 13.4566C50.6793 13.4566 51.3276 13.924 52.1464 14.5149C53.1298 15.2231 54.3521 16.1073 56.1302 16.1073C57.5873 16.1073 59.2229 15.5023 60.5636 14.8487L59.3193 19.0575H57.804C57.79 19.0575 57.7779 19.0595 57.7659 19.0595H53.7741C53.75 19.0595 53.7259 19.0595 53.7018 19.0616L40.8613 19.8305L39.326 14.8002C40.6827 15.474 42.2923 16.1073 43.5808 16.1073ZM24.4083 22.3659H39.0671C39.0912 22.3659 39.1133 22.3659 39.1374 22.3638L53.8122 21.4857H61.5289C61.5309 21.4857 61.5329 21.4857 61.535 21.4857L66.6828 21.4877C67.8127 21.4877 68.6636 22.1959 68.6636 23.1368C68.6636 23.671 68.4589 24.1728 68.0816 24.5512C67.7384 24.8972 67.2829 25.1036 66.8092 25.1299H61.8119C61.8119 25.1299 61.8119 25.1299 61.8099 25.1299C61.7678 25.1299 61.7276 25.1319 61.6875 25.136C61.6734 25.138 61.6594 25.14 61.6453 25.142C61.6192 25.1461 61.5932 25.1481 61.5671 25.1542C61.551 25.1582 61.537 25.1623 61.5209 25.1663C61.4968 25.1724 61.4747 25.1764 61.4507 25.1845C61.4466 25.1865 61.4426 25.1886 61.4366 25.1886C61.4045 25.1987 61.3704 25.2108 61.3383 25.225C61.3343 25.227 61.3302 25.229 61.3262 25.2311C61.2941 25.2452 61.262 25.2594 61.2319 25.2776C61.2279 25.2796 61.2239 25.2816 61.2199 25.2837C61.1898 25.2999 61.1596 25.3181 61.1315 25.3383C61.1295 25.3403 61.1275 25.3423 61.1255 25.3423C61.0954 25.3626 61.0673 25.3848 61.0392 25.4071C61.0352 25.4111 61.0312 25.4152 61.0272 25.4172C61.0011 25.4395 60.977 25.4617 60.9529 25.486C60.9529 25.486 60.9529 25.486 60.9509 25.488C60.9248 25.5143 60.8987 25.5427 60.8747 25.573C60.8506 25.6034 60.8265 25.6337 60.8064 25.6661C60.8044 25.6681 60.8024 25.6722 60.8004 25.6742C60.7803 25.7045 60.7623 25.7349 60.7462 25.7652C60.7442 25.7693 60.7442 25.7713 60.7422 25.7754C60.7261 25.8077 60.7101 25.8381 60.696 25.8725C60.694 25.8786 60.692 25.8846 60.69 25.8907C60.678 25.9211 60.6659 25.9514 60.6559 25.9838C60.6519 25.9939 60.6519 26.004 60.6479 26.0141C60.6398 26.0425 60.6318 26.0708 60.6258 26.0991C60.6218 26.1133 60.6218 26.1295 60.6198 26.1457C60.6158 26.1699 60.6118 26.1942 60.6077 26.2205C60.6057 26.2387 60.6057 26.2569 60.6057 26.2731C60.6037 26.2974 60.6017 26.3197 60.6017 26.344C60.6017 26.3662 60.6037 26.3864 60.6057 26.4087C60.6077 26.4289 60.6077 26.4471 60.6077 26.4674C60.6097 26.4917 60.6138 26.5159 60.6178 26.5402C60.6198 26.5564 60.6218 26.5726 60.6258 26.5888C60.6318 26.6131 60.6378 26.6374 60.6439 26.6616C60.6479 26.6758 60.6499 26.69 60.6539 26.7041C60.6619 26.7284 60.672 26.7527 60.68 26.777C60.684 26.7891 60.688 26.8033 60.694 26.8154C60.7041 26.8377 60.7141 26.8599 60.7261 26.8822C60.7322 26.8964 60.7382 26.9085 60.7462 26.9227C60.7563 26.9429 60.7703 26.9611 60.7823 26.9813C60.7904 26.9955 60.7984 27.0097 60.8064 27.0218C60.8185 27.04 60.8325 27.0582 60.8466 27.0744C60.8566 27.0886 60.8666 27.1027 60.8767 27.1149C60.8887 27.1311 60.9048 27.1452 60.9168 27.1614C60.9289 27.1756 60.9409 27.1898 60.9529 27.2019C60.965 27.214 60.979 27.2262 60.9931 27.2383C61.0091 27.2525 61.0232 27.2666 61.0392 27.2808C61.0513 27.2909 61.0633 27.299 61.0754 27.3091C61.0934 27.3233 61.1115 27.3375 61.1315 27.3516C61.1416 27.3597 61.1536 27.3658 61.1637 27.3719C61.1857 27.386 61.2078 27.4002 61.2299 27.4123C61.2399 27.4184 61.252 27.4225 61.264 27.4285C61.2881 27.4407 61.3122 27.4528 61.3363 27.4629C61.3463 27.467 61.3583 27.471 61.3684 27.4751C61.3945 27.4852 61.4206 27.4953 61.4466 27.5034C61.4587 27.5074 61.4687 27.5095 61.4808 27.5115C61.5069 27.5196 61.535 27.5277 61.561 27.5317C61.5771 27.5358 61.5911 27.5358 61.6072 27.5398C61.6313 27.5439 61.6554 27.5479 61.6795 27.552C61.6975 27.554 61.7176 27.554 61.7356 27.554C61.7577 27.556 61.7798 27.558 61.8019 27.558L66.6768 27.5621C66.733 27.5621 66.7932 27.56 66.8574 27.558H67.4314C68.4288 27.558 69.2396 28.3755 69.2396 29.3811C69.2396 29.8688 69.051 30.3261 68.7078 30.6721C68.3686 31.0161 67.9151 31.2043 67.4314 31.2043H67.2528H62.6026C61.9383 31.2043 61.3985 31.7486 61.3985 32.4183C61.3985 33.0881 61.9383 33.6324 62.6026 33.6324H67.2528C68.1539 33.6324 68.8884 34.373 68.8884 35.2815C68.8884 35.8137 68.6817 36.3155 68.3064 36.6959C67.9351 37.0723 67.4374 37.2787 66.9076 37.2787H63.1666H60.395C59.7307 37.2787 59.1908 37.823 59.1908 38.4927C59.1908 39.1625 59.7307 39.7068 60.395 39.7068H63.1666C63.2108 39.7068 63.2569 39.7088 63.3191 39.7149C64.2263 39.7898 64.9106 40.5708 64.9106 41.5299C64.9106 42.139 64.5353 42.574 64.3126 42.7764C64.2303 42.8512 64.14 42.9221 64.0476 42.9848C63.6924 43.2215 63.277 43.3531 62.8796 43.3531H61.9865H57.806H49.2303C43.4945 43.3531 39.601 41.619 39.5648 41.6028C39.4083 41.5319 39.2397 41.4935 39.0671 41.4935H35.7978C35.7918 41.4935 35.7837 41.4935 35.7777 41.4935H24.4083V22.3659Z" fill="url(#paint0_linear_322_21338)"/>
<defs>
<linearGradient id="paint0_linear_322_21338" x1="21.4303" y1="21.2241" x2="81.7187" y2="81.021" gradientUnits="userSpaceOnUse">
<stop stop-color="#A259FF"/>
<stop offset="1" stop-color="#FF6250"/>
</linearGradient>
</defs>
</svg>
