<svg width="100" height="100" viewBox="0 0 100 100" fill="none" xmlns="http://www.w3.org/2000/svg">
<g clip-path="url(#clip0_802_965)">
<g filter="url(#filter0_b_802_965)">
<rect width="100" height="100" rx="20" fill="url(#paint0_linear_802_965)" fill-opacity="0.6"/>
<rect x="1" y="1" width="98" height="98" rx="19" stroke="url(#paint1_radial_802_965)" stroke-width="2"/>
<rect x="1" y="1" width="98" height="98" rx="19" stroke="url(#paint2_radial_802_965)" stroke-width="2"/>
</g>
<path d="M71.3598 68.4932C64.8062 66.2286 60.1228 65.6657 56.1759 66.6725C55.0421 66.9621 53.9414 67.1084 52.907 67.1084H44.6851C43.534 67.1084 42.4522 67.5652 41.6385 68.3951C41.2664 68.7747 40.9715 69.2122 40.7586 69.6866L34.0584 65.4518C34.0411 65.4405 34.0237 65.4309 34.0064 65.4212C31.9422 64.2937 29.364 65.0883 28.257 67.192C28.0095 67.6617 27.9464 68.2037 28.0804 68.72C28.2223 69.2669 28.5771 69.7349 29.0597 70.0131L43.1539 79.3273C43.1713 79.3385 43.187 79.3482 43.2044 79.3595C45.0935 80.4419 47.2128 81 49.3527 81C50.19 81 51.0321 80.9148 51.8631 80.7411L58.3914 79.382C62.1507 78.5987 66.0047 78.2014 69.8428 78.2014H71.0539C71.5758 78.2014 72 77.7688 72 77.2364V69.4068C72.0016 68.9934 71.743 68.6267 71.3598 68.4932ZM70.1093 76.2714H69.8444C65.8785 76.2714 61.9 76.6815 58.0145 77.4905L51.4862 78.8496C48.9868 79.3707 46.385 78.959 44.1584 77.69L30.061 68.3742C30.0389 68.3597 30.0153 68.3453 29.9916 68.3324C29.9396 68.3034 29.9191 68.2584 29.9096 68.2262C29.9017 68.1973 29.8986 68.1523 29.9238 68.104C30.5325 66.9444 31.947 66.5021 33.087 67.1084L40.3849 71.7212C40.4338 72.1812 40.6325 72.6075 40.9589 72.9404C41.3358 73.3264 41.8372 73.5387 42.3702 73.5387H51.9246C52.4465 73.5387 52.8707 73.1061 52.8707 72.5737C52.8707 72.0413 52.4465 71.6087 51.9246 71.6087H42.3702C42.3434 71.6087 42.3182 71.5974 42.2992 71.5781C42.2851 71.5636 42.2661 71.5363 42.2661 71.4977C42.2661 71.4285 42.2693 71.361 42.274 71.2934C42.2756 71.2806 42.2756 71.2693 42.2772 71.2564C42.3324 70.6919 42.5736 70.1676 42.9726 69.7606C43.4299 69.2942 44.037 69.0385 44.6819 69.0385H52.9038C54.0928 69.0385 55.348 68.8728 56.6316 68.5447C60.0803 67.6649 64.2559 68.1458 70.1061 70.1032V76.2714H70.1093ZM28.9461 45.1685H37.3825C35.7394 49.0061 36.1178 53.6543 38.4185 57.4501C40.8785 61.508 45.1187 63.8354 50.0528 63.8354C58.8424 63.8354 63.5841 56.8325 63.5841 50.2429C63.5841 48.5976 63.2814 46.9715 62.7058 45.4982C63.2814 44.879 63.6078 44.0796 63.6078 43.2674C63.6078 42.7479 63.4958 42.2573 63.2971 41.8182C64.218 41.8166 65.0806 41.4499 65.7271 40.7889C66.3784 40.1246 66.7379 39.2416 66.7379 38.3023C66.7379 37.4643 66.4225 36.702 65.9085 36.1262C65.9526 36.0843 65.9999 36.0457 66.0425 36.0023C66.6685 35.3654 67.0139 34.5162 67.0139 33.6123C67.0139 32.525 66.5061 31.5584 65.7208 30.9391C66.2601 30.3022 66.5566 29.4996 66.5566 28.6488C66.5566 26.8313 65.0412 25.4079 63.1079 25.4079L59.2981 25.4063L60.793 20.2933C60.9081 19.9008 60.7662 19.4778 60.443 19.2366C60.1181 18.9953 59.6797 18.9905 59.3502 19.2221C58.5948 19.7528 56.3083 21.1312 54.8198 21.1312C54.0297 21.1312 53.4558 20.7114 52.7903 20.2273C52.0176 19.6644 51.1425 19.0259 49.8683 19.0259C48.5642 19.0259 47.6118 19.6933 46.7713 20.282C46.1185 20.7388 45.5555 21.1328 44.9579 21.1328C43.843 21.1328 41.6527 19.9249 40.5331 19.1626C40.2004 18.9358 39.7636 18.947 39.4419 19.1915C39.1202 19.436 38.9846 19.859 39.1029 20.2498L40.869 26.1092H28.9461C28.4242 26.1092 28 26.5418 28 27.0742V44.2035C28 44.7374 28.4242 45.1685 28.9461 45.1685ZM50.0528 61.9053C44.2152 61.9053 41.2664 58.4778 40.0285 56.4352C37.9896 53.0721 37.7152 48.7713 39.3268 45.4805C39.3363 45.4628 39.3442 45.4435 39.352 45.4258L39.4593 45.1685H41.2191C41.905 45.4548 44.2909 46.3506 47.7159 46.5887C47.0835 47.105 46.6562 47.8432 46.5742 48.6378C46.3235 51.0439 48.4523 51.6438 49.862 52.0411C51.4736 52.4963 51.9735 52.7568 51.9546 53.5095C51.9482 53.7588 51.8 54.0355 51.5666 54.2333C51.2497 54.5003 50.8381 54.6016 50.548 54.6386C49.5356 54.7705 48.4617 54.3137 47.8105 53.4758C47.4856 53.0576 46.8912 52.9884 46.4812 53.3198C46.0712 53.6511 46.0034 54.2574 46.3282 54.6756C47.0236 55.5699 47.9887 56.1859 49.0389 56.4481V57.7782C49.0389 58.3106 49.4631 58.7432 49.985 58.7432C50.507 58.7432 50.9311 58.3106 50.9311 57.7782V56.5301C51.6439 56.4143 52.2778 56.1376 52.7714 55.7211C53.4242 55.171 53.8263 54.362 53.8452 53.5578C53.902 51.179 51.7732 50.5791 50.365 50.1818C48.6226 49.6896 48.3908 49.4548 48.4554 48.842C48.4996 48.4222 48.8717 48.0057 49.3401 47.8497C50.2862 47.536 51.4626 48.0475 52.0161 49.0141C52.2794 49.4741 52.8597 49.6301 53.3107 49.3599C53.7617 49.0913 53.9131 48.4994 53.6497 48.0394C53.328 47.4781 52.8912 47.0069 52.3866 46.6466H56.1333H59.418H60.1197C60.4366 46.6466 60.752 46.5999 61.0564 46.5115C61.4711 47.6792 61.6919 48.9498 61.6919 50.2429C61.6919 55.8964 57.6124 61.9053 50.0528 61.9053ZM44.9563 23.0597C46.1421 23.0597 47.0441 22.4276 47.8404 21.8695C48.5437 21.3773 49.1493 20.9527 49.8667 20.9527C50.5338 20.9527 51.0431 21.3242 51.6865 21.7939C52.4592 22.3568 53.4195 23.0597 54.8166 23.0597C55.9614 23.0597 57.2466 22.5788 58.3 22.0593L57.3223 25.4047H56.1317C56.1207 25.4047 56.1112 25.4063 56.1018 25.4063H52.9653C52.9464 25.4063 52.9275 25.4063 52.9086 25.4079L42.8196 26.0191L41.6133 22.0207C42.6793 22.5563 43.9439 23.0597 44.9563 23.0597ZM29.8923 28.0344H41.4099C41.4288 28.0344 41.4461 28.0344 41.4651 28.0328L52.9953 27.3348H59.0584C59.06 27.3348 59.0616 27.3348 59.0632 27.3348L63.1079 27.3364C63.9957 27.3364 64.6643 27.8993 64.6643 28.6472C64.6643 29.0718 64.5034 29.4707 64.207 29.7715C63.9373 30.0465 63.5794 30.2105 63.2072 30.2314H59.2808C59.2808 30.2314 59.2808 30.2314 59.2792 30.2314C59.2461 30.2314 59.2146 30.2331 59.183 30.2363C59.172 30.2379 59.1609 30.2395 59.1499 30.2411C59.1294 30.2443 59.1089 30.2459 59.0884 30.2507C59.0758 30.254 59.0648 30.2572 59.0521 30.2604C59.0332 30.2652 59.0159 30.2684 58.9969 30.2749C58.9938 30.2765 58.9906 30.2781 58.9859 30.2781C58.9607 30.2861 58.9339 30.2958 58.9086 30.307C58.9055 30.3086 58.9023 30.3103 58.8992 30.3119C58.8739 30.3231 58.8487 30.3344 58.8251 30.3489C58.8219 30.3505 58.8188 30.3521 58.8156 30.3537C58.792 30.3666 58.7683 30.381 58.7462 30.3971C58.7446 30.3987 58.7431 30.4003 58.7415 30.4003C58.7178 30.4164 58.6958 30.4341 58.6737 30.4518C58.6705 30.455 58.6674 30.4582 58.6642 30.4598C58.6437 30.4775 58.6248 30.4952 58.6059 30.5145C58.6059 30.5145 58.6059 30.5145 58.6043 30.5161C58.5838 30.537 58.5633 30.5596 58.5444 30.5837C58.5255 30.6078 58.5065 30.6319 58.4908 30.6577C58.4892 30.6593 58.4876 30.6625 58.486 30.6641C58.4703 30.6882 58.4561 30.7124 58.4435 30.7365C58.4419 30.7397 58.4419 30.7413 58.4403 30.7445C58.4277 30.7703 58.4151 30.7944 58.404 30.8217C58.4025 30.8265 58.4009 30.8314 58.3993 30.8362C58.3898 30.8603 58.3804 30.8844 58.3725 30.9102C58.3693 30.9182 58.3693 30.9263 58.3662 30.9343C58.3599 30.9568 58.3536 30.9793 58.3488 31.0019C58.3457 31.0131 58.3457 31.026 58.3441 31.0389C58.341 31.0582 58.3378 31.0775 58.3347 31.0984C58.3331 31.1128 58.3331 31.1273 58.3331 31.1402C58.3315 31.1595 58.3299 31.1772 58.3299 31.1965C58.3299 31.2142 58.3315 31.2303 58.3331 31.2479C58.3347 31.264 58.3347 31.2785 58.3347 31.2946C58.3362 31.3139 58.3394 31.3332 58.3425 31.3525C58.3441 31.3654 58.3457 31.3782 58.3488 31.3911C58.3536 31.4104 58.3583 31.4297 58.363 31.449C58.3662 31.4602 58.3678 31.4715 58.3709 31.4828C58.3772 31.5021 58.3851 31.5214 58.3914 31.5407C58.3946 31.5503 58.3977 31.5616 58.4025 31.5712C58.4103 31.5889 58.4182 31.6066 58.4277 31.6243C58.4324 31.6356 58.4372 31.6452 58.4435 31.6565C58.4513 31.6726 58.4624 31.687 58.4718 31.7031C58.4781 31.7144 58.4845 31.7256 58.4908 31.7353C58.5002 31.7498 58.5113 31.7642 58.5223 31.7771C58.5302 31.7884 58.5381 31.7996 58.546 31.8093C58.5554 31.8221 58.568 31.8334 58.5775 31.8463C58.587 31.8575 58.5964 31.8688 58.6059 31.8784C58.6153 31.8881 58.6264 31.8977 58.6374 31.9074C58.65 31.9186 58.6611 31.9299 58.6737 31.9412C58.6831 31.9492 58.6926 31.9556 58.7021 31.9637C58.7163 31.9749 58.7304 31.9862 58.7462 31.9974C58.7541 32.0039 58.7636 32.0087 58.7715 32.0135C58.7888 32.0248 58.8061 32.0361 58.8235 32.0457C58.8314 32.0505 58.8408 32.0537 58.8503 32.0586C58.8692 32.0682 58.8881 32.0779 58.9071 32.0859C58.9149 32.0891 58.9244 32.0923 58.9323 32.0956C58.9528 32.1036 58.9733 32.1116 58.9938 32.1181C59.0033 32.1213 59.0111 32.1229 59.0206 32.1245C59.0411 32.1309 59.0632 32.1374 59.0837 32.1406C59.0963 32.1438 59.1073 32.1438 59.1199 32.147C59.1389 32.1502 59.1578 32.1535 59.1767 32.1567C59.1909 32.1583 59.2067 32.1583 59.2209 32.1583C59.2382 32.1599 59.2556 32.1615 59.2729 32.1615L63.1032 32.1647C63.1473 32.1647 63.1946 32.1631 63.2451 32.1615H63.6961C64.4798 32.1615 65.1169 32.8113 65.1169 33.6107C65.1169 33.9983 64.9686 34.3618 64.699 34.6368C64.4325 34.9102 64.0761 35.0598 63.6961 35.0598H63.5557H59.9021C59.3801 35.0598 58.9559 35.4925 58.9559 36.0248C58.9559 36.5572 59.3801 36.9899 59.9021 36.9899H63.5557C64.2638 36.9899 64.8409 37.5785 64.8409 38.3007C64.8409 38.7237 64.6785 39.1226 64.3836 39.425C64.0919 39.7241 63.7008 39.8882 63.2845 39.8882H60.3452H58.1675C57.6456 39.8882 57.2214 40.3208 57.2214 40.8532C57.2214 41.3856 57.6456 41.8182 58.1675 41.8182H60.3452C60.3799 41.8182 60.4161 41.8198 60.465 41.8247C61.1778 41.8842 61.7155 42.505 61.7155 43.2674C61.7155 43.7515 61.4206 44.0973 61.2456 44.2581C61.1809 44.3176 61.11 44.3739 61.0374 44.4238C60.7583 44.612 60.4319 44.7165 60.1197 44.7165H59.418H56.1333H49.3953C44.8885 44.7165 41.8293 43.3381 41.801 43.3253C41.678 43.269 41.5455 43.2384 41.4099 43.2384H38.8411C38.8364 43.2384 38.8301 43.2384 38.8254 43.2384H29.8923V28.0344Z" fill="url(#paint3_linear_802_965)"/>
</g>
<defs>
<filter id="filter0_b_802_965" x="-30" y="-30" width="160" height="160" filterUnits="userSpaceOnUse" color-interpolation-filters="sRGB">
<feFlood flood-opacity="0" result="BackgroundImageFix"/>
<feGaussianBlur in="BackgroundImageFix" stdDeviation="15"/>
<feComposite in2="SourceAlpha" operator="in" result="effect1_backgroundBlur_802_965"/>
<feBlend mode="normal" in="SourceGraphic" in2="effect1_backgroundBlur_802_965" result="shape"/>
</filter>
<linearGradient id="paint0_linear_802_965" x1="50" y1="0" x2="50" y2="100" gradientUnits="userSpaceOnUse">
<stop stop-color="white" stop-opacity="0"/>
<stop offset="1" stop-color="white"/>
</linearGradient>
<radialGradient id="paint1_radial_802_965" cx="0" cy="0" r="1" gradientUnits="userSpaceOnUse" gradientTransform="translate(82.6923 80.4762) rotate(77.5615) scale(108.255 45.9545)">
<stop stop-color="white" stop-opacity="0.57"/>
<stop offset="1" stop-color="white" stop-opacity="0"/>
</radialGradient>
<radialGradient id="paint2_radial_802_965" cx="0" cy="0" r="1" gradientUnits="userSpaceOnUse" gradientTransform="translate(10.4567 21.9048) rotate(-95.3611) scale(111.918 31.8727)">
<stop stop-color="white" stop-opacity="0.28"/>
<stop offset="1" stop-color="white" stop-opacity="0"/>
</radialGradient>
<linearGradient id="paint3_linear_802_965" x1="27.5524" y1="27.1268" x2="75.4662" y2="74.1025" gradientUnits="userSpaceOnUse">
<stop stop-color="#A259FF"/>
<stop offset="1" stop-color="#FF6250"/>
</linearGradient>
<clipPath id="clip0_802_965">
<rect width="100" height="100" fill="white"/>
</clipPath>
</defs>
</svg>
