<svg width="70" height="71" viewBox="0 0 70 71" fill="none" xmlns="http://www.w3.org/2000/svg">
<path d="M57.2795 29.1626L49.9816 22.2977V11.6366C49.9816 11.0977 49.5437 10.6598 49.0048 10.6598H42.6609C42.122 10.6598 41.6841 11.0977 41.6841 11.6366V14.4887L35.6723 8.8333C35.2962 8.48005 34.7102 8.48005 34.3341 8.8333L12.7204 29.161C12.3281 29.5305 12.3086 30.1491 12.6781 30.5414C12.8702 30.7466 13.129 30.8491 13.3895 30.8491C13.6288 30.8491 13.8697 30.7612 14.0586 30.5838L16.0381 28.7214V52.987C16.0381 53.5259 16.476 53.9638 17.0148 53.9638H22.5432V61.7273C22.5432 62.2661 22.9811 62.704 23.52 62.704H46.4799C47.0188 62.704 47.4567 62.2661 47.4567 61.7273V53.9638H52.9786C53.5174 53.9638 53.9553 53.5259 53.9553 52.987V28.7166L55.9414 30.5854C56.3337 30.9549 56.9523 30.9354 57.3218 30.5431C57.6913 30.1491 57.6734 29.5321 57.2795 29.1626ZM43.6393 12.6133H48.0297V20.4582L43.6393 16.3282V12.6133ZM24.4967 60.7521V52.9919C24.4967 52.9903 24.4967 52.9903 24.4967 52.9887C24.4967 52.987 24.4967 52.987 24.4967 52.9854V30.2907H38.7507V36.0666C38.7507 36.6054 39.1886 37.0433 39.7274 37.0433H45.5032V52.9854C45.5032 52.987 45.5032 52.987 45.5032 52.9887C45.5032 52.9903 45.5032 52.9903 45.5032 52.9919V60.7521H24.4967ZM52.0018 52.0119H47.4567V36.0666C47.4567 36.0552 47.4551 36.0454 47.4551 36.034C47.4551 36.0226 47.4534 36.0128 47.4534 36.0014C47.4502 35.9607 47.4469 35.9184 47.4388 35.8777V35.8761C47.4307 35.8354 47.4193 35.7947 47.4046 35.7556C47.4014 35.7459 47.3981 35.7345 47.3932 35.7247C47.3786 35.6873 47.3639 35.6514 47.346 35.6156C47.3444 35.614 47.3444 35.6107 47.3427 35.6091C47.3232 35.5717 47.3004 35.5359 47.276 35.5017C47.2695 35.4935 47.263 35.4838 47.2565 35.4756C47.2304 35.4414 47.2027 35.4073 47.1718 35.378L40.4193 28.6254C40.3883 28.5945 40.3558 28.5668 40.32 28.5407C40.3118 28.5342 40.302 28.5277 40.2939 28.5212C40.2597 28.4968 40.2239 28.474 40.1865 28.4545C40.1832 28.4528 40.1816 28.4528 40.1783 28.4512C40.1441 28.4333 40.1067 28.417 40.0709 28.404C40.0595 28.4007 40.0497 28.3959 40.0383 28.3926C39.9993 28.3796 39.9602 28.3682 39.9195 28.36C39.9162 28.36 39.913 28.36 39.9113 28.3584C39.8739 28.3519 39.8348 28.347 39.7958 28.3438C39.7827 28.3421 39.7713 28.3421 39.7583 28.3421C39.7486 28.3421 39.7388 28.3405 39.7274 28.3405H23.52C22.9811 28.3405 22.5432 28.7784 22.5432 29.3173V52.0152H17.9916V26.8852L35.0032 10.8861L52.0018 26.877V52.0119ZM42.5697 55.3068C42.5697 55.8456 42.1318 56.2835 41.593 56.2835H37.4418C36.903 56.2835 36.4651 55.8456 36.4651 55.3068C36.4651 54.768 36.903 54.33 37.4418 54.33H41.593C42.1334 54.33 42.5697 54.7663 42.5697 55.3068ZM27.4302 41.5868C27.4302 41.048 27.8681 40.61 28.4069 40.61H34.7867C35.3255 40.61 35.7634 41.048 35.7634 41.5868C35.7634 42.1256 35.3255 42.5635 34.7867 42.5635H28.4069C27.8665 42.5635 27.4302 42.1256 27.4302 41.5868ZM42.5697 41.5868C42.5697 42.1256 42.1318 42.5635 41.593 42.5635H38.4186C37.8797 42.5635 37.4418 42.1256 37.4418 41.5868C37.4418 41.048 37.8797 40.61 38.4186 40.61H41.593C42.1334 40.61 42.5697 41.0463 42.5697 41.5868ZM42.5697 50.5842C42.5697 51.1231 42.1318 51.561 41.593 51.561H28.4069C27.8681 51.561 27.4302 51.1231 27.4302 50.5842C27.4302 50.0454 27.8681 49.6075 28.4069 49.6075H41.593C42.1334 49.6075 42.5697 50.0454 42.5697 50.5842ZM42.5697 46.0863C42.5697 46.6252 42.1318 47.0631 41.593 47.0631H28.4069C27.8681 47.0631 27.4302 46.6252 27.4302 46.0863C27.4302 45.5475 27.8681 45.1096 28.4069 45.1096H41.593C42.1334 45.1096 42.5697 45.5459 42.5697 46.0863Z" fill="url(#paint0_linear_598_1812)"/>
<defs>
<linearGradient id="paint0_linear_598_1812" x1="20.7305" y1="21.1504" x2="54.585" y2="55.0049" gradientUnits="userSpaceOnUse">
<stop stop-color="#A259FF"/>
<stop offset="1" stop-color="#FF6250"/>
</linearGradient>
</defs>
</svg>
