<svg width="19" height="18" viewBox="0 0 19 18" fill="none" xmlns="http://www.w3.org/2000/svg">
<path d="M16.7511 8.28768L9.85862 15.1802C9.01423 16.0246 7.869 16.4989 6.67487 16.4989C5.48073 16.4989 4.3355 16.0246 3.49112 15.1802C2.64673 14.3358 2.17236 13.1906 2.17236 11.9964C2.17236 10.8023 2.64673 9.65707 3.49112 8.81268L10.3836 1.92018C10.9465 1.35726 11.71 1.04102 12.5061 1.04102C13.3022 1.04102 14.0657 1.35726 14.6286 1.92018C15.1915 2.48311 15.5078 3.24659 15.5078 4.04268C15.5078 4.83878 15.1915 5.60226 14.6286 6.16518L7.72862 13.0577C7.44715 13.3391 7.06541 13.4973 6.66737 13.4973C6.26932 13.4973 5.88758 13.3391 5.60612 13.0577C5.32465 12.7762 5.16653 12.3945 5.16653 11.9964C5.16653 11.5984 5.32465 11.2166 5.60612 10.9352L11.9736 4.57518" stroke="white" stroke-width="1.5" stroke-linecap="round" stroke-linejoin="round"/>
</svg>
