<svg width="100" height="100" viewBox="0 0 100 100" fill="none" xmlns="http://www.w3.org/2000/svg">
<g clip-path="url(#clip0_496_8186)">
<g filter="url(#filter0_b_496_8186)">
<rect width="100" height="100" rx="20" fill="url(#paint0_linear_496_8186)" fill-opacity="0.6"/>
<rect x="1" y="1" width="98" height="98" rx="19" stroke="url(#paint1_radial_496_8186)" stroke-width="2"/>
<rect x="1" y="1" width="98" height="98" rx="19" stroke="url(#paint2_radial_496_8186)" stroke-width="2"/>
</g>
<path d="M64.5439 56.4993C62.0062 54.3895 58.8098 53.2293 55.4993 53.2293H54.6281V51.6013C57.617 49.583 59.586 46.1663 59.586 42.3006V37.7254C60.9897 36.3218 60.9033 33.4195 60.7874 29.5418C60.7736 29.0843 60.7598 28.6147 60.7477 28.1347C60.6388 23.7339 56.5054 21.8797 56.3291 21.8037C56.2755 21.7795 56.2202 21.7605 56.1632 21.7467C55.9332 21.6897 50.4982 20.3776 46.6173 21.9815C46.5862 21.9953 46.5533 22.0091 46.5239 22.0264C45.5109 22.5685 44.574 22.6687 44.2178 22.6859C43.9551 22.698 43.6958 22.6082 43.4883 22.4304C43.3518 22.313 43.1754 22.1524 42.9905 21.9798C42.4736 21.5033 41.8322 20.9094 41.1546 20.476C40.2211 19.8787 38.7984 19.8389 37.8459 20.3828C35.1629 21.9176 34.1067 25.3775 34.71 30.6658C35.1335 34.3795 36.233 37.6426 36.2797 37.7807C36.3799 38.0759 36.6029 38.2952 36.8743 38.4057V42.3006C36.8743 46.0678 38.7431 49.4069 41.6041 51.4441V53.2311H41.1477C33.3461 53.2311 27 59.569 27 67.3607V72.6023C27 74.5792 28.6094 76.1865 30.5888 76.1865H33.7851C37.1941 76.4559 38.724 77.2311 40.0759 77.9165C41.1598 78.4655 42.1832 78.9835 43.7839 78.9835H52.4551C52.4845 78.9835 52.5122 78.9835 52.5381 78.9817C53.9262 78.9766 54.8787 78.5795 55.8192 78.1168C57.9558 79.914 60.7114 81 63.7193 81C70.4906 81 76 75.4977 76 68.735C75.9948 62.2485 70.9297 56.9275 64.5439 56.4993ZM38.8744 22.1801C39.0024 22.1058 39.196 22.0713 39.3965 22.0713C39.6351 22.0713 39.8805 22.1214 40.0344 22.2198C40.5565 22.5547 41.1235 23.0778 41.5799 23.4991C41.7821 23.6856 41.9723 23.8617 42.1417 24.0067C42.7536 24.5281 43.5281 24.794 44.3181 24.7543C44.9266 24.7249 46.1367 24.5713 47.454 23.8772C50.455 22.6652 54.8805 23.5803 55.5737 23.7356C56.0664 23.9774 58.6041 25.3551 58.675 28.1848C58.6871 28.6665 58.7009 29.1396 58.7147 29.6023C58.7458 30.652 58.7787 31.7535 58.7649 32.7566C57.9074 30.5605 56.1787 28.0156 52.7023 26.2045C52.4257 26.0612 52.0973 26.0509 51.8103 26.1752C51.5233 26.2995 51.3072 26.5481 51.2225 26.8485C51.2174 26.8658 50.7022 28.632 48.7246 30.6779C46.9751 32.489 43.7079 34.8767 37.9617 36.2303C36.7965 32.3301 35.2597 24.2484 38.8744 22.1801ZM38.9453 42.2989V38.1208C48.2077 35.7987 51.615 30.9092 52.7352 28.6164C56.929 31.3063 57.4597 35.3014 57.5133 36.6843C57.5133 36.6947 57.5115 36.7033 57.5115 36.7137V42.3006C57.5115 47.3437 53.4024 51.4476 48.3529 51.4476H48.104C43.0544 51.4459 38.9453 47.3437 38.9453 42.2989ZM43.6768 52.6095C45.0355 53.1948 46.5326 53.5177 48.104 53.5177H48.3529C49.8379 53.5177 51.2554 53.2293 52.5519 52.7045V54.248C52.5519 54.2497 52.5519 54.2514 52.5519 54.2532V54.2549C52.5139 56.5442 50.6175 58.4071 48.3218 58.4071H47.9069C45.6112 58.4071 43.7165 56.5459 43.6768 54.2566C43.6768 54.2549 43.6768 54.2532 43.6768 54.2514C43.6768 54.2497 43.6768 54.248 43.6768 54.2462V52.6095ZM52.5035 76.9082C52.4845 76.9082 52.4655 76.9082 52.4482 76.9099H43.7788C42.6741 76.9099 42.012 76.575 41.0094 76.0657C39.6333 75.3682 37.7491 74.4134 33.901 74.1147C33.875 74.113 33.8474 74.1113 33.8214 74.1113H30.5853C29.7504 74.1113 29.071 73.4328 29.071 72.5989V67.3572C29.071 60.7085 34.487 55.2994 41.1442 55.2994H41.7026C42.235 58.2344 44.8315 60.4789 47.9069 60.4789H48.3218C51.3989 60.4789 53.9936 58.2344 54.5261 55.2994H55.4993C57.5029 55.2994 59.4563 55.7966 61.1971 56.7272C55.629 57.8909 51.4334 62.8304 51.4334 68.7315C51.4334 71.6994 52.4949 74.4255 54.2599 76.5491C53.7188 76.7753 53.1984 76.9082 52.5035 76.9082ZM63.7141 78.9265C58.0872 78.9265 53.5079 74.353 53.5079 68.7333C53.5079 63.1135 58.0872 58.54 63.7141 58.54C69.341 58.54 73.9204 63.1135 73.9204 68.7333C73.9204 74.353 69.3428 78.9265 63.7141 78.9265ZM69.8199 64.9315C70.2244 65.3355 70.2244 65.9916 69.8199 66.3973L61.5636 74.6431C61.3614 74.8451 61.0951 74.9469 60.8307 74.9469C60.5644 74.9469 60.2999 74.8451 60.0977 74.6431L56.6541 71.2039C56.2496 70.7999 56.2496 70.1438 56.6541 69.7381C57.0586 69.3341 57.7155 69.3341 58.1201 69.7381L60.8307 72.4452L68.354 64.9315C68.7585 64.5275 69.4154 64.5275 69.8199 64.9315Z" fill="url(#paint3_linear_496_8186)"/>
</g>
<defs>
<filter id="filter0_b_496_8186" x="-30" y="-30" width="160" height="160" filterUnits="userSpaceOnUse" color-interpolation-filters="sRGB">
<feFlood flood-opacity="0" result="BackgroundImageFix"/>
<feGaussianBlur in="BackgroundImageFix" stdDeviation="15"/>
<feComposite in2="SourceAlpha" operator="in" result="effect1_backgroundBlur_496_8186"/>
<feBlend mode="normal" in="SourceGraphic" in2="effect1_backgroundBlur_496_8186" result="shape"/>
</filter>
<linearGradient id="paint0_linear_496_8186" x1="50" y1="0" x2="50" y2="100" gradientUnits="userSpaceOnUse">
<stop stop-color="white" stop-opacity="0"/>
<stop offset="1" stop-color="white"/>
</linearGradient>
<radialGradient id="paint1_radial_496_8186" cx="0" cy="0" r="1" gradientUnits="userSpaceOnUse" gradientTransform="translate(82.6923 80.4762) rotate(77.5615) scale(108.255 45.9545)">
<stop stop-color="white" stop-opacity="0.57"/>
<stop offset="1" stop-color="white" stop-opacity="0"/>
</radialGradient>
<radialGradient id="paint2_radial_496_8186" cx="0" cy="0" r="1" gradientUnits="userSpaceOnUse" gradientTransform="translate(10.4567 21.9048) rotate(-95.3611) scale(111.918 31.8727)">
<stop stop-color="white" stop-opacity="0.28"/>
<stop offset="1" stop-color="white" stop-opacity="0"/>
</radialGradient>
<linearGradient id="paint3_linear_496_8186" x1="25.9896" y1="31.9441" x2="71.8906" y2="77.9038" gradientUnits="userSpaceOnUse">
<stop stop-color="#A259FF"/>
<stop offset="1" stop-color="#FF6250"/>
</linearGradient>
<clipPath id="clip0_496_8186">
<rect width="100" height="100" fill="white"/>
</clipPath>
</defs>
</svg>
