<svg width="100" height="101" viewBox="0 0 100 101" fill="none" xmlns="http://www.w3.org/2000/svg">
<path d="M68.1018 45.7523H31.8888C31.1125 45.7523 30.4815 46.384 30.4815 47.1614V55.29V79.6734C30.4815 80.4508 31.1125 81.0826 31.8888 81.0826H68.1018C68.8782 81.0826 69.5091 80.4508 69.5091 79.6734V55.29V47.1614C69.5091 46.384 68.8782 45.7523 68.1018 45.7523ZM43.0607 56.6992H66.6944V62.0094H43.0607V56.6992ZM40.246 62.0071H33.2962V56.6968H40.246V62.0071ZM33.2962 64.8254H40.246V70.1356H33.2962V64.8254ZM43.0607 64.8254H66.6944V70.1356H43.0607V64.8254ZM66.6944 53.8808H43.0607V48.5706H66.6944V53.8808ZM33.2962 48.5706H40.246V53.8808H33.2962V48.5706ZM33.2962 72.954H40.246V78.2642H33.2962V72.954ZM43.0607 78.2642V72.954H66.6944V78.2642H43.0607ZM77.9953 28.5228C77.9953 28.5064 77.993 28.4923 77.993 28.4758C77.9883 28.4148 77.9812 28.356 77.9719 28.2973C77.9719 28.2973 77.9719 28.2973 77.9719 28.295C77.9601 28.2363 77.9437 28.1775 77.9226 28.1188C77.9179 28.1047 77.9132 28.0906 77.9062 28.0766C77.8851 28.0225 77.8616 27.9685 77.8358 27.9169C77.8335 27.9145 77.8335 27.9122 77.8335 27.9098C77.8053 27.8558 77.7725 27.8041 77.735 27.7548C77.7256 27.7431 77.7162 27.729 77.7068 27.7172C77.6693 27.6679 77.6294 27.6186 77.5848 27.574L61.9424 11.911C61.8978 11.8664 61.8509 11.8265 61.8016 11.7889C61.7876 11.7795 61.7758 11.7701 61.7618 11.7607C61.7125 11.7255 61.6632 11.6926 61.6093 11.6644C61.6046 11.6621 61.5999 11.6597 61.5929 11.6574C61.5436 11.6315 61.4944 11.6104 61.4428 11.5916C61.4263 11.5846 61.4099 11.5799 61.3935 11.5752C61.3396 11.5564 61.2833 11.5399 61.227 11.5282C61.2223 11.5282 61.2152 11.5258 61.2106 11.5258C61.1566 11.5164 61.1003 11.5094 61.044 11.5047C61.0253 11.5047 61.0088 11.5023 60.9901 11.5023C60.976 11.5023 60.9596 11.5 60.9455 11.5H23.4073C22.631 11.5 22 12.1318 22 12.9092V88.0908C22 88.8682 22.631 89.5 23.4073 89.5H76.5927C77.369 89.5 78 88.8682 78 88.0908V28.5698C77.9977 28.5533 77.9977 28.5392 77.9953 28.5228ZM24.8147 86.6817V14.316H59.5429V28.5698C59.5429 29.3472 60.1738 29.9789 60.9502 29.9789H75.1853V86.6817H24.8147ZM30.4815 40.1649C30.4815 39.3875 31.1125 38.7557 31.8888 38.7557H42.615C43.3914 38.7557 44.0224 39.3875 44.0224 40.1649C44.0224 40.9423 43.3914 41.5741 42.615 41.5741H31.8888C31.1125 41.5741 30.4815 40.9446 30.4815 40.1649ZM69.5091 40.1649C69.5091 40.9423 68.8782 41.5741 68.1018 41.5741H49.9965C49.2201 41.5741 48.5892 40.9423 48.5892 40.1649C48.5892 39.3875 49.2201 38.7557 49.9965 38.7557H68.1018C68.8782 38.7557 69.5091 39.3875 69.5091 40.1649ZM32.9138 30.3806C32.4307 29.7699 32.5339 28.8845 33.1414 28.4007C33.7512 27.9169 34.6355 28.0202 35.1187 28.6285C35.7637 29.4435 36.8286 29.8897 37.8301 29.7629C38.2171 29.7135 38.5549 29.5844 38.7777 29.3988C38.9536 29.2532 39.0756 29.0442 39.0779 28.8774C39.0897 28.3584 38.8223 28.1306 37.0186 27.6327C35.44 27.1958 32.8013 26.4654 33.1109 23.5414C33.261 22.1205 34.3329 20.8499 35.7778 20.3801C35.7989 20.3731 35.8223 20.3684 35.8434 20.3613V19.2246C35.8434 18.4472 36.4744 17.8154 37.2508 17.8154C38.0271 17.8154 38.6581 18.4472 38.6581 19.2246V20.3919C39.8637 20.77 40.9544 21.5944 41.6276 22.7452C42.0193 23.4169 41.7941 24.2812 41.1233 24.6734C40.4524 25.068 39.5893 24.8402 39.1976 24.1685C38.6745 23.2713 37.5275 22.7734 36.648 23.0599C36.268 23.1844 35.9443 23.5249 35.9115 23.8373C35.8739 24.2013 35.8528 24.3822 37.7715 24.913C39.3406 25.3475 41.9653 26.0732 41.895 28.9432C41.8715 29.9367 41.3883 30.8926 40.5744 31.5666C40.049 32.0034 39.3923 32.3088 38.6604 32.4685V33.5301C38.6604 34.3074 38.0295 34.9392 37.2531 34.9392C36.4767 34.9392 35.8458 34.3074 35.8458 33.5301V32.3557C34.7082 32.0246 33.6738 31.3411 32.9138 30.3806Z" fill="url(#paint0_linear_716_17617)"/>
<defs>
<linearGradient id="paint0_linear_716_17617" x1="13.0256" y1="21.3086" x2="79.2371" y2="87.4335" gradientUnits="userSpaceOnUse">
<stop stop-color="#A259FF"/>
<stop offset="1" stop-color="#FF6250"/>
</linearGradient>
</defs>
</svg>
