<svg width="100" height="100" viewBox="0 0 100 100" fill="none" xmlns="http://www.w3.org/2000/svg">
<g clip-path="url(#clip0_802_1448)">
<g filter="url(#filter0_b_802_1448)">
<rect width="100" height="100" rx="20" fill="url(#paint0_linear_802_1448)" fill-opacity="0.6"/>
<rect x="1" y="1" width="98" height="98" rx="19" stroke="url(#paint1_radial_802_1448)" stroke-width="2"/>
<rect x="1" y="1" width="98" height="98" rx="19" stroke="url(#paint2_radial_802_1448)" stroke-width="2"/>
</g>
<path d="M63.5763 46.4696H36.4166C35.8343 46.4696 35.3611 46.9394 35.3611 47.5175V53.5618V71.693C35.3611 72.2711 35.8343 72.7409 36.4166 72.7409H63.5763C64.1586 72.7409 64.6318 72.2711 64.6318 71.693V53.5618V47.5175C64.6318 46.9394 64.1586 46.4696 63.5763 46.4696ZM44.7955 54.6096H62.5208V58.5583H44.7955V54.6096ZM42.6845 58.5565H37.4721V54.6079H42.6845V58.5565ZM37.4721 60.6522H42.6845V64.6009H37.4721V60.6522ZM44.7955 60.6522H62.5208V64.6009H44.7955V60.6522ZM62.5208 52.514H44.7955V48.5653H62.5208V52.514ZM37.4721 48.5653H42.6845V52.514H37.4721V48.5653ZM37.4721 66.6965H42.6845V70.6452H37.4721V66.6965ZM44.7955 70.6452V66.6965H62.5208V70.6452H44.7955ZM70.9965 33.658C70.9965 33.6458 70.9947 33.6353 70.9947 33.623C70.9912 33.5776 70.9859 33.534 70.9789 33.4903C70.9789 33.4903 70.9789 33.4903 70.9789 33.4886C70.9701 33.4449 70.9578 33.4013 70.9419 33.3576C70.9384 33.3471 70.9349 33.3366 70.9296 33.3262C70.9138 33.286 70.8962 33.2458 70.8769 33.2074C70.8751 33.2057 70.8751 33.2039 70.8751 33.2022C70.854 33.162 70.8294 33.1236 70.8012 33.0869C70.7942 33.0782 70.7871 33.0677 70.7801 33.059C70.752 33.0223 70.722 32.9856 70.6886 32.9524L58.9568 21.3056C58.9234 21.2724 58.8882 21.2428 58.8512 21.2148C58.8407 21.2078 58.8319 21.2008 58.8213 21.1939C58.7844 21.1677 58.7474 21.1432 58.707 21.1222C58.7035 21.1205 58.6999 21.1188 58.6947 21.117C58.6577 21.0978 58.6208 21.0821 58.5821 21.0681C58.5698 21.0629 58.5574 21.0594 58.5451 21.0559C58.5047 21.0419 58.4624 21.0297 58.4202 21.021C58.4167 21.021 58.4114 21.0192 58.4079 21.0192C58.3675 21.0122 58.3252 21.007 58.283 21.0035C58.2689 21.0035 58.2566 21.0017 58.2425 21.0017C58.232 21.0017 58.2197 21 58.2091 21H30.0555C29.4732 21 29 21.4698 29 22.0478V77.9522C29 78.5302 29.4732 79 30.0555 79H69.9445C70.5268 79 71 78.5302 71 77.9522V33.6929C70.9982 33.6807 70.9982 33.6702 70.9965 33.658ZM31.111 76.9043V23.0939H57.1572V33.6929C57.1572 34.271 57.6304 34.7407 58.2126 34.7407H68.889V76.9043H31.111ZM35.3611 42.3149C35.3611 41.7369 35.8343 41.2671 36.4166 41.2671H44.4613C45.0436 41.2671 45.5168 41.7369 45.5168 42.3149C45.5168 42.893 45.0436 43.3628 44.4613 43.3628H36.4166C35.8343 43.3628 35.3611 42.8947 35.3611 42.3149ZM64.6318 42.3149C64.6318 42.893 64.1586 43.3628 63.5763 43.3628H49.9974C49.4151 43.3628 48.9419 42.893 48.9419 42.3149C48.9419 41.7369 49.4151 41.2671 49.9974 41.2671H63.5763C64.1586 41.2671 64.6318 41.7369 64.6318 42.3149ZM37.1854 35.0394C36.823 34.5853 36.9004 33.9269 37.356 33.5672C37.8134 33.2074 38.4766 33.2842 38.839 33.7366C39.3228 34.3426 40.1214 34.6744 40.8726 34.5801C41.1628 34.5434 41.4162 34.4474 41.5833 34.3094C41.7152 34.2011 41.8067 34.0457 41.8085 33.9217C41.8173 33.5357 41.6167 33.3663 40.2639 32.9961C39.08 32.6713 37.1009 32.1281 37.3332 29.9538C37.4457 28.8973 38.2497 27.9525 39.3333 27.6032C39.3492 27.5979 39.3667 27.5944 39.3826 27.5892V26.7439C39.3826 26.1659 39.8558 25.6961 40.4381 25.6961C41.0204 25.6961 41.4936 26.1659 41.4936 26.7439V27.6119C42.3978 27.8931 43.2158 28.5061 43.7207 29.3618C44.0145 29.8613 43.8456 30.504 43.3425 30.7956C42.8393 31.089 42.192 30.9196 41.8982 30.4201C41.5059 29.753 40.6457 29.3828 39.986 29.5958C39.701 29.6884 39.4582 29.9416 39.4336 30.1739C39.4054 30.4446 39.3896 30.5791 40.8286 30.9737C42.0055 31.2968 43.974 31.8365 43.9212 33.9706C43.9036 34.7093 43.5412 35.4201 42.9308 35.9213C42.5368 36.2462 42.0442 36.4732 41.4953 36.5919V37.3813C41.4953 37.9594 41.0221 38.4292 40.4398 38.4292C39.8576 38.4292 39.3843 37.9594 39.3843 37.3813V36.5081C38.5311 36.2619 37.7554 35.7537 37.1854 35.0394Z" fill="url(#paint3_linear_802_1448)"/>
</g>
<defs>
<filter id="filter0_b_802_1448" x="-30" y="-30" width="160" height="160" filterUnits="userSpaceOnUse" color-interpolation-filters="sRGB">
<feFlood flood-opacity="0" result="BackgroundImageFix"/>
<feGaussianBlur in="BackgroundImageFix" stdDeviation="15"/>
<feComposite in2="SourceAlpha" operator="in" result="effect1_backgroundBlur_802_1448"/>
<feBlend mode="normal" in="SourceGraphic" in2="effect1_backgroundBlur_802_1448" result="shape"/>
</filter>
<linearGradient id="paint0_linear_802_1448" x1="50" y1="0" x2="50" y2="100" gradientUnits="userSpaceOnUse">
<stop stop-color="white" stop-opacity="0"/>
<stop offset="1" stop-color="white"/>
</linearGradient>
<radialGradient id="paint1_radial_802_1448" cx="0" cy="0" r="1" gradientUnits="userSpaceOnUse" gradientTransform="translate(82.6923 80.4762) rotate(77.5615) scale(108.255 45.9545)">
<stop stop-color="white" stop-opacity="0.57"/>
<stop offset="1" stop-color="white" stop-opacity="0"/>
</radialGradient>
<radialGradient id="paint2_radial_802_1448" cx="0" cy="0" r="1" gradientUnits="userSpaceOnUse" gradientTransform="translate(10.4567 21.9048) rotate(-95.3611) scale(111.918 31.8727)">
<stop stop-color="white" stop-opacity="0.28"/>
<stop offset="1" stop-color="white" stop-opacity="0"/>
</radialGradient>
<linearGradient id="paint3_linear_802_1448" x1="22.2692" y1="28.2936" x2="71.5021" y2="77.886" gradientUnits="userSpaceOnUse">
<stop stop-color="#A259FF"/>
<stop offset="1" stop-color="#FF6250"/>
</linearGradient>
<clipPath id="clip0_802_1448">
<rect width="100" height="100" fill="white"/>
</clipPath>
</defs>
</svg>
