<svg width="100" height="100" viewBox="0 0 100 100" fill="none" xmlns="http://www.w3.org/2000/svg">
<path d="M72.824 73.1555C72.3236 67.1064 70.1297 61.3322 66.6272 56.9133C64.0677 53.6727 60.9309 51.2962 57.5246 49.9607C60.9309 48.6252 64.0677 46.2488 66.608 43.0082C70.1105 38.5696 72.3236 32.7954 72.8047 26.766C72.8239 26.4124 72.7085 26.0786 72.4968 25.8232C72.2851 25.5679 71.9387 25.4304 71.6115 25.4304H28.3692C28.0228 25.4304 27.7149 25.5679 27.484 25.8232C27.253 26.0786 27.1376 26.4124 27.1761 26.766C27.6764 32.8151 29.8703 38.5696 33.3728 43.0082C35.9323 46.2488 39.0691 48.6252 42.4562 49.9607C39.0499 51.2962 35.913 53.6727 33.3728 56.9133C29.8703 61.3519 27.6764 67.126 27.1761 73.1555C27.1376 73.509 27.2723 73.8429 27.484 74.0982C27.6957 74.3535 28.0421 74.491 28.3692 74.491H71.6115C71.9579 74.491 72.2659 74.3535 72.4968 74.0982C72.747 73.8429 72.8432 73.4894 72.824 73.1555ZM29.7163 72.0164C31.1019 61.234 38.3378 52.4354 46.9594 51.3159C47.6329 51.2373 48.1333 50.6481 48.1333 49.9411C48.1333 49.2537 47.6329 48.6645 46.9594 48.5663C38.3378 47.4468 31.1019 38.6678 29.7163 27.8658H70.2644C68.8788 38.6481 61.6429 47.4468 53.0214 48.5663C52.3478 48.6448 51.8475 49.234 51.8282 49.9411C51.8282 50.6285 52.3286 51.2177 53.0021 51.3159C61.6237 52.4354 68.8596 61.2144 70.2452 72.0164H29.7163ZM75.7876 76.455H24.2509C23.5773 76.455 23.0385 77.0049 23.0385 77.6923V84.7627C23.0385 85.4501 23.5773 86 24.2509 86H75.7876C76.4612 86 77 85.4501 77 84.7627V77.6923C77 77.0049 76.4612 76.455 75.7876 76.455ZM74.5752 83.5254H25.4633V78.9296H74.5752V83.5254ZM75.7491 14H24.2124C23.5388 14 23 14.5499 23 15.2373V22.3077C23 22.9951 23.5388 23.545 24.2124 23.545H75.7491C76.4227 23.545 76.9615 22.9951 76.9615 22.3077V15.2373C76.9615 14.5499 76.4227 14 75.7491 14ZM74.5367 21.0704H25.4248V16.4746H74.5367V21.0704ZM66.0884 69.6792C65.8575 69.9542 65.5303 70.1113 65.1646 70.1113H34.2965C33.9309 70.1113 33.5652 69.9345 33.3535 69.6399C33.1226 69.3453 33.0456 68.9525 33.1226 68.5794C34.0463 64.6318 35.913 60.9591 38.3956 58.2095C41.1091 55.2242 44.4383 53.437 48.0178 53.0049C48.0178 53.0049 48.0371 53.0049 48.0563 53.0049C48.268 52.9853 49.3072 52.8871 49.7498 52.8871C50.1732 52.8871 51.2316 52.9853 51.4241 53.0049H51.4433C58.66 53.8691 65.2224 60.743 66.3578 68.6776C66.4155 69.0311 66.3193 69.4043 66.0884 69.6792Z" fill="url(#paint0_linear_716_17684)"/>
<defs>
<linearGradient id="paint0_linear_716_17684" x1="19.2175" y1="18.5857" x2="82.0346" y2="80.138" gradientUnits="userSpaceOnUse">
<stop stop-color="#A259FF"/>
<stop offset="1" stop-color="#FF6250"/>
</linearGradient>
</defs>
</svg>
