<svg width="100" height="100" viewBox="0 0 100 100" fill="none" xmlns="http://www.w3.org/2000/svg">
<path d="M85.1162 54.8839C85.0696 47.349 82.6045 39.8141 77.7441 33.5583C77.7906 33.5118 77.8603 33.4653 77.9069 33.4187L79.9069 31.4187C80.1627 31.1629 80.3255 30.8141 80.3255 30.442C80.3255 30.0699 80.1859 29.7211 79.9069 29.4653L75.558 25.1164C75.0231 24.5815 74.1394 24.5815 73.5813 25.1164L71.5813 27.1164C71.5348 27.1629 71.465 27.2327 71.4185 27.3025C67.0231 23.9071 62.0231 21.7211 56.8138 20.6978V17.5118H60.8371C61.6045 17.5118 62.2324 16.8839 62.2324 16.1164V11.1629C62.2324 10.3955 61.6045 9.76758 60.8371 9.76758H39.372C38.6045 9.76758 37.9766 10.3955 37.9766 11.1629V16.1164C37.9766 16.8839 38.6045 17.5118 39.372 17.5118H43.372V20.628C36.6976 21.9071 30.3255 25.1164 25.1627 30.2792C18.372 37.0699 14.9534 45.9769 14.8836 54.8839C14.8836 54.9536 14.8604 55.0234 14.8604 55.0932C14.8604 55.1629 14.8604 55.2327 14.8836 55.3025C14.9301 64.2327 18.3487 73.1164 25.1394 79.9071C31.9301 86.6978 40.8371 90.1164 49.7441 90.1629C49.8138 90.1629 49.8836 90.1862 49.9534 90.1862C50.0231 90.1862 50.0929 90.1862 50.1627 90.1629C59.0929 90.1164 67.9766 86.6978 74.7673 79.9071C81.558 73.1164 84.9766 64.2094 85.0231 55.3025C85.0231 55.2327 85.0464 55.1629 85.0464 55.0932C85.0464 55.0234 85.1162 54.9536 85.1162 54.8839ZM40.7673 14.7211V12.5583H59.4417V14.7211H40.7673ZM54.0231 17.5118V19.9769H46.1627V17.5118H54.0231ZM78.8371 56.5118H82.2789C81.9534 63.8839 79.1394 71.1629 73.8138 76.9769L71.3952 74.5118C70.8603 73.9769 69.9766 73.9769 69.4185 74.5118C68.8836 75.0466 68.8836 75.9304 69.4185 76.4885L71.8603 78.9304C66.0696 84.256 58.7673 87.0699 51.3952 87.3955V83.9536C51.3952 83.1862 50.7673 82.5583 49.9999 82.5583C49.2324 82.5583 48.6045 83.1862 48.6045 83.9536V87.3955C41.2324 87.0699 33.9534 84.256 28.1394 78.9304L30.5813 76.4885C31.1162 75.9536 31.1162 75.0699 30.5813 74.5118C30.0231 73.9536 29.1394 73.9536 28.6045 74.5118L26.1627 76.9536C20.8371 71.1629 18.0231 63.8839 17.6976 56.4885H21.1627C21.9301 56.4885 22.558 55.8606 22.558 55.0932C22.558 54.3257 21.9301 53.6978 21.1627 53.6978H17.7208C18.0464 46.3257 20.8604 39.0466 26.1859 33.2327L28.6278 35.6746C28.9069 35.9536 29.2557 36.0932 29.6045 36.0932C29.9534 36.0932 30.3255 35.9536 30.5813 35.6746C31.1162 35.1164 31.1162 34.2327 30.5813 33.6978L28.1394 31.2792C33.9301 25.9536 41.2324 23.1397 48.6045 22.8141V26.256C48.6045 27.0234 49.2324 27.6513 49.9999 27.6513C50.7673 27.6513 51.3952 27.0234 51.3952 26.256V22.8141C58.7673 23.1397 66.0464 25.9536 71.8603 31.2792L69.4185 33.7211C68.8836 34.256 68.8836 35.1397 69.4185 35.6978C69.6976 35.9769 70.0464 36.1164 70.3952 36.1164C70.7441 36.1164 71.1162 35.9769 71.372 35.6978L73.8138 33.256C79.1394 39.0466 81.9534 46.349 82.2789 53.7211H78.8371C78.0696 53.7211 77.4417 54.349 77.4417 55.1164C77.4417 55.8839 78.0696 56.5118 78.8371 56.5118ZM53.6976 58.7211C52.7441 59.7676 51.3952 60.349 49.9999 60.349C48.6045 60.349 47.2557 59.7443 46.3022 58.7211C45.3487 57.6978 44.9069 56.2792 45.0231 54.8839C45.0231 54.8606 45.0231 54.8373 45.0464 54.8141L48.6278 32.2792C48.7441 31.6048 49.3255 31.0932 49.9999 31.0932C50.6743 31.0932 51.2789 31.5815 51.372 32.2792L54.9534 54.8141C54.9534 54.8373 54.9534 54.8606 54.9766 54.8839C55.0929 56.2792 54.651 57.6978 53.6976 58.7211Z" fill="white"/>
</svg>
