<svg width="18" height="18" viewBox="0 0 18 18" fill="none" xmlns="http://www.w3.org/2000/svg">
<g clip-path="url(#clip0_496_16188)">
<path d="M8.56356 0.0104096C3.80978 0.236758 0.0583742 4.19574 0.0727953 8.9549C0.0771863 10.4044 0.427126 11.7726 1.04444 12.9815L0.0966441 17.5822C0.0453736 17.831 0.269827 18.0489 0.517054 17.9904L5.0252 16.9223C6.18341 17.4993 7.48433 17.8325 8.86115 17.8535C13.72 17.9277 17.7714 14.0697 17.9228 9.21267C18.0851 4.00628 13.7882 -0.23841 8.56356 0.0104096ZM13.9427 13.87C12.6225 15.1903 10.8671 15.9174 9.00002 15.9174C7.90677 15.9174 6.86009 15.6721 5.88896 15.1883L5.26115 14.8756L2.49719 15.5304L3.07899 12.7062L2.76968 12.1005C2.26555 11.1132 2.00993 10.0455 2.00993 8.92726C2.00993 7.06013 2.73701 5.30479 4.05726 3.9845C5.36571 2.67605 7.14972 1.93712 9.00015 1.93712C10.8672 1.93717 12.6225 2.66425 13.9428 3.98446C15.263 5.3047 15.9901 7.06004 15.9902 8.92713C15.9901 10.7776 15.2512 12.5616 13.9427 13.87Z" fill="white"/>
<path d="M13.3325 10.8633L11.6033 10.3668C11.376 10.3015 11.1312 10.366 10.9655 10.5348L10.5426 10.9656C10.3643 11.1473 10.0938 11.2057 9.85779 11.1102C9.03979 10.7791 7.31906 9.24921 6.87962 8.48394C6.75285 8.26319 6.77381 7.9872 6.92947 7.78578L7.29865 7.30816C7.4433 7.12103 7.47382 6.86971 7.37817 6.65339L6.65065 5.00796C6.47639 4.61385 5.97277 4.49913 5.64375 4.77739C5.16113 5.18558 4.58851 5.80586 4.5189 6.49304C4.39617 7.70459 4.91576 9.23186 6.88061 11.0657C9.15055 13.1843 10.9683 13.4642 12.1518 13.1775C12.8231 13.0149 13.3596 12.3631 13.6982 11.8294C13.929 11.4655 13.7467 10.9822 13.3325 10.8633Z" fill="white"/>
</g>
<defs>
<clipPath id="clip0_496_16188">
<rect width="18" height="18" fill="white"/>
</clipPath>
</defs>
</svg>
