<svg width="100" height="100" viewBox="0 0 100 100" fill="none" xmlns="http://www.w3.org/2000/svg">
<g clip-path="url(#clip0_802_973)">
<g filter="url(#filter0_b_802_973)">
<rect width="100" height="100" rx="20" fill="url(#paint0_linear_802_973)" fill-opacity="0.6"/>
<rect x="1" y="1" width="98" height="98" rx="19" stroke="url(#paint1_radial_802_973)" stroke-width="2"/>
<rect x="1" y="1" width="98" height="98" rx="19" stroke="url(#paint2_radial_802_973)" stroke-width="2"/>
</g>
<path d="M51.9227 60.2505L58.8745 53.305C59.2775 52.9191 59.2775 52.2648 58.8745 51.879C58.4883 51.4931 57.8334 51.4931 57.4472 51.879L50.4954 58.8244L43.5435 51.879C43.1573 51.4931 42.5024 51.4931 42.1162 51.879C41.73 52.2648 41.73 52.9023 42.1162 53.305L49.0681 60.2505L42.1162 67.1959C41.73 67.5818 41.73 68.2193 42.1162 68.6219C42.3177 68.8232 42.5696 68.9239 42.8215 68.9239C43.0734 68.9239 43.342 68.8232 43.5267 68.6219L50.4786 61.6765L57.4304 68.6219C57.6319 68.8232 57.8838 68.9239 58.1357 68.9239C58.3875 68.9239 58.6562 68.8232 58.8409 68.6219C59.2271 68.2361 59.2271 67.5818 58.8409 67.1959L51.9227 60.2505ZM51.9227 60.2505L58.8745 53.305C59.2775 52.9191 59.2775 52.2648 58.8745 51.879C58.4883 51.4931 57.8334 51.4931 57.4472 51.879L50.4954 58.8244L43.5435 51.879C43.1573 51.4931 42.5024 51.4931 42.1162 51.879C41.73 52.2648 41.73 52.9023 42.1162 53.305L49.0681 60.2505L42.1162 67.1959C41.73 67.5818 41.73 68.2193 42.1162 68.6219C42.3177 68.8232 42.5696 68.9239 42.8215 68.9239C43.0734 68.9239 43.342 68.8232 43.5267 68.6219L50.4786 61.6765L57.4304 68.6219C57.6319 68.8232 57.8838 68.9239 58.1357 68.9239C58.3875 68.9239 58.6562 68.8232 58.8409 68.6219C59.2271 68.2361 59.2271 67.5818 58.8409 67.1959L51.9227 60.2505ZM51.9227 60.2505L58.8745 53.305C59.2775 52.9191 59.2775 52.2648 58.8745 51.879C58.4883 51.4931 57.8334 51.4931 57.4472 51.879L50.4954 58.8244L43.5435 51.879C43.1573 51.4931 42.5024 51.4931 42.1162 51.879C41.73 52.2648 41.73 52.9023 42.1162 53.305L49.0681 60.2505L42.1162 67.1959C41.73 67.5818 41.73 68.2193 42.1162 68.6219C42.3177 68.8232 42.5696 68.9239 42.8215 68.9239C43.0734 68.9239 43.342 68.8232 43.5267 68.6219L50.4786 61.6765L57.4304 68.6219C57.6319 68.8232 57.8838 68.9239 58.1357 68.9239C58.3875 68.9239 58.6562 68.8232 58.8409 68.6219C59.2271 68.2361 59.2271 67.5818 58.8409 67.1959L51.9227 60.2505ZM68.6977 32.2505L58.7402 22.302C58.5555 22.1174 58.2868 22 58.0349 22H32.0075C31.4534 22 31 22.453 31 23.0066V76.9934C31 77.547 31.4534 78 32.0075 78H67.9925C68.5466 78 69 77.547 69 76.9934V32.9718C69 32.7034 68.8825 32.4518 68.6977 32.2505ZM66.985 33.6093V75.97H32.9982V24.0132H57.0778V32.6028C57.0778 33.1564 57.5312 33.6093 58.0853 33.6093H66.985Z" fill="url(#paint3_linear_802_973)"/>
</g>
<defs>
<filter id="filter0_b_802_973" x="-30" y="-30" width="160" height="160" filterUnits="userSpaceOnUse" color-interpolation-filters="sRGB">
<feFlood flood-opacity="0" result="BackgroundImageFix"/>
<feGaussianBlur in="BackgroundImageFix" stdDeviation="15"/>
<feComposite in2="SourceAlpha" operator="in" result="effect1_backgroundBlur_802_973"/>
<feBlend mode="normal" in="SourceGraphic" in2="effect1_backgroundBlur_802_973" result="shape"/>
</filter>
<linearGradient id="paint0_linear_802_973" x1="50" y1="0" x2="50" y2="100" gradientUnits="userSpaceOnUse">
<stop stop-color="white" stop-opacity="0"/>
<stop offset="1" stop-color="white"/>
</linearGradient>
<radialGradient id="paint1_radial_802_973" cx="0" cy="0" r="1" gradientUnits="userSpaceOnUse" gradientTransform="translate(82.6923 80.4762) rotate(77.5615) scale(108.255 45.9545)">
<stop stop-color="white" stop-opacity="0.57"/>
<stop offset="1" stop-color="white" stop-opacity="0"/>
</radialGradient>
<radialGradient id="paint2_radial_802_973" cx="0" cy="0" r="1" gradientUnits="userSpaceOnUse" gradientTransform="translate(10.4567 21.9048) rotate(-95.3611) scale(111.918 31.8727)">
<stop stop-color="white" stop-opacity="0.28"/>
<stop offset="1" stop-color="white" stop-opacity="0"/>
</radialGradient>
<linearGradient id="paint3_linear_802_973" x1="24.2829" y1="29.2933" x2="70.6754" y2="75.7282" gradientUnits="userSpaceOnUse">
<stop stop-color="#A259FF"/>
<stop offset="1" stop-color="#FF6250"/>
</linearGradient>
<clipPath id="clip0_802_973">
<rect width="100" height="100" fill="white"/>
</clipPath>
</defs>
</svg>
