<svg width="70" height="71" viewBox="0 0 70 71" fill="none" xmlns="http://www.w3.org/2000/svg">
<path d="M36.8721 45.4464L43.6116 38.7068C44.0023 38.3324 44.0023 37.6975 43.6116 37.3231C43.2372 36.9487 42.6023 36.9487 42.2279 37.3231L35.4884 44.0626L28.7488 37.3231C28.3744 36.9487 27.7395 36.9487 27.3651 37.3231C26.9907 37.6975 26.9907 38.3161 27.3651 38.7068L34.1047 45.4464L27.3651 52.1859C26.9907 52.5603 26.9907 53.1789 27.3651 53.5696C27.5605 53.765 27.8047 53.8626 28.0488 53.8626C28.293 53.8626 28.5535 53.765 28.7326 53.5696L35.4721 46.8301L42.2116 53.5696C42.407 53.765 42.6512 53.8626 42.8954 53.8626C43.1395 53.8626 43.4 53.765 43.5791 53.5696C43.9535 53.1952 43.9535 52.5603 43.5791 52.1859L36.8721 45.4464ZM36.8721 45.4464L43.6116 38.7068C44.0023 38.3324 44.0023 37.6975 43.6116 37.3231C43.2372 36.9487 42.6023 36.9487 42.2279 37.3231L35.4884 44.0626L28.7488 37.3231C28.3744 36.9487 27.7395 36.9487 27.3651 37.3231C26.9907 37.6975 26.9907 38.3161 27.3651 38.7068L34.1047 45.4464L27.3651 52.1859C26.9907 52.5603 26.9907 53.1789 27.3651 53.5696C27.5605 53.765 27.8047 53.8626 28.0488 53.8626C28.293 53.8626 28.5535 53.765 28.7326 53.5696L35.4721 46.8301L42.2116 53.5696C42.407 53.765 42.6512 53.8626 42.8954 53.8626C43.1395 53.8626 43.4 53.765 43.5791 53.5696C43.9535 53.1952 43.9535 52.5603 43.5791 52.1859L36.8721 45.4464ZM36.8721 45.4464L43.6116 38.7068C44.0023 38.3324 44.0023 37.6975 43.6116 37.3231C43.2372 36.9487 42.6023 36.9487 42.2279 37.3231L35.4884 44.0626L28.7488 37.3231C28.3744 36.9487 27.7395 36.9487 27.3651 37.3231C26.9907 37.6975 26.9907 38.3161 27.3651 38.7068L34.1047 45.4464L27.3651 52.1859C26.9907 52.5603 26.9907 53.1789 27.3651 53.5696C27.5605 53.765 27.8047 53.8626 28.0488 53.8626C28.293 53.8626 28.5535 53.765 28.7326 53.5696L35.4721 46.8301L42.2116 53.5696C42.407 53.765 42.6512 53.8626 42.8954 53.8626C43.1395 53.8626 43.4 53.765 43.5791 53.5696C43.9535 53.1952 43.9535 52.5603 43.5791 52.1859L36.8721 45.4464ZM53.1349 18.2766L43.4814 8.6231C43.3023 8.44403 43.0419 8.33008 42.7977 8.33008H17.5651C17.0279 8.33008 16.5884 8.76961 16.5884 9.30682V61.6929C16.5884 62.2301 17.0279 62.6696 17.5651 62.6696H52.4512C52.9884 62.6696 53.4279 62.2301 53.4279 61.6929V18.9766C53.4279 18.7161 53.314 18.4719 53.1349 18.2766ZM51.4744 19.5952V60.6998H18.5256V10.2836H41.8698V18.6185C41.8698 19.1557 42.3093 19.5952 42.8465 19.5952H51.4744Z" fill="url(#paint0_linear_598_8812)"/>
<defs>
<linearGradient id="paint0_linear_598_8812" x1="10.0765" y1="15.4071" x2="55.0934" y2="60.424" gradientUnits="userSpaceOnUse">
<stop stop-color="#A259FF"/>
<stop offset="1" stop-color="#FF6250"/>
</linearGradient>
</defs>
</svg>
