<svg width="100" height="100" viewBox="0 0 100 100" fill="none" xmlns="http://www.w3.org/2000/svg">
<path d="M85.9677 38.9836C86.6305 38.9836 87.2026 38.5185 87.3351 37.8673L88.6026 31.6696C88.6165 31.5998 88.6258 31.5278 88.6282 31.4533C88.6282 31.4394 88.6305 31.4278 88.6305 31.4138C88.6305 31.4045 88.6328 31.3929 88.6328 31.3836C88.6328 31.3254 88.6282 31.2696 88.6212 31.2138C88.6189 31.2022 88.6165 31.1905 88.6165 31.1789C88.6072 31.1115 88.5933 31.0464 88.5747 30.9836C88.5747 30.9812 88.5747 30.9789 88.5723 30.9766C88.5514 30.9115 88.5258 30.8464 88.4979 30.7859C88.4933 30.7766 88.4886 30.765 88.484 30.7557C88.4537 30.6952 88.4212 30.6394 88.3816 30.5836C88.3747 30.5743 88.3677 30.5673 88.363 30.558C88.3258 30.5068 88.2863 30.458 88.2421 30.4138C88.2375 30.4092 88.2328 30.4022 88.2282 30.3975C88.1816 30.351 88.1305 30.3068 88.077 30.2673C88.0677 30.2603 88.0561 30.251 88.0468 30.244C87.991 30.2045 87.9328 30.1696 87.8723 30.1394C87.8677 30.1371 87.8654 30.1347 87.8607 30.1324L50.6189 11.6882C50.2282 11.4952 49.77 11.4952 49.3793 11.6882L12.1444 30.1301C12.1398 30.1324 12.1375 30.1347 12.1328 30.1371C12.0723 30.1673 12.0142 30.2022 11.9584 30.2417C11.9468 30.2487 11.9375 30.258 11.9281 30.265C11.8747 30.3045 11.8235 30.3487 11.777 30.3952C11.7723 30.3999 11.7677 30.4045 11.763 30.4115C11.7188 30.458 11.6793 30.5068 11.6421 30.5557C11.6351 30.565 11.6281 30.5719 11.6235 30.5812C11.5863 30.6347 11.5514 30.6929 11.5212 30.7533C11.5165 30.7626 11.5119 30.7743 11.5072 30.7836C11.477 30.844 11.4514 30.9092 11.4328 30.9743C11.4328 30.9766 11.4305 30.9789 11.4305 30.9812C11.4119 31.044 11.3979 31.1092 11.3886 31.1766C11.3863 31.1882 11.384 31.1999 11.384 31.2115C11.377 31.2673 11.3723 31.3231 11.3723 31.3812C11.3723 31.3905 11.3747 31.4022 11.3747 31.4115C11.3747 31.4254 11.377 31.4371 11.377 31.451C11.3816 31.5254 11.3886 31.5975 11.4026 31.6673L12.67 37.865C12.8026 38.5138 13.3747 38.9812 14.0375 38.9812H17.884V45.2836C17.884 45.3766 17.8933 45.4719 17.9119 45.565C17.9305 45.658 17.9607 45.7487 17.9979 45.8371L20.4072 51.4859V72.8091L18.3584 77.6115H16.4886C15.9398 77.6115 15.4444 77.9324 15.2165 78.4324L11.4933 86.6603C11.2979 87.0929 11.3351 87.5929 11.5909 87.9929C11.8468 88.3929 12.2886 88.6324 12.763 88.6324H87.2375C87.7119 88.6324 88.1537 88.3905 88.4096 87.9929C88.6654 87.5952 88.7026 87.0929 88.5072 86.6603L84.784 78.4324C84.5584 77.9324 84.0607 77.6115 83.5119 77.6115H81.6444L79.5956 72.8091V51.4882L82.0049 45.8394C82.0421 45.7533 82.07 45.6626 82.0909 45.5673C82.1096 45.4743 82.1189 45.3789 82.1189 45.2859V38.9836H85.9677ZM14.4723 32.7766H32.8142C33.584 32.7766 34.2095 32.151 34.2095 31.3812C34.2095 30.6115 33.584 29.9859 32.8142 29.9859H18.7235L50.0002 14.4952L81.277 29.9859H67.1863C66.4165 29.9859 65.7909 30.6115 65.7909 31.3812C65.7909 32.151 66.4165 32.7766 67.1863 32.7766H85.5282L84.8282 36.1929H80.7235H19.2793H15.1723L14.4723 32.7766ZM41.5584 46.6836L43.6072 51.4859V72.8091L41.5584 77.6115H35.2444L33.1956 72.8091V51.4882L35.2444 46.6859H41.5584V46.6836ZM64.7584 46.6836L66.8072 51.4859V72.8091L64.7584 77.6115H58.4421L56.3933 72.8091V51.4882L58.4421 46.6859H64.7584V46.6836ZM69.6002 52.5975H76.8049V71.6998H69.6002V52.5975ZM77.2793 49.8068H69.1258L67.7933 46.6836H78.6119L77.2793 49.8068ZM53.6026 71.6998H46.3979V52.5975H53.6026V71.6998ZM45.9235 74.4905H54.077L55.4095 77.6138H44.5909L45.9235 74.4905ZM54.077 49.8068H45.9235L44.5909 46.6836H55.4095L54.077 49.8068ZM23.1979 52.5975H30.4026V71.6998H23.1979V52.5975ZM30.877 49.8068H22.7235L21.3909 46.6836H32.2095L30.877 49.8068ZM22.7235 74.4905H30.877L32.2095 77.6138H21.3909L22.7235 74.4905ZM85.0747 85.8417H14.9258L17.3863 80.4045H19.263C19.27 80.4045 19.2793 80.4045 19.2863 80.4045H34.3165C34.3188 80.4045 34.3212 80.4045 34.3235 80.4045C34.3258 80.4045 34.3305 80.4045 34.3328 80.4045H42.463C42.47 80.4045 42.4793 80.4045 42.4863 80.4045H57.5165C57.5189 80.4045 57.5212 80.4045 57.5235 80.4045C57.5258 80.4045 57.5305 80.4045 57.5328 80.4045H65.6654C65.6723 80.4045 65.6816 80.4045 65.6886 80.4045H80.7188C80.7212 80.4045 80.7235 80.4045 80.7258 80.4045C80.7282 80.4045 80.7328 80.4045 80.7351 80.4045H82.6165L85.0747 85.8417ZM67.7933 77.6138L69.1258 74.4905H77.2793L78.6119 77.6138H67.7933ZM79.3282 43.8929H65.6909C65.6816 43.8929 65.6723 43.8929 65.6654 43.8929H57.5351C57.5282 43.8929 57.5212 43.8929 57.5165 43.8929H42.4886C42.4793 43.8929 42.47 43.8929 42.463 43.8929H34.3375C34.3305 43.8929 34.3235 43.8929 34.3188 43.8929H20.6747V38.9812H79.3282V43.8929ZM50.0002 33.7952C54.1909 33.7952 57.6026 30.3859 57.6026 26.1929C57.6026 21.9999 54.1909 18.5929 50.0002 18.5929C45.8095 18.5929 42.3979 22.0022 42.3979 26.1952C42.3979 30.3882 45.8095 33.7952 50.0002 33.7952ZM50.0002 21.3836C52.6537 21.3836 54.8119 23.5417 54.8119 26.1952C54.8119 28.8487 52.6537 31.0068 50.0002 31.0068C47.3468 31.0068 45.1886 28.8487 45.1886 26.1952C45.1886 23.5417 47.3468 21.3836 50.0002 21.3836Z" fill="url(#paint0_linear_632_17716)"/>
<defs>
<linearGradient id="paint0_linear_632_17716" x1="16.4313" y1="25.7403" x2="83.5692" y2="92.8782" gradientUnits="userSpaceOnUse">
<stop stop-color="#CB5EEE"/>
<stop offset="1" stop-color="#FF6250"/>
</linearGradient>
</defs>
</svg>
