<svg width="70" height="71" viewBox="0 0 70 71" fill="none" xmlns="http://www.w3.org/2000/svg">
<g clip-path="url(#clip0_632_6016)">
<path d="M55.666 47.229C55.666 48.1252 54.9539 48.8519 54.0758 48.8519H54.0405C53.1624 48.8519 52.4504 48.1252 52.4504 47.229C52.4504 46.3328 53.1624 45.6062 54.0405 45.6062H54.0758C54.9539 45.6062 55.666 46.3328 55.666 47.229ZM70.0002 43.0998C70.0002 45.974 67.7104 48.3109 64.8941 48.3109H61.0194C60.5071 51.7622 57.5794 54.4164 54.0564 54.4164C50.5334 54.4164 47.6075 51.7622 47.0934 48.3109H20.7395C20.2271 51.7622 17.2995 54.4164 13.7764 54.4164C10.2534 54.4164 7.32752 51.7622 6.81337 48.3109H2.39632C1.92811 48.3109 1.51644 47.999 1.3804 47.541C0.519954 44.6271 1.28145 41.7817 1.71432 40.5447C0.740806 39.0914 -0.0736983 36.2604 1.96345 32.9732C2.20197 32.27 3.3716 28.9251 5.17199 25.5027C7.96887 20.1906 10.8488 17.4354 13.7305 17.3164C13.7446 17.3164 13.7587 17.3164 13.7729 17.3164H17.2182C17.2199 17.3164 17.2199 17.3164 17.2217 17.3164H34.0454C38.9024 17.3164 45.4714 24.3451 48.7948 29.5707L61.1555 31.6028C62.4753 31.812 63.728 32.2718 64.8764 32.9678C64.8923 32.9768 64.9065 32.9859 64.9224 32.9949C64.9559 33.0147 64.9895 33.0345 65.0231 33.0544C67.4365 34.5708 69.1627 37.0574 69.7599 39.8775C69.7705 39.928 69.7776 39.9767 69.7811 40.0272L69.9931 43.0186C69.9984 43.0475 70.0002 43.0727 70.0002 43.0998ZM64.0796 35.0072H63.4276C62.5407 35.0072 61.818 35.7447 61.818 36.6499V37.3333C61.818 38.2385 62.5407 38.9742 63.4276 38.9742H67.2793C66.6415 37.3603 65.5231 35.9629 64.0796 35.0072ZM34.0489 19.4802H27.5081L28.6866 29.4805H46.1711C42.6586 24.4623 37.2645 19.4802 34.0489 19.4802ZM17.9514 19.4802L13.9655 29.4805H26.5523L25.3738 19.4802H17.9514ZM7.05542 26.5035C6.52008 27.5205 6.03774 28.5393 5.6243 29.4787H11.6757L15.6616 19.4784H13.7994C11.787 19.5794 9.39293 22.0713 7.05542 26.5035ZM6.12784 36.0458C6.17908 35.9989 6.20028 35.9412 6.18615 35.8709C6.17378 35.8024 6.13314 35.7537 6.06777 35.7303L3.40341 34.7674C2.52706 36.5363 2.77795 37.8995 3.14192 38.7271L6.12784 36.0458ZM3.23202 46.1471H6.81337C7.32575 42.6959 10.2534 40.0416 13.7764 40.0416C17.2995 40.0416 20.2271 42.6959 20.7395 46.1471H26.6883V31.6443H12.3948C12.393 31.6443 12.3912 31.6443 12.3895 31.6443C12.3877 31.6443 12.3842 31.6443 12.3824 31.6443H4.72322C4.55184 32.0825 4.40519 32.4702 4.28682 32.7911L6.77627 33.6909C7.55367 33.9722 8.11198 34.6339 8.26746 35.4598C8.42471 36.2874 8.14732 37.1133 7.52717 37.6687L3.81154 41.0081C3.56242 41.6572 2.82566 43.8463 3.23202 46.1471ZM18.6988 47.2326C18.6988 47.2308 18.6988 47.229 18.6988 47.229C18.6988 47.2272 18.6988 47.2254 18.6988 47.2236C18.697 44.4558 16.4902 42.2054 13.7764 42.2054C11.0661 42.2054 8.85935 44.454 8.85405 47.2182C8.85405 47.2218 8.85405 47.2254 8.85405 47.229C8.85405 47.2326 8.85405 47.2362 8.85405 47.2398C8.85935 50.0041 11.0661 52.2526 13.7764 52.2526C16.4902 52.2508 18.697 50.0005 18.6988 47.2326ZM58.9788 47.2362C58.9788 47.2344 58.9788 47.2326 58.9788 47.229C58.9788 47.2272 58.9788 47.2236 58.9788 47.2218C58.9752 44.4558 56.7685 42.2054 54.0564 42.2054C51.3461 42.2054 49.1393 44.454 49.134 47.22C49.134 47.2236 49.134 47.2254 49.134 47.229C49.134 47.2326 49.134 47.2344 49.134 47.238C49.1393 50.0041 51.3443 52.2508 54.0564 52.2508C56.7685 52.2508 58.9752 50.0023 58.9788 47.2362ZM67.88 43.1358L67.7387 41.1379H63.4276C61.371 41.1379 59.6979 39.4322 59.6979 37.3333V36.6499C59.6979 35.4995 60.2014 34.4699 60.9947 33.772C60.9399 33.763 60.8852 33.7504 60.8304 33.7414L48.0775 31.6443H28.8085V46.1471H47.0951C47.6075 42.6959 50.5351 40.0416 54.0582 40.0416C57.5812 40.0416 60.5088 42.6959 61.0212 46.1471H64.8959C66.5284 46.1471 67.8606 44.8002 67.88 43.1358ZM36.2274 34.762H32.4552C31.8704 34.762 31.3952 35.247 31.3952 35.8439C31.3952 36.4407 31.8704 36.9258 32.4552 36.9258H36.2274C36.8122 36.9258 37.2875 36.4407 37.2875 35.8439C37.2875 35.247 36.814 34.762 36.2274 34.762ZM13.7958 45.6062H13.7605C12.8824 45.6062 12.1704 46.3328 12.1704 47.229C12.1704 48.1252 12.8824 48.8519 13.7605 48.8519H13.7958C14.674 48.8519 15.386 48.1252 15.386 47.229C15.386 46.3328 14.674 45.6062 13.7958 45.6062Z" fill="url(#paint0_linear_632_6016)"/>
</g>
<defs>
<linearGradient id="paint0_linear_632_6016" x1="11.1564" y1="17.6839" x2="54.9597" y2="60.6045" gradientUnits="userSpaceOnUse">
<stop stop-color="#A259FF"/>
<stop offset="1" stop-color="#FF6250"/>
</linearGradient>
<clipPath id="clip0_632_6016">
<rect width="70" height="70" fill="white" transform="translate(0 0.515625)"/>
</clipPath>
</defs>
</svg>
