<svg width="100" height="100" viewBox="0 0 100 100" fill="none" xmlns="http://www.w3.org/2000/svg">
<path d="M76.5119 39.0697C76.5816 39.1627 76.6281 39.2557 76.7212 39.3255C77.0235 39.6278 77.4421 39.8139 77.8839 39.8139C78.0002 39.8139 78.0932 39.7906 78.2095 39.7906C78.3025 39.7673 78.4188 39.7441 78.5119 39.6976C78.6049 39.6511 78.6979 39.6046 78.7909 39.558C78.8839 39.4883 78.977 39.4418 79.0467 39.3487C79.1165 39.279 79.1863 39.1859 79.256 39.0929C79.3258 38.9999 79.3723 38.9069 79.3956 38.8138C79.4421 38.7208 79.4653 38.6046 79.4886 38.5115C79.5119 38.3952 79.5119 38.3022 79.5119 38.1859C79.5119 37.7673 79.3258 37.3487 79.0467 37.0232C78.977 36.9534 78.8839 36.8836 78.7909 36.8139C78.6979 36.7441 78.6049 36.6976 78.5119 36.6743C78.4188 36.6278 78.3025 36.6045 78.2095 36.5813C77.6746 36.465 77.1165 36.6511 76.7444 37.0232C76.6746 37.0929 76.6049 37.1859 76.5351 37.279C76.4653 37.372 76.4188 37.465 76.3956 37.558C76.3491 37.6511 76.3258 37.7673 76.3026 37.8604C76.2793 37.9766 76.2793 38.0697 76.2793 38.1859C76.2793 38.279 76.2793 38.3952 76.3026 38.5115C76.3258 38.6046 76.3491 38.7208 76.3956 38.8138C76.4188 38.8836 76.4653 38.9766 76.5119 39.0697Z" fill="url(#paint0_linear_632_17702)"/>
<path d="M68.3721 64.3022L69.2325 65.1627C69 65.0929 68.7674 64.9302 68.6046 64.7208C68.5116 64.5813 68.4186 64.4418 68.3721 64.3022Z" fill="url(#paint1_linear_632_17702)"/>
<path d="M86.535 31.1626V61.2788C86.535 62.0463 85.907 62.6742 85.1396 62.6742H75.0931C74.6512 62.6742 74.2559 62.4649 74.0001 62.1625L71.8838 63.8835L69.8838 61.8835L72.907 59.4416L72.1861 57.4184C71.9303 56.6974 72.3024 55.8835 73.0233 55.6277C73.7443 55.3719 74.535 55.7439 74.814 56.4649L76.0466 59.8835H83.721V32.4881C82.1629 32.4649 79.4419 32.5114 76.8373 33.0928C75.7908 33.3253 74.7908 33.6277 73.8373 33.9765C73.1861 34.2091 72.5582 34.4881 71.9536 34.7672C71.2559 35.0928 70.4187 34.8137 70.0931 34.116C69.7675 33.4184 70.0466 32.5812 70.7443 32.2556C71.1164 32.0695 71.5117 31.9067 71.907 31.7207C73.2559 31.1626 74.6977 30.6974 76.2094 30.3486C80.5582 29.3486 85.0466 29.7207 85.2326 29.7439C85.9768 29.8137 86.535 30.4184 86.535 31.1626Z" fill="url(#paint2_linear_632_17702)"/>
<path d="M65.93 38.5583C65.7673 39.3024 65.0231 39.7908 64.2789 39.628C63.1859 39.3955 62.1161 39.1629 61.1161 38.9769C55.2324 37.7908 50.9068 37.1164 49.0231 37.1629C48.2789 37.1629 47.3021 37.5117 46.1859 38.1629L45.5347 37.5117L44.4649 36.442L44.1626 36.1396C45.9533 35.0001 47.5812 34.3955 48.9766 34.3722C52.0231 34.3257 59.2789 35.7443 63.9068 36.721C64.2324 36.7908 64.5579 36.8606 64.8603 36.9303C65.6045 37.0699 66.0928 37.8141 65.93 38.5583Z" fill="url(#paint3_linear_632_17702)"/>
<path d="M70.1164 62.093C70.0699 62.0232 70.0002 61.9767 69.9537 61.907C69.9304 61.8837 69.9304 61.8837 69.9071 61.8605C69.8141 61.7442 69.6978 61.6512 69.5816 61.5349C69.4653 61.4186 69.349 61.3023 69.2095 61.186L70.1164 62.093Z" fill="url(#paint4_linear_632_17702)"/>
<path d="M45.5351 37.5117L44.4653 36.4419C45.0235 36.5582 45.4421 36.9768 45.5351 37.5117Z" fill="url(#paint5_linear_632_17702)"/>
<path d="M69.2325 65.1628L68.372 64.3024L68.0929 64.0233C68.9301 65.0233 69.6046 66.5814 68.6743 67.6977C68.6046 67.7907 68.4185 67.9535 68.2325 68.1163C67.9767 68.3489 67.6743 68.5814 67.5348 68.6512C67.2325 68.814 66.9767 68.9535 66.6046 68.9535C66.3488 68.814 66.0697 68.7442 65.8139 68.7675C65.4185 68.6047 64.9302 68.3024 64.3255 67.7907C62.3255 66.1628 59.372 62.907 54.7441 57.721C54.2325 57.1396 53.3488 57.0931 52.7674 57.6047C52.186 58.1163 52.1395 59 52.6511 59.5814C57.372 64.8838 60.372 68.2093 62.5581 69.9535C62.9534 70.2791 63.3488 70.5582 63.7208 70.7907C63.186 71.4186 62.5581 72.0233 61.9069 72.3721C61.3255 72.6977 60.9069 72.8372 59.8836 72.0931C59.7906 71.9768 59.6743 71.8837 59.5348 71.814C59.5115 71.7907 59.4883 71.7907 59.465 71.7675C58.0697 70.6279 56.0929 68.3489 53.1395 65C52.0929 63.814 50.9301 62.4884 49.5813 60.9768C49.0697 60.3954 48.186 60.3489 47.6046 60.8605C47.0232 61.3721 46.9767 62.2558 47.4883 62.8372C48.8139 64.3256 49.9999 65.6512 51.0232 66.8372C53.6976 69.8605 55.5115 71.9303 56.9534 73.2558C56.3255 74.0931 55.5348 74.907 54.7674 75.3256C54.1395 75.6744 53.7208 75.814 52.5348 74.8838C51.1395 73.7907 49.0929 71.4651 45.9999 67.9535C44.9534 66.7675 43.7674 65.4419 42.4418 63.9303C41.9302 63.3489 41.0464 63.3024 40.465 63.814C39.8836 64.3256 39.8371 65.2093 40.3488 65.7907C41.6743 67.2791 42.8604 68.6047 43.8836 69.7907C46.4883 72.7442 48.279 74.7675 49.6976 76.1163C49.0697 76.2558 48.1627 76.2558 46.8371 75.8837C41.6046 74.4419 28.5581 62.1163 23.279 56.7907L27.9534 39.1396H40.279C40.1162 39.3024 39.9302 39.4651 39.7674 39.6512C37.8836 41.5349 36.2092 43.6279 35.6046 44.9303C34.7441 46.7907 34.4185 49.5814 35.6278 51.6047C36.2557 52.6512 37.5115 53.9303 40.0929 54.0931C40.2325 54.0931 40.372 54.0931 40.5115 54.0931C43.7441 54.0931 47.465 51.6744 49.9069 49.7675C50.279 49.4884 50.6046 49.2093 50.9069 48.9535C50.9534 48.907 50.9999 48.8605 51.0464 48.8372L51.0697 48.814C51.6511 48.3256 51.9767 48 51.9999 48L52.0232 47.9768L50.0464 46C50.0464 46 50.0464 46 50.0697 45.9768C50.0697 45.9768 50.0697 45.9768 50.0464 46C49.9534 46.0931 49.6046 46.3954 49.0929 46.8372C48.6976 47.1628 48.3022 47.4884 47.9069 47.7907C44.8604 50.1396 42.0697 51.4419 40.279 51.3256C39.186 51.2558 38.4418 50.8838 38.0464 50.2093C37.3953 49.1163 37.6046 47.3256 38.1627 46.1396C38.5115 45.3721 39.8371 43.5814 41.7441 41.6512C42.0464 41.3489 42.372 41.0465 42.7208 40.721C43.0929 40.3954 43.465 40.0698 43.8371 39.7675L40.465 36.3954H28.7674L29.2092 34.6745C29.372 34.0931 29.1162 33.4651 28.6046 33.1396C28.4883 33.0698 25.8836 31.4884 19.5348 30.3489C15.2092 29.5814 10.8139 29.7442 10.6511 29.7675C9.88364 29.7907 9.30225 30.3954 9.30225 31.1628V61.2791C9.30225 62.0465 9.93015 62.6744 10.6976 62.6744H20.7441C21.372 62.6744 21.9302 62.2558 22.0929 61.6279L22.5348 59.9768C27.2325 64.6047 40.186 77 46.186 78.6279C47.2325 78.907 48.1162 79.0233 48.9069 79.0233C50.5581 79.0233 51.6511 78.5117 52.3488 78.0233C52.9069 78.2791 53.465 78.4186 54.0232 78.4186C54.7208 78.4186 55.4185 78.2093 56.1627 77.814C57.4883 77.0931 58.5581 75.907 59.2557 74.9535C59.9069 75.2791 60.5115 75.4419 61.1395 75.4419C61.8371 75.4419 62.5348 75.2326 63.279 74.8372C64.7674 74.0465 65.9069 72.6744 66.5813 71.7442H66.6046C67.372 71.7442 68.1162 71.5349 68.9069 71.0931C69.2325 70.907 69.7906 70.4651 70.2557 70.0698C70.5115 69.8372 70.7441 69.6279 70.8604 69.4651C71.3255 68.907 71.6278 68.3024 71.7906 67.6744L69.2325 65.1628ZM19.6743 59.8838H12.0929V32.5349C13.6743 32.5349 16.3953 32.6279 19.0464 33.1163C22.7906 33.7907 25.0929 34.6047 26.2325 35.0931L19.6743 59.8838Z" fill="url(#paint6_linear_632_17702)"/>
<path d="M19.4881 37.6511C19.4184 37.5813 19.3254 37.5115 19.2323 37.4418C19.1393 37.372 19.0463 37.3255 18.9533 37.3022C18.8602 37.2557 18.744 37.2325 18.6509 37.2092C18.4416 37.1627 18.2323 37.1627 18.023 37.2092C17.93 37.2325 17.8137 37.2557 17.7207 37.3022C17.6277 37.3487 17.5347 37.3952 17.4416 37.4418C17.3486 37.5115 17.2556 37.558 17.1858 37.6511C16.8835 37.9534 16.7207 38.372 16.7207 38.8138C16.7207 39.2325 16.9067 39.6511 17.1858 39.9534C17.2556 40.0232 17.3486 40.0929 17.4416 40.1627C17.5347 40.2325 17.6277 40.279 17.7207 40.3022C17.8137 40.3487 17.93 40.372 18.023 40.3952C18.1393 40.4185 18.2323 40.4185 18.3486 40.4185C18.4649 40.4185 18.5579 40.3952 18.6742 40.3952C18.7905 40.372 18.8835 40.3487 18.9765 40.3022C19.0695 40.2557 19.1626 40.2092 19.2556 40.1627C19.3486 40.0929 19.4184 40.0464 19.5114 39.9534C19.8137 39.6511 19.9998 39.2325 19.9998 38.8138C19.9765 38.372 19.7905 37.9534 19.4881 37.6511Z" fill="url(#paint7_linear_632_17702)"/>
<path d="M85.3955 48.8138C85.3489 49.2556 85.1396 49.651 84.7908 49.9068L83.7443 50.744L69.9536 61.8835L67.6513 59.558L81.4885 48.3719L70.7908 35.3254L55.6513 47.558L53.3257 45.2556L70.0001 31.7673C70.5815 31.3022 71.3722 31.3022 71.9536 31.6975C72.0699 31.7905 72.1861 31.8835 72.2792 31.9998L73.8606 33.9533L76.535 37.2091L83.7443 46.0231L85.0234 47.5812C85.3024 47.9533 85.442 48.3719 85.3955 48.8138Z" fill="url(#paint8_linear_632_17702)"/>
<path d="M69.5816 50.279C69.5118 50.3488 69.442 50.3953 69.3723 50.4651C69.3258 50.4883 69.2793 50.5348 69.2327 50.5581C69.2095 50.5813 69.163 50.6046 69.1397 50.6511C68.6048 51.0232 68.0002 51.2092 67.5351 51.1162C66.7909 50.9534 66.0467 51.4185 65.8607 52.1627C65.6979 52.9069 66.163 53.6511 66.9072 53.8371C67.2095 53.9069 67.5118 53.9302 67.8141 53.9302C68.4886 53.9302 69.163 53.7674 69.7909 53.4883L70.2095 53.9999C70.4886 54.3488 70.8839 54.5116 71.3025 54.5116C71.6048 54.5116 71.9304 54.4185 72.1862 54.2092C72.7909 53.7209 72.8839 52.8371 72.3955 52.2557L71.9769 51.7441C72.3025 51.279 72.5351 50.7674 72.6513 50.2558C72.8374 49.3488 72.6281 48.4185 72.0932 47.7209C70.5583 45.7209 68.3258 46.6976 67.1397 47.2092C66.7211 47.3953 66.0467 47.6976 65.8141 47.6511C65.7909 47.6278 65.7676 47.6046 65.7444 47.5581C65.6746 47.4418 65.6746 47.186 65.8141 46.9767C65.8606 46.9069 65.9304 46.8371 65.9769 46.7674C66.0234 46.7441 66.07 46.7209 66.0932 46.6976C66.1862 46.6278 66.2793 46.5348 66.349 46.4185C66.7909 46.0697 67.3258 45.9069 67.6746 46.0232C68.3955 46.3023 69.2095 45.9302 69.4653 45.2092C69.7444 44.4883 69.3723 43.6744 68.6513 43.4185C67.5816 43.0232 66.442 43.2092 65.4653 43.6976L65.1165 43.2557C64.6281 42.6511 63.7444 42.5581 63.163 43.0464C62.5583 43.5348 62.4653 44.4185 62.9537 44.9999L63.4188 45.5813C62.7676 46.6744 62.7444 48.0697 63.4188 49.093C64.8374 51.279 67.07 50.3023 68.2793 49.7674C69.6281 49.186 69.7676 49.2557 69.9072 49.4185C69.9304 49.4418 69.9537 49.5581 69.9304 49.6976C69.9072 49.8604 69.7676 50.0697 69.5816 50.279Z" fill="url(#paint9_linear_632_17702)"/>
<path d="M90.4652 88.3722C90.1861 88.6513 89.8373 88.7908 89.4884 88.7908C89.1396 88.7908 88.7675 88.6513 88.5117 88.3722L13.907 13.7676C13.3721 13.2327 13.3721 12.349 13.907 11.7908C14.4652 11.2559 15.3489 11.2559 15.8838 11.7908L69.2559 65.1629L71.7675 67.6978L90.4884 86.4187C91.0233 86.9304 91.0233 87.8141 90.4652 88.3722Z" fill="url(#paint10_linear_632_17702)"/>
<path d="M50.1162 46.0471C50.1399 46.0234 50.1399 46.0234 50.1162 46.0471V46.0471Z" fill="url(#paint11_linear_632_17702)"/>
<defs>
<linearGradient id="paint0_linear_632_17702" x1="35.9907" y1="28.5785" x2="59.457" y2="74.7408" gradientUnits="userSpaceOnUse">
<stop stop-color="#A259FF"/>
<stop offset="1" stop-color="#FF6250"/>
</linearGradient>
<linearGradient id="paint1_linear_632_17702" x1="35.9903" y1="28.5784" x2="59.4567" y2="74.7409" gradientUnits="userSpaceOnUse">
<stop stop-color="#A259FF"/>
<stop offset="1" stop-color="#FF6250"/>
</linearGradient>
<linearGradient id="paint2_linear_632_17702" x1="35.9905" y1="28.5784" x2="59.4568" y2="74.7407" gradientUnits="userSpaceOnUse">
<stop stop-color="#A259FF"/>
<stop offset="1" stop-color="#FF6250"/>
</linearGradient>
<linearGradient id="paint3_linear_632_17702" x1="35.9903" y1="28.5787" x2="59.4565" y2="74.741" gradientUnits="userSpaceOnUse">
<stop stop-color="#A259FF"/>
<stop offset="1" stop-color="#FF6250"/>
</linearGradient>
<linearGradient id="paint4_linear_632_17702" x1="35.9907" y1="28.5786" x2="59.4569" y2="74.7409" gradientUnits="userSpaceOnUse">
<stop stop-color="#A259FF"/>
<stop offset="1" stop-color="#FF6250"/>
</linearGradient>
<linearGradient id="paint5_linear_632_17702" x1="35.9907" y1="28.5786" x2="59.457" y2="74.741" gradientUnits="userSpaceOnUse">
<stop stop-color="#A259FF"/>
<stop offset="1" stop-color="#FF6250"/>
</linearGradient>
<linearGradient id="paint6_linear_632_17702" x1="35.9904" y1="28.5786" x2="59.4567" y2="74.741" gradientUnits="userSpaceOnUse">
<stop stop-color="#A259FF"/>
<stop offset="1" stop-color="#FF6250"/>
</linearGradient>
<linearGradient id="paint7_linear_632_17702" x1="35.9903" y1="28.5785" x2="59.4565" y2="74.7408" gradientUnits="userSpaceOnUse">
<stop stop-color="#A259FF"/>
<stop offset="1" stop-color="#FF6250"/>
</linearGradient>
<linearGradient id="paint8_linear_632_17702" x1="35.9906" y1="28.5784" x2="59.4568" y2="74.7408" gradientUnits="userSpaceOnUse">
<stop stop-color="#A259FF"/>
<stop offset="1" stop-color="#FF6250"/>
</linearGradient>
<linearGradient id="paint9_linear_632_17702" x1="35.9907" y1="28.5785" x2="59.4569" y2="74.7409" gradientUnits="userSpaceOnUse">
<stop stop-color="#A259FF"/>
<stop offset="1" stop-color="#FF6250"/>
</linearGradient>
<linearGradient id="paint10_linear_632_17702" x1="35.9905" y1="28.5787" x2="59.4568" y2="74.741" gradientUnits="userSpaceOnUse">
<stop stop-color="#A259FF"/>
<stop offset="1" stop-color="#FF6250"/>
</linearGradient>
<linearGradient id="paint11_linear_632_17702" x1="35.7079" y1="28.2298" x2="59.6435" y2="75.3154" gradientUnits="userSpaceOnUse">
<stop stop-color="#A259FF"/>
<stop offset="1" stop-color="#FF6250"/>
</linearGradient>
</defs>
</svg>
