<svg width="100" height="100" viewBox="0 0 100 100" fill="none" xmlns="http://www.w3.org/2000/svg">
<g clip-path="url(#clip0_632_5403)">
<g filter="url(#filter0_b_632_5403)">
<rect width="100" height="100" rx="20" fill="url(#paint0_linear_632_5403)" fill-opacity="0.6"/>
<rect x="1" y="1" width="98" height="98" rx="19" stroke="url(#paint1_radial_632_5403)" stroke-width="2"/>
<rect x="1" y="1" width="98" height="98" rx="19" stroke="url(#paint2_radial_632_5403)" stroke-width="2"/>
</g>
<path d="M75.6456 42.586L67.245 34.7238V22.5139C67.245 21.8968 66.7409 21.3953 66.1206 21.3953H58.8181C58.1979 21.3953 57.6938 21.8968 57.6938 22.5139V25.7803L50.7736 19.3034C50.3407 18.8989 49.6661 18.8989 49.2332 19.3034L24.3538 42.5841C23.9022 43.0074 23.8797 43.7158 24.305 44.1651C24.5262 44.4001 24.8241 44.5175 25.1239 44.5175C25.3994 44.5175 25.6767 44.4168 25.8941 44.2136L28.1727 42.0807V69.8714C28.1727 70.4885 28.6768 70.9901 29.2971 70.9901H35.6607V79.8814C35.6607 80.4985 36.1648 81 36.7851 81H63.2143C63.8345 81 64.3386 80.4985 64.3386 79.8814V70.9901H70.6948C71.315 70.9901 71.8191 70.4885 71.8191 69.8714V42.0752L74.1052 44.2155C74.5568 44.6387 75.2689 44.6163 75.6943 44.167C76.1197 43.7158 76.099 43.0092 75.6456 42.586ZM59.9443 23.6326H64.9982V32.6171L59.9443 27.8871V23.6326ZM37.9094 78.7646V69.877C37.9094 69.8752 37.9094 69.8752 37.9094 69.8733C37.9094 69.8714 37.9094 69.8714 37.9094 69.8696V43.878H54.3171V50.4929C54.3171 51.11 54.8212 51.6115 55.4414 51.6115H62.0899V69.8696C62.0899 69.8714 62.0899 69.8714 62.0899 69.8733C62.0899 69.8752 62.0899 69.8752 62.0899 69.877V78.7646H37.9094ZM69.5704 68.7547H64.3386V50.4929C64.3386 50.4799 64.3367 50.4687 64.3367 50.4556C64.3367 50.4426 64.3348 50.4314 64.3348 50.4183C64.3311 50.3717 64.3273 50.3232 64.318 50.2766V50.2748C64.3086 50.2282 64.2955 50.1815 64.2786 50.1368C64.2749 50.1256 64.2711 50.1126 64.2655 50.1014C64.2486 50.0585 64.2318 50.0175 64.2112 49.9765C64.2093 49.9746 64.2093 49.9709 64.2074 49.969C64.1849 49.9261 64.1587 49.8851 64.1306 49.846C64.1231 49.8366 64.1156 49.8254 64.1081 49.8161C64.0781 49.777 64.0463 49.7378 64.0107 49.7043L56.2378 41.9708C56.2022 41.9353 56.1647 41.9036 56.1235 41.8738C56.1141 41.8663 56.1029 41.8589 56.0935 41.8514C56.0542 41.8235 56.0129 41.7974 55.9698 41.775C55.9661 41.7731 55.9642 41.7731 55.9605 41.7713C55.9211 41.7508 55.878 41.7321 55.8368 41.7172C55.8237 41.7135 55.8124 41.7079 55.7993 41.7041C55.7543 41.6892 55.7094 41.6762 55.6625 41.6669C55.6588 41.6669 55.655 41.6669 55.6532 41.665C55.6101 41.6575 55.5651 41.6519 55.5201 41.6482C55.5051 41.6463 55.492 41.6463 55.477 41.6463C55.4658 41.6463 55.4545 41.6445 55.4414 41.6445H36.7851C36.1648 41.6445 35.6607 42.146 35.6607 42.7631V68.7584H30.4214V39.9777L50.0034 21.6544L69.5704 39.9684V68.7547ZM58.7132 72.5282C58.7132 73.1453 58.2091 73.6468 57.5889 73.6468H52.8105C52.1902 73.6468 51.6862 73.1453 51.6862 72.5282C51.6862 71.9111 52.1902 71.4096 52.8105 71.4096H57.5889C58.211 71.4096 58.7132 71.9092 58.7132 72.5282ZM41.2861 56.8151C41.2861 56.198 41.7902 55.6964 42.4105 55.6964H49.7542C50.3744 55.6964 50.8785 56.198 50.8785 56.8151C50.8785 57.4322 50.3744 57.9337 49.7542 57.9337H42.4105C41.7883 57.9337 41.2861 57.4322 41.2861 56.8151ZM58.7132 56.8151C58.7132 57.4322 58.2091 57.9337 57.5889 57.9337H53.9348C53.3146 57.9337 52.8105 57.4322 52.8105 56.8151C52.8105 56.198 53.3146 55.6964 53.9348 55.6964H57.5889C58.211 55.6964 58.7132 56.1961 58.7132 56.8151ZM58.7132 67.1196C58.7132 67.7367 58.2091 68.2382 57.5889 68.2382H42.4105C41.7902 68.2382 41.2861 67.7367 41.2861 67.1196C41.2861 66.5025 41.7902 66.0009 42.4105 66.0009H57.5889C58.211 66.0009 58.7132 66.5025 58.7132 67.1196ZM58.7132 61.9683C58.7132 62.5854 58.2091 63.0869 57.5889 63.0869H42.4105C41.7902 63.0869 41.2861 62.5854 41.2861 61.9683C41.2861 61.3511 41.7902 60.8496 42.4105 60.8496H57.5889C58.211 60.8496 58.7132 61.3493 58.7132 61.9683Z" fill="url(#paint3_linear_632_5403)"/>
</g>
<defs>
<filter id="filter0_b_632_5403" x="-30" y="-30" width="160" height="160" filterUnits="userSpaceOnUse" color-interpolation-filters="sRGB">
<feFlood flood-opacity="0" result="BackgroundImageFix"/>
<feGaussianBlur in="BackgroundImageFix" stdDeviation="15"/>
<feComposite in2="SourceAlpha" operator="in" result="effect1_backgroundBlur_632_5403"/>
<feBlend mode="normal" in="SourceGraphic" in2="effect1_backgroundBlur_632_5403" result="shape"/>
</filter>
<linearGradient id="paint0_linear_632_5403" x1="50" y1="0" x2="50" y2="100" gradientUnits="userSpaceOnUse">
<stop stop-color="white" stop-opacity="0"/>
<stop offset="1" stop-color="white"/>
</linearGradient>
<radialGradient id="paint1_radial_632_5403" cx="0" cy="0" r="1" gradientUnits="userSpaceOnUse" gradientTransform="translate(82.6923 80.4762) rotate(77.5615) scale(108.255 45.9545)">
<stop stop-color="white" stop-opacity="0.57"/>
<stop offset="1" stop-color="white" stop-opacity="0"/>
</radialGradient>
<radialGradient id="paint2_radial_632_5403" cx="0" cy="0" r="1" gradientUnits="userSpaceOnUse" gradientTransform="translate(10.4567 21.9048) rotate(-95.3611) scale(111.918 31.8727)">
<stop stop-color="white" stop-opacity="0.28"/>
<stop offset="1" stop-color="white" stop-opacity="0"/>
</radialGradient>
<linearGradient id="paint3_linear_632_5403" x1="33.5741" y1="33.4098" x2="72.3462" y2="72.3791" gradientUnits="userSpaceOnUse">
<stop stop-color="#A259FF"/>
<stop offset="1" stop-color="#FF6250"/>
</linearGradient>
<clipPath id="clip0_632_5403">
<rect width="100" height="100" fill="white"/>
</clipPath>
</defs>
</svg>
