<svg width="100" height="100" viewBox="0 0 100 100" fill="none" xmlns="http://www.w3.org/2000/svg">
<path d="M68.1018 45.2523H31.8888C31.1125 45.2523 30.4815 45.884 30.4815 46.6614V54.79V79.1734C30.4815 79.9508 31.1125 80.5826 31.8888 80.5826H68.1018C68.8782 80.5826 69.5091 79.9508 69.5091 79.1734V54.79V46.6614C69.5091 45.884 68.8782 45.2523 68.1018 45.2523ZM43.0607 56.1992H66.6944V61.5094H43.0607V56.1992ZM40.246 61.5071H33.2962V56.1968H40.246V61.5071ZM33.2962 64.3254H40.246V69.6356H33.2962V64.3254ZM43.0607 64.3254H66.6944V69.6356H43.0607V64.3254ZM66.6944 53.3808H43.0607V48.0706H66.6944V53.3808ZM33.2962 48.0706H40.246V53.3808H33.2962V48.0706ZM33.2962 72.454H40.246V77.7642H33.2962V72.454ZM43.0607 77.7642V72.454H66.6944V77.7642H43.0607ZM77.9953 28.0228C77.9953 28.0064 77.993 27.9923 77.993 27.9758C77.9883 27.9148 77.9812 27.856 77.9719 27.7973C77.9719 27.7973 77.9719 27.7973 77.9719 27.795C77.9601 27.7363 77.9437 27.6775 77.9226 27.6188C77.9179 27.6047 77.9132 27.5906 77.9062 27.5766C77.8851 27.5225 77.8616 27.4685 77.8358 27.4169C77.8335 27.4145 77.8335 27.4122 77.8335 27.4098C77.8053 27.3558 77.7725 27.3041 77.735 27.2548C77.7256 27.2431 77.7162 27.229 77.7068 27.2172C77.6693 27.1679 77.6294 27.1186 77.5848 27.074L61.9424 11.411C61.8978 11.3664 61.8509 11.3265 61.8016 11.2889C61.7876 11.2795 61.7758 11.2701 61.7618 11.2607C61.7125 11.2255 61.6632 11.1926 61.6093 11.1644C61.6046 11.1621 61.5999 11.1597 61.5929 11.1574C61.5436 11.1315 61.4944 11.1104 61.4428 11.0916C61.4263 11.0846 61.4099 11.0799 61.3935 11.0752C61.3396 11.0564 61.2833 11.0399 61.227 11.0282C61.2223 11.0282 61.2152 11.0258 61.2106 11.0258C61.1566 11.0164 61.1003 11.0094 61.044 11.0047C61.0253 11.0047 61.0088 11.0023 60.9901 11.0023C60.976 11.0023 60.9596 11 60.9455 11H23.4073C22.631 11 22 11.6318 22 12.4092V87.5908C22 88.3682 22.631 89 23.4073 89H76.5927C77.369 89 78 88.3682 78 87.5908V28.0698C77.9977 28.0533 77.9977 28.0392 77.9953 28.0228ZM24.8147 86.1817V13.816H59.5429V28.0698C59.5429 28.8472 60.1738 29.4789 60.9502 29.4789H75.1853V86.1817H24.8147ZM30.4815 39.6649C30.4815 38.8875 31.1125 38.2557 31.8888 38.2557H42.615C43.3914 38.2557 44.0224 38.8875 44.0224 39.6649C44.0224 40.4423 43.3914 41.0741 42.615 41.0741H31.8888C31.1125 41.0741 30.4815 40.4446 30.4815 39.6649ZM69.5091 39.6649C69.5091 40.4423 68.8782 41.0741 68.1018 41.0741H49.9965C49.2201 41.0741 48.5892 40.4423 48.5892 39.6649C48.5892 38.8875 49.2201 38.2557 49.9965 38.2557H68.1018C68.8782 38.2557 69.5091 38.8875 69.5091 39.6649ZM32.9138 29.8806C32.4307 29.2699 32.5339 28.3845 33.1414 27.9007C33.7512 27.4169 34.6355 27.5202 35.1187 28.1285C35.7637 28.9435 36.8286 29.3897 37.8301 29.2629C38.2171 29.2135 38.5549 29.0844 38.7777 28.8988C38.9536 28.7532 39.0756 28.5442 39.0779 28.3774C39.0897 27.8584 38.8223 27.6306 37.0186 27.1327C35.44 26.6958 32.8013 25.9654 33.1109 23.0414C33.261 21.6205 34.3329 20.3499 35.7778 19.8801C35.7989 19.8731 35.8223 19.8684 35.8434 19.8613V18.7246C35.8434 17.9472 36.4744 17.3154 37.2508 17.3154C38.0271 17.3154 38.6581 17.9472 38.6581 18.7246V19.8919C39.8637 20.27 40.9544 21.0944 41.6276 22.2452C42.0193 22.9169 41.7941 23.7812 41.1233 24.1734C40.4524 24.568 39.5893 24.3402 39.1976 23.6685C38.6745 22.7713 37.5275 22.2734 36.648 22.5599C36.268 22.6844 35.9443 23.0249 35.9115 23.3373C35.8739 23.7013 35.8528 23.8822 37.7715 24.413C39.3406 24.8475 41.9653 25.5732 41.895 28.4432C41.8715 29.4367 41.3883 30.3926 40.5744 31.0666C40.049 31.5034 39.3923 31.8088 38.6604 31.9685V33.0301C38.6604 33.8074 38.0295 34.4392 37.2531 34.4392C36.4767 34.4392 35.8458 33.8074 35.8458 33.0301V31.8557C34.7082 31.5246 33.6738 30.8411 32.9138 29.8806Z" fill="url(#paint0_linear_632_17664)"/>
<defs>
<linearGradient id="paint0_linear_632_17664" x1="13.0256" y1="20.8086" x2="79.2371" y2="86.9335" gradientUnits="userSpaceOnUse">
<stop stop-color="#A259FF"/>
<stop offset="1" stop-color="#FF6250"/>
</linearGradient>
</defs>
</svg>
