<svg width="100" height="100" viewBox="0 0 100 100" fill="none" xmlns="http://www.w3.org/2000/svg">
<g clip-path="url(#clip0_632_4014)">
<g filter="url(#filter0_b_632_4014)">
<rect width="100" height="100" rx="20" fill="url(#paint0_linear_632_4014)" fill-opacity="0.6"/>
<rect x="1" y="1" width="98" height="98" rx="19" stroke="url(#paint1_radial_632_4014)" stroke-width="2"/>
<rect x="1" y="1" width="98" height="98" rx="19" stroke="url(#paint2_radial_632_4014)" stroke-width="2"/>
</g>
<path d="M64.0632 33.6233C64.0598 33.578 64.0546 33.5343 64.0477 33.4907V33.4889C64.0391 33.4453 64.0271 33.4016 64.0116 33.358C64.0082 33.3475 64.0048 33.337 63.9996 33.3266C63.9841 33.2864 63.9686 33.2463 63.948 33.2079C63.9463 33.2061 63.9463 33.2044 63.9446 33.2026C63.9239 33.1625 63.8981 33.1241 63.8724 33.0874C63.8655 33.0787 63.8603 33.0699 63.8534 33.0612C63.8259 33.0246 63.7967 32.9879 63.764 32.9547L52.2916 21.3072C52.2589 21.2741 52.2228 21.2444 52.1867 21.2147C52.1781 21.2077 52.1695 21.2025 52.1626 21.1955C52.1248 21.1693 52.0869 21.1431 52.0474 21.1222C52.0457 21.1222 52.0457 21.1205 52.044 21.1205C52.0044 21.0995 51.9649 21.082 51.9236 21.0663C51.9133 21.0628 51.903 21.0594 51.8944 21.0559C51.8101 21.0262 51.7224 21.0087 51.633 21.0035C51.621 21.0035 51.6106 21.0017 51.5986 21.0017C51.5866 21.0017 51.5763 21 51.5642 21H24.0317C23.4625 21 23 21.4696 23 22.0474V77.9526C23 78.5304 23.4625 79 24.0317 79H63.0367C63.6058 79 64.0684 78.5304 64.0684 77.9526V33.6949C64.0684 33.6827 64.0667 33.6705 64.0667 33.66C64.0649 33.6478 64.0649 33.6356 64.0632 33.6233ZM25.0634 76.9051V23.0949H50.5325V33.6949C50.5325 34.2728 50.9951 34.7424 51.5642 34.7424H62.005V76.9051H25.0634ZM57.4672 40.1663C57.4672 40.7442 57.0047 41.2138 56.4355 41.2138H30.6328C30.0637 41.2138 29.6011 40.7442 29.6011 40.1663C29.6011 39.5885 30.0637 39.1189 30.6328 39.1189H56.4355C57.0047 39.1189 57.4672 39.5867 57.4672 40.1663ZM57.4672 47.2208C57.4672 47.7986 57.0047 48.2682 56.4355 48.2682H30.6328C30.0637 48.2682 29.6011 47.7986 29.6011 47.2208C29.6011 46.643 30.0637 46.1734 30.6328 46.1734H56.4355C57.0047 46.1734 57.4672 46.643 57.4672 47.2208ZM43.909 55.3245H30.6328C30.0637 55.3245 29.6011 54.8549 29.6011 54.277C29.6011 53.6992 30.0637 53.2296 30.6328 53.2296H43.9108C44.4799 53.2296 44.9425 53.6992 44.9425 54.277C44.9425 54.8549 44.4799 55.3245 43.909 55.3245ZM57.4672 54.277C57.4672 54.8549 57.0047 55.3245 56.4355 55.3245H49.3891C48.8199 55.3245 48.3574 54.8549 48.3574 54.277C48.3574 53.6992 48.8199 53.2296 49.3891 53.2296H56.4355C57.0047 53.2296 57.4672 53.6992 57.4672 54.277ZM55.0703 65.1197C53.3542 65.7307 48.9815 65.6627 47.7366 65.1477C47.4512 65.0307 47.1812 64.7758 46.9749 64.4703C47.8914 63.0528 48.5035 61.3594 47.8811 59.7499C47.7487 59.4077 47.4478 59.1598 47.0901 59.0987C46.7324 59.0376 46.3696 59.172 46.1341 59.4531C45.2004 60.5686 44.6089 61.9896 44.5504 63.2553C44.5367 63.5608 44.5659 63.8698 44.6312 64.1753C44.3252 64.5524 43.9727 64.9399 43.5772 65.331C43.0562 65.8442 42.4836 66.2684 41.8783 66.6699C41.8628 66.2265 41.837 65.7849 41.8027 65.3432C41.7734 64.9766 41.5568 64.6519 41.2301 64.4878C40.9051 64.3254 40.5182 64.3481 40.2138 64.5471C39.4934 65.0202 38.4256 64.9382 37.7825 64.3603C37.5297 64.1334 37.1841 64.0461 36.8574 64.1264C36.529 64.2067 36.2607 64.4441 36.1386 64.7636C36.0681 64.9452 35.8068 65.0394 35.5936 65.0534C35.3786 65.0656 35.1087 65.001 35.0193 64.8299C34.7527 64.3184 34.1286 64.1247 33.6247 64.3953C33.1209 64.6658 32.9301 65.3013 33.1966 65.811C33.6591 66.6961 34.6238 67.2059 35.7122 67.1448C36.3312 67.1081 36.8901 66.8916 37.3234 66.5408C38.0972 66.9178 38.9792 67.04 39.8235 66.8986C39.8338 67.2617 39.8373 67.6249 39.8338 67.988C39.4504 68.2463 39.0652 68.5204 38.6852 68.8277C37.7085 69.615 36.572 70.7183 36.4361 72.2842C36.3484 73.2932 36.8763 74.3634 37.7498 74.9482C38.1573 75.2222 38.6078 75.3602 39.0515 75.3602C39.3954 75.3602 39.7358 75.2764 40.0488 75.107C41.1922 74.4838 41.4158 73.1186 41.5103 72.5356C41.6926 71.4183 41.8113 70.2906 41.8646 69.1593C41.9161 69.1279 41.966 69.0948 42.0176 69.0633C43.0252 68.4279 44.069 67.7697 45.0164 66.8358C45.221 66.635 45.4411 66.4081 45.6664 66.1584C46.0361 66.5634 46.4762 66.8899 46.9594 67.0889C48.7511 67.8308 53.6826 67.8343 55.7546 67.0959C56.2928 66.9039 56.5748 66.3068 56.3857 65.7604C56.1965 65.2157 55.6068 64.9277 55.0703 65.1197ZM39.4745 72.1934C39.3489 72.9633 39.1873 73.1972 39.0738 73.2601C39.0222 73.288 38.9002 73.2094 38.8864 73.2007C38.6474 73.0418 38.472 72.7119 38.4926 72.4675C38.5494 71.8111 39.1065 71.2053 39.6739 70.7148C39.6223 71.2088 39.5553 71.7011 39.4745 72.1934ZM78.9007 31.7991H78.2748V30.0708C78.2748 27.6372 76.3249 25.6576 73.928 25.6576C71.531 25.6576 69.5811 27.6372 69.5811 30.0708V32.8465V68.3947C69.5811 68.3982 69.5811 68.4017 69.5811 68.4052V68.4192C69.5811 68.4349 69.5828 68.4506 69.5828 68.4663C69.5845 68.496 69.5862 68.5274 69.5897 68.5571C69.5931 68.5833 69.5965 68.6094 69.6017 68.6356C69.6051 68.6513 69.6086 68.6653 69.6137 68.681C69.6189 68.7037 69.6258 68.7264 69.6327 68.7474C69.6344 68.7543 69.6361 68.7596 69.6378 68.7666L72.953 78.3C73.0992 78.7189 73.4878 78.9983 73.9262 78.9983C74.3647 78.9983 74.7533 78.7189 74.8995 78.3L78.2146 68.7666C78.2164 68.7596 78.2181 68.7543 78.2198 68.7474C78.2267 68.7247 78.2336 68.7037 78.2387 68.681C78.2422 68.6653 78.2473 68.6513 78.2508 68.6356C78.2559 68.6094 78.2594 68.5833 78.2628 68.5571C78.2662 68.5274 78.2697 68.496 78.2697 68.4663C78.2697 68.4506 78.2714 68.4349 78.2714 68.4192V68.4052C78.2714 68.4017 78.2714 68.3982 78.2714 68.3947V33.8939H78.8973C80.0218 33.8939 80.9366 34.8227 80.9366 35.9644V47.4478C80.9366 48.0256 81.3992 48.4952 81.9683 48.4952C82.5375 48.4952 83 48.0256 83 47.4478V35.9644C83.0034 33.667 81.1636 31.7991 78.9007 31.7991ZM71.6462 33.8939H76.2114V67.3717H71.6462V33.8939ZM73.928 74.8068L72.0709 69.4683H75.7833L73.928 74.8068Z" fill="url(#paint3_linear_632_4014)"/>
</g>
<defs>
<filter id="filter0_b_632_4014" x="-30" y="-30" width="160" height="160" filterUnits="userSpaceOnUse" color-interpolation-filters="sRGB">
<feFlood flood-opacity="0" result="BackgroundImageFix"/>
<feGaussianBlur in="BackgroundImageFix" stdDeviation="15"/>
<feComposite in2="SourceAlpha" operator="in" result="effect1_backgroundBlur_632_4014"/>
<feBlend mode="normal" in="SourceGraphic" in2="effect1_backgroundBlur_632_4014" result="shape"/>
</filter>
<linearGradient id="paint0_linear_632_4014" x1="50" y1="0" x2="50" y2="100" gradientUnits="userSpaceOnUse">
<stop stop-color="white" stop-opacity="0"/>
<stop offset="1" stop-color="white"/>
</linearGradient>
<radialGradient id="paint1_radial_632_4014" cx="0" cy="0" r="1" gradientUnits="userSpaceOnUse" gradientTransform="translate(82.6923 80.4762) rotate(77.5615) scale(108.255 45.9545)">
<stop stop-color="white" stop-opacity="0.57"/>
<stop offset="1" stop-color="white" stop-opacity="0"/>
</radialGradient>
<radialGradient id="paint2_radial_632_4014" cx="0" cy="0" r="1" gradientUnits="userSpaceOnUse" gradientTransform="translate(10.4567 21.9048) rotate(-95.3611) scale(111.918 31.8727)">
<stop stop-color="white" stop-opacity="0.28"/>
<stop offset="1" stop-color="white" stop-opacity="0"/>
</radialGradient>
<linearGradient id="paint3_linear_632_4014" x1="21.2052" y1="23.4356" x2="75.9618" y2="77.3693" gradientUnits="userSpaceOnUse">
<stop stop-color="#A259FF"/>
<stop offset="1" stop-color="#FF6250"/>
</linearGradient>
<clipPath id="clip0_632_4014">
<rect width="100" height="100" fill="white"/>
</clipPath>
</defs>
</svg>
