<svg width="464" height="107" viewBox="0 0 464 107" fill="none" xmlns="http://www.w3.org/2000/svg">
<g filter="url(#filter0_b_322_26175)">
<rect x="0.5" width="115" height="107" rx="30" fill="white" fill-opacity="0.8"/>
<path d="M21.2646 28.24C21.2646 27.5467 21.382 26.8693 21.6166 26.208C21.862 25.536 22.214 24.928 22.6726 24.384C23.142 23.8293 23.7126 23.392 24.3846 23.072C25.0566 22.7413 25.8193 22.576 26.6726 22.576C27.686 22.576 28.5553 22.8107 29.2806 23.28C30.006 23.7387 30.5446 24.3307 30.8966 25.056L29.7606 25.792C29.5366 25.312 29.2486 24.9333 28.8966 24.656C28.5553 24.368 28.182 24.1653 27.7766 24.048C27.382 23.9307 26.9926 23.872 26.6086 23.872C25.9793 23.872 25.4193 24 24.9286 24.256C24.4486 24.512 24.0433 24.8533 23.7126 25.28C23.382 25.7067 23.1313 26.1867 22.9606 26.72C22.8006 27.2427 22.7206 27.7707 22.7206 28.304C22.7206 28.8907 22.8166 29.456 23.0086 30C23.2113 30.544 23.4886 31.024 23.8406 31.44C24.1926 31.856 24.6086 32.1867 25.0886 32.432C25.5686 32.6773 26.0913 32.8 26.6566 32.8C27.0513 32.8 27.4566 32.7307 27.8726 32.592C28.2886 32.4533 28.678 32.24 29.0406 31.952C29.4033 31.6533 29.6913 31.2693 29.9046 30.8L31.1046 31.456C30.87 32.0213 30.5073 32.5013 30.0166 32.896C29.526 33.2907 28.9766 33.5893 28.3686 33.792C27.7713 33.9947 27.1793 34.096 26.5926 34.096C25.814 34.096 25.0993 33.9307 24.4486 33.6C23.798 33.2587 23.2326 32.8107 22.7526 32.256C22.2833 31.6907 21.9153 31.0613 21.6486 30.368C21.3926 29.664 21.2646 28.9547 21.2646 28.24ZM34.7149 34V26.896H31.8349V25.648H39.0029V26.896H36.1229V34H34.7149ZM39.7613 31.584C39.7613 31.0507 39.9106 30.592 40.2093 30.208C40.5186 29.8133 40.9399 29.5093 41.4733 29.296C42.0066 29.0827 42.6253 28.976 43.3293 28.976C43.7026 28.976 44.0973 29.008 44.5133 29.072C44.9293 29.1253 45.2973 29.2107 45.6173 29.328V28.72C45.6173 28.08 45.4253 27.5787 45.0413 27.216C44.6573 26.8427 44.1133 26.656 43.4093 26.656C42.9506 26.656 42.5079 26.7413 42.0813 26.912C41.6653 27.072 41.2226 27.3067 40.7533 27.616L40.2413 26.624C40.7853 26.2507 41.3293 25.9733 41.8733 25.792C42.4173 25.6 42.9826 25.504 43.5693 25.504C44.6359 25.504 45.4786 25.8027 46.0973 26.4C46.7159 26.9867 47.0253 27.808 47.0253 28.864V32.4C47.0253 32.5707 47.0573 32.6987 47.1213 32.784C47.1959 32.8587 47.3133 32.9013 47.4733 32.912V34C47.3346 34.0213 47.2119 34.0373 47.1053 34.048C47.0093 34.0587 46.9293 34.064 46.8653 34.064C46.5346 34.064 46.2839 33.9733 46.1133 33.792C45.9533 33.6107 45.8626 33.4187 45.8413 33.216L45.8093 32.688C45.4466 33.1573 44.9719 33.52 44.3853 33.776C43.7986 34.032 43.2173 34.16 42.6413 34.16C42.0866 34.16 41.5906 34.048 41.1533 33.824C40.7159 33.5893 40.3746 33.28 40.1293 32.896C39.8839 32.5013 39.7613 32.064 39.7613 31.584ZM45.2013 32.176C45.3293 32.0267 45.4306 31.8773 45.5053 31.728C45.5799 31.568 45.6173 31.4347 45.6173 31.328V30.288C45.2866 30.16 44.9399 30.064 44.5773 30C44.2146 29.9253 43.8573 29.888 43.5052 29.888C42.7906 29.888 42.2093 30.032 41.7613 30.32C41.3239 30.5973 41.1053 30.9813 41.1053 31.472C41.1053 31.7387 41.1746 32 41.3133 32.256C41.4626 32.5013 41.6759 32.704 41.9533 32.864C42.2413 33.024 42.5933 33.104 43.0093 33.104C43.4466 33.104 43.8626 33.0187 44.2573 32.848C44.6519 32.6667 44.9666 32.4427 45.2013 32.176ZM49.2606 34V25.648H53.5806C54.082 25.648 54.498 25.7493 54.8286 25.952C55.1593 26.144 55.4046 26.3947 55.5646 26.704C55.7353 27.0133 55.8206 27.344 55.8206 27.696C55.8206 28.144 55.714 28.5493 55.5006 28.912C55.2873 29.264 54.978 29.5307 54.5726 29.712C55.0526 29.8507 55.442 30.1013 55.7406 30.464C56.0393 30.816 56.1886 31.2533 56.1886 31.776C56.1886 32.2453 56.0766 32.6453 55.8526 32.976C55.6286 33.3067 55.314 33.5627 54.9086 33.744C54.5033 33.9147 54.034 34 53.5006 34H49.2606ZM50.6046 33.008H53.4686C53.7246 33.008 53.954 32.944 54.1566 32.816C54.37 32.688 54.5353 32.5173 54.6526 32.304C54.77 32.0907 54.8286 31.8667 54.8286 31.632C54.8286 31.376 54.77 31.1467 54.6526 30.944C54.546 30.7307 54.3913 30.5653 54.1886 30.448C53.9966 30.32 53.7726 30.256 53.5166 30.256H50.6046V33.008ZM50.6046 29.328H53.2126C53.4686 29.328 53.6926 29.264 53.8846 29.136C54.0766 28.9973 54.226 28.8213 54.3326 28.608C54.4393 28.3947 54.4926 28.1707 54.4926 27.936C54.4926 27.584 54.3753 27.28 54.1406 27.024C53.9166 26.768 53.6233 26.64 53.2606 26.64H50.6046V29.328ZM57.9638 34V25.648H59.3718V29.088H60.2998L62.9238 25.648H64.5238L61.4038 29.696L64.8918 34H63.2598L60.2998 30.384H59.3718V34H57.9638ZM65.6206 31.584C65.6206 31.0507 65.77 30.592 66.0686 30.208C66.378 29.8133 66.7993 29.5093 67.3326 29.296C67.866 29.0827 68.4846 28.976 69.1886 28.976C69.562 28.976 69.9566 29.008 70.3726 29.072C70.7886 29.1253 71.1566 29.2107 71.4766 29.328V28.72C71.4766 28.08 71.2846 27.5787 70.9006 27.216C70.5166 26.8427 69.9726 26.656 69.2686 26.656C68.81 26.656 68.3673 26.7413 67.9406 26.912C67.5246 27.072 67.082 27.3067 66.6126 27.616L66.1006 26.624C66.6446 26.2507 67.1886 25.9733 67.7326 25.792C68.2766 25.6 68.842 25.504 69.4286 25.504C70.4953 25.504 71.338 25.8027 71.9566 26.4C72.5753 26.9867 72.8846 27.808 72.8846 28.864V32.4C72.8846 32.5707 72.9166 32.6987 72.9806 32.784C73.0553 32.8587 73.1726 32.9013 73.3326 32.912V34C73.194 34.0213 73.0713 34.0373 72.9646 34.048C72.8686 34.0587 72.7886 34.064 72.7246 34.064C72.394 34.064 72.1433 33.9733 71.9726 33.792C71.8126 33.6107 71.722 33.4187 71.7006 33.216L71.6686 32.688C71.306 33.1573 70.8313 33.52 70.2446 33.776C69.658 34.032 69.0766 34.16 68.5006 34.16C67.946 34.16 67.45 34.048 67.0126 33.824C66.5753 33.5893 66.234 33.28 65.9886 32.896C65.7433 32.5013 65.6206 32.064 65.6206 31.584ZM71.0606 32.176C71.1886 32.0267 71.29 31.8773 71.3646 31.728C71.4393 31.568 71.4766 31.4347 71.4766 31.328V30.288C71.146 30.16 70.7993 30.064 70.4366 30C70.074 29.9253 69.7166 29.888 69.3646 29.888C68.65 29.888 68.0686 30.032 67.6206 30.32C67.1833 30.5973 66.9646 30.9813 66.9646 31.472C66.9646 31.7387 67.034 32 67.1726 32.256C67.322 32.5013 67.5353 32.704 67.8126 32.864C68.1006 33.024 68.4526 33.104 68.8686 33.104C69.306 33.104 69.722 33.0187 70.1166 32.848C70.5113 32.6667 70.826 32.4427 71.0606 32.176ZM82.8309 34.16C82.2015 34.16 81.6309 34.048 81.1189 33.824C80.6069 33.5893 80.1642 33.2747 79.7909 32.88C79.4175 32.4747 79.1295 32.0107 78.9269 31.488C78.7242 30.9653 78.6229 30.416 78.6229 29.84C78.6229 29.2533 78.7242 28.6987 78.9269 28.176C79.1295 27.6533 79.4175 27.1947 79.7909 26.8C80.1642 26.3947 80.6069 26.08 81.1189 25.856C81.6415 25.6213 82.2122 25.504 82.8309 25.504C83.4602 25.504 84.0309 25.6213 84.5429 25.856C85.0549 26.08 85.4975 26.3947 85.8709 26.8C86.2549 27.1947 86.5482 27.6533 86.7509 28.176C86.9535 28.6987 87.0549 29.2533 87.0549 29.84C87.0549 30.416 86.9535 30.9653 86.7509 31.488C86.5482 32.0107 86.2602 32.4747 85.8869 32.88C85.5135 33.2747 85.0655 33.5893 84.5429 33.824C84.0309 34.048 83.4602 34.16 82.8309 34.16ZM80.0629 29.856C80.0629 30.432 80.1855 30.9547 80.4309 31.424C80.6869 31.8933 81.0229 32.2667 81.4389 32.544C81.8549 32.8107 82.3189 32.944 82.8309 32.944C83.3429 32.944 83.8069 32.8053 84.2229 32.528C84.6495 32.2507 84.9855 31.8773 85.2309 31.408C85.4869 30.928 85.6149 30.4 85.6149 29.824C85.6149 29.248 85.4869 28.7253 85.2309 28.256C84.9855 27.7867 84.6495 27.4133 84.2229 27.136C83.8069 26.8587 83.3429 26.72 82.8309 26.72C82.3189 26.72 81.8549 26.864 81.4389 27.152C81.0229 27.4293 80.6869 27.8027 80.4309 28.272C80.1855 28.7413 80.0629 29.2693 80.0629 29.856ZM90.793 34V26.896H87.913V25.648H95.081V26.896H92.201V34H90.793Z" fill="#2A2E33"/>
<path d="M41.7365 58.242C45.0792 58.334 47.7932 59.4227 49.8785 61.508C51.9638 63.5627 53.0065 66.2 53.0065 69.42C53.0065 72.7013 51.9178 75.4 49.7405 77.516C47.5632 79.6013 44.7572 80.644 41.3225 80.644C37.8878 80.644 35.0818 79.6013 32.9045 77.516C30.7578 75.4307 29.6845 72.732 29.6845 69.42C29.6845 66.9667 30.3132 64.8047 31.5705 62.934L41.5985 47.8H48.8665L41.7365 58.242ZM37.5045 73.238C38.5165 74.1887 39.7892 74.664 41.3225 74.664C42.8558 74.664 44.1285 74.1887 45.1405 73.238C46.1832 72.2873 46.7045 71.0147 46.7045 69.42C46.7045 67.856 46.1832 66.5987 45.1405 65.648C44.1285 64.6973 42.8558 64.222 41.3225 64.222C39.7892 64.222 38.5165 64.6973 37.5045 65.648C36.4925 66.568 35.9865 67.8253 35.9865 69.42C35.9865 71.0147 36.4925 72.2873 37.5045 73.238ZM67.5637 60.174C66.0917 61.6153 64.2517 62.336 62.0437 62.336C59.8357 62.336 57.9804 61.6 56.4777 60.128C55.0057 58.656 54.2697 56.862 54.2697 54.746C54.2697 52.63 55.0057 50.836 56.4777 49.364C57.9804 47.892 59.8357 47.156 62.0437 47.156C64.2517 47.156 66.0917 47.892 67.5637 49.364C69.0357 50.8053 69.7717 52.5993 69.7717 54.746C69.7717 56.8927 69.0357 58.702 67.5637 60.174ZM57.5357 75.124L78.5117 51.802L81.3177 53.366L60.2957 76.734L57.5357 75.124ZM59.9277 56.862C60.4797 57.414 61.1697 57.69 61.9977 57.69C62.8257 57.69 63.5157 57.414 64.0677 56.862C64.6197 56.2793 64.8957 55.574 64.8957 54.746C64.8957 53.918 64.6197 53.228 64.0677 52.676C63.5157 52.124 62.8257 51.848 61.9977 51.848C61.1697 51.848 60.4797 52.124 59.9277 52.676C59.4064 53.228 59.1457 53.918 59.1457 54.746C59.1457 55.574 59.4064 56.2793 59.9277 56.862ZM83.1117 78.344C81.6397 79.816 79.7997 80.552 77.5917 80.552C75.3837 80.552 73.5437 79.816 72.0717 78.344C70.5997 76.872 69.8637 75.078 69.8637 72.962C69.8637 70.846 70.5997 69.052 72.0717 67.58C73.5437 66.108 75.3837 65.372 77.5917 65.372C79.7997 65.372 81.6397 66.108 83.1117 67.58C84.5837 69.052 85.3197 70.846 85.3197 72.962C85.3197 75.078 84.5837 76.872 83.1117 78.344ZM75.5217 75.078C76.0737 75.63 76.7637 75.906 77.5917 75.906C78.4197 75.906 79.0944 75.6147 79.6157 75.032C80.1677 74.4493 80.4437 73.7593 80.4437 72.962C80.4437 72.134 80.1677 71.444 79.6157 70.892C79.0944 70.3093 78.4197 70.018 77.5917 70.018C76.7637 70.018 76.0737 70.3093 75.5217 70.892C75.0004 71.444 74.7397 72.134 74.7397 72.962C74.7397 73.79 75.0004 74.4953 75.5217 75.078Z" fill="url(#paint0_linear_322_26175)"/>
<rect x="1.5" y="1" width="113" height="105" rx="29" stroke="url(#paint1_radial_322_26175)" stroke-width="2"/>
<rect x="1.5" y="1" width="113" height="105" rx="29" stroke="url(#paint2_radial_322_26175)" stroke-width="2"/>
</g>
<g filter="url(#filter1_b_322_26175)">
<rect x="125.5" width="181" height="107" rx="30" fill="white" fill-opacity="0.8"/>
<path d="M180.343 28.24C180.343 27.5467 180.46 26.8693 180.695 26.208C180.94 25.536 181.292 24.928 181.751 24.384C182.22 23.8293 182.791 23.392 183.463 23.072C184.135 22.7413 184.897 22.576 185.751 22.576C186.764 22.576 187.633 22.8107 188.359 23.28C189.084 23.7387 189.623 24.3307 189.975 25.056L188.839 25.792C188.615 25.312 188.327 24.9333 187.975 24.656C187.633 24.368 187.26 24.1653 186.855 24.048C186.46 23.9307 186.071 23.872 185.687 23.872C185.057 23.872 184.497 24 184.007 24.256C183.527 24.512 183.121 24.8533 182.791 25.28C182.46 25.7067 182.209 26.1867 182.039 26.72C181.879 27.2427 181.799 27.7707 181.799 28.304C181.799 28.8907 181.895 29.456 182.087 30C182.289 30.544 182.567 31.024 182.919 31.44C183.271 31.856 183.687 32.1867 184.167 32.432C184.647 32.6773 185.169 32.8 185.735 32.8C186.129 32.8 186.535 32.7307 186.951 32.592C187.367 32.4533 187.756 32.24 188.119 31.952C188.481 31.6533 188.769 31.2693 188.983 30.8L190.183 31.456C189.948 32.0213 189.585 32.5013 189.095 32.896C188.604 33.2907 188.055 33.5893 187.447 33.792C186.849 33.9947 186.257 34.096 185.671 34.096C184.892 34.096 184.177 33.9307 183.527 33.6C182.876 33.2587 182.311 32.8107 181.831 32.256C181.361 31.6907 180.993 31.0613 180.727 30.368C180.471 29.664 180.343 28.9547 180.343 28.24ZM192.801 37.504C192.62 37.504 192.433 37.4773 192.241 37.424C192.06 37.3707 191.873 37.2907 191.681 37.184L192.161 36.224C192.257 36.2773 192.348 36.3147 192.433 36.336C192.529 36.368 192.62 36.384 192.705 36.384C192.961 36.384 193.201 36.2613 193.425 36.016C193.66 35.7813 193.878 35.4187 194.081 34.928L194.481 33.92L190.817 25.648H192.305L195.121 32.576L197.665 25.648H199.057L195.153 35.36C194.961 35.84 194.742 36.2347 194.497 36.544C194.252 36.864 193.985 37.104 193.697 37.264C193.409 37.424 193.11 37.504 192.801 37.504ZM200.464 34V25.648H201.92L205.024 31.12L208.144 25.648H209.568V34H208.224V27.68L205.472 32.512H204.576L201.808 27.68V34H200.464ZM211.823 34V25.648H213.279L216.383 31.12L219.503 25.648H220.927V34H219.583V27.68L216.831 32.512H215.935L213.167 27.68V34H211.823ZM222.543 31.584C222.543 31.0507 222.692 30.592 222.991 30.208C223.3 29.8133 223.721 29.5093 224.255 29.296C224.788 29.0827 225.407 28.976 226.111 28.976C226.484 28.976 226.879 29.008 227.295 29.072C227.711 29.1253 228.079 29.2107 228.399 29.328V28.72C228.399 28.08 228.207 27.5787 227.823 27.216C227.439 26.8427 226.895 26.656 226.191 26.656C225.732 26.656 225.289 26.7413 224.863 26.912C224.447 27.072 224.004 27.3067 223.535 27.616L223.023 26.624C223.567 26.2507 224.111 25.9733 224.655 25.792C225.199 25.6 225.764 25.504 226.351 25.504C227.417 25.504 228.26 25.8027 228.879 26.4C229.497 26.9867 229.807 27.808 229.807 28.864V32.4C229.807 32.5707 229.839 32.6987 229.903 32.784C229.977 32.8587 230.095 32.9013 230.255 32.912V34C230.116 34.0213 229.993 34.0373 229.887 34.048C229.791 34.0587 229.711 34.064 229.647 34.064C229.316 34.064 229.065 33.9733 228.895 33.792C228.735 33.6107 228.644 33.4187 228.623 33.216L228.591 32.688C228.228 33.1573 227.753 33.52 227.167 33.776C226.58 34.032 225.999 34.16 225.423 34.16C224.868 34.16 224.372 34.048 223.935 33.824C223.497 33.5893 223.156 33.28 222.911 32.896C222.665 32.5013 222.543 32.064 222.543 31.584ZM227.983 32.176C228.111 32.0267 228.212 31.8773 228.287 31.728C228.361 31.568 228.399 31.4347 228.399 31.328V30.288C228.068 30.16 227.721 30.064 227.359 30C226.996 29.9253 226.639 29.888 226.286 29.888C225.572 29.888 224.991 30.032 224.543 30.32C224.105 30.5973 223.887 30.9813 223.887 31.472C223.887 31.7387 223.956 32 224.095 32.256C224.244 32.5013 224.457 32.704 224.735 32.864C225.023 33.024 225.375 33.104 225.791 33.104C226.228 33.104 226.644 33.0187 227.039 32.848C227.433 32.6667 227.748 32.4427 227.983 32.176ZM239.753 34.16C239.123 34.16 238.553 34.048 238.041 33.824C237.529 33.5893 237.086 33.2747 236.713 32.88C236.339 32.4747 236.051 32.0107 235.849 31.488C235.646 30.9653 235.545 30.416 235.545 29.84C235.545 29.2533 235.646 28.6987 235.849 28.176C236.051 27.6533 236.339 27.1947 236.713 26.8C237.086 26.3947 237.529 26.08 238.041 25.856C238.563 25.6213 239.134 25.504 239.753 25.504C240.382 25.504 240.953 25.6213 241.465 25.856C241.977 26.08 242.419 26.3947 242.793 26.8C243.177 27.1947 243.47 27.6533 243.673 28.176C243.875 28.6987 243.977 29.2533 243.977 29.84C243.977 30.416 243.875 30.9653 243.673 31.488C243.47 32.0107 243.182 32.4747 242.809 32.88C242.435 33.2747 241.987 33.5893 241.465 33.824C240.953 34.048 240.382 34.16 239.753 34.16ZM236.985 29.856C236.985 30.432 237.107 30.9547 237.353 31.424C237.609 31.8933 237.945 32.2667 238.361 32.544C238.777 32.8107 239.241 32.944 239.753 32.944C240.265 32.944 240.729 32.8053 241.145 32.528C241.571 32.2507 241.907 31.8773 242.153 31.408C242.409 30.928 242.537 30.4 242.537 29.824C242.537 29.248 242.409 28.7253 242.153 28.256C241.907 27.7867 241.571 27.4133 241.145 27.136C240.729 26.8587 240.265 26.72 239.753 26.72C239.241 26.72 238.777 26.864 238.361 27.152C237.945 27.4293 237.609 27.8027 237.353 28.272C237.107 28.7413 236.985 29.2693 236.985 29.856ZM247.715 34V26.896H244.835V25.648H252.003V26.896H249.123V34H247.715Z" fill="#2A2E33"/>
<path d="M154.537 47.8H160.057V80H153.709V54.516L147.637 56.218L146.073 50.79L154.537 47.8ZM177.386 80.644C173.369 80.644 170.21 79.126 167.91 76.09C165.641 73.0233 164.506 68.96 164.506 63.9C164.506 58.84 165.641 54.792 167.91 51.756C170.21 48.6893 173.369 47.156 177.386 47.156C181.434 47.156 184.593 48.6893 186.862 51.756C189.131 54.792 190.266 58.84 190.266 63.9C190.266 68.96 189.131 73.0233 186.862 76.09C184.593 79.126 181.434 80.644 177.386 80.644ZM172.51 71.766C173.614 73.5447 175.239 74.434 177.386 74.434C179.533 74.434 181.158 73.5293 182.262 71.72C183.397 69.9107 183.964 67.304 183.964 63.9C183.964 60.4653 183.397 57.8433 182.262 56.034C181.158 54.2247 179.533 53.32 177.386 53.32C175.239 53.32 173.614 54.2247 172.51 56.034C171.406 57.8433 170.854 60.4653 170.854 63.9C170.854 67.3347 171.406 69.9567 172.51 71.766ZM205.901 80.644C201.883 80.644 198.725 79.126 196.425 76.09C194.155 73.0233 193.021 68.96 193.021 63.9C193.021 58.84 194.155 54.792 196.425 51.756C198.725 48.6893 201.883 47.156 205.901 47.156C209.949 47.156 213.107 48.6893 215.377 51.756C217.646 54.792 218.781 58.84 218.781 63.9C218.781 68.96 217.646 73.0233 215.377 76.09C213.107 79.126 209.949 80.644 205.901 80.644ZM201.025 71.766C202.129 73.5447 203.754 74.434 205.901 74.434C208.047 74.434 209.673 73.5293 210.777 71.72C211.911 69.9107 212.479 67.304 212.479 63.9C212.479 60.4653 211.911 57.8433 210.777 56.034C209.673 54.2247 208.047 53.32 205.901 53.32C203.754 53.32 202.129 54.2247 201.025 56.034C199.921 57.8433 199.369 60.4653 199.369 63.9C199.369 67.3347 199.921 69.9567 201.025 71.766ZM248.077 80H240.763L229.263 64.912V80H222.915V47.8H229.263V62.014L240.303 47.8H247.617L235.703 63.44L248.077 80ZM274.86 68.822H269.156V71.352H279.414V75.4H269.156V80H262.854V75.4H259.404V71.352H262.854V68.822H259.404V63.256H262.854V47.8H274.86C277.896 47.8 280.457 48.8427 282.542 50.928C284.658 53.0133 285.716 55.528 285.716 58.472C285.716 61.416 284.673 63.8847 282.588 65.878C280.503 67.8407 277.927 68.822 274.86 68.822ZM269.156 53.734V63.256H274.86C276.148 63.256 277.221 62.796 278.08 61.876C278.969 60.956 279.414 59.8213 279.414 58.472C279.414 57.1227 278.969 56.0033 278.08 55.114C277.221 54.194 276.148 53.734 274.86 53.734H269.156Z" fill="url(#paint3_linear_322_26175)"/>
<rect x="126.5" y="1" width="179" height="105" rx="29" stroke="url(#paint4_radial_322_26175)" stroke-width="2"/>
<rect x="126.5" y="1" width="179" height="105" rx="29" stroke="url(#paint5_radial_322_26175)" stroke-width="2"/>
</g>
<g filter="url(#filter2_b_322_26175)">
<rect x="316.5" width="147" height="107" rx="30" fill="white" fill-opacity="0.8"/>
<path d="M359.71 28.24C359.71 27.5467 359.827 26.8693 360.062 26.208C360.307 25.536 360.659 24.928 361.118 24.384C361.587 23.8293 362.158 23.392 362.83 23.072C363.502 22.7413 364.265 22.576 365.118 22.576C366.131 22.576 367.001 22.8107 367.726 23.28C368.451 23.7387 368.99 24.3307 369.342 25.056L368.206 25.792C367.982 25.312 367.694 24.9333 367.342 24.656C367.001 24.368 366.627 24.1653 366.222 24.048C365.827 23.9307 365.438 23.872 365.054 23.872C364.425 23.872 363.865 24 363.374 24.256C362.894 24.512 362.489 24.8533 362.158 25.28C361.827 25.7067 361.577 26.1867 361.406 26.72C361.246 27.2427 361.166 27.7707 361.166 28.304C361.166 28.8907 361.262 29.456 361.454 30C361.657 30.544 361.934 31.024 362.286 31.44C362.638 31.856 363.054 32.1867 363.534 32.432C364.014 32.6773 364.537 32.8 365.102 32.8C365.497 32.8 365.902 32.7307 366.318 32.592C366.734 32.4533 367.123 32.24 367.486 31.952C367.849 31.6533 368.137 31.2693 368.35 30.8L369.55 31.456C369.315 32.0213 368.953 32.5013 368.462 32.896C367.971 33.2907 367.422 33.5893 366.814 33.792C366.217 33.9947 365.625 34.096 365.038 34.096C364.259 34.096 363.545 33.9307 362.894 33.6C362.243 33.2587 361.678 32.8107 361.198 32.256C360.729 31.6907 360.361 31.0613 360.094 30.368C359.838 29.664 359.71 28.9547 359.71 28.24ZM375.624 34.16C374.942 34.16 374.334 33.9893 373.8 33.648C373.267 33.3067 372.846 32.8747 372.536 32.352V37.408H371.128V25.648H372.376V27.216C372.707 26.704 373.139 26.2933 373.672 25.984C374.206 25.664 374.787 25.504 375.416 25.504C375.992 25.504 376.52 25.6213 377 25.856C377.48 26.0907 377.896 26.4107 378.248 26.816C378.6 27.2213 378.872 27.6853 379.064 28.208C379.267 28.72 379.368 29.2587 379.368 29.824C379.368 30.6133 379.208 31.3387 378.888 32C378.579 32.6613 378.142 33.1893 377.576 33.584C377.011 33.968 376.36 34.16 375.624 34.16ZM375.192 32.944C375.608 32.944 375.982 32.8587 376.312 32.688C376.654 32.5067 376.942 32.272 377.176 31.984C377.422 31.6853 377.608 31.3493 377.736 30.976C377.864 30.6027 377.928 30.2187 377.928 29.824C377.928 29.408 377.854 29.0133 377.704 28.64C377.566 28.2667 377.363 27.936 377.096 27.648C376.84 27.36 376.536 27.136 376.184 26.976C375.843 26.8053 375.47 26.72 375.064 26.72C374.808 26.72 374.542 26.768 374.264 26.864C373.998 26.96 373.742 27.0987 373.496 27.28C373.251 27.4507 373.043 27.648 372.872 27.872C372.702 28.096 372.59 28.336 372.536 28.592V30.976C372.696 31.3387 372.91 31.6693 373.176 31.968C373.443 32.2667 373.752 32.5067 374.104 32.688C374.456 32.8587 374.819 32.944 375.192 32.944ZM384.745 34.16C384.116 34.16 383.545 34.048 383.033 33.824C382.521 33.5893 382.078 33.2747 381.705 32.88C381.332 32.4747 381.044 32.0107 380.841 31.488C380.638 30.9653 380.537 30.416 380.537 29.84C380.537 29.2533 380.638 28.6987 380.841 28.176C381.044 27.6533 381.332 27.1947 381.705 26.8C382.078 26.3947 382.521 26.08 383.033 25.856C383.556 25.6213 384.126 25.504 384.745 25.504C385.374 25.504 385.945 25.6213 386.457 25.856C386.969 26.08 387.412 26.3947 387.785 26.8C388.169 27.1947 388.462 27.6533 388.665 28.176C388.868 28.6987 388.969 29.2533 388.969 29.84C388.969 30.416 388.868 30.9653 388.665 31.488C388.462 32.0107 388.174 32.4747 387.801 32.88C387.428 33.2747 386.98 33.5893 386.457 33.824C385.945 34.048 385.374 34.16 384.745 34.16ZM381.977 29.856C381.977 30.432 382.1 30.9547 382.345 31.424C382.601 31.8933 382.937 32.2667 383.353 32.544C383.769 32.8107 384.233 32.944 384.745 32.944C385.257 32.944 385.721 32.8053 386.137 32.528C386.564 32.2507 386.9 31.8773 387.145 31.408C387.401 30.928 387.529 30.4 387.529 29.824C387.529 29.248 387.401 28.7253 387.145 28.256C386.9 27.7867 386.564 27.4133 386.137 27.136C385.721 26.8587 385.257 26.72 384.745 26.72C384.233 26.72 383.769 26.864 383.353 27.152C382.937 27.4293 382.601 27.8027 382.345 28.272C382.1 28.7413 381.977 29.2693 381.977 29.856ZM390.659 34V25.648H392.067V29.088H392.995L395.619 25.648H397.219L394.099 29.696L397.587 34H395.955L392.995 30.384H392.067V34H390.659ZM402.091 35.968V32.752H402.267C402.501 32.752 402.715 32.6827 402.907 32.544C403.109 32.4053 403.285 32.1653 403.435 31.824C403.595 31.472 403.723 30.992 403.819 30.384C403.915 29.776 403.979 29.0027 404.011 28.064L404.091 25.648H409.771V32.752H410.907V35.968H409.659V34H403.339V35.968H402.091ZM404.235 32.752H408.363V26.896H405.339L405.291 28.192C405.259 29.0987 405.195 29.8613 405.099 30.48C405.013 31.088 404.896 31.5733 404.747 31.936C404.608 32.2987 404.437 32.5707 404.235 32.752ZM416.12 34.16C415.491 34.16 414.92 34.048 414.408 33.824C413.896 33.5893 413.453 33.2747 413.08 32.88C412.707 32.4747 412.419 32.0107 412.216 31.488C412.013 30.9653 411.912 30.416 411.912 29.84C411.912 29.2533 412.013 28.6987 412.216 28.176C412.419 27.6533 412.707 27.1947 413.08 26.8C413.453 26.3947 413.896 26.08 414.408 25.856C414.931 25.6213 415.501 25.504 416.12 25.504C416.749 25.504 417.32 25.6213 417.832 25.856C418.344 26.08 418.787 26.3947 419.16 26.8C419.544 27.1947 419.837 27.6533 420.04 28.176C420.243 28.6987 420.344 29.2533 420.344 29.84C420.344 30.416 420.243 30.9653 420.04 31.488C419.837 32.0107 419.549 32.4747 419.176 32.88C418.803 33.2747 418.355 33.5893 417.832 33.824C417.32 34.048 416.749 34.16 416.12 34.16ZM413.352 29.856C413.352 30.432 413.475 30.9547 413.72 31.424C413.976 31.8933 414.312 32.2667 414.728 32.544C415.144 32.8107 415.608 32.944 416.12 32.944C416.632 32.944 417.096 32.8053 417.512 32.528C417.939 32.2507 418.275 31.8773 418.52 31.408C418.776 30.928 418.904 30.4 418.904 29.824C418.904 29.248 418.776 28.7253 418.52 28.256C418.275 27.7867 417.939 27.4133 417.512 27.136C417.096 26.8587 416.632 26.72 416.12 26.72C415.608 26.72 415.144 26.864 414.728 27.152C414.312 27.4293 413.976 27.8027 413.72 28.272C413.475 28.7413 413.352 29.2693 413.352 29.856Z" fill="#2A2E33"/>
<path d="M352.758 60.864C354.935 61.508 356.698 62.6427 358.048 64.268C359.428 65.8627 360.118 67.7947 360.118 70.064C360.118 73.376 358.998 75.9673 356.76 77.838C354.552 79.7087 351.838 80.644 348.618 80.644C346.103 80.644 343.849 80.0767 341.856 78.942C339.893 77.7767 338.467 76.0747 337.578 73.836L343.006 70.708C343.803 73.192 345.674 74.434 348.618 74.434C350.243 74.434 351.5 74.0507 352.39 73.284C353.31 72.4867 353.77 71.4133 353.77 70.064C353.77 68.7453 353.31 67.6873 352.39 66.89C351.5 66.0927 350.243 65.694 348.618 65.694H347.238L344.8 62.014L351.148 53.734H338.544V47.8H358.784V53.044L352.758 60.864ZM394.614 57V80H388.68V62.704H382.332V70.386C382.332 77.5007 379.097 80.7053 372.626 80V74.434C373.853 74.7407 374.788 74.5413 375.432 73.836C376.076 73.1 376.398 71.8427 376.398 70.064V57H394.614ZM404.545 70.938C405.343 73.8207 407.505 75.262 411.031 75.262C413.301 75.262 415.018 74.4953 416.183 72.962L420.967 75.722C418.698 79.0033 415.355 80.644 410.939 80.644C407.137 80.644 404.085 79.494 401.785 77.194C399.485 74.894 398.335 71.996 398.335 68.5C398.335 65.0347 399.47 62.152 401.739 59.852C404.009 57.5213 406.922 56.356 410.479 56.356C413.853 56.356 416.628 57.5213 418.805 59.852C421.013 62.1827 422.117 65.0653 422.117 68.5C422.117 69.2667 422.041 70.0793 421.887 70.938H404.545ZM404.453 66.338H416.183C415.846 64.774 415.141 63.6087 414.067 62.842C413.025 62.0753 411.829 61.692 410.479 61.692C408.885 61.692 407.566 62.106 406.523 62.934C405.481 63.7313 404.791 64.866 404.453 66.338ZM443.025 57V62.704H435.849V80H429.915V62.704H422.647V57H443.025Z" fill="url(#paint6_linear_322_26175)"/>
<rect x="317.5" y="1" width="145" height="105" rx="29" stroke="url(#paint7_radial_322_26175)" stroke-width="2"/>
<rect x="317.5" y="1" width="145" height="105" rx="29" stroke="url(#paint8_radial_322_26175)" stroke-width="2"/>
</g>
<defs>
<filter id="filter0_b_322_26175" x="-19.5" y="-20" width="155" height="147" filterUnits="userSpaceOnUse" color-interpolation-filters="sRGB">
<feFlood flood-opacity="0" result="BackgroundImageFix"/>
<feGaussianBlur in="BackgroundImageFix" stdDeviation="10"/>
<feComposite in2="SourceAlpha" operator="in" result="effect1_backgroundBlur_322_26175"/>
<feBlend mode="normal" in="SourceGraphic" in2="effect1_backgroundBlur_322_26175" result="shape"/>
</filter>
<filter id="filter1_b_322_26175" x="105.5" y="-20" width="221" height="147" filterUnits="userSpaceOnUse" color-interpolation-filters="sRGB">
<feFlood flood-opacity="0" result="BackgroundImageFix"/>
<feGaussianBlur in="BackgroundImageFix" stdDeviation="10"/>
<feComposite in2="SourceAlpha" operator="in" result="effect1_backgroundBlur_322_26175"/>
<feBlend mode="normal" in="SourceGraphic" in2="effect1_backgroundBlur_322_26175" result="shape"/>
</filter>
<filter id="filter2_b_322_26175" x="296.5" y="-20" width="187" height="147" filterUnits="userSpaceOnUse" color-interpolation-filters="sRGB">
<feFlood flood-opacity="0" result="BackgroundImageFix"/>
<feGaussianBlur in="BackgroundImageFix" stdDeviation="10"/>
<feComposite in2="SourceAlpha" operator="in" result="effect1_backgroundBlur_322_26175"/>
<feBlend mode="normal" in="SourceGraphic" in2="effect1_backgroundBlur_322_26175" result="shape"/>
</filter>
<linearGradient id="paint0_linear_322_26175" x1="32.6429" y1="20" x2="104.516" y2="35.5164" gradientUnits="userSpaceOnUse">
<stop stop-color="#A259FF"/>
<stop offset="1" stop-color="#FF6250"/>
</linearGradient>
<radialGradient id="paint1_radial_322_26175" cx="0" cy="0" r="1" gradientUnits="userSpaceOnUse" gradientTransform="translate(95.5962 86.1095) rotate(76.6636) scale(116.249 52.6585)">
<stop stop-color="white"/>
<stop offset="1" stop-color="white" stop-opacity="0"/>
</radialGradient>
<radialGradient id="paint2_radial_322_26175" cx="0" cy="0" r="1" gradientUnits="userSpaceOnUse" gradientTransform="translate(12.5252 23.4381) rotate(-95.7593) scale(119.833 36.6288)">
<stop stop-color="white"/>
<stop offset="1" stop-color="white" stop-opacity="0"/>
</radialGradient>
<linearGradient id="paint3_linear_322_26175" x1="168.329" y1="20" x2="289.747" y2="69.2795" gradientUnits="userSpaceOnUse">
<stop stop-color="#A259FF"/>
<stop offset="1" stop-color="#FF6250"/>
</linearGradient>
<radialGradient id="paint4_radial_322_26175" cx="0" cy="0" r="1" gradientUnits="userSpaceOnUse" gradientTransform="translate(275.173 86.1095) rotate(69.5388) scale(120.731 79.8031)">
<stop stop-color="white"/>
<stop offset="1" stop-color="white" stop-opacity="0"/>
</radialGradient>
<radialGradient id="paint5_radial_322_26175" cx="0" cy="0" r="1" gradientUnits="userSpaceOnUse" gradientTransform="translate(144.427 23.4381) rotate(-99.02) scale(120.721 57.2265)">
<stop stop-color="white"/>
<stop offset="1" stop-color="white" stop-opacity="0"/>
</radialGradient>
<linearGradient id="paint6_linear_322_26175" x1="353.824" y1="20" x2="451.844" y2="50.1898" gradientUnits="userSpaceOnUse">
<stop stop-color="#A259FF"/>
<stop offset="1" stop-color="#FF6250"/>
</linearGradient>
<radialGradient id="paint7_radial_322_26175" cx="0" cy="0" r="1" gradientUnits="userSpaceOnUse" gradientTransform="translate(438.058 86.1095) rotate(73.1419) scale(118.194 66.204)">
<stop stop-color="white"/>
<stop offset="1" stop-color="white" stop-opacity="0"/>
</radialGradient>
<radialGradient id="paint8_radial_322_26175" cx="0" cy="0" r="1" gradientUnits="userSpaceOnUse" gradientTransform="translate(331.871 23.4381) rotate(-97.3463) scale(120.215 46.6725)">
<stop stop-color="white"/>
<stop offset="1" stop-color="white" stop-opacity="0"/>
</radialGradient>
</defs>
</svg>
