<svg width="504" height="107" viewBox="0 0 504 107" fill="none" xmlns="http://www.w3.org/2000/svg">
<g filter="url(#filter0_b_322_26162)">
<rect x="0.500137" y="-0.000488281" width="133" height="107" rx="30" fill="white" fill-opacity="0.8"/>
<path d="M30.2648 28.2395C30.2648 27.5462 30.3821 26.8688 30.6168 26.2075C30.8621 25.5355 31.2141 24.9275 31.6728 24.3835C32.1421 23.8288 32.7128 23.3915 33.3848 23.0715C34.0568 22.7408 34.8194 22.5755 35.6728 22.5755C36.6861 22.5755 37.5554 22.8102 38.2808 23.2795C39.0061 23.7382 39.5448 24.3302 39.8968 25.0555L38.7608 25.7915C38.5368 25.3115 38.2488 24.9328 37.8968 24.6555C37.5554 24.3675 37.1821 24.1648 36.7768 24.0475C36.3821 23.9302 35.9928 23.8715 35.6088 23.8715C34.9794 23.8715 34.4194 23.9995 33.9288 24.2555C33.4488 24.5115 33.0434 24.8528 32.7128 25.2795C32.3821 25.7062 32.1314 26.1862 31.9608 26.7195C31.8008 27.2422 31.7208 27.7702 31.7208 28.3035C31.7208 28.8902 31.8168 29.4555 32.0088 29.9995C32.2114 30.5435 32.4888 31.0235 32.8408 31.4395C33.1928 31.8555 33.6088 32.1862 34.0888 32.4315C34.5688 32.6768 35.0914 32.7995 35.6568 32.7995C36.0514 32.7995 36.4568 32.7302 36.8728 32.5915C37.2888 32.4528 37.6781 32.2395 38.0408 31.9515C38.4034 31.6528 38.6914 31.2688 38.9048 30.7995L40.1048 31.4555C39.8701 32.0208 39.5074 32.5008 39.0168 32.8955C38.5261 33.2902 37.9768 33.5888 37.3688 33.7915C36.7714 33.9942 36.1794 34.0955 35.5928 34.0955C34.8141 34.0955 34.0994 33.9302 33.4488 33.5995C32.7981 33.2582 32.2328 32.8102 31.7528 32.2555C31.2834 31.6902 30.9154 31.0608 30.6488 30.3675C30.3928 29.6635 30.2648 28.9542 30.2648 28.2395ZM43.715 33.9995V26.8955H40.835V25.6475H48.003V26.8955H45.123V33.9995H43.715ZM48.7614 31.5835C48.7614 31.0502 48.9107 30.5915 49.2094 30.2075C49.5187 29.8128 49.9401 29.5088 50.4734 29.2955C51.0067 29.0822 51.6254 28.9755 52.3294 28.9755C52.7027 28.9755 53.0974 29.0075 53.5134 29.0715C53.9294 29.1248 54.2974 29.2102 54.6174 29.3275V28.7195C54.6174 28.0795 54.4254 27.5782 54.0414 27.2155C53.6574 26.8422 53.1134 26.6555 52.4094 26.6555C51.9507 26.6555 51.5081 26.7408 51.0814 26.9115C50.6654 27.0715 50.2227 27.3062 49.7534 27.6155L49.2414 26.6235C49.7854 26.2502 50.3294 25.9728 50.8734 25.7915C51.4174 25.5995 51.9827 25.5035 52.5694 25.5035C53.6361 25.5035 54.4787 25.8022 55.0974 26.3995C55.7161 26.9862 56.0254 27.8075 56.0254 28.8635V32.3995C56.0254 32.5702 56.0574 32.6982 56.1214 32.7835C56.1961 32.8582 56.3134 32.9008 56.4734 32.9115V33.9995C56.3347 34.0208 56.2121 34.0368 56.1054 34.0475C56.0094 34.0582 55.9294 34.0635 55.8654 34.0635C55.5347 34.0635 55.2841 33.9728 55.1134 33.7915C54.9534 33.6102 54.8627 33.4182 54.8414 33.2155L54.8094 32.6875C54.4467 33.1568 53.9721 33.5195 53.3854 33.7755C52.7987 34.0315 52.2174 34.1595 51.6414 34.1595C51.0867 34.1595 50.5907 34.0475 50.1534 33.8235C49.7161 33.5888 49.3747 33.2795 49.1294 32.8955C48.8841 32.5008 48.7614 32.0635 48.7614 31.5835ZM54.2014 32.1755C54.3294 32.0262 54.4307 31.8768 54.5054 31.7275C54.5801 31.5675 54.6174 31.4342 54.6174 31.3275V30.2875C54.2867 30.1595 53.9401 30.0635 53.5774 29.9995C53.2147 29.9248 52.8574 29.8875 52.5054 29.8875C51.7907 29.8875 51.2094 30.0315 50.7614 30.3195C50.3241 30.5968 50.1054 30.9808 50.1054 31.4715C50.1054 31.7382 50.1747 31.9995 50.3134 32.2555C50.4627 32.5008 50.6761 32.7035 50.9534 32.8635C51.2414 33.0235 51.5934 33.1035 52.0094 33.1035C52.4467 33.1035 52.8627 33.0182 53.2574 32.8475C53.6521 32.6662 53.9667 32.4422 54.2014 32.1755ZM58.2608 33.9995V25.6475H62.5808C63.0821 25.6475 63.4981 25.7488 63.8288 25.9515C64.1594 26.1435 64.4048 26.3942 64.5648 26.7035C64.7354 27.0128 64.8208 27.3435 64.8208 27.6955C64.8208 28.1435 64.7141 28.5488 64.5008 28.9115C64.2874 29.2635 63.9781 29.5302 63.5728 29.7115C64.0528 29.8502 64.4421 30.1008 64.7408 30.4635C65.0394 30.8155 65.1888 31.2528 65.1888 31.7755C65.1888 32.2448 65.0768 32.6448 64.8528 32.9755C64.6288 33.3062 64.3141 33.5622 63.9088 33.7435C63.5034 33.9142 63.0341 33.9995 62.5008 33.9995H58.2608ZM59.6048 33.0075H62.4688C62.7248 33.0075 62.9541 32.9435 63.1568 32.8155C63.3701 32.6875 63.5354 32.5168 63.6528 32.3035C63.7701 32.0902 63.8288 31.8662 63.8288 31.6315C63.8288 31.3755 63.7701 31.1462 63.6528 30.9435C63.5461 30.7302 63.3914 30.5648 63.1888 30.4475C62.9968 30.3195 62.7728 30.2555 62.5168 30.2555H59.6048V33.0075ZM59.6048 29.3275H62.2128C62.4688 29.3275 62.6928 29.2635 62.8848 29.1355C63.0768 28.9968 63.2261 28.8208 63.3328 28.6075C63.4394 28.3942 63.4928 28.1702 63.4928 27.9355C63.4928 27.5835 63.3754 27.2795 63.1408 27.0235C62.9168 26.7675 62.6234 26.6395 62.2608 26.6395H59.6048V29.3275ZM66.9639 33.9995V25.6475H68.3719V29.0875H69.2999L71.9239 25.6475H73.5239L70.4039 29.6955L73.8919 33.9995H72.2599L69.2999 30.3835H68.3719V33.9995H66.9639ZM74.6208 31.5835C74.6208 31.0502 74.7701 30.5915 75.0688 30.2075C75.3781 29.8128 75.7994 29.5088 76.3328 29.2955C76.8661 29.0822 77.4848 28.9755 78.1888 28.9755C78.5621 28.9755 78.9568 29.0075 79.3728 29.0715C79.7888 29.1248 80.1568 29.2102 80.4768 29.3275V28.7195C80.4768 28.0795 80.2848 27.5782 79.9008 27.2155C79.5168 26.8422 78.9728 26.6555 78.2688 26.6555C77.8101 26.6555 77.3674 26.7408 76.9408 26.9115C76.5248 27.0715 76.0821 27.3062 75.6128 27.6155L75.1008 26.6235C75.6448 26.2502 76.1888 25.9728 76.7328 25.7915C77.2768 25.5995 77.8421 25.5035 78.4288 25.5035C79.4954 25.5035 80.3381 25.8022 80.9568 26.3995C81.5754 26.9862 81.8848 27.8075 81.8848 28.8635V32.3995C81.8848 32.5702 81.9168 32.6982 81.9808 32.7835C82.0554 32.8582 82.1728 32.9008 82.3328 32.9115V33.9995C82.1941 34.0208 82.0714 34.0368 81.9648 34.0475C81.8688 34.0582 81.7888 34.0635 81.7248 34.0635C81.3941 34.0635 81.1434 33.9728 80.9728 33.7915C80.8128 33.6102 80.7221 33.4182 80.7008 33.2155L80.6688 32.6875C80.3061 33.1568 79.8314 33.5195 79.2448 33.7755C78.6581 34.0315 78.0768 34.1595 77.5008 34.1595C76.9461 34.1595 76.4501 34.0475 76.0128 33.8235C75.5754 33.5888 75.2341 33.2795 74.9888 32.8955C74.7434 32.5008 74.6208 32.0635 74.6208 31.5835ZM80.0608 32.1755C80.1888 32.0262 80.2901 31.8768 80.3648 31.7275C80.4394 31.5675 80.4768 31.4342 80.4768 31.3275V30.2875C80.1461 30.1595 79.7994 30.0635 79.4368 29.9995C79.0741 29.9248 78.7168 29.8875 78.3648 29.8875C77.6501 29.8875 77.0688 30.0315 76.6208 30.3195C76.1834 30.5968 75.9648 30.9808 75.9648 31.4715C75.9648 31.7382 76.0341 31.9995 76.1728 32.2555C76.3221 32.5008 76.5354 32.7035 76.8128 32.8635C77.1008 33.0235 77.4528 33.1035 77.8688 33.1035C78.3061 33.1035 78.7221 33.0182 79.1168 32.8475C79.5114 32.6662 79.8261 32.4422 80.0608 32.1755ZM91.831 34.1595C91.2017 34.1595 90.631 34.0475 90.119 33.8235C89.607 33.5888 89.1643 33.2742 88.791 32.8795C88.4177 32.4742 88.1297 32.0102 87.927 31.4875C87.7243 30.9648 87.623 30.4155 87.623 29.8395C87.623 29.2528 87.7243 28.6982 87.927 28.1755C88.1297 27.6528 88.4177 27.1942 88.791 26.7995C89.1643 26.3942 89.607 26.0795 90.119 25.8555C90.6417 25.6208 91.2123 25.5035 91.831 25.5035C92.4603 25.5035 93.031 25.6208 93.543 25.8555C94.055 26.0795 94.4977 26.3942 94.871 26.7995C95.255 27.1942 95.5483 27.6528 95.751 28.1755C95.9537 28.6982 96.055 29.2528 96.055 29.8395C96.055 30.4155 95.9537 30.9648 95.751 31.4875C95.5483 32.0102 95.2603 32.4742 94.887 32.8795C94.5137 33.2742 94.0657 33.5888 93.543 33.8235C93.031 34.0475 92.4603 34.1595 91.831 34.1595ZM89.063 29.8555C89.063 30.4315 89.1857 30.9542 89.431 31.4235C89.687 31.8928 90.023 32.2662 90.439 32.5435C90.855 32.8102 91.319 32.9435 91.831 32.9435C92.343 32.9435 92.807 32.8048 93.223 32.5275C93.6497 32.2502 93.9857 31.8768 94.231 31.4075C94.487 30.9275 94.615 30.3995 94.615 29.8235C94.615 29.2475 94.487 28.7248 94.231 28.2555C93.9857 27.7862 93.6497 27.4128 93.223 27.1355C92.807 26.8582 92.343 26.7195 91.831 26.7195C91.319 26.7195 90.855 26.8635 90.439 27.1515C90.023 27.4288 89.687 27.8022 89.431 28.2715C89.1857 28.7408 89.063 29.2688 89.063 29.8555ZM99.7931 33.9995V26.8955H96.9131V25.6475H104.081V26.8955H101.201V33.9995H99.7931Z" fill="#2A2E33"/>
<path d="M33.5819 59.5295C36.6792 59.5295 39.2859 60.4648 41.4019 62.3355C43.5179 64.1755 44.5759 66.7515 44.5759 70.0635C44.5759 73.3755 43.4565 75.9668 41.2179 77.8375C39.0099 79.7082 36.2959 80.6435 33.0759 80.6435C30.4692 80.6435 28.1692 80.0608 26.1759 78.8955C24.1825 77.7302 22.7412 76.0128 21.8519 73.7435L27.2799 70.5695C28.0772 73.1455 30.0092 74.4335 33.0759 74.4335C34.7012 74.4335 35.9585 74.0502 36.8479 73.2835C37.7679 72.4862 38.2279 71.4128 38.2279 70.0635C38.2279 68.7448 37.7832 67.6868 36.8939 66.8895C36.0045 66.0922 34.7932 65.6935 33.2599 65.6935H23.5079L24.7959 47.7995H43.0579V53.7335H30.6839L30.2699 59.5295H33.5819ZM53.4686 79.4475C52.7019 80.2142 51.7819 80.5975 50.7086 80.5975C49.6353 80.5975 48.7153 80.2142 47.9486 79.4475C47.1819 78.6808 46.7986 77.7608 46.7986 76.6875C46.7986 75.6142 47.1819 74.6942 47.9486 73.9275C48.7153 73.1608 49.6353 72.7775 50.7086 72.7775C51.7819 72.7775 52.7019 73.1608 53.4686 73.9275C54.2353 74.6942 54.6186 75.6142 54.6186 76.6875C54.6186 77.7608 54.2353 78.6808 53.4686 79.4475ZM77.5388 58.3335C77.5388 60.8175 76.8948 62.9948 75.6068 64.8655H75.6528L65.6248 79.9995H58.3568L65.5328 69.5115C62.1901 69.4502 59.4608 68.3922 57.3448 66.3375C55.2595 64.2522 54.2168 61.5842 54.2168 58.3335C54.2168 55.0522 55.2901 52.3688 57.4368 50.2835C59.6141 48.1982 62.4201 47.1555 65.8548 47.1555C69.3201 47.1555 72.1261 48.1982 74.2728 50.2835C76.4501 52.3382 77.5388 55.0215 77.5388 58.3335ZM60.5188 58.3335C60.5188 59.9282 61.0248 61.2008 62.0368 62.1515C63.0795 63.1022 64.3521 63.5775 65.8548 63.5775C67.4188 63.5775 68.7068 63.1022 69.7188 62.1515C70.7308 61.2008 71.2368 59.9282 71.2368 58.3335C71.2368 56.7388 70.7308 55.4815 69.7188 54.5615C68.7068 53.6108 67.4188 53.1355 65.8548 53.1355C64.3521 53.1355 63.0795 53.6108 62.0368 54.5615C61.0248 55.5122 60.5188 56.7695 60.5188 58.3335ZM93.4886 60.1735C92.0166 61.6148 90.1766 62.3355 87.9686 62.3355C85.7606 62.3355 83.9053 61.5995 82.4026 60.1275C80.9306 58.6555 80.1946 56.8615 80.1946 54.7455C80.1946 52.6295 80.9306 50.8355 82.4026 49.3635C83.9053 47.8915 85.7606 47.1555 87.9686 47.1555C90.1766 47.1555 92.0166 47.8915 93.4886 49.3635C94.9606 50.8048 95.6966 52.5988 95.6966 54.7455C95.6966 56.8922 94.9606 58.7015 93.4886 60.1735ZM83.4606 75.1235L104.437 51.8015L107.243 53.3655L86.2206 76.7335L83.4606 75.1235ZM85.8526 56.8615C86.4046 57.4135 87.0946 57.6895 87.9226 57.6895C88.7506 57.6895 89.4406 57.4135 89.9926 56.8615C90.5446 56.2788 90.8206 55.5735 90.8206 54.7455C90.8206 53.9175 90.5446 53.2275 89.9926 52.6755C89.4406 52.1235 88.7506 51.8475 87.9226 51.8475C87.0946 51.8475 86.4046 52.1235 85.8526 52.6755C85.3313 53.2275 85.0706 53.9175 85.0706 54.7455C85.0706 55.5735 85.3313 56.2788 85.8526 56.8615ZM109.037 78.3435C107.565 79.8155 105.725 80.5515 103.517 80.5515C101.309 80.5515 99.4686 79.8155 97.9966 78.3435C96.5246 76.8715 95.7886 75.0775 95.7886 72.9615C95.7886 70.8455 96.5246 69.0515 97.9966 67.5795C99.4686 66.1075 101.309 65.3715 103.517 65.3715C105.725 65.3715 107.565 66.1075 109.037 67.5795C110.509 69.0515 111.245 70.8455 111.245 72.9615C111.245 75.0775 110.509 76.8715 109.037 78.3435ZM101.447 75.0775C101.999 75.6295 102.689 75.9055 103.517 75.9055C104.345 75.9055 105.019 75.6142 105.541 75.0315C106.093 74.4488 106.369 73.7588 106.369 72.9615C106.369 72.1335 106.093 71.4435 105.541 70.8915C105.019 70.3088 104.345 70.0175 103.517 70.0175C102.689 70.0175 101.999 70.3088 101.447 70.8915C100.925 71.4435 100.665 72.1335 100.665 72.9615C100.665 73.7895 100.925 74.4948 101.447 75.0775Z" fill="url(#paint0_linear_322_26162)"/>
<rect x="1.50014" y="0.999512" width="131" height="105" rx="29" stroke="url(#paint1_radial_322_26162)" stroke-width="2"/>
<rect x="1.50014" y="0.999512" width="131" height="105" rx="29" stroke="url(#paint2_radial_322_26162)" stroke-width="2"/>
</g>
<g filter="url(#filter1_b_322_26162)">
<rect x="143.5" y="-0.000488281" width="181" height="107" rx="30" fill="white" fill-opacity="0.8"/>
<path d="M198.343 28.2395C198.343 27.5462 198.46 26.8688 198.695 26.2075C198.94 25.5355 199.292 24.9275 199.751 24.3835C200.22 23.8288 200.791 23.3915 201.463 23.0715C202.135 22.7408 202.898 22.5755 203.751 22.5755C204.764 22.5755 205.634 22.8102 206.359 23.2795C207.084 23.7382 207.623 24.3302 207.975 25.0555L206.839 25.7915C206.615 25.3115 206.327 24.9328 205.975 24.6555C205.634 24.3675 205.26 24.1648 204.855 24.0475C204.46 23.9302 204.071 23.8715 203.687 23.8715C203.058 23.8715 202.498 23.9995 202.007 24.2555C201.527 24.5115 201.122 24.8528 200.791 25.2795C200.46 25.7062 200.21 26.1862 200.039 26.7195C199.879 27.2422 199.799 27.7702 199.799 28.3035C199.799 28.8902 199.895 29.4555 200.087 29.9995C200.29 30.5435 200.567 31.0235 200.919 31.4395C201.271 31.8555 201.687 32.1862 202.167 32.4315C202.647 32.6768 203.17 32.7995 203.735 32.7995C204.13 32.7995 204.535 32.7302 204.951 32.5915C205.367 32.4528 205.756 32.2395 206.119 31.9515C206.482 31.6528 206.77 31.2688 206.983 30.7995L208.183 31.4555C207.948 32.0208 207.586 32.5008 207.095 32.8955C206.604 33.2902 206.055 33.5888 205.447 33.7915C204.85 33.9942 204.258 34.0955 203.671 34.0955C202.892 34.0955 202.178 33.9302 201.527 33.5995C200.876 33.2582 200.311 32.8102 199.831 32.2555C199.362 31.6902 198.994 31.0608 198.727 30.3675C198.471 29.6635 198.343 28.9542 198.343 28.2395ZM210.801 37.5035C210.62 37.5035 210.433 37.4768 210.241 37.4235C210.06 37.3702 209.873 37.2902 209.681 37.1835L210.161 36.2235C210.257 36.2768 210.348 36.3142 210.433 36.3355C210.529 36.3675 210.62 36.3835 210.705 36.3835C210.961 36.3835 211.201 36.2608 211.425 36.0155C211.66 35.7808 211.878 35.4182 212.081 34.9275L212.481 33.9195L208.817 25.6475H210.305L213.121 32.5755L215.665 25.6475H217.057L213.153 35.3595C212.961 35.8395 212.742 36.2342 212.497 36.5435C212.252 36.8635 211.985 37.1035 211.697 37.2635C211.409 37.4235 211.11 37.5035 210.801 37.5035ZM218.464 33.9995V25.6475H219.92L223.024 31.1195L226.144 25.6475H227.568V33.9995H226.224V27.6795L223.472 32.5115H222.576L219.808 27.6795V33.9995H218.464ZM229.823 33.9995V25.6475H231.279L234.383 31.1195L237.503 25.6475H238.927V33.9995H237.583V27.6795L234.831 32.5115H233.935L231.167 27.6795V33.9995H229.823ZM240.543 31.5835C240.543 31.0502 240.692 30.5915 240.991 30.2075C241.3 29.8128 241.721 29.5088 242.255 29.2955C242.788 29.0822 243.407 28.9755 244.111 28.9755C244.484 28.9755 244.879 29.0075 245.295 29.0715C245.711 29.1248 246.079 29.2102 246.399 29.3275V28.7195C246.399 28.0795 246.207 27.5782 245.823 27.2155C245.439 26.8422 244.895 26.6555 244.191 26.6555C243.732 26.6555 243.289 26.7408 242.863 26.9115C242.447 27.0715 242.004 27.3062 241.535 27.6155L241.023 26.6235C241.567 26.2502 242.111 25.9728 242.655 25.7915C243.199 25.5995 243.764 25.5035 244.351 25.5035C245.417 25.5035 246.26 25.8022 246.879 26.3995C247.497 26.9862 247.807 27.8075 247.807 28.8635V32.3995C247.807 32.5702 247.839 32.6982 247.903 32.7835C247.977 32.8582 248.095 32.9008 248.255 32.9115V33.9995C248.116 34.0208 247.993 34.0368 247.887 34.0475C247.791 34.0582 247.711 34.0635 247.647 34.0635C247.316 34.0635 247.065 33.9728 246.895 33.7915C246.735 33.6102 246.644 33.4182 246.623 33.2155L246.591 32.6875C246.228 33.1568 245.753 33.5195 245.167 33.7755C244.58 34.0315 243.999 34.1595 243.423 34.1595C242.868 34.1595 242.372 34.0475 241.935 33.8235C241.497 33.5888 241.156 33.2795 240.911 32.8955C240.665 32.5008 240.543 32.0635 240.543 31.5835ZM245.983 32.1755C246.111 32.0262 246.212 31.8768 246.287 31.7275C246.361 31.5675 246.399 31.4342 246.399 31.3275V30.2875C246.068 30.1595 245.721 30.0635 245.359 29.9995C244.996 29.9248 244.639 29.8875 244.287 29.8875C243.572 29.8875 242.991 30.0315 242.543 30.3195C242.105 30.5968 241.887 30.9808 241.887 31.4715C241.887 31.7382 241.956 31.9995 242.095 32.2555C242.244 32.5008 242.457 32.7035 242.735 32.8635C243.023 33.0235 243.375 33.1035 243.791 33.1035C244.228 33.1035 244.644 33.0182 245.039 32.8475C245.433 32.6662 245.748 32.4422 245.983 32.1755ZM257.753 34.1595C257.124 34.1595 256.553 34.0475 256.041 33.8235C255.529 33.5888 255.086 33.2742 254.713 32.8795C254.34 32.4742 254.052 32.0102 253.849 31.4875C253.646 30.9648 253.545 30.4155 253.545 29.8395C253.545 29.2528 253.646 28.6982 253.849 28.1755C254.052 27.6528 254.34 27.1942 254.713 26.7995C255.086 26.3942 255.529 26.0795 256.041 25.8555C256.564 25.6208 257.134 25.5035 257.753 25.5035C258.382 25.5035 258.953 25.6208 259.465 25.8555C259.977 26.0795 260.42 26.3942 260.793 26.7995C261.177 27.1942 261.47 27.6528 261.673 28.1755C261.876 28.6982 261.977 29.2528 261.977 29.8395C261.977 30.4155 261.876 30.9648 261.673 31.4875C261.47 32.0102 261.182 32.4742 260.809 32.8795C260.436 33.2742 259.988 33.5888 259.465 33.8235C258.953 34.0475 258.382 34.1595 257.753 34.1595ZM254.985 29.8555C254.985 30.4315 255.108 30.9542 255.353 31.4235C255.609 31.8928 255.945 32.2662 256.361 32.5435C256.777 32.8102 257.241 32.9435 257.753 32.9435C258.265 32.9435 258.729 32.8048 259.145 32.5275C259.572 32.2502 259.908 31.8768 260.153 31.4075C260.409 30.9275 260.537 30.3995 260.537 29.8235C260.537 29.2475 260.409 28.7248 260.153 28.2555C259.908 27.7862 259.572 27.4128 259.145 27.1355C258.729 26.8582 258.265 26.7195 257.753 26.7195C257.241 26.7195 256.777 26.8635 256.361 27.1515C255.945 27.4288 255.609 27.8022 255.353 28.2715C255.108 28.7408 254.985 29.2688 254.985 29.8555ZM265.715 33.9995V26.8955H262.835V25.6475H270.003V26.8955H267.123V33.9995H265.715Z" fill="#2A2E33"/>
<path d="M172.537 47.7995H178.057V79.9995H171.709V54.5155L165.637 56.2175L164.073 50.7895L172.537 47.7995ZM195.386 80.6435C191.369 80.6435 188.21 79.1255 185.91 76.0895C183.641 73.0228 182.506 68.9595 182.506 63.8995C182.506 58.8395 183.641 54.7915 185.91 51.7555C188.21 48.6888 191.369 47.1555 195.386 47.1555C199.434 47.1555 202.593 48.6888 204.862 51.7555C207.132 54.7915 208.266 58.8395 208.266 63.8995C208.266 68.9595 207.132 73.0228 204.862 76.0895C202.593 79.1255 199.434 80.6435 195.386 80.6435ZM190.51 71.7655C191.614 73.5442 193.24 74.4335 195.386 74.4335C197.533 74.4335 199.158 73.5288 200.262 71.7195C201.397 69.9102 201.964 67.3035 201.964 63.8995C201.964 60.4648 201.397 57.8428 200.262 56.0335C199.158 54.2242 197.533 53.3195 195.386 53.3195C193.24 53.3195 191.614 54.2242 190.51 56.0335C189.406 57.8428 188.854 60.4648 188.854 63.8995C188.854 67.3342 189.406 69.9562 190.51 71.7655ZM223.901 80.6435C219.883 80.6435 216.725 79.1255 214.425 76.0895C212.155 73.0228 211.021 68.9595 211.021 63.8995C211.021 58.8395 212.155 54.7915 214.425 51.7555C216.725 48.6888 219.883 47.1555 223.901 47.1555C227.949 47.1555 231.107 48.6888 233.377 51.7555C235.646 54.7915 236.781 58.8395 236.781 63.8995C236.781 68.9595 235.646 73.0228 233.377 76.0895C231.107 79.1255 227.949 80.6435 223.901 80.6435ZM219.025 71.7655C220.129 73.5442 221.754 74.4335 223.901 74.4335C226.047 74.4335 227.673 73.5288 228.777 71.7195C229.911 69.9102 230.479 67.3035 230.479 63.8995C230.479 60.4648 229.911 57.8428 228.777 56.0335C227.673 54.2242 226.047 53.3195 223.901 53.3195C221.754 53.3195 220.129 54.2242 219.025 56.0335C217.921 57.8428 217.369 60.4648 217.369 63.8995C217.369 67.3342 217.921 69.9562 219.025 71.7655ZM266.077 79.9995H258.763L247.263 64.9115V79.9995H240.915V47.7995H247.263V62.0135L258.303 47.7995H265.617L253.703 63.4395L266.077 79.9995ZM292.86 68.8215H287.156V71.3515H297.414V75.3995H287.156V79.9995H280.854V75.3995H277.404V71.3515H280.854V68.8215H277.404V63.2555H280.854V47.7995H292.86C295.896 47.7995 298.457 48.8422 300.542 50.9275C302.658 53.0128 303.716 55.5275 303.716 58.4715C303.716 61.4155 302.674 63.8842 300.588 65.8775C298.503 67.8402 295.927 68.8215 292.86 68.8215ZM287.156 53.7335V63.2555H292.86C294.148 63.2555 295.222 62.7955 296.08 61.8755C296.97 60.9555 297.414 59.8208 297.414 58.4715C297.414 57.1222 296.97 56.0028 296.08 55.1135C295.222 54.1935 294.148 53.7335 292.86 53.7335H287.156Z" fill="url(#paint3_linear_322_26162)"/>
<rect x="144.5" y="0.999512" width="179" height="105" rx="29" stroke="url(#paint4_radial_322_26162)" stroke-width="2"/>
<rect x="144.5" y="0.999512" width="179" height="105" rx="29" stroke="url(#paint5_radial_322_26162)" stroke-width="2"/>
</g>
<g filter="url(#filter2_b_322_26162)">
<rect x="334.5" y="-0.000488281" width="169" height="107" rx="30" fill="white" fill-opacity="0.8"/>
<path d="M388.71 28.2395C388.71 27.5462 388.827 26.8688 389.062 26.2075C389.307 25.5355 389.659 24.9275 390.118 24.3835C390.587 23.8288 391.158 23.3915 391.83 23.0715C392.502 22.7408 393.265 22.5755 394.118 22.5755C395.131 22.5755 396.001 22.8102 396.726 23.2795C397.451 23.7382 397.99 24.3302 398.342 25.0555L397.206 25.7915C396.982 25.3115 396.694 24.9328 396.342 24.6555C396.001 24.3675 395.627 24.1648 395.222 24.0475C394.827 23.9302 394.438 23.8715 394.054 23.8715C393.425 23.8715 392.865 23.9995 392.374 24.2555C391.894 24.5115 391.489 24.8528 391.158 25.2795C390.827 25.7062 390.577 26.1862 390.406 26.7195C390.246 27.2422 390.166 27.7702 390.166 28.3035C390.166 28.8902 390.262 29.4555 390.454 29.9995C390.657 30.5435 390.934 31.0235 391.286 31.4395C391.638 31.8555 392.054 32.1862 392.534 32.4315C393.014 32.6768 393.537 32.7995 394.102 32.7995C394.497 32.7995 394.902 32.7302 395.318 32.5915C395.734 32.4528 396.123 32.2395 396.486 31.9515C396.849 31.6528 397.137 31.2688 397.35 30.7995L398.55 31.4555C398.315 32.0208 397.953 32.5008 397.462 32.8955C396.971 33.2902 396.422 33.5888 395.814 33.7915C395.217 33.9942 394.625 34.0955 394.038 34.0955C393.259 34.0955 392.545 33.9302 391.894 33.5995C391.243 33.2582 390.678 32.8102 390.198 32.2555C389.729 31.6902 389.361 31.0608 389.094 30.3675C388.838 29.6635 388.71 28.9542 388.71 28.2395ZM404.624 34.1595C403.942 34.1595 403.334 33.9888 402.8 33.6475C402.267 33.3062 401.846 32.8742 401.536 32.3515V37.4075H400.128V25.6475H401.376V27.2155C401.707 26.7035 402.139 26.2928 402.672 25.9835C403.206 25.6635 403.787 25.5035 404.416 25.5035C404.992 25.5035 405.52 25.6208 406 25.8555C406.48 26.0902 406.896 26.4102 407.248 26.8155C407.6 27.2208 407.872 27.6848 408.064 28.2075C408.267 28.7195 408.368 29.2582 408.368 29.8235C408.368 30.6128 408.208 31.3382 407.888 31.9995C407.579 32.6608 407.142 33.1888 406.576 33.5835C406.011 33.9675 405.36 34.1595 404.624 34.1595ZM404.192 32.9435C404.608 32.9435 404.982 32.8582 405.312 32.6875C405.654 32.5062 405.942 32.2715 406.176 31.9835C406.422 31.6848 406.608 31.3488 406.736 30.9755C406.864 30.6022 406.928 30.2182 406.928 29.8235C406.928 29.4075 406.854 29.0128 406.704 28.6395C406.566 28.2662 406.363 27.9355 406.096 27.6475C405.84 27.3595 405.536 27.1355 405.184 26.9755C404.843 26.8048 404.47 26.7195 404.064 26.7195C403.808 26.7195 403.542 26.7675 403.264 26.8635C402.998 26.9595 402.742 27.0982 402.496 27.2795C402.251 27.4502 402.043 27.6475 401.872 27.8715C401.702 28.0955 401.59 28.3355 401.536 28.5915V30.9755C401.696 31.3382 401.91 31.6688 402.176 31.9675C402.443 32.2662 402.752 32.5062 403.104 32.6875C403.456 32.8582 403.819 32.9435 404.192 32.9435ZM413.745 34.1595C413.116 34.1595 412.545 34.0475 412.033 33.8235C411.521 33.5888 411.078 33.2742 410.705 32.8795C410.332 32.4742 410.044 32.0102 409.841 31.4875C409.638 30.9648 409.537 30.4155 409.537 29.8395C409.537 29.2528 409.638 28.6982 409.841 28.1755C410.044 27.6528 410.332 27.1942 410.705 26.7995C411.078 26.3942 411.521 26.0795 412.033 25.8555C412.556 25.6208 413.126 25.5035 413.745 25.5035C414.374 25.5035 414.945 25.6208 415.457 25.8555C415.969 26.0795 416.412 26.3942 416.785 26.7995C417.169 27.1942 417.462 27.6528 417.665 28.1755C417.868 28.6982 417.969 29.2528 417.969 29.8395C417.969 30.4155 417.868 30.9648 417.665 31.4875C417.462 32.0102 417.174 32.4742 416.801 32.8795C416.428 33.2742 415.98 33.5888 415.457 33.8235C414.945 34.0475 414.374 34.1595 413.745 34.1595ZM410.977 29.8555C410.977 30.4315 411.1 30.9542 411.345 31.4235C411.601 31.8928 411.937 32.2662 412.353 32.5435C412.769 32.8102 413.233 32.9435 413.745 32.9435C414.257 32.9435 414.721 32.8048 415.137 32.5275C415.564 32.2502 415.9 31.8768 416.145 31.4075C416.401 30.9275 416.529 30.3995 416.529 29.8235C416.529 29.2475 416.401 28.7248 416.145 28.2555C415.9 27.7862 415.564 27.4128 415.137 27.1355C414.721 26.8582 414.257 26.7195 413.745 26.7195C413.233 26.7195 412.769 26.8635 412.353 27.1515C411.937 27.4288 411.601 27.8022 411.345 28.2715C411.1 28.7408 410.977 29.2688 410.977 29.8555ZM419.659 33.9995V25.6475H421.067V29.0875H421.995L424.619 25.6475H426.219L423.099 29.6955L426.587 33.9995H424.955L421.995 30.3835H421.067V33.9995H419.659ZM431.091 35.9675V32.7515H431.267C431.502 32.7515 431.715 32.6822 431.907 32.5435C432.11 32.4048 432.286 32.1648 432.435 31.8235C432.595 31.4715 432.723 30.9915 432.819 30.3835C432.915 29.7755 432.979 29.0022 433.011 28.0635L433.091 25.6475H438.771V32.7515H439.907V35.9675H438.659V33.9995H432.339V35.9675H431.091ZM433.235 32.7515H437.363V26.8955H434.339L434.291 28.1915C434.259 29.0982 434.195 29.8608 434.099 30.4795C434.014 31.0875 433.896 31.5728 433.747 31.9355C433.608 32.2982 433.438 32.5702 433.235 32.7515ZM445.12 34.1595C444.491 34.1595 443.92 34.0475 443.408 33.8235C442.896 33.5888 442.453 33.2742 442.08 32.8795C441.707 32.4742 441.419 32.0102 441.216 31.4875C441.013 30.9648 440.912 30.4155 440.912 29.8395C440.912 29.2528 441.013 28.6982 441.216 28.1755C441.419 27.6528 441.707 27.1942 442.08 26.7995C442.453 26.3942 442.896 26.0795 443.408 25.8555C443.931 25.6208 444.501 25.5035 445.12 25.5035C445.749 25.5035 446.32 25.6208 446.832 25.8555C447.344 26.0795 447.787 26.3942 448.16 26.7995C448.544 27.1942 448.837 27.6528 449.04 28.1755C449.243 28.6982 449.344 29.2528 449.344 29.8395C449.344 30.4155 449.243 30.9648 449.04 31.4875C448.837 32.0102 448.549 32.4742 448.176 32.8795C447.803 33.2742 447.355 33.5888 446.832 33.8235C446.32 34.0475 445.749 34.1595 445.12 34.1595ZM442.352 29.8555C442.352 30.4315 442.475 30.9542 442.72 31.4235C442.976 31.8928 443.312 32.2662 443.728 32.5435C444.144 32.8102 444.608 32.9435 445.12 32.9435C445.632 32.9435 446.096 32.8048 446.512 32.5275C446.939 32.2502 447.275 31.8768 447.52 31.4075C447.776 30.9275 447.904 30.3995 447.904 29.8235C447.904 29.2475 447.776 28.7248 447.52 28.2555C447.275 27.7862 446.939 27.4128 446.512 27.1355C446.096 26.8582 445.632 26.7195 445.12 26.7195C444.608 26.7195 444.144 26.8635 443.728 27.1515C443.312 27.4288 442.976 27.8022 442.72 28.2715C442.475 28.7408 442.352 29.2688 442.352 29.8555Z" fill="#2A2E33"/>
<path d="M363.871 47.7995H369.391V79.9995H363.043V54.5155L356.971 56.2175L355.407 50.7895L363.871 47.7995ZM386.72 80.6435C382.703 80.6435 379.544 79.1255 377.244 76.0895C374.975 73.0228 373.84 68.9595 373.84 63.8995C373.84 58.8395 374.975 54.7915 377.244 51.7555C379.544 48.6888 382.703 47.1555 386.72 47.1555C390.768 47.1555 393.927 48.6888 396.196 51.7555C398.465 54.7915 399.6 58.8395 399.6 63.8995C399.6 68.9595 398.465 73.0228 396.196 76.0895C393.927 79.1255 390.768 80.6435 386.72 80.6435ZM381.844 71.7655C382.948 73.5442 384.573 74.4335 386.72 74.4335C388.867 74.4335 390.492 73.5288 391.596 71.7195C392.731 69.9102 393.298 67.3035 393.298 63.8995C393.298 60.4648 392.731 57.8428 391.596 56.0335C390.492 54.2242 388.867 53.3195 386.72 53.3195C384.573 53.3195 382.948 54.2242 381.844 56.0335C380.74 57.8428 380.188 60.4648 380.188 63.8995C380.188 67.3342 380.74 69.9562 381.844 71.7655ZM434.233 56.9995V79.9995H428.299V62.7035H421.951V70.3855C421.951 77.5002 418.715 80.7048 412.245 79.9995V74.4335C413.471 74.7402 414.407 74.5408 415.051 73.8355C415.695 73.0995 416.017 71.8422 416.017 70.0635V56.9995H434.233ZM444.164 70.9375C444.961 73.8202 447.123 75.2615 450.65 75.2615C452.919 75.2615 454.637 74.4948 455.802 72.9615L460.586 75.7215C458.317 79.0028 454.974 80.6435 450.558 80.6435C446.755 80.6435 443.704 79.4935 441.404 77.1935C439.104 74.8935 437.954 71.9955 437.954 68.4995C437.954 65.0342 439.089 62.1515 441.358 59.8515C443.627 57.5208 446.541 56.3555 450.098 56.3555C453.471 56.3555 456.247 57.5208 458.424 59.8515C460.632 62.1822 461.736 65.0648 461.736 68.4995C461.736 69.2662 461.659 70.0788 461.506 70.9375H444.164ZM444.072 66.3375H455.802C455.465 64.7735 454.759 63.6082 453.686 62.8415C452.643 62.0748 451.447 61.6915 450.098 61.6915C448.503 61.6915 447.185 62.1055 446.142 62.9335C445.099 63.7308 444.409 64.8655 444.072 66.3375ZM482.644 56.9995V62.7035H475.468V79.9995H469.534V62.7035H462.266V56.9995H482.644Z" fill="url(#paint6_linear_322_26162)"/>
<rect x="335.5" y="0.999512" width="167" height="105" rx="29" stroke="url(#paint7_radial_322_26162)" stroke-width="2"/>
<rect x="335.5" y="0.999512" width="167" height="105" rx="29" stroke="url(#paint8_radial_322_26162)" stroke-width="2"/>
</g>
<defs>
<filter id="filter0_b_322_26162" x="-19.4999" y="-20.0005" width="173" height="147" filterUnits="userSpaceOnUse" color-interpolation-filters="sRGB">
<feFlood flood-opacity="0" result="BackgroundImageFix"/>
<feGaussianBlur in="BackgroundImageFix" stdDeviation="10"/>
<feComposite in2="SourceAlpha" operator="in" result="effect1_backgroundBlur_322_26162"/>
<feBlend mode="normal" in="SourceGraphic" in2="effect1_backgroundBlur_322_26162" result="shape"/>
</filter>
<filter id="filter1_b_322_26162" x="123.5" y="-20.0005" width="221" height="147" filterUnits="userSpaceOnUse" color-interpolation-filters="sRGB">
<feFlood flood-opacity="0" result="BackgroundImageFix"/>
<feGaussianBlur in="BackgroundImageFix" stdDeviation="10"/>
<feComposite in2="SourceAlpha" operator="in" result="effect1_backgroundBlur_322_26162"/>
<feBlend mode="normal" in="SourceGraphic" in2="effect1_backgroundBlur_322_26162" result="shape"/>
</filter>
<filter id="filter2_b_322_26162" x="314.5" y="-20.0005" width="209" height="147" filterUnits="userSpaceOnUse" color-interpolation-filters="sRGB">
<feFlood flood-opacity="0" result="BackgroundImageFix"/>
<feGaussianBlur in="BackgroundImageFix" stdDeviation="10"/>
<feComposite in2="SourceAlpha" operator="in" result="effect1_backgroundBlur_322_26162"/>
<feBlend mode="normal" in="SourceGraphic" in2="effect1_backgroundBlur_322_26162" result="shape"/>
</filter>
<linearGradient id="paint0_linear_322_26162" x1="35.5573" y1="19.9995" x2="122.597" y2="43.2997" gradientUnits="userSpaceOnUse">
<stop stop-color="#A259FF"/>
<stop offset="1" stop-color="#FF6250"/>
</linearGradient>
<radialGradient id="paint1_radial_322_26162" cx="0" cy="0" r="1" gradientUnits="userSpaceOnUse" gradientTransform="translate(110.481 86.109) rotate(74.6682) scale(117.288 60.3611)">
<stop stop-color="white"/>
<stop offset="1" stop-color="white" stop-opacity="0"/>
</radialGradient>
<radialGradient id="paint2_radial_322_26162" cx="0" cy="0" r="1" gradientUnits="userSpaceOnUse" gradientTransform="translate(14.4076 23.4376) rotate(-96.6532) scale(120.037 42.2902)">
<stop stop-color="white"/>
<stop offset="1" stop-color="white" stop-opacity="0"/>
</radialGradient>
<linearGradient id="paint3_linear_322_26162" x1="186.329" y1="19.9995" x2="307.748" y2="69.279" gradientUnits="userSpaceOnUse">
<stop stop-color="#A259FF"/>
<stop offset="1" stop-color="#FF6250"/>
</linearGradient>
<radialGradient id="paint4_radial_322_26162" cx="0" cy="0" r="1" gradientUnits="userSpaceOnUse" gradientTransform="translate(293.173 86.109) rotate(69.5388) scale(120.731 79.8031)">
<stop stop-color="white"/>
<stop offset="1" stop-color="white" stop-opacity="0"/>
</radialGradient>
<radialGradient id="paint5_radial_322_26162" cx="0" cy="0" r="1" gradientUnits="userSpaceOnUse" gradientTransform="translate(162.427 23.4376) rotate(-99.02) scale(120.721 57.2265)">
<stop stop-color="white"/>
<stop offset="1" stop-color="white" stop-opacity="0"/>
</radialGradient>
<linearGradient id="paint6_linear_322_26162" x1="375.386" y1="19.9995" x2="489.092" y2="62.2211" gradientUnits="userSpaceOnUse">
<stop stop-color="#A259FF"/>
<stop offset="1" stop-color="#FF6250"/>
</linearGradient>
<radialGradient id="paint7_radial_322_26162" cx="0" cy="0" r="1" gradientUnits="userSpaceOnUse" gradientTransform="translate(474.25 86.109) rotate(70.7929) scale(119.782 75.1029)">
<stop stop-color="white"/>
<stop offset="1" stop-color="white" stop-opacity="0"/>
</radialGradient>
<radialGradient id="paint8_radial_322_26162" cx="0" cy="0" r="1" gradientUnits="userSpaceOnUse" gradientTransform="translate(352.172 23.4376) rotate(-98.4309) scale(120.531 53.5169)">
<stop stop-color="white"/>
<stop offset="1" stop-color="white" stop-opacity="0"/>
</radialGradient>
</defs>
</svg>
