<svg width="494" height="107" viewBox="0 0 494 107" fill="none" xmlns="http://www.w3.org/2000/svg">
<g filter="url(#filter0_b_322_26205)">
<rect x="0.500031" y="-0.000488281" width="115" height="107" rx="30" fill="white" fill-opacity="0.8"/>
<path d="M21.2647 28.2395C21.2647 27.5462 21.382 26.8688 21.6167 26.2075C21.862 25.5355 22.214 24.9275 22.6727 24.3835C23.142 23.8288 23.7127 23.3915 24.3847 23.0715C25.0567 22.7408 25.8193 22.5755 26.6727 22.5755C27.686 22.5755 28.5553 22.8102 29.2807 23.2795C30.006 23.7382 30.5447 24.3302 30.8967 25.0555L29.7607 25.7915C29.5367 25.3115 29.2487 24.9328 28.8967 24.6555C28.5553 24.3675 28.182 24.1648 27.7767 24.0475C27.382 23.9302 26.9927 23.8715 26.6087 23.8715C25.9793 23.8715 25.4193 23.9995 24.9287 24.2555C24.4487 24.5115 24.0433 24.8528 23.7127 25.2795C23.382 25.7062 23.1313 26.1862 22.9607 26.7195C22.8007 27.2422 22.7207 27.7702 22.7207 28.3035C22.7207 28.8902 22.8167 29.4555 23.0087 29.9995C23.2113 30.5435 23.4887 31.0235 23.8407 31.4395C24.1927 31.8555 24.6087 32.1862 25.0887 32.4315C25.5687 32.6768 26.0913 32.7995 26.6567 32.7995C27.0513 32.7995 27.4567 32.7302 27.8727 32.5915C28.2887 32.4528 28.678 32.2395 29.0407 31.9515C29.4033 31.6528 29.6913 31.2688 29.9047 30.7995L31.1047 31.4555C30.87 32.0208 30.5073 32.5008 30.0167 32.8955C29.526 33.2902 28.9767 33.5888 28.3687 33.7915C27.7713 33.9942 27.1793 34.0955 26.5927 34.0955C25.814 34.0955 25.0993 33.9302 24.4487 33.5995C23.798 33.2582 23.2327 32.8102 22.7527 32.2555C22.2833 31.6902 21.9153 31.0608 21.6487 30.3675C21.3927 29.6635 21.2647 28.9542 21.2647 28.2395ZM34.7149 33.9995V26.8955H31.8349V25.6475H39.0029V26.8955H36.1229V33.9995H34.7149ZM39.7613 31.5835C39.7613 31.0502 39.9106 30.5915 40.2093 30.2075C40.5186 29.8128 40.9399 29.5088 41.4733 29.2955C42.0066 29.0822 42.6253 28.9755 43.3293 28.9755C43.7026 28.9755 44.0973 29.0075 44.5133 29.0715C44.9293 29.1248 45.2973 29.2102 45.6173 29.3275V28.7195C45.6173 28.0795 45.4253 27.5782 45.0413 27.2155C44.6573 26.8422 44.1133 26.6555 43.4093 26.6555C42.9506 26.6555 42.5079 26.7408 42.0813 26.9115C41.6653 27.0715 41.2226 27.3062 40.7533 27.6155L40.2413 26.6235C40.7853 26.2502 41.3293 25.9728 41.8733 25.7915C42.4173 25.5995 42.9826 25.5035 43.5693 25.5035C44.6359 25.5035 45.4786 25.8022 46.0973 26.3995C46.7159 26.9862 47.0253 27.8075 47.0253 28.8635V32.3995C47.0253 32.5702 47.0573 32.6982 47.1213 32.7835C47.1959 32.8582 47.3133 32.9008 47.4733 32.9115V33.9995C47.3346 34.0208 47.2119 34.0368 47.1053 34.0475C47.0093 34.0582 46.9293 34.0635 46.8653 34.0635C46.5346 34.0635 46.2839 33.9728 46.1133 33.7915C45.9533 33.6102 45.8626 33.4182 45.8413 33.2155L45.8093 32.6875C45.4466 33.1568 44.9719 33.5195 44.3853 33.7755C43.7986 34.0315 43.2173 34.1595 42.6413 34.1595C42.0866 34.1595 41.5906 34.0475 41.1533 33.8235C40.7159 33.5888 40.3746 33.2795 40.1293 32.8955C39.8839 32.5008 39.7613 32.0635 39.7613 31.5835ZM45.2013 32.1755C45.3293 32.0262 45.4306 31.8768 45.5053 31.7275C45.5799 31.5675 45.6173 31.4342 45.6173 31.3275V30.2875C45.2866 30.1595 44.9399 30.0635 44.5773 29.9995C44.2146 29.9248 43.8573 29.8875 43.5053 29.8875C42.7906 29.8875 42.2093 30.0315 41.7613 30.3195C41.3239 30.5968 41.1053 30.9808 41.1053 31.4715C41.1053 31.7382 41.1746 31.9995 41.3133 32.2555C41.4626 32.5008 41.6759 32.7035 41.9533 32.8635C42.2413 33.0235 42.5933 33.1035 43.0093 33.1035C43.4466 33.1035 43.8626 33.0182 44.2573 32.8475C44.6519 32.6662 44.9666 32.4422 45.2013 32.1755ZM49.2607 33.9995V25.6475H53.5807C54.082 25.6475 54.498 25.7488 54.8287 25.9515C55.1593 26.1435 55.4047 26.3942 55.5647 26.7035C55.7353 27.0128 55.8207 27.3435 55.8207 27.6955C55.8207 28.1435 55.714 28.5488 55.5007 28.9115C55.2873 29.2635 54.978 29.5302 54.5727 29.7115C55.0527 29.8502 55.442 30.1008 55.7407 30.4635C56.0393 30.8155 56.1887 31.2528 56.1887 31.7755C56.1887 32.2448 56.0767 32.6448 55.8527 32.9755C55.6287 33.3062 55.314 33.5622 54.9087 33.7435C54.5033 33.9142 54.034 33.9995 53.5007 33.9995H49.2607ZM50.6047 33.0075H53.4687C53.7247 33.0075 53.954 32.9435 54.1567 32.8155C54.37 32.6875 54.5353 32.5168 54.6527 32.3035C54.77 32.0902 54.8287 31.8662 54.8287 31.6315C54.8287 31.3755 54.77 31.1462 54.6527 30.9435C54.546 30.7302 54.3913 30.5648 54.1887 30.4475C53.9967 30.3195 53.7727 30.2555 53.5167 30.2555H50.6047V33.0075ZM50.6047 29.3275H53.2127C53.4687 29.3275 53.6927 29.2635 53.8847 29.1355C54.0767 28.9968 54.226 28.8208 54.3327 28.6075C54.4393 28.3942 54.4927 28.1702 54.4927 27.9355C54.4927 27.5835 54.3753 27.2795 54.1407 27.0235C53.9167 26.7675 53.6233 26.6395 53.2607 26.6395H50.6047V29.3275ZM57.9638 33.9995V25.6475H59.3718V29.0875H60.2998L62.9238 25.6475H64.5238L61.4038 29.6955L64.8918 33.9995H63.2598L60.2998 30.3835H59.3718V33.9995H57.9638ZM65.6207 31.5835C65.6207 31.0502 65.77 30.5915 66.0687 30.2075C66.378 29.8128 66.7993 29.5088 67.3327 29.2955C67.866 29.0822 68.4847 28.9755 69.1887 28.9755C69.562 28.9755 69.9567 29.0075 70.3727 29.0715C70.7887 29.1248 71.1567 29.2102 71.4767 29.3275V28.7195C71.4767 28.0795 71.2847 27.5782 70.9007 27.2155C70.5167 26.8422 69.9727 26.6555 69.2687 26.6555C68.81 26.6555 68.3673 26.7408 67.9407 26.9115C67.5247 27.0715 67.082 27.3062 66.6127 27.6155L66.1007 26.6235C66.6447 26.2502 67.1887 25.9728 67.7327 25.7915C68.2767 25.5995 68.842 25.5035 69.4287 25.5035C70.4953 25.5035 71.338 25.8022 71.9567 26.3995C72.5753 26.9862 72.8847 27.8075 72.8847 28.8635V32.3995C72.8847 32.5702 72.9167 32.6982 72.9807 32.7835C73.0553 32.8582 73.1727 32.9008 73.3327 32.9115V33.9995C73.194 34.0208 73.0713 34.0368 72.9647 34.0475C72.8687 34.0582 72.7887 34.0635 72.7247 34.0635C72.394 34.0635 72.1433 33.9728 71.9727 33.7915C71.8127 33.6102 71.722 33.4182 71.7007 33.2155L71.6687 32.6875C71.306 33.1568 70.8313 33.5195 70.2447 33.7755C69.658 34.0315 69.0767 34.1595 68.5007 34.1595C67.946 34.1595 67.45 34.0475 67.0127 33.8235C66.5753 33.5888 66.234 33.2795 65.9887 32.8955C65.7433 32.5008 65.6207 32.0635 65.6207 31.5835ZM71.0607 32.1755C71.1887 32.0262 71.29 31.8768 71.3647 31.7275C71.4393 31.5675 71.4767 31.4342 71.4767 31.3275V30.2875C71.146 30.1595 70.7993 30.0635 70.4367 29.9995C70.074 29.9248 69.7167 29.8875 69.3647 29.8875C68.65 29.8875 68.0687 30.0315 67.6207 30.3195C67.1833 30.5968 66.9647 30.9808 66.9647 31.4715C66.9647 31.7382 67.034 31.9995 67.1727 32.2555C67.322 32.5008 67.5353 32.7035 67.8127 32.8635C68.1007 33.0235 68.4527 33.1035 68.8687 33.1035C69.306 33.1035 69.722 33.0182 70.1167 32.8475C70.5113 32.6662 70.826 32.4422 71.0607 32.1755ZM82.8309 34.1595C82.2016 34.1595 81.6309 34.0475 81.1189 33.8235C80.6069 33.5888 80.1642 33.2742 79.7909 32.8795C79.4176 32.4742 79.1296 32.0102 78.9269 31.4875C78.7242 30.9648 78.6229 30.4155 78.6229 29.8395C78.6229 29.2528 78.7242 28.6982 78.9269 28.1755C79.1296 27.6528 79.4176 27.1942 79.7909 26.7995C80.1642 26.3942 80.6069 26.0795 81.1189 25.8555C81.6416 25.6208 82.2122 25.5035 82.8309 25.5035C83.4602 25.5035 84.0309 25.6208 84.5429 25.8555C85.0549 26.0795 85.4976 26.3942 85.8709 26.7995C86.2549 27.1942 86.5482 27.6528 86.7509 28.1755C86.9536 28.6982 87.0549 29.2528 87.0549 29.8395C87.0549 30.4155 86.9536 30.9648 86.7509 31.4875C86.5482 32.0102 86.2602 32.4742 85.8869 32.8795C85.5136 33.2742 85.0656 33.5888 84.5429 33.8235C84.0309 34.0475 83.4602 34.1595 82.8309 34.1595ZM80.0629 29.8555C80.0629 30.4315 80.1856 30.9542 80.4309 31.4235C80.6869 31.8928 81.0229 32.2662 81.4389 32.5435C81.8549 32.8102 82.3189 32.9435 82.8309 32.9435C83.3429 32.9435 83.8069 32.8048 84.2229 32.5275C84.6496 32.2502 84.9856 31.8768 85.2309 31.4075C85.4869 30.9275 85.6149 30.3995 85.6149 29.8235C85.6149 29.2475 85.4869 28.7248 85.2309 28.2555C84.9856 27.7862 84.6496 27.4128 84.2229 27.1355C83.8069 26.8582 83.3429 26.7195 82.8309 26.7195C82.3189 26.7195 81.8549 26.8635 81.4389 27.1515C81.0229 27.4288 80.6869 27.8022 80.4309 28.2715C80.1856 28.7408 80.0629 29.2688 80.0629 29.8555ZM90.793 33.9995V26.8955H87.913V25.6475H95.081V26.8955H92.201V33.9995H90.793Z" fill="#2A2E33"/>
<path d="M41.7365 58.2415C45.0792 58.3335 47.7932 59.4222 49.8785 61.5075C51.9638 63.5622 53.0065 66.1995 53.0065 69.4195C53.0065 72.7008 51.9178 75.3995 49.7405 77.5155C47.5632 79.6008 44.7572 80.6435 41.3225 80.6435C37.8878 80.6435 35.0818 79.6008 32.9045 77.5155C30.7578 75.4302 29.6845 72.7315 29.6845 69.4195C29.6845 66.9662 30.3132 64.8042 31.5705 62.9335L41.5985 47.7995H48.8665L41.7365 58.2415ZM37.5045 73.2375C38.5165 74.1882 39.7892 74.6635 41.3225 74.6635C42.8558 74.6635 44.1285 74.1882 45.1405 73.2375C46.1832 72.2868 46.7045 71.0142 46.7045 69.4195C46.7045 67.8555 46.1832 66.5982 45.1405 65.6475C44.1285 64.6968 42.8558 64.2215 41.3225 64.2215C39.7892 64.2215 38.5165 64.6968 37.5045 65.6475C36.4925 66.5675 35.9865 67.8248 35.9865 69.4195C35.9865 71.0142 36.4925 72.2868 37.5045 73.2375ZM67.5637 60.1735C66.0917 61.6148 64.2517 62.3355 62.0437 62.3355C59.8357 62.3355 57.9804 61.5995 56.4777 60.1275C55.0057 58.6555 54.2697 56.8615 54.2697 54.7455C54.2697 52.6295 55.0057 50.8355 56.4777 49.3635C57.9804 47.8915 59.8357 47.1555 62.0437 47.1555C64.2517 47.1555 66.0917 47.8915 67.5637 49.3635C69.0357 50.8048 69.7717 52.5988 69.7717 54.7455C69.7717 56.8922 69.0357 58.7015 67.5637 60.1735ZM57.5357 75.1235L78.5117 51.8015L81.3177 53.3655L60.2957 76.7335L57.5357 75.1235ZM59.9277 56.8615C60.4797 57.4135 61.1697 57.6895 61.9977 57.6895C62.8257 57.6895 63.5157 57.4135 64.0677 56.8615C64.6197 56.2788 64.8957 55.5735 64.8957 54.7455C64.8957 53.9175 64.6197 53.2275 64.0677 52.6755C63.5157 52.1235 62.8257 51.8475 61.9977 51.8475C61.1697 51.8475 60.4797 52.1235 59.9277 52.6755C59.4064 53.2275 59.1457 53.9175 59.1457 54.7455C59.1457 55.5735 59.4064 56.2788 59.9277 56.8615ZM83.1117 78.3435C81.6397 79.8155 79.7997 80.5515 77.5917 80.5515C75.3837 80.5515 73.5437 79.8155 72.0717 78.3435C70.5997 76.8715 69.8637 75.0775 69.8637 72.9615C69.8637 70.8455 70.5997 69.0515 72.0717 67.5795C73.5437 66.1075 75.3837 65.3715 77.5917 65.3715C79.7997 65.3715 81.6397 66.1075 83.1117 67.5795C84.5837 69.0515 85.3197 70.8455 85.3197 72.9615C85.3197 75.0775 84.5837 76.8715 83.1117 78.3435ZM75.5217 75.0775C76.0737 75.6295 76.7637 75.9055 77.5917 75.9055C78.4197 75.9055 79.0944 75.6142 79.6157 75.0315C80.1677 74.4488 80.4437 73.7588 80.4437 72.9615C80.4437 72.1335 80.1677 71.4435 79.6157 70.8915C79.0944 70.3088 78.4197 70.0175 77.5917 70.0175C76.7637 70.0175 76.0737 70.3088 75.5217 70.8915C75.0004 71.4435 74.7397 72.1335 74.7397 72.9615C74.7397 73.7895 75.0004 74.4948 75.5217 75.0775Z" fill="url(#paint0_linear_322_26205)"/>
<rect x="1.50003" y="0.999512" width="113" height="105" rx="29" stroke="url(#paint1_radial_322_26205)" stroke-width="2"/>
<rect x="1.50003" y="0.999512" width="113" height="105" rx="29" stroke="url(#paint2_radial_322_26205)" stroke-width="2"/>
</g>
<g filter="url(#filter1_b_322_26205)">
<rect x="125.5" y="-0.000488281" width="189" height="107" rx="30" fill="white" fill-opacity="0.8"/>
<path d="M184.343 28.2395C184.343 27.5462 184.46 26.8688 184.695 26.2075C184.94 25.5355 185.292 24.9275 185.751 24.3835C186.22 23.8288 186.791 23.3915 187.463 23.0715C188.135 22.7408 188.897 22.5755 189.751 22.5755C190.764 22.5755 191.633 22.8102 192.359 23.2795C193.084 23.7382 193.623 24.3302 193.975 25.0555L192.839 25.7915C192.615 25.3115 192.327 24.9328 191.975 24.6555C191.633 24.3675 191.26 24.1648 190.855 24.0475C190.46 23.9302 190.071 23.8715 189.687 23.8715C189.057 23.8715 188.497 23.9995 188.007 24.2555C187.527 24.5115 187.121 24.8528 186.791 25.2795C186.46 25.7062 186.209 26.1862 186.039 26.7195C185.879 27.2422 185.799 27.7702 185.799 28.3035C185.799 28.8902 185.895 29.4555 186.087 29.9995C186.289 30.5435 186.567 31.0235 186.919 31.4395C187.271 31.8555 187.687 32.1862 188.167 32.4315C188.647 32.6768 189.169 32.7995 189.735 32.7995C190.129 32.7995 190.535 32.7302 190.951 32.5915C191.367 32.4528 191.756 32.2395 192.119 31.9515C192.481 31.6528 192.769 31.2688 192.983 30.7995L194.183 31.4555C193.948 32.0208 193.585 32.5008 193.095 32.8955C192.604 33.2902 192.055 33.5888 191.447 33.7915C190.849 33.9942 190.257 34.0955 189.671 34.0955C188.892 34.0955 188.177 33.9302 187.527 33.5995C186.876 33.2582 186.311 32.8102 185.831 32.2555C185.361 31.6902 184.993 31.0608 184.727 30.3675C184.471 29.6635 184.343 28.9542 184.343 28.2395ZM196.801 37.5035C196.62 37.5035 196.433 37.4768 196.241 37.4235C196.06 37.3702 195.873 37.2902 195.681 37.1835L196.161 36.2235C196.257 36.2768 196.348 36.3142 196.433 36.3355C196.529 36.3675 196.62 36.3835 196.705 36.3835C196.961 36.3835 197.201 36.2608 197.425 36.0155C197.66 35.7808 197.878 35.4182 198.081 34.9275L198.481 33.9195L194.817 25.6475H196.305L199.121 32.5755L201.665 25.6475H203.057L199.153 35.3595C198.961 35.8395 198.742 36.2342 198.497 36.5435C198.252 36.8635 197.985 37.1035 197.697 37.2635C197.409 37.4235 197.11 37.5035 196.801 37.5035ZM204.464 33.9995V25.6475H205.92L209.024 31.1195L212.144 25.6475H213.568V33.9995H212.224V27.6795L209.472 32.5115H208.576L205.808 27.6795V33.9995H204.464ZM215.823 33.9995V25.6475H217.279L220.383 31.1195L223.503 25.6475H224.927V33.9995H223.583V27.6795L220.831 32.5115H219.935L217.167 27.6795V33.9995H215.823ZM226.543 31.5835C226.543 31.0502 226.692 30.5915 226.991 30.2075C227.3 29.8128 227.721 29.5088 228.255 29.2955C228.788 29.0822 229.407 28.9755 230.111 28.9755C230.484 28.9755 230.879 29.0075 231.295 29.0715C231.711 29.1248 232.079 29.2102 232.399 29.3275V28.7195C232.399 28.0795 232.207 27.5782 231.823 27.2155C231.439 26.8422 230.895 26.6555 230.191 26.6555C229.732 26.6555 229.289 26.7408 228.863 26.9115C228.447 27.0715 228.004 27.3062 227.535 27.6155L227.023 26.6235C227.567 26.2502 228.111 25.9728 228.655 25.7915C229.199 25.5995 229.764 25.5035 230.351 25.5035C231.417 25.5035 232.26 25.8022 232.879 26.3995C233.497 26.9862 233.807 27.8075 233.807 28.8635V32.3995C233.807 32.5702 233.839 32.6982 233.903 32.7835C233.977 32.8582 234.095 32.9008 234.255 32.9115V33.9995C234.116 34.0208 233.993 34.0368 233.887 34.0475C233.791 34.0582 233.711 34.0635 233.647 34.0635C233.316 34.0635 233.065 33.9728 232.895 33.7915C232.735 33.6102 232.644 33.4182 232.623 33.2155L232.591 32.6875C232.228 33.1568 231.753 33.5195 231.167 33.7755C230.58 34.0315 229.999 34.1595 229.423 34.1595C228.868 34.1595 228.372 34.0475 227.935 33.8235C227.497 33.5888 227.156 33.2795 226.911 32.8955C226.665 32.5008 226.543 32.0635 226.543 31.5835ZM231.983 32.1755C232.111 32.0262 232.212 31.8768 232.287 31.7275C232.361 31.5675 232.399 31.4342 232.399 31.3275V30.2875C232.068 30.1595 231.721 30.0635 231.359 29.9995C230.996 29.9248 230.639 29.8875 230.287 29.8875C229.572 29.8875 228.991 30.0315 228.543 30.3195C228.105 30.5968 227.887 30.9808 227.887 31.4715C227.887 31.7382 227.956 31.9995 228.095 32.2555C228.244 32.5008 228.457 32.7035 228.735 32.8635C229.023 33.0235 229.375 33.1035 229.791 33.1035C230.228 33.1035 230.644 33.0182 231.039 32.8475C231.433 32.6662 231.748 32.4422 231.983 32.1755ZM243.753 34.1595C243.123 34.1595 242.553 34.0475 242.041 33.8235C241.529 33.5888 241.086 33.2742 240.713 32.8795C240.339 32.4742 240.051 32.0102 239.849 31.4875C239.646 30.9648 239.545 30.4155 239.545 29.8395C239.545 29.2528 239.646 28.6982 239.849 28.1755C240.051 27.6528 240.339 27.1942 240.713 26.7995C241.086 26.3942 241.529 26.0795 242.041 25.8555C242.563 25.6208 243.134 25.5035 243.753 25.5035C244.382 25.5035 244.953 25.6208 245.465 25.8555C245.977 26.0795 246.419 26.3942 246.793 26.7995C247.177 27.1942 247.47 27.6528 247.673 28.1755C247.875 28.6982 247.977 29.2528 247.977 29.8395C247.977 30.4155 247.875 30.9648 247.673 31.4875C247.47 32.0102 247.182 32.4742 246.809 32.8795C246.435 33.2742 245.987 33.5888 245.465 33.8235C244.953 34.0475 244.382 34.1595 243.753 34.1595ZM240.985 29.8555C240.985 30.4315 241.107 30.9542 241.353 31.4235C241.609 31.8928 241.945 32.2662 242.361 32.5435C242.777 32.8102 243.241 32.9435 243.753 32.9435C244.265 32.9435 244.729 32.8048 245.145 32.5275C245.571 32.2502 245.907 31.8768 246.153 31.4075C246.409 30.9275 246.537 30.3995 246.537 29.8235C246.537 29.2475 246.409 28.7248 246.153 28.2555C245.907 27.7862 245.571 27.4128 245.145 27.1355C244.729 26.8582 244.265 26.7195 243.753 26.7195C243.241 26.7195 242.777 26.8635 242.361 27.1515C241.945 27.4288 241.609 27.8022 241.353 28.2715C241.107 28.7408 240.985 29.2688 240.985 29.8555ZM251.715 33.9995V26.8955H248.835V25.6475H256.003V26.8955H253.123V33.9995H251.715Z" fill="#2A2E33"/>
<path d="M162.166 60.8635C164.344 61.5075 166.107 62.6422 167.456 64.2675C168.836 65.8622 169.526 67.7942 169.526 70.0635C169.526 73.3755 168.407 75.9668 166.168 77.8375C163.96 79.7082 161.246 80.6435 158.026 80.6435C155.512 80.6435 153.258 80.0762 151.264 78.9415C149.302 77.7762 147.876 76.0742 146.986 73.8355L152.414 70.7075C153.212 73.1915 155.082 74.4335 158.026 74.4335C159.652 74.4335 160.909 74.0502 161.798 73.2835C162.718 72.4862 163.178 71.4128 163.178 70.0635C163.178 68.7448 162.718 67.6868 161.798 66.8895C160.909 66.0922 159.652 65.6935 158.026 65.6935H156.646L154.208 62.0135L160.556 53.7335H147.952V47.7995H168.192V53.0435L162.166 60.8635ZM185.025 80.6435C181.007 80.6435 177.849 79.1255 175.549 76.0895C173.279 73.0228 172.145 68.9595 172.145 63.8995C172.145 58.8395 173.279 54.7915 175.549 51.7555C177.849 48.6888 181.007 47.1555 185.025 47.1555C189.073 47.1555 192.231 48.6888 194.501 51.7555C196.77 54.7915 197.905 58.8395 197.905 63.8995C197.905 68.9595 196.77 73.0228 194.501 76.0895C192.231 79.1255 189.073 80.6435 185.025 80.6435ZM180.149 71.7655C181.253 73.5442 182.878 74.4335 185.025 74.4335C187.171 74.4335 188.797 73.5288 189.901 71.7195C191.035 69.9102 191.603 67.3035 191.603 63.8995C191.603 60.4648 191.035 57.8428 189.901 56.0335C188.797 54.2242 187.171 53.3195 185.025 53.3195C182.878 53.3195 181.253 54.2242 180.149 56.0335C179.045 57.8428 178.493 60.4648 178.493 63.8995C178.493 67.3342 179.045 69.9562 180.149 71.7655ZM213.539 80.6435C209.522 80.6435 206.363 79.1255 204.063 76.0895C201.794 73.0228 200.659 68.9595 200.659 63.8995C200.659 58.8395 201.794 54.7915 204.063 51.7555C206.363 48.6888 209.522 47.1555 213.539 47.1555C217.587 47.1555 220.746 48.6888 223.015 51.7555C225.285 54.7915 226.419 58.8395 226.419 63.8995C226.419 68.9595 225.285 73.0228 223.015 76.0895C220.746 79.1255 217.587 80.6435 213.539 80.6435ZM208.663 71.7655C209.767 73.5442 211.393 74.4335 213.539 74.4335C215.686 74.4335 217.311 73.5288 218.415 71.7195C219.55 69.9102 220.117 67.3035 220.117 63.8995C220.117 60.4648 219.55 57.8428 218.415 56.0335C217.311 54.2242 215.686 53.3195 213.539 53.3195C211.393 53.3195 209.767 54.2242 208.663 56.0335C207.559 57.8428 207.007 60.4648 207.007 63.8995C207.007 67.3342 207.559 69.9562 208.663 71.7655ZM255.716 79.9995H248.402L236.902 64.9115V79.9995H230.554V47.7995H236.902V62.0135L247.942 47.7995H255.256L243.342 63.4395L255.716 79.9995ZM282.499 68.8215H276.795V71.3515H287.053V75.3995H276.795V79.9995H270.493V75.3995H267.043V71.3515H270.493V68.8215H267.043V63.2555H270.493V47.7995H282.499C285.535 47.7995 288.095 48.8422 290.181 50.9275C292.297 53.0128 293.355 55.5275 293.355 58.4715C293.355 61.4155 292.312 63.8842 290.227 65.8775C288.141 67.8402 285.565 68.8215 282.499 68.8215ZM276.795 53.7335V63.2555H282.499C283.787 63.2555 284.86 62.7955 285.719 61.8755C286.608 60.9555 287.053 59.8208 287.053 58.4715C287.053 57.1222 286.608 56.0028 285.719 55.1135C284.86 54.1935 283.787 53.7335 282.499 53.7335H276.795Z" fill="url(#paint3_linear_322_26205)"/>
<rect x="126.5" y="0.999512" width="187" height="105" rx="29" stroke="url(#paint4_radial_322_26205)" stroke-width="2"/>
<rect x="126.5" y="0.999512" width="187" height="105" rx="29" stroke="url(#paint5_radial_322_26205)" stroke-width="2"/>
</g>
<g filter="url(#filter2_b_322_26205)">
<rect x="324.5" y="-0.000488281" width="169" height="107" rx="30" fill="white" fill-opacity="0.8"/>
<path d="M378.71 28.2395C378.71 27.5462 378.827 26.8688 379.062 26.2075C379.307 25.5355 379.659 24.9275 380.118 24.3835C380.587 23.8288 381.158 23.3915 381.83 23.0715C382.502 22.7408 383.265 22.5755 384.118 22.5755C385.131 22.5755 386.001 22.8102 386.726 23.2795C387.451 23.7382 387.99 24.3302 388.342 25.0555L387.206 25.7915C386.982 25.3115 386.694 24.9328 386.342 24.6555C386.001 24.3675 385.627 24.1648 385.222 24.0475C384.827 23.9302 384.438 23.8715 384.054 23.8715C383.425 23.8715 382.865 23.9995 382.374 24.2555C381.894 24.5115 381.489 24.8528 381.158 25.2795C380.827 25.7062 380.577 26.1862 380.406 26.7195C380.246 27.2422 380.166 27.7702 380.166 28.3035C380.166 28.8902 380.262 29.4555 380.454 29.9995C380.657 30.5435 380.934 31.0235 381.286 31.4395C381.638 31.8555 382.054 32.1862 382.534 32.4315C383.014 32.6768 383.537 32.7995 384.102 32.7995C384.497 32.7995 384.902 32.7302 385.318 32.5915C385.734 32.4528 386.123 32.2395 386.486 31.9515C386.849 31.6528 387.137 31.2688 387.35 30.7995L388.55 31.4555C388.315 32.0208 387.953 32.5008 387.462 32.8955C386.971 33.2902 386.422 33.5888 385.814 33.7915C385.217 33.9942 384.625 34.0955 384.038 34.0955C383.259 34.0955 382.545 33.9302 381.894 33.5995C381.243 33.2582 380.678 32.8102 380.198 32.2555C379.729 31.6902 379.361 31.0608 379.094 30.3675C378.838 29.6635 378.71 28.9542 378.71 28.2395ZM394.624 34.1595C393.942 34.1595 393.334 33.9888 392.8 33.6475C392.267 33.3062 391.846 32.8742 391.536 32.3515V37.4075H390.128V25.6475H391.376V27.2155C391.707 26.7035 392.139 26.2928 392.672 25.9835C393.206 25.6635 393.787 25.5035 394.416 25.5035C394.992 25.5035 395.52 25.6208 396 25.8555C396.48 26.0902 396.896 26.4102 397.248 26.8155C397.6 27.2208 397.872 27.6848 398.064 28.2075C398.267 28.7195 398.368 29.2582 398.368 29.8235C398.368 30.6128 398.208 31.3382 397.888 31.9995C397.579 32.6608 397.142 33.1888 396.576 33.5835C396.011 33.9675 395.36 34.1595 394.624 34.1595ZM394.192 32.9435C394.608 32.9435 394.982 32.8582 395.312 32.6875C395.654 32.5062 395.942 32.2715 396.176 31.9835C396.422 31.6848 396.608 31.3488 396.736 30.9755C396.864 30.6022 396.928 30.2182 396.928 29.8235C396.928 29.4075 396.854 29.0128 396.704 28.6395C396.566 28.2662 396.363 27.9355 396.096 27.6475C395.84 27.3595 395.536 27.1355 395.184 26.9755C394.843 26.8048 394.47 26.7195 394.064 26.7195C393.808 26.7195 393.542 26.7675 393.264 26.8635C392.998 26.9595 392.742 27.0982 392.496 27.2795C392.251 27.4502 392.043 27.6475 391.872 27.8715C391.702 28.0955 391.59 28.3355 391.536 28.5915V30.9755C391.696 31.3382 391.91 31.6688 392.176 31.9675C392.443 32.2662 392.752 32.5062 393.104 32.6875C393.456 32.8582 393.819 32.9435 394.192 32.9435ZM403.745 34.1595C403.116 34.1595 402.545 34.0475 402.033 33.8235C401.521 33.5888 401.078 33.2742 400.705 32.8795C400.332 32.4742 400.044 32.0102 399.841 31.4875C399.638 30.9648 399.537 30.4155 399.537 29.8395C399.537 29.2528 399.638 28.6982 399.841 28.1755C400.044 27.6528 400.332 27.1942 400.705 26.7995C401.078 26.3942 401.521 26.0795 402.033 25.8555C402.556 25.6208 403.126 25.5035 403.745 25.5035C404.374 25.5035 404.945 25.6208 405.457 25.8555C405.969 26.0795 406.412 26.3942 406.785 26.7995C407.169 27.1942 407.462 27.6528 407.665 28.1755C407.868 28.6982 407.969 29.2528 407.969 29.8395C407.969 30.4155 407.868 30.9648 407.665 31.4875C407.462 32.0102 407.174 32.4742 406.801 32.8795C406.428 33.2742 405.98 33.5888 405.457 33.8235C404.945 34.0475 404.374 34.1595 403.745 34.1595ZM400.977 29.8555C400.977 30.4315 401.1 30.9542 401.345 31.4235C401.601 31.8928 401.937 32.2662 402.353 32.5435C402.769 32.8102 403.233 32.9435 403.745 32.9435C404.257 32.9435 404.721 32.8048 405.137 32.5275C405.564 32.2502 405.9 31.8768 406.145 31.4075C406.401 30.9275 406.529 30.3995 406.529 29.8235C406.529 29.2475 406.401 28.7248 406.145 28.2555C405.9 27.7862 405.564 27.4128 405.137 27.1355C404.721 26.8582 404.257 26.7195 403.745 26.7195C403.233 26.7195 402.769 26.8635 402.353 27.1515C401.937 27.4288 401.601 27.8022 401.345 28.2715C401.1 28.7408 400.977 29.2688 400.977 29.8555ZM409.659 33.9995V25.6475H411.067V29.0875H411.995L414.619 25.6475H416.219L413.099 29.6955L416.587 33.9995H414.955L411.995 30.3835H411.067V33.9995H409.659ZM421.091 35.9675V32.7515H421.267C421.502 32.7515 421.715 32.6822 421.907 32.5435C422.11 32.4048 422.286 32.1648 422.435 31.8235C422.595 31.4715 422.723 30.9915 422.819 30.3835C422.915 29.7755 422.979 29.0022 423.011 28.0635L423.091 25.6475H428.771V32.7515H429.907V35.9675H428.659V33.9995H422.339V35.9675H421.091ZM423.235 32.7515H427.363V26.8955H424.339L424.291 28.1915C424.259 29.0982 424.195 29.8608 424.099 30.4795C424.014 31.0875 423.896 31.5728 423.747 31.9355C423.608 32.2982 423.438 32.5702 423.235 32.7515ZM435.12 34.1595C434.491 34.1595 433.92 34.0475 433.408 33.8235C432.896 33.5888 432.453 33.2742 432.08 32.8795C431.707 32.4742 431.419 32.0102 431.216 31.4875C431.013 30.9648 430.912 30.4155 430.912 29.8395C430.912 29.2528 431.013 28.6982 431.216 28.1755C431.419 27.6528 431.707 27.1942 432.08 26.7995C432.453 26.3942 432.896 26.0795 433.408 25.8555C433.931 25.6208 434.501 25.5035 435.12 25.5035C435.749 25.5035 436.32 25.6208 436.832 25.8555C437.344 26.0795 437.787 26.3942 438.16 26.7995C438.544 27.1942 438.837 27.6528 439.04 28.1755C439.243 28.6982 439.344 29.2528 439.344 29.8395C439.344 30.4155 439.243 30.9648 439.04 31.4875C438.837 32.0102 438.549 32.4742 438.176 32.8795C437.803 33.2742 437.355 33.5888 436.832 33.8235C436.32 34.0475 435.749 34.1595 435.12 34.1595ZM432.352 29.8555C432.352 30.4315 432.475 30.9542 432.72 31.4235C432.976 31.8928 433.312 32.2662 433.728 32.5435C434.144 32.8102 434.608 32.9435 435.12 32.9435C435.632 32.9435 436.096 32.8048 436.512 32.5275C436.939 32.2502 437.275 31.8768 437.52 31.4075C437.776 30.9275 437.904 30.3995 437.904 29.8235C437.904 29.2475 437.776 28.7248 437.52 28.2555C437.275 27.7862 436.939 27.4128 436.512 27.1355C436.096 26.8582 435.632 26.7195 435.12 26.7195C434.608 26.7195 434.144 26.8635 433.728 27.1515C433.312 27.4288 432.976 27.8022 432.72 28.2715C432.475 28.7408 432.352 29.2688 432.352 29.8555Z" fill="#2A2E33"/>
<path d="M353.871 47.7995H359.391V79.9995H353.043V54.5155L346.971 56.2175L345.407 50.7895L353.871 47.7995ZM376.72 80.6435C372.703 80.6435 369.544 79.1255 367.244 76.0895C364.975 73.0228 363.84 68.9595 363.84 63.8995C363.84 58.8395 364.975 54.7915 367.244 51.7555C369.544 48.6888 372.703 47.1555 376.72 47.1555C380.768 47.1555 383.927 48.6888 386.196 51.7555C388.465 54.7915 389.6 58.8395 389.6 63.8995C389.6 68.9595 388.465 73.0228 386.196 76.0895C383.927 79.1255 380.768 80.6435 376.72 80.6435ZM371.844 71.7655C372.948 73.5442 374.573 74.4335 376.72 74.4335C378.867 74.4335 380.492 73.5288 381.596 71.7195C382.731 69.9102 383.298 67.3035 383.298 63.8995C383.298 60.4648 382.731 57.8428 381.596 56.0335C380.492 54.2242 378.867 53.3195 376.72 53.3195C374.573 53.3195 372.948 54.2242 371.844 56.0335C370.74 57.8428 370.188 60.4648 370.188 63.8995C370.188 67.3342 370.74 69.9562 371.844 71.7655ZM424.233 56.9995V79.9995H418.299V62.7035H411.951V70.3855C411.951 77.5002 408.715 80.7048 402.245 79.9995V74.4335C403.471 74.7402 404.407 74.5408 405.051 73.8355C405.695 73.0995 406.017 71.8422 406.017 70.0635V56.9995H424.233ZM434.164 70.9375C434.961 73.8202 437.123 75.2615 440.65 75.2615C442.919 75.2615 444.637 74.4948 445.802 72.9615L450.586 75.7215C448.317 79.0028 444.974 80.6435 440.558 80.6435C436.755 80.6435 433.704 79.4935 431.404 77.1935C429.104 74.8935 427.954 71.9955 427.954 68.4995C427.954 65.0342 429.089 62.1515 431.358 59.8515C433.627 57.5208 436.541 56.3555 440.098 56.3555C443.471 56.3555 446.247 57.5208 448.424 59.8515C450.632 62.1822 451.736 65.0648 451.736 68.4995C451.736 69.2662 451.659 70.0788 451.506 70.9375H434.164ZM434.072 66.3375H445.802C445.465 64.7735 444.759 63.6082 443.686 62.8415C442.643 62.0748 441.447 61.6915 440.098 61.6915C438.503 61.6915 437.185 62.1055 436.142 62.9335C435.099 63.7308 434.409 64.8655 434.072 66.3375ZM472.644 56.9995V62.7035H465.468V79.9995H459.534V62.7035H452.266V56.9995H472.644Z" fill="url(#paint6_linear_322_26205)"/>
<rect x="325.5" y="0.999512" width="167" height="105" rx="29" stroke="url(#paint7_radial_322_26205)" stroke-width="2"/>
<rect x="325.5" y="0.999512" width="167" height="105" rx="29" stroke="url(#paint8_radial_322_26205)" stroke-width="2"/>
</g>
<defs>
<filter id="filter0_b_322_26205" x="-19.5" y="-20.0005" width="155" height="147" filterUnits="userSpaceOnUse" color-interpolation-filters="sRGB">
<feFlood flood-opacity="0" result="BackgroundImageFix"/>
<feGaussianBlur in="BackgroundImageFix" stdDeviation="10"/>
<feComposite in2="SourceAlpha" operator="in" result="effect1_backgroundBlur_322_26205"/>
<feBlend mode="normal" in="SourceGraphic" in2="effect1_backgroundBlur_322_26205" result="shape"/>
</filter>
<filter id="filter1_b_322_26205" x="105.5" y="-20.0005" width="229" height="147" filterUnits="userSpaceOnUse" color-interpolation-filters="sRGB">
<feFlood flood-opacity="0" result="BackgroundImageFix"/>
<feGaussianBlur in="BackgroundImageFix" stdDeviation="10"/>
<feComposite in2="SourceAlpha" operator="in" result="effect1_backgroundBlur_322_26205"/>
<feBlend mode="normal" in="SourceGraphic" in2="effect1_backgroundBlur_322_26205" result="shape"/>
</filter>
<filter id="filter2_b_322_26205" x="304.5" y="-20.0005" width="209" height="147" filterUnits="userSpaceOnUse" color-interpolation-filters="sRGB">
<feFlood flood-opacity="0" result="BackgroundImageFix"/>
<feGaussianBlur in="BackgroundImageFix" stdDeviation="10"/>
<feComposite in2="SourceAlpha" operator="in" result="effect1_backgroundBlur_322_26205"/>
<feBlend mode="normal" in="SourceGraphic" in2="effect1_backgroundBlur_322_26205" result="shape"/>
</filter>
<linearGradient id="paint0_linear_322_26205" x1="32.6429" y1="19.9995" x2="104.516" y2="35.5159" gradientUnits="userSpaceOnUse">
<stop stop-color="#A259FF"/>
<stop offset="1" stop-color="#FF6250"/>
</linearGradient>
<radialGradient id="paint1_radial_322_26205" cx="0" cy="0" r="1" gradientUnits="userSpaceOnUse" gradientTransform="translate(95.5962 86.109) rotate(76.6636) scale(116.249 52.6585)">
<stop stop-color="white"/>
<stop offset="1" stop-color="white" stop-opacity="0"/>
</radialGradient>
<radialGradient id="paint2_radial_322_26205" cx="0" cy="0" r="1" gradientUnits="userSpaceOnUse" gradientTransform="translate(12.5253 23.4376) rotate(-95.7593) scale(119.833 36.6288)">
<stop stop-color="white"/>
<stop offset="1" stop-color="white" stop-opacity="0"/>
</radialGradient>
<linearGradient id="paint3_linear_322_26205" x1="169.624" y1="19.9995" x2="295.849" y2="74.1362" gradientUnits="userSpaceOnUse">
<stop stop-color="#A259FF"/>
<stop offset="1" stop-color="#FF6250"/>
</linearGradient>
<radialGradient id="paint4_radial_322_26205" cx="0" cy="0" r="1" gradientUnits="userSpaceOnUse" gradientTransform="translate(281.788 86.109) rotate(68.7139) scale(121.396 82.874)">
<stop stop-color="white"/>
<stop offset="1" stop-color="white" stop-opacity="0"/>
</radialGradient>
<radialGradient id="paint5_radial_322_26205" cx="0" cy="0" r="1" gradientUnits="userSpaceOnUse" gradientTransform="translate(145.263 23.4376) rotate(-99.4117) scale(120.855 59.6896)">
<stop stop-color="white"/>
<stop offset="1" stop-color="white" stop-opacity="0"/>
</radialGradient>
<linearGradient id="paint6_linear_322_26205" x1="365.386" y1="19.9995" x2="479.092" y2="62.2211" gradientUnits="userSpaceOnUse">
<stop stop-color="#A259FF"/>
<stop offset="1" stop-color="#FF6250"/>
</linearGradient>
<radialGradient id="paint7_radial_322_26205" cx="0" cy="0" r="1" gradientUnits="userSpaceOnUse" gradientTransform="translate(464.25 86.109) rotate(70.7929) scale(119.782 75.1029)">
<stop stop-color="white"/>
<stop offset="1" stop-color="white" stop-opacity="0"/>
</radialGradient>
<radialGradient id="paint8_radial_322_26205" cx="0" cy="0" r="1" gradientUnits="userSpaceOnUse" gradientTransform="translate(342.172 23.4376) rotate(-98.4309) scale(120.531 53.5169)">
<stop stop-color="white"/>
<stop offset="1" stop-color="white" stop-opacity="0"/>
</radialGradient>
</defs>
</svg>
