<svg width="411" height="470" viewBox="0 0 411 470" fill="none" xmlns="http://www.w3.org/2000/svg">
<path d="M523.667 60.9311H293.068C291.744 60.9311 290.474 60.4061 289.536 59.471L234.297 4.3683C233.36 3.43329 232.09 2.9082 230.766 2.9082H58.3334C42.9067 2.9082 28.1117 9.02131 17.2034 19.9027C6.295 30.7841 0.166748 45.5425 0.166748 60.9311V409.069C0.166748 424.457 6.295 439.216 17.2034 450.097C28.1117 460.979 42.9067 467.092 58.3334 467.092H523.667C539.094 467.092 553.888 460.979 564.797 450.097C575.705 439.216 581.833 424.457 581.833 409.069V118.954C581.833 103.565 575.705 88.8071 564.797 77.9257C553.888 67.0443 539.094 60.9311 523.667 60.9311ZM523.667 409.069H63.3334C60.572 409.069 58.3334 406.83 58.3334 404.069V123.954C58.3334 121.193 60.572 118.954 63.3334 118.954H523.667M315.083 380.057C317.845 380.057 320.083 377.819 320.083 375.057V298.023C320.083 295.261 322.322 293.023 325.083 293.023H373.25C376.012 293.023 378.25 295.261 378.25 298.023V375.057C378.25 377.819 380.489 380.057 383.25 380.057H431.417C434.178 380.057 436.417 377.819 436.417 375.057V269.011C436.417 266.25 438.655 264.011 441.417 264.011H480.302C485.031 264.011 487.117 258.053 483.421 255.103L352.286 150.454C350.461 148.999 347.872 148.999 346.048 150.454L214.913 255.103C211.216 258.053 213.302 264.011 218.032 264.011H256.917C259.678 264.011 261.917 266.25 261.917 269.011V375.057C261.917 377.819 264.155 380.057 266.917 380.057H315.083Z" fill="#E5E8EE"/>
</svg>
