<svg width="440" height="405" viewBox="0 0 440 405" fill="none" xmlns="http://www.w3.org/2000/svg">
<g clip-path="url(#clip0_322_26168)">
<path d="M257.113 119.183C261.043 119.183 264.608 121.484 266.226 125.066L286.289 169.479C289.279 176.098 284.439 183.596 277.176 183.596H160.186C153.089 183.596 148.251 176.41 150.921 169.834L168.952 125.421C170.483 121.65 174.148 119.183 178.218 119.183H257.113ZM163.75 202C153.621 202 145.333 210.282 145.333 220.404C145.333 230.526 153.621 238.808 163.75 238.808C173.879 238.808 182.167 230.526 182.167 220.404C182.167 210.282 173.879 202 163.75 202ZM274.25 202C264.121 202 255.833 210.282 255.833 220.404C255.833 230.526 264.121 238.808 274.25 238.808C284.379 238.808 292.667 230.526 292.667 220.404C292.667 210.282 284.379 202 274.25 202ZM378.809 70.5345C382.422 72.139 384.75 75.7209 384.75 79.6737V183.596C384.75 284.887 315.204 379.661 221.37 403.848C219.818 404.248 218.182 404.248 216.63 403.848C122.796 379.661 53.25 284.887 53.25 183.596V79.6737C53.25 75.7209 55.5784 72.139 59.191 70.5345L214.941 1.36049C217.525 0.212712 220.475 0.212713 223.059 1.36049L378.809 70.5345ZM329.5 204.069C329.5 202.704 329.221 201.354 328.679 200.101L289.72 109.981C286.037 99.3066 275.723 91.577 263.568 91.577H171.485C159.33 91.577 149.017 99.3066 145.333 109.981L109.216 200.211C108.743 201.393 108.5 202.654 108.5 203.927V275.615C108.5 285.738 116.787 294.019 126.917 294.019H145.333C155.462 294.019 163.75 285.738 163.75 275.615V267.212C163.75 261.689 168.227 257.212 173.75 257.212H264.25C269.773 257.212 274.25 261.689 274.25 267.212V275.615C274.25 285.738 282.537 294.019 292.667 294.019H311.083C321.212 294.019 329.5 285.738 329.5 275.615V204.069Z" fill="#E5E8EE"/>
</g>
<defs>
<clipPath id="clip0_322_26168">
<rect width="440" height="405" fill="white"/>
</clipPath>
</defs>
</svg>
