<svg width="100" height="100" viewBox="0 0 100 100" fill="none" xmlns="http://www.w3.org/2000/svg">
<path d="M83.0144 35C82.8705 35 82.7554 35 82.6115 34.9644C82.4964 34.9288 82.3525 34.8932 82.2374 34.8221C82.1223 34.7509 82.0072 34.6797 81.8921 34.6085C81.777 34.5374 81.6906 34.395 81.5755 34.2883C81.2014 33.8256 81 33.1851 81 32.5089C81 32.331 81 32.1886 81.0288 32.0107C81.0576 31.8683 81.0863 31.6904 81.1439 31.548C81.2014 31.4057 81.259 31.2633 81.3165 31.121C81.4029 30.9786 81.4892 30.8363 81.5755 30.7295C81.6619 30.6228 81.777 30.516 81.8921 30.4093C82.0072 30.3025 82.1223 30.2313 82.2374 30.1957C82.3525 30.1246 82.4964 30.089 82.6115 30.0534C82.8705 29.9822 83.1295 29.9822 83.3885 30.0534C83.5036 30.089 83.6475 30.1246 83.7626 30.1957C83.8777 30.2669 83.9928 30.3381 84.1079 30.4093C84.223 30.516 84.3094 30.6228 84.4245 30.7295C84.5396 30.8363 84.5971 30.9786 84.6835 31.121C84.7698 31.2633 84.8273 31.4057 84.8561 31.548C84.9137 31.6904 84.9425 31.8683 84.9712 32.0107C85 32.1886 85 32.331 85 32.5089C85 33.1851 84.7698 33.8256 84.3957 34.2883C84.3094 34.395 84.1942 34.5018 84.0791 34.6085C83.964 34.7153 83.8489 34.7865 83.7338 34.8221C83.6187 34.8932 83.4748 34.9288 83.3597 34.9644C83.2734 35 83.1295 35 83.0144 35Z" fill="url(#paint0_linear_322_26467)"/>
<path d="M90.5995 23.0849C90.3958 23.06 85.4815 22.6868 80.72 23.7317C78.5811 24.2044 76.5696 24.901 74.7108 25.7469C73.9469 26.0952 73.6414 26.9908 73.9978 27.7372C74.3543 28.4835 75.271 28.7821 76.0349 28.4338C77.6645 27.6625 79.4723 27.0655 81.382 26.6176C84.2339 25.9708 87.213 25.921 88.919 25.9708V55.2779H80.5163L79.1668 51.6207C78.8867 50.8495 77.9955 50.4514 77.2061 50.7251C76.4168 50.9988 76.0094 51.8695 76.2895 52.6408L77.0788 54.8052L72.5719 58.3629C71.9099 58.8853 71.808 59.8307 72.3428 60.4527C72.6483 60.8258 73.0812 61 73.5395 61C73.8705 61 74.227 60.9005 74.5071 60.6766L78.2756 57.716C78.5557 58.0643 78.9885 58.2633 79.4723 58.2633H90.4722C91.3125 58.2633 92 57.5916 92 56.7706V24.5776C92 23.8063 91.3889 23.1595 90.5995 23.0849Z" fill="url(#paint1_linear_322_26467)"/>
<path d="M68.7945 31.6875C63.8297 30.6524 54.9949 28.9518 51.4049 29.001C49.6482 29.0257 47.5604 29.839 45.2689 31.4411C41.5772 34.0043 37.8599 38.145 36.8415 40.2646C35.8995 42.2363 35.543 45.1939 36.867 47.3382C37.5544 48.4473 38.9293 49.8028 41.7554 49.9754C41.9081 49.9754 42.0609 50 42.2137 50C47.5604 50 54.0528 44.208 54.8167 43.5179C55.4277 42.9511 55.4532 42.0145 54.8676 41.423C54.282 40.8314 53.3145 40.8068 52.7034 41.3737C50.8957 43.025 45.4472 47.2642 41.9591 47.0424C40.7624 46.9685 39.9477 46.5741 39.5149 45.8594C38.802 44.701 39.0311 42.8032 39.6422 41.5462C40.3551 40.0428 43.6904 36.2225 47.0512 33.9057C48.7825 32.698 50.3611 32.0326 51.4559 32.0079C53.8492 31.9833 59.9342 32.9445 68.158 34.6451C68.9727 34.8177 69.7875 34.3001 69.9657 33.5114C70.1439 32.6488 69.6092 31.8601 68.7945 31.6875Z" fill="url(#paint2_linear_322_26467)"/>
<path d="M90.581 42.8546L76.5361 25.6578C75.9222 24.8866 74.7965 24.7838 74.0291 25.4007L53.6653 41.9549C52.8978 42.5718 52.7699 43.7029 53.4095 44.474C54.0235 45.2452 55.1491 45.3737 55.9166 44.7311L74.8989 29.3079L86.6668 43.7286L70.5754 56.8125C69.8079 57.4295 69.68 58.5605 70.3196 59.3317C70.6777 59.7687 71.1894 60 71.701 60C72.0848 60 72.4941 59.8715 72.8267 59.5887L90.3252 45.3994C90.6833 45.091 90.9391 44.654 90.9903 44.1913C91.0415 43.7029 90.888 43.2145 90.581 42.8546Z" fill="url(#paint3_linear_322_26467)"/>
<path d="M71.1471 49.3596C71.9243 49.3596 72.757 49.1802 73.5064 48.8728L74.006 49.4364C74.3391 49.8207 74.811 50 75.3106 50C75.6715 50 76.06 49.8975 76.3654 49.667C77.087 49.129 77.1981 48.1555 76.6152 47.5151L76.1156 46.9515C76.3654 46.6185 76.5874 46.2854 76.7262 45.9268C76.8095 45.7475 76.865 45.5425 76.9205 45.312C77.1426 44.3129 76.8928 43.2882 76.2543 42.5196C75.8657 42.0585 75.4216 41.7255 74.922 41.4949C73.3121 40.7776 71.6745 41.4437 70.3699 41.956C69.8703 42.161 69.0653 42.4684 68.7877 42.4428C68.76 42.4172 68.7322 42.3915 68.7045 42.3403C68.6212 42.2122 68.6212 41.9304 68.7877 41.6999C68.8433 41.623 68.9265 41.5462 68.982 41.4437C69.0375 41.4181 69.0653 41.3924 69.1208 41.3668C69.2318 41.29 69.3429 41.1875 69.4261 41.0594C69.9813 40.6751 70.6197 40.4958 71.0083 40.6239C71.8688 40.9313 72.8402 40.5214 73.1456 39.7273C73.4787 38.9331 73.0345 38.0365 72.1741 37.7547C71.0083 37.3448 69.6204 37.4729 68.3714 38.0621L67.955 37.5754C67.3721 36.9093 66.3174 36.8069 65.6234 37.3448C64.9018 37.8828 64.7907 38.8563 65.3736 39.4967L65.9288 40.1372C65.1516 41.3412 65.1238 42.8783 65.9288 44.0055C67.5942 46.4135 70.2866 45.3376 71.73 44.7484C72.2296 44.5434 73.2844 44.1335 73.5342 44.236C73.5342 44.236 73.5897 44.2616 73.6729 44.3641C73.7007 44.3897 73.7285 44.5178 73.7007 44.6459C73.6729 44.6971 73.6729 44.7484 73.6729 44.7484C73.6729 44.774 73.673 44.774 73.6452 44.7996C73.5897 44.9789 73.4509 45.1326 73.2844 45.312C73.2011 45.3888 73.1178 45.44 73.0345 45.5169C72.979 45.5425 72.9235 45.5938 72.868 45.6194C72.8402 45.645 72.8125 45.6706 72.7847 45.6962C72.1463 46.1317 71.3969 46.3367 70.8418 46.2086C69.9535 46.0293 69.0653 46.5416 68.8433 47.3614C68.649 48.1811 69.2041 49.0009 70.0923 49.2059C70.4254 49.3339 70.7862 49.3596 71.1471 49.3596Z" fill="url(#paint4_linear_322_26467)"/>
<path d="M75.8371 59.541C75.4527 58.9293 74.9658 58.3686 74.4276 57.8588C70.2246 53.8827 60.4347 45.217 55.0272 40.7566C54.3609 40.2214 53.4127 40.2979 52.8745 40.9605C52.3363 41.6232 52.4132 42.5663 53.0795 43.1015C58.4614 47.5109 68.1487 56.1002 72.3261 60.0508C72.6849 60.3821 72.9924 60.7644 73.2487 61.1467C73.6331 61.7584 74.4532 63.3132 73.4281 64.562C73.2487 64.7659 72.403 65.4796 72.1723 65.607C71.4804 65.9639 71.1728 65.9129 70.8909 65.8109C70.8909 65.8109 70.8909 65.8109 70.8653 65.8109C69.4045 65.3012 66.9442 62.5485 62.5106 57.5275C61.3573 56.2276 60.0503 54.7493 58.5895 53.1181C58.0257 52.4809 57.0518 52.43 56.4111 52.9907C55.7704 53.5514 55.7192 54.5199 56.283 55.1571C57.7438 56.7883 59.0508 58.2666 60.1785 59.541C64.0995 63.9758 66.3035 66.4736 68.1231 67.7735C67.508 68.5381 66.7648 69.2773 65.9704 69.6851C65.3297 70.0419 64.8684 70.1948 63.7407 69.3792C63.6382 69.2518 63.5101 69.1498 63.3563 69.0734C63.3307 69.0479 63.3051 69.0479 63.2794 69.0224C61.7418 67.7735 59.5634 65.2757 56.3086 61.6055C55.1554 60.3056 53.874 58.8528 52.3876 57.1961C51.8237 56.5589 50.8499 56.508 50.2092 57.0687C49.5685 57.6294 49.5172 58.598 50.081 59.2351C51.5418 60.8663 52.8489 62.3191 53.9765 63.619C56.9237 66.9324 58.9227 69.2008 60.5116 70.6791C59.8197 71.5966 58.9483 72.4887 58.1026 72.9475C57.4106 73.3298 56.9493 73.4827 55.6423 72.4632C54.1046 71.2653 51.8494 68.7165 48.4409 64.8679C47.2876 63.568 46.0062 62.1152 44.5198 60.4586C43.956 59.8214 42.9821 59.7704 42.3414 60.3311C41.7007 60.8918 41.6495 61.8604 42.2133 62.4976C43.6741 64.1288 44.9811 65.5816 46.1087 66.8814C48.979 70.1183 50.9524 72.3358 52.5157 73.8141C51.8237 73.967 50.8243 73.967 49.3635 73.5592C43.5972 71.9789 29.2199 58.496 23.4024 52.6339L28.5536 33.2888H46.4419C47.2876 33.2888 47.9796 32.6006 47.9796 31.7595C47.9796 30.9184 47.2876 30.2303 46.4419 30.2303H29.4506L29.9375 28.3697C30.1169 27.7325 29.835 27.0443 29.2712 26.6875C29.143 26.611 26.2727 24.8779 19.2763 23.629C14.5095 22.8389 9.66581 23.0173 9.48642 23.0173C8.6407 23.0682 8 23.7309 8 24.5465V57.553C8 58.3941 8.69195 59.0822 9.53768 59.0822H20.6089C21.3009 59.0822 21.916 58.6234 22.0954 57.9353L22.5823 56.1257C27.7591 61.1977 42.0339 74.7826 48.6459 76.5667C49.7991 76.8726 50.773 77 51.6444 77C53.4639 77 54.6684 76.4393 55.4373 75.904C56.0524 76.1844 56.6674 76.3373 57.2825 76.3373C58.0513 76.3373 58.8202 76.1079 59.6403 75.6746C61.1011 74.8845 62.2799 73.5847 63.0744 72.5397C63.7664 72.8965 64.4583 73.0749 65.1503 73.0749C65.9191 73.0749 66.6879 72.8455 67.508 72.4122C69.1739 71.5202 70.4296 69.9909 71.1728 68.9714C71.2241 68.9714 71.2753 68.9714 71.3266 68.9714C72.0954 68.9714 72.8643 68.742 73.6844 68.3087C74.1969 68.0284 75.4014 67.0344 75.8371 66.5246C77.3748 64.664 77.4004 61.9623 75.8371 59.541ZM11.0754 56.0237V26.0503C12.818 26.0503 15.8165 26.1522 18.7125 26.6875C22.8386 27.4266 25.3757 28.3187 26.6315 28.8539L19.4301 56.0237H11.0754Z" fill="url(#paint5_linear_322_26467)"/>
<path d="M17.5108 35C17.4029 35 17.3165 35 17.2086 34.9786C17.1007 34.9573 17.0144 34.9359 16.9281 34.8932C16.8417 34.8505 16.7554 34.8078 16.6691 34.7651C16.5827 34.7011 16.518 34.637 16.4317 34.573C16.3669 34.5089 16.3022 34.4235 16.2374 34.3381C16.1727 34.2527 16.1295 34.1673 16.1079 34.0818C16.0647 33.9964 16.0432 33.8897 16.0216 33.8043C16 33.7189 16 33.6121 16 33.5053C16 33.3986 16 33.3132 16.0216 33.2064C16.0432 33.121 16.0647 33.0142 16.1079 32.9288C16.1511 32.8434 16.1942 32.758 16.2374 32.6726C16.3022 32.5872 16.3453 32.5231 16.4317 32.4377C16.4964 32.3737 16.5827 32.3096 16.6691 32.2456C16.7554 32.1815 16.8417 32.1388 16.9281 32.1174C17.0144 32.0747 17.1223 32.0534 17.2086 32.032C17.4029 31.9893 17.5971 31.9893 17.7914 32.032C17.8777 32.0534 17.9856 32.0747 18.0719 32.1174C18.1583 32.1601 18.2446 32.2028 18.3309 32.2456C18.4173 32.3096 18.482 32.3737 18.5683 32.4377C18.6331 32.5018 18.6978 32.5872 18.7626 32.6726C18.8273 32.758 18.8705 32.8434 18.8921 32.9288C18.9353 33.0142 18.9568 33.121 18.9784 33.2064C19 33.2918 19 33.3986 19 33.5053C19 33.6121 19 33.6975 18.9784 33.8043C18.9568 33.8897 18.9353 33.9964 18.8921 34.0818C18.8489 34.1673 18.8058 34.2527 18.7626 34.3381C18.6978 34.4235 18.6331 34.5089 18.5683 34.573C18.2878 34.8292 17.8993 35 17.5108 35Z" fill="url(#paint6_linear_322_26467)"/>
<defs>
<linearGradient id="paint0_linear_322_26467" x1="29.4138" y1="36.306" x2="49.7525" y2="84.3581" gradientUnits="userSpaceOnUse">
<stop stop-color="#A259FF"/>
<stop offset="1" stop-color="#FF6250"/>
</linearGradient>
<linearGradient id="paint1_linear_322_26467" x1="35.1004" y1="34.7206" x2="47.0145" y2="70.3474" gradientUnits="userSpaceOnUse">
<stop stop-color="#A259FF"/>
<stop offset="1" stop-color="#FF6250"/>
</linearGradient>
<linearGradient id="paint2_linear_322_26467" x1="35.6291" y1="35.6236" x2="47.3447" y2="70.9835" gradientUnits="userSpaceOnUse">
<stop stop-color="#A259FF"/>
<stop offset="1" stop-color="#FF6250"/>
</linearGradient>
<linearGradient id="paint3_linear_322_26467" x1="35.0765" y1="35.1353" x2="47.663" y2="71.7338" gradientUnits="userSpaceOnUse">
<stop stop-color="#A259FF"/>
<stop offset="1" stop-color="#FF6250"/>
</linearGradient>
<linearGradient id="paint4_linear_322_26467" x1="31.4375" y1="34.468" x2="43.1528" y2="71.5549" gradientUnits="userSpaceOnUse">
<stop stop-color="#A259FF"/>
<stop offset="1" stop-color="#FF6250"/>
</linearGradient>
<linearGradient id="paint5_linear_322_26467" x1="35.8417" y1="34.9378" x2="48.2206" y2="71.3046" gradientUnits="userSpaceOnUse">
<stop stop-color="#A259FF"/>
<stop offset="1" stop-color="#FF6250"/>
</linearGradient>
<linearGradient id="paint6_linear_322_26467" x1="32.5622" y1="35.1858" x2="42.8896" y2="65.6852" gradientUnits="userSpaceOnUse">
<stop stop-color="#A259FF"/>
<stop offset="1" stop-color="#FF6250"/>
</linearGradient>
</defs>
</svg>
