<svg width="100" height="100" viewBox="0 0 100 100" fill="none" xmlns="http://www.w3.org/2000/svg">
<path d="M59.6511 54.8116H59.2744V52.4395C61.3651 50.8349 63 48.714 64.0279 46.3186C64.9465 47.2047 66.1953 47.7488 67.5697 47.7488C70.3883 47.7488 72.6813 45.4558 72.6813 42.6372V42.0558V38.0605C72.7302 37.8558 72.7302 37.6395 72.6813 37.4302V35.4512V27.2535C72.6813 14.7465 62.5069 4.56976 50.0023 4.56976C45.7116 4.56976 41.5999 5.76511 38.0372 7.99767C37.5953 7.93488 37.1418 7.93721 36.686 8.01162C35.4883 8.20697 34.4465 8.86511 33.7558 9.86279C33.186 10.6837 32.3488 12.0767 31.6395 13.9721C28.8372 17.8209 27.3232 22.4256 27.3232 27.2512V35.4488V42.0558V42.6372C27.3232 45.4558 29.6162 47.7488 32.4348 47.7488C33.8069 47.7488 35.0534 47.2047 35.972 46.3233C36.7627 48.1744 37.9186 49.8651 39.4046 51.3C39.8209 51.7023 40.2651 52.0814 40.7325 52.4395V54.8116H40.3534C28.9418 54.8116 19.6558 64.0953 19.6558 75.5093V81.9651C19.6558 84.4465 21.5139 86.5326 23.979 86.8163L30.3813 87.5535C32.1837 87.7628 33.9395 88.2186 35.6209 88.9186L35.6488 88.9302C40.1976 90.8209 45.0023 91.7814 49.9325 91.7814C54.8906 91.7814 59.7209 90.8116 64.286 88.9023C65.8813 88.2349 67.5581 87.7977 69.2744 87.5977L76.0279 86.8163C78.493 86.5326 80.3511 84.4465 80.3511 81.9651V75.5093C80.3488 64.0977 71.0627 54.8116 59.6511 54.8116ZM43.5186 54.1395C45.5325 55.086 47.7348 55.5837 50 55.5837C52.2651 55.5837 54.4674 55.0884 56.4837 54.1395V56.1372C56.4837 59.7116 53.5744 62.6186 50 62.6186C46.4255 62.6186 43.5186 59.7116 43.5186 56.1372V54.1395ZM36.4906 30.1302C35.4069 28.7419 32.4418 24.3349 33.2976 18.6372C33.4674 17.5093 33.7511 16.3814 34.1255 15.307C34.6813 14.5721 35.2906 13.8698 35.9534 13.2046C36.7279 12.4302 37.5558 11.7326 38.4232 11.1023L42.0953 13.7233C43.4418 14.6837 45.2209 14.8581 46.7372 14.1791C49.193 13.0767 54 11.3977 58.6325 12.5116C58.8441 12.5744 61.7604 13.4837 63.3232 15.8767C64.8837 18.2698 65.6488 23.8116 64.5441 28.1209C63.6814 24.5767 62.2395 20.6419 56.3604 16.4535C56.0162 16.207 55.579 16.1326 55.172 16.2465C54.7651 16.3605 54.4325 16.6535 54.2674 17.0419C51.0139 24.6907 44.4023 29.5395 36.4906 30.1302ZM69.8883 36.9907C68.9325 37.5837 67.1232 38.7093 65.2813 39.8651L65.4697 34.4698C65.8395 33.6791 66.6418 33.1302 67.5697 33.1302C68.8488 33.1302 69.8906 34.1721 69.8906 35.4512V36.9907H69.8883ZM69.8883 42.6395C69.8883 43.9186 68.8465 44.9605 67.5674 44.9605C66.4627 44.9605 65.5372 44.1837 65.3046 43.1488C66.8697 42.1605 68.579 41.093 69.886 40.2791V42.0581V42.6395H69.8883ZM69.8883 30.9C69.1906 30.5442 68.4023 30.3419 67.5674 30.3419C67.286 30.3419 67.0093 30.3651 66.7418 30.4093C68.4069 25.9558 68.0116 20.1046 66.6488 16.393C68.693 19.5186 69.8883 23.2488 69.8883 27.2558V30.9ZM59.8116 9.96046C59.5534 9.86976 59.3906 9.82558 59.3581 9.81627C59.3465 9.81395 59.3325 9.8093 59.3209 9.80697C53.872 8.48604 48.3837 10.386 45.5999 11.6349C44.9837 11.9116 44.2651 11.8419 43.7209 11.4535L41.0139 9.52093C43.7697 8.11162 46.8302 7.36046 50.0023 7.36046C53.5674 7.36046 56.9139 8.3093 59.8116 9.96046ZM30.5372 23.1674C30.9976 26.2791 32.2465 28.7837 33.279 30.4116C33.0023 30.3651 32.7186 30.3395 32.4302 30.3395C31.5953 30.3395 30.8069 30.5419 30.1093 30.8977V27.2535C30.1116 25.8651 30.2581 24.4977 30.5372 23.1674ZM32.4302 44.9581C31.1511 44.9581 30.1093 43.9186 30.1093 42.6372V42.0558V35.4488C30.1093 34.1698 31.1511 33.1279 32.4302 33.1279C33.3581 33.1279 34.1581 33.6767 34.5302 34.4651L34.7511 40.8233V42.6349C34.7511 43.9186 33.7093 44.9581 32.4302 44.9581ZM37.5418 40.7674V35.4512C37.5418 34.914 37.4581 34.3953 37.3023 33.907L37.2651 32.8605C45.3069 32.0512 52.3092 27.1651 56.086 19.7442C60.6302 23.4163 61.3604 26.6535 62.1302 30.0605C62.3116 30.8674 62.5023 31.6977 62.7418 32.5279L62.693 33.907C62.5395 34.393 62.4558 34.9116 62.4558 35.4488V40.7651C62.4441 41.0814 62.4186 41.3884 62.386 41.6907C62.0837 41.8837 61.793 42.0698 61.5255 42.2419C60.4186 42.9535 59.1999 43.4093 57.9023 43.5977L55.5232 43.9442C55.0325 43.2512 54.2255 42.7977 53.3162 42.7977H51.5697C50.0767 42.7977 48.8627 44.0116 48.8627 45.5047C48.8627 46.9977 50.0767 48.2116 51.5697 48.2116H53.3162C54.3651 48.2116 55.2744 47.6093 55.7232 46.7349L58.3046 46.3581C59.3581 46.2046 60.372 45.9163 61.3372 45.4953C60.4093 47.5209 58.9465 49.293 57.086 50.5791C54.9976 52.0233 52.5465 52.786 50 52.786C47.4534 52.786 45.0023 52.0233 42.9186 50.5814C42.3534 50.1884 41.8232 49.7535 41.3395 49.286C39.0046 47.0372 37.6558 44.0116 37.5418 40.7674ZM77.5581 81.9651C77.5581 83.0279 76.7627 83.9233 75.7046 84.0442L68.9511 84.8256C66.9767 85.0535 65.0441 85.5605 63.2069 86.3279C58.9813 88.0953 54.5162 88.993 49.9302 88.993C45.3697 88.993 40.9232 88.1046 36.6999 86.3488L36.672 86.3372C34.7697 85.5442 32.7604 85.0233 30.6976 84.7837L24.2953 84.0465C23.2395 83.9256 22.4441 83.0302 22.4441 81.9674V75.5116C22.4441 65.6372 30.4767 57.6046 40.3511 57.6046H40.8465C41.5511 62.0233 45.3883 65.4093 50.0023 65.4093C54.6162 65.4093 58.4534 62.0233 59.1604 57.6046H59.6534C69.5279 57.6046 77.5604 65.6372 77.5604 75.5116V81.9651H77.5581ZM67.179 68.5372H57.2372C56.4674 68.5372 55.8418 69.1628 55.8418 69.9326V74.9046C55.8418 78.414 58.6976 81.2721 62.2093 81.2721C65.7209 81.2721 68.5767 78.4163 68.5767 74.9046V69.9326C68.5744 69.1628 67.9488 68.5372 67.179 68.5372Z" fill="url(#paint0_linear_507_17868)"/>
<defs>
<linearGradient id="paint0_linear_507_17868" x1="19.3741" y1="24.1397" x2="79.7863" y2="84.5519" gradientUnits="userSpaceOnUse">
<stop stop-color="#A259FF"/>
<stop offset="1" stop-color="#FF6250"/>
</linearGradient>
</defs>
</svg>
