<svg width="60" height="60" viewBox="0 0 60 60" fill="none" xmlns="http://www.w3.org/2000/svg">
<path d="M54.8749 9.3025L54.8124 8.8825L54.7474 8.8975C54.3032 6.82009 53.2798 4.91092 51.7957 3.39088C50.3117 1.87084 48.4276 0.80206 46.3614 0.308209C44.2952 -0.185643 42.1314 -0.0843843 40.1204 0.600269C38.1094 1.28492 36.3333 2.52499 34.9977 4.17698C33.6621 5.82897 32.8215 7.82537 32.5732 9.93519C32.3249 12.045 32.6791 14.182 33.5947 16.0989C34.5104 18.0158 35.95 19.6343 37.7472 20.7671C39.5443 21.8999 41.6255 22.5007 43.7499 22.5C44.3074 22.5 44.8424 22.415 45.3749 22.3375C45.2024 22.9175 45.0249 23.5075 44.7399 24.0375C44.4549 24.8075 44.0099 25.475 43.5674 26.1475C43.1974 26.875 42.5449 27.3675 42.0649 27.99C41.5624 28.595 40.8774 28.9975 40.3349 29.5C39.8024 30.025 39.1049 30.2875 38.5499 30.6575C37.9699 30.99 37.4649 31.3575 36.9249 31.5325L35.5774 32.0875L34.3924 32.58L35.6024 37.4275L37.0949 37.0675C37.5724 36.9475 38.1549 36.8075 38.8174 36.64C39.4949 36.515 40.2174 36.1725 41.0224 35.86C41.8149 35.5025 42.7374 35.265 43.5924 34.6925C44.4524 34.1475 45.4449 33.6925 46.3199 32.9625C47.1674 32.21 48.1899 31.5575 48.9449 30.6025C49.7699 29.7075 50.5849 28.7675 51.2174 27.6975C51.9499 26.6775 52.4474 25.5575 52.9724 24.45C53.4474 23.3425 53.8299 22.21 54.1424 21.11C54.7349 18.905 54.9999 16.81 55.1024 15.0175C55.1874 13.2225 55.1374 11.73 55.0324 10.65C54.9972 10.199 54.9447 9.74947 54.8749 9.3025ZM27.3749 9.3025L27.3124 8.8825L27.2474 8.8975C26.8032 6.82009 25.7798 4.91092 24.2957 3.39088C22.8117 1.87084 20.9276 0.80206 18.8614 0.308209C16.7952 -0.185643 14.6314 -0.0843843 12.6204 0.600269C10.6094 1.28492 8.8333 2.52499 7.49768 4.17698C6.16206 5.82897 5.32148 7.82537 5.0732 9.93519C4.82492 12.045 5.17909 14.182 6.09472 16.0989C7.01036 18.0158 8.45005 19.6343 10.2472 20.7671C12.0443 21.8999 14.1255 22.5007 16.2499 22.5C16.8074 22.5 17.3424 22.415 17.8749 22.3375C17.7024 22.9175 17.5249 23.5075 17.2399 24.0375C16.9549 24.8075 16.5099 25.475 16.0674 26.1475C15.6974 26.875 15.0449 27.3675 14.5649 27.99C14.0624 28.595 13.3774 28.9975 12.8349 29.5C12.3024 30.025 11.6049 30.2875 11.0499 30.6575C10.4699 30.99 9.96488 31.3575 9.42488 31.5325L8.07738 32.0875C7.32488 32.395 6.89488 32.575 6.89488 32.575L8.10488 37.4225L9.59738 37.0625C10.0749 36.9425 10.6574 36.8025 11.3199 36.635C11.9974 36.51 12.7199 36.1675 13.5249 35.855C14.3174 35.4975 15.2399 35.26 16.0949 34.6875C16.9549 34.1425 17.9474 33.6875 18.8224 32.9575C19.6699 32.205 20.6924 31.5525 21.4474 30.5975C22.2724 29.7025 23.0874 28.7625 23.7199 27.6925C24.4524 26.6725 24.9499 25.5525 25.4749 24.445C25.9499 23.3375 26.3324 22.205 26.6449 21.105C27.2374 18.9 27.5024 16.805 27.6049 15.0125C27.6899 13.2175 27.6399 11.725 27.5349 10.645C27.4976 10.1957 27.4442 9.74795 27.3749 9.3025Z" fill="white"/>
</svg>
