<svg width="100" height="100" viewBox="0 0 100 100" fill="none" xmlns="http://www.w3.org/2000/svg">
<g clip-path="url(#clip0_322_20298)">
<g filter="url(#filter0_b_322_20298)">
<rect width="100" height="100" rx="20" fill="url(#paint0_linear_322_20298)" fill-opacity="0.6"/>
<rect x="1" y="1" width="98" height="98" rx="19" stroke="url(#paint1_radial_322_20298)" stroke-width="2"/>
<rect x="1" y="1" width="98" height="98" rx="19" stroke="url(#paint2_radial_322_20298)" stroke-width="2"/>
</g>
<path d="M72.6638 40.8723H59.1466V33.2964C59.1466 33.288 59.1449 33.2796 59.1449 33.2695C59.1449 33.2543 59.1432 33.2374 59.1432 33.2223C59.1398 33.1868 59.1364 33.1514 59.1297 33.116C59.128 33.1076 59.1263 33.0975 59.1246 33.0891C59.1161 33.0503 59.106 33.0132 59.0925 32.9761C59.0891 32.9643 59.084 32.9525 59.0789 32.939C59.0654 32.902 59.0501 32.8666 59.0315 32.8312C59.0298 32.8278 59.0281 32.8244 59.0264 32.821C59.0061 32.7823 58.9824 32.7452 58.9554 32.7098C58.9486 32.7013 58.9435 32.6929 58.9367 32.6845C58.9097 32.6491 58.8792 32.6137 58.847 32.58L48.52 22.2933C48.4878 22.2613 48.4523 22.2326 48.4168 22.2057C48.4083 22.1989 48.3998 22.1922 48.3914 22.1871C48.3558 22.1618 48.3186 22.1382 48.2797 22.118C48.2763 22.1163 48.2729 22.1146 48.2695 22.1129C48.234 22.0944 48.1967 22.0792 48.1595 22.0641C48.1477 22.059 48.1358 22.0556 48.124 22.0523C48.085 22.0388 48.0461 22.0287 48.0055 22.0202C47.9987 22.0185 47.9937 22.0185 47.9869 22.0169C47.9497 22.0101 47.9124 22.0051 47.8735 22.0034C47.8583 22.0017 47.8447 22.0017 47.8295 22.0017C47.8193 22.0017 47.8109 22 47.8007 22H23.0154C22.4553 22 22 22.4535 22 23.0115V72.3914C22 72.9494 22.4553 73.4029 23.0154 73.4029H49.0057C49.3594 75.9956 51.5951 78 54.2928 78H72.6638C75.6069 78 78 75.6146 78 72.6847V46.1893C78.0017 43.2577 75.6069 40.8723 72.6638 40.8723ZM24.0309 24.0213H46.7887V33.2964C46.7887 33.8544 47.2439 34.3079 47.8041 34.3079H57.1157V40.8723H54.2928C53.5346 40.8723 52.8136 41.0308 52.1604 41.3174V39.2422C52.1604 38.6842 51.7051 38.2307 51.1449 38.2307H30.0034C29.4432 38.2307 28.9879 38.6842 28.9879 39.2422V45.7999V65.473C28.9879 66.0309 29.4432 66.4844 30.0034 66.4844H40.8449C40.8483 66.4844 40.8517 66.4844 40.8551 66.4844C40.8585 66.4844 40.8619 66.4844 40.8652 66.4844H48.9566V71.3782H24.0309V24.0213ZM31.0188 64.4615V59.9267H39.8396V64.4615H31.0188ZM50.1295 42.8683C49.6793 43.428 49.3408 44.0787 49.1462 44.7884H41.8705V40.2536H50.1295V42.8683ZM31.0188 53.369H39.8396V57.9038H31.0188V53.369ZM41.8705 53.369H48.9566V57.9038H41.8705V53.369ZM41.8705 46.8113H48.9566V51.3461H41.8705V46.8113ZM39.8396 44.7884H31.0188V40.2536H39.8396V44.7884ZM39.8396 46.8113V51.3461H31.0188V46.8113H39.8396ZM41.8705 59.9267H48.9566V64.4615H41.8705V59.9267ZM75.9708 72.683C75.9708 74.4986 74.4883 75.9754 72.6655 75.9754H54.2928C52.4701 75.9754 50.9875 74.4986 50.9875 72.683V72.3965C50.9875 72.3948 50.9875 72.3914 50.9875 72.3897C50.9875 72.388 50.9875 72.3847 50.9875 72.383V65.4797C50.9875 65.478 50.9875 65.4746 50.9875 65.473C50.9875 65.4713 50.9875 65.4679 50.9875 65.4662V58.922C50.9875 58.9203 50.9875 58.9169 50.9875 58.9153C50.9875 58.9136 50.9875 58.9102 50.9875 58.9085V52.3643C50.9875 52.3626 50.9875 52.3593 50.9875 52.3576C50.9875 52.3559 50.9875 52.3525 50.9875 52.3508V46.1876C50.9875 45.3312 51.3192 44.5541 51.8591 43.9674C51.8845 43.9421 51.9099 43.9152 51.9336 43.8865C52.5344 43.2746 53.3704 42.8936 54.2945 42.8936H72.6655C74.4883 42.8936 75.9708 44.3703 75.9708 46.1876V72.683ZM71.1051 45.6768H55.8532C54.4349 45.6768 53.2824 46.8248 53.2824 48.2375V49.3586C53.2824 50.7712 54.4349 51.9193 55.8532 51.9193H71.1051C72.5234 51.9193 73.6759 50.7712 73.6759 49.3586V48.2375C73.6759 46.8265 72.5217 45.6768 71.1051 45.6768ZM71.645 49.3586C71.645 49.6502 71.3979 49.8963 71.1051 49.8963H55.8532C55.5604 49.8963 55.3133 49.6502 55.3133 49.3586V48.2375C55.3133 47.9459 55.5604 47.6997 55.8532 47.6997H71.1051C71.3979 47.6997 71.645 47.9459 71.645 48.2375V49.3586ZM58.2446 57.0558C58.2446 58.0808 57.4119 58.9102 56.3829 58.9102H55.8955C54.8665 58.9102 54.0338 58.0808 54.0338 57.0558C54.0338 56.0309 54.8665 55.2015 55.8955 55.2015H56.3829C57.4102 55.2015 58.2446 56.0326 58.2446 57.0558ZM65.5845 57.0558C65.5845 58.0808 64.7519 58.9102 63.7229 58.9102H63.2355C62.2065 58.9102 61.3738 58.0808 61.3738 57.0558C61.3738 56.0309 62.2065 55.2015 63.2355 55.2015H63.7229C64.7502 55.2015 65.5845 56.0326 65.5845 57.0558ZM58.2446 63.799C58.2446 64.8239 57.4119 65.6533 56.3829 65.6533H55.8955C54.8665 65.6533 54.0338 64.8239 54.0338 63.799C54.0338 62.774 54.8665 61.9446 55.8955 61.9446H56.3829C57.4102 61.9446 58.2446 62.7757 58.2446 63.799ZM65.5845 63.799C65.5845 64.8239 64.7519 65.6533 63.7229 65.6533H63.2355C62.2065 65.6533 61.3738 64.8239 61.3738 63.799C61.3738 62.774 62.2065 61.9446 63.2355 61.9446H63.7229C64.7502 61.9446 65.5845 62.7757 65.5845 63.799ZM58.2446 70.8793C58.2446 71.9042 57.4119 72.7336 56.3829 72.7336H55.8955C54.8665 72.7336 54.0338 71.9042 54.0338 70.8793C54.0338 69.8543 54.8665 69.0249 55.8955 69.0249H56.3829C57.4102 69.0249 58.2446 69.856 58.2446 70.8793ZM65.5845 70.8793C65.5845 71.9042 64.7519 72.7336 63.7229 72.7336H63.2355C62.2065 72.7336 61.3738 71.9042 61.3738 70.8793C61.3738 69.8543 62.2065 69.0249 63.2355 69.0249H63.7229C64.7502 69.0249 65.5845 69.856 65.5845 70.8793ZM72.8297 57.0558C72.8297 58.0808 71.997 58.9102 70.9681 58.9102H70.4806C69.4517 58.9102 68.619 58.0808 68.619 57.0558C68.619 56.0309 69.4517 55.2015 70.4806 55.2015H70.9681C71.9953 55.2015 72.8297 56.0326 72.8297 57.0558ZM72.8297 63.799C72.8297 64.8239 71.997 65.6533 70.9681 65.6533H70.4806C69.4517 65.6533 68.619 64.8239 68.619 63.799C68.619 62.774 69.4517 61.9446 70.4806 61.9446H70.9681C71.9953 61.9446 72.8297 62.7757 72.8297 63.799ZM72.8297 70.8793C72.8297 71.9042 71.997 72.7336 70.9681 72.7336H70.4806C69.4517 72.7336 68.619 71.9042 68.619 70.8793C68.619 69.8543 69.4517 69.0249 70.4806 69.0249H70.9681C71.9953 69.0249 72.8297 69.856 72.8297 70.8793Z" fill="url(#paint3_linear_322_20298)"/>
</g>
<defs>
<filter id="filter0_b_322_20298" x="-30" y="-30" width="160" height="160" filterUnits="userSpaceOnUse" color-interpolation-filters="sRGB">
<feFlood flood-opacity="0" result="BackgroundImageFix"/>
<feGaussianBlur in="BackgroundImageFix" stdDeviation="15"/>
<feComposite in2="SourceAlpha" operator="in" result="effect1_backgroundBlur_322_20298"/>
<feBlend mode="normal" in="SourceGraphic" in2="effect1_backgroundBlur_322_20298" result="shape"/>
</filter>
<linearGradient id="paint0_linear_322_20298" x1="50" y1="0" x2="50" y2="100" gradientUnits="userSpaceOnUse">
<stop stop-color="white" stop-opacity="0"/>
<stop offset="1" stop-color="white"/>
</linearGradient>
<radialGradient id="paint1_radial_322_20298" cx="0" cy="0" r="1" gradientUnits="userSpaceOnUse" gradientTransform="translate(82.6923 80.4762) rotate(77.5615) scale(108.255 45.9545)">
<stop stop-color="white" stop-opacity="0.57"/>
<stop offset="1" stop-color="white" stop-opacity="0"/>
</radialGradient>
<radialGradient id="paint2_radial_322_20298" cx="0" cy="0" r="1" gradientUnits="userSpaceOnUse" gradientTransform="translate(10.4567 21.9048) rotate(-95.3611) scale(111.918 31.8727)">
<stop stop-color="white" stop-opacity="0.28"/>
<stop offset="1" stop-color="white" stop-opacity="0"/>
</radialGradient>
<linearGradient id="paint3_linear_322_20298" x1="18.0258" y1="26.5495" x2="72.0616" y2="80.7975" gradientUnits="userSpaceOnUse">
<stop stop-color="#A259FF"/>
<stop offset="1" stop-color="#FF6250"/>
</linearGradient>
<clipPath id="clip0_322_20298">
<rect width="100" height="100" fill="white"/>
</clipPath>
</defs>
</svg>
