<svg width="20" height="20" viewBox="0 0 20 20" fill="none" xmlns="http://www.w3.org/2000/svg">
<path d="M19.5461 4.82004C19.3211 5.52754 19.0178 6.14338 18.6378 6.70254L18.6536 6.67754C18.2803 7.29976 17.8345 8.01865 17.3161 8.83421C16.8717 9.4781 16.6364 9.81143 16.6103 9.83421C16.4953 9.97837 16.4153 10.155 16.3878 10.3492L16.387 10.355C16.4095 10.5317 16.4911 10.6859 16.6103 10.8009L16.9436 11.1725C18.727 13.0053 19.73 14.2687 19.9528 14.9625C19.982 15.0392 19.9986 15.1275 19.9986 15.22C19.9986 15.3817 19.947 15.5309 19.8595 15.6534L19.8611 15.6509C19.7145 15.8017 19.5095 15.895 19.2828 15.895C19.2578 15.895 19.232 15.8942 19.2078 15.8917H19.2111H17.0186C17.0178 15.8917 17.0161 15.8917 17.0145 15.8917C16.7336 15.8917 16.4753 15.7934 16.2728 15.63L16.2753 15.6317C15.9803 15.3892 15.7178 15.1267 15.4828 14.8417L15.4753 14.8317C15.0914 14.3978 14.7508 14.0325 14.4536 13.7359C13.4636 12.7948 12.7331 12.3242 12.262 12.3242C12.2445 12.3225 12.2245 12.3217 12.2036 12.3217C12.0661 12.3217 11.9378 12.3642 11.832 12.4367L11.8345 12.435C11.7478 12.5434 11.6953 12.6834 11.6953 12.8342C11.6953 12.8642 11.697 12.8925 11.7011 12.9217V12.9184C11.6786 13.18 11.6653 13.4842 11.6653 13.7917C11.6653 13.8909 11.667 13.9892 11.6695 14.0875V14.0734V15.0392C11.6778 15.0784 11.6828 15.1234 11.6828 15.1692C11.6828 15.3709 11.5911 15.5509 11.4478 15.67L11.447 15.6709C11.1245 15.8184 10.7478 15.905 10.3503 15.905C10.2653 15.905 10.182 15.9009 10.0995 15.8934L10.1103 15.8942C8.79862 15.8692 7.58195 15.485 6.54779 14.8375L6.57695 14.8542C5.31779 14.0892 4.27445 13.0934 3.47945 11.9167L3.45695 11.8817C2.70195 10.88 1.99779 9.74838 1.39779 8.55504L1.33945 8.42671C0.98862 7.75838 0.625286 6.93671 0.311953 6.09171L0.261953 5.93754C0.134453 5.55754 0.0419531 5.11588 0.00361979 4.65838L0.00195312 4.63754C0.00195312 4.21643 0.249731 4.00588 0.745286 4.00588H2.93695C2.95695 4.00421 2.98029 4.00338 3.00445 4.00338C3.21112 4.00338 3.40195 4.07421 3.55279 4.19338L3.55112 4.19171C3.71779 4.37421 3.84112 4.59838 3.90195 4.84838L3.90445 4.85838C4.30779 5.99754 4.73529 6.95421 5.22695 7.87088L5.17112 7.75671C5.57279 8.56504 6.01695 9.26088 6.52362 9.90338L6.50445 9.87754C6.9489 10.4231 7.29556 10.6959 7.54445 10.6959C7.55195 10.6967 7.56112 10.6967 7.57112 10.6967C7.69445 10.6967 7.80195 10.63 7.86029 10.53L7.86112 10.5284C7.92279 10.37 7.95862 10.1859 7.95862 9.99421C7.95862 9.95338 7.95695 9.91254 7.95362 9.87254V9.87754V6.64504C7.93612 6.26421 7.84279 5.90838 7.68695 5.58921L7.69362 5.60504C7.59029 5.38504 7.46612 5.19504 7.31862 5.02588L7.32112 5.02921C7.18445 4.89254 7.09112 4.71338 7.06195 4.51338L7.06112 4.50838C7.06112 4.36671 7.12612 4.23921 7.22779 4.15588L7.22862 4.15504C7.32945 4.06254 7.46445 4.00671 7.61195 4.00671H7.61862H11.0736C11.092 4.00421 11.1128 4.00338 11.1345 4.00338C11.297 4.00338 11.4428 4.07671 11.5395 4.19171L11.5403 4.19254C11.6261 4.34921 11.677 4.53671 11.677 4.73504C11.677 4.76671 11.6753 4.79754 11.6728 4.82838V4.82421V9.13504C11.6711 9.15504 11.6703 9.17838 11.6703 9.20171C11.6703 9.35504 11.7128 9.49921 11.7861 9.62171L11.7845 9.61838C11.8453 9.70838 11.947 9.76671 12.062 9.76671C12.2086 9.75671 12.3428 9.70837 12.4553 9.63171L12.4528 9.63338C12.6795 9.47754 12.8745 9.30004 13.0436 9.09921L13.047 9.09504C13.5528 8.52338 14.0195 7.89171 14.4261 7.22004L14.4586 7.16171C14.7453 6.68671 15.0553 6.10171 15.3361 5.50088L15.3878 5.37838L15.7595 4.63504C15.8886 4.26338 16.2353 4.00171 16.6428 4.00171C16.6586 4.00171 16.6745 4.00171 16.6903 4.00254H16.6878H18.8803C19.4725 4.00254 19.6947 4.27504 19.547 4.82004H19.5461Z" fill="url(#paint0_linear_322_20169)"/>
<defs>
<linearGradient id="paint0_linear_322_20169" x1="3.23951" y1="4.00171" x2="21.3905" y2="9.88234" gradientUnits="userSpaceOnUse">
<stop stop-color="#A259FF"/>
<stop offset="1" stop-color="#FF6250"/>
</linearGradient>
</defs>
</svg>
