<svg width="18" height="18" viewBox="0 0 18 18" fill="none" xmlns="http://www.w3.org/2000/svg">
<g clip-path="url(#clip0_322_20167)">
<path d="M8.56307 0.0104096C3.80929 0.236758 0.0578859 4.19574 0.0723071 8.9549C0.076698 10.4044 0.426638 11.7726 1.04395 12.9815L0.0961558 17.5822C0.0448853 17.831 0.269339 18.0489 0.516565 17.9904L5.02471 16.9223C6.18293 17.4993 7.48385 17.8325 8.86066 17.8535C13.7195 17.9277 17.7709 14.0697 17.9223 9.21267C18.0847 4.00628 13.7877 -0.23841 8.56307 0.0104096ZM13.9423 13.87C12.622 15.1903 10.8666 15.9174 8.99953 15.9174C7.90628 15.9174 6.8596 15.6721 5.88848 15.1883L5.26066 14.8756L2.4967 15.5304L3.0785 12.7062L2.7692 12.1005C2.26506 11.1132 2.00944 10.0455 2.00944 8.92726C2.00944 7.06013 2.73652 5.30479 4.05677 3.9845C5.36522 2.67605 7.14923 1.93712 8.99966 1.93712C10.8668 1.93717 12.622 2.66425 13.9423 3.98446C15.2625 5.3047 15.9896 7.06004 15.9897 8.92713C15.9896 10.7776 15.2507 12.5616 13.9423 13.87Z" fill="url(#paint0_linear_322_20167)"/>
<path d="M13.3325 10.8633L11.6033 10.3668C11.376 10.3015 11.1312 10.366 10.9655 10.5348L10.5426 10.9656C10.3643 11.1473 10.0938 11.2057 9.85779 11.1102C9.03979 10.7791 7.31906 9.24921 6.87962 8.48394C6.75285 8.26319 6.77381 7.9872 6.92947 7.78578L7.29865 7.30816C7.4433 7.12103 7.47382 6.86971 7.37817 6.65339L6.65065 5.00796C6.47639 4.61385 5.97277 4.49913 5.64375 4.77739C5.16113 5.18558 4.58851 5.80586 4.5189 6.49304C4.39617 7.70459 4.91576 9.23186 6.88061 11.0657C9.15055 13.1843 10.9683 13.4642 12.1518 13.1775C12.8231 13.0149 13.3596 12.3631 13.6982 11.8294C13.929 11.4655 13.7467 10.9822 13.3325 10.8633Z" fill="url(#paint1_linear_322_20167)"/>
</g>
<defs>
<linearGradient id="paint0_linear_322_20167" x1="2.963" y1="-3.23935e-06" x2="20.2385" y2="3.30476" gradientUnits="userSpaceOnUse">
<stop stop-color="#A259FF"/>
<stop offset="1" stop-color="#FF6250"/>
</linearGradient>
<linearGradient id="paint1_linear_322_20167" x1="6.00723" y1="4.62414" x2="14.9478" y2="6.47801" gradientUnits="userSpaceOnUse">
<stop stop-color="#A259FF"/>
<stop offset="1" stop-color="#FF6250"/>
</linearGradient>
<clipPath id="clip0_322_20167">
<rect width="18" height="18" fill="white"/>
</clipPath>
</defs>
</svg>
