<svg width="100" height="100" viewBox="0 0 100 100" fill="none" xmlns="http://www.w3.org/2000/svg">
<g clip-path="url(#clip0_322_20608)">
<g filter="url(#filter0_b_322_20608)">
<rect width="100" height="100" rx="20" fill="url(#paint0_linear_322_20608)" fill-opacity="0.6"/>
<rect x="1" y="1" width="98" height="98" rx="19" stroke="url(#paint1_radial_322_20608)" stroke-width="2"/>
<rect x="1" y="1" width="98" height="98" rx="19" stroke="url(#paint2_radial_322_20608)" stroke-width="2"/>
</g>
<path d="M73.0731 67.0571C73.0731 68.0474 72.2819 68.8505 71.3063 68.8505H71.267C70.2913 68.8505 69.5002 68.0474 69.5002 67.0571C69.5002 66.0667 70.2913 65.2636 71.267 65.2636H71.3063C72.2819 65.2636 73.0731 66.0667 73.0731 67.0571ZM89 62.4938C89 65.6701 86.4558 68.2527 83.3265 68.2527H79.0214C78.4521 72.0667 75.1992 75 71.2847 75C67.3702 75 64.1192 72.0667 63.548 68.2527H34.2658C33.6965 72.0667 30.4436 75 26.5291 75C22.6146 75 19.3637 72.0667 18.7924 68.2527H13.8846C13.3643 68.2527 12.9069 67.9079 12.7558 67.4018C11.7997 64.1816 12.6458 61.0371 13.1268 59.6701C12.0451 58.064 11.1401 54.9354 13.4036 51.3027C13.6686 50.5255 14.9682 46.8291 16.9687 43.0469C20.0763 37.1764 23.2762 34.1315 26.4781 34C26.4938 34 26.5095 34 26.5252 34H30.3533C30.3553 34 30.3553 34 30.3572 34H49.0502C54.4469 34 61.7458 41.7676 65.4385 47.5425L79.1725 49.7882C80.639 50.0194 82.0309 50.5275 83.3069 51.2967C83.3246 51.3067 83.3403 51.3166 83.358 51.3266C83.3952 51.3485 83.4326 51.3704 83.4698 51.3924C86.1515 53.0682 88.0695 55.8162 88.733 58.9328C88.7448 58.9886 88.7526 59.0424 88.7566 59.0982L88.9921 62.4041C88.998 62.436 89 62.4639 89 62.4938ZM82.4215 53.5505H81.6971C80.7116 53.5505 79.9087 54.3655 79.9087 55.3658V56.1211C79.9087 57.1214 80.7116 57.9344 81.6971 57.9344H85.9768C85.2681 56.151 84.0254 54.6066 82.4215 53.5505ZM49.0541 36.3913H41.7866L43.096 47.4428H62.5232C58.6205 41.8971 52.627 36.3913 49.0541 36.3913ZM31.168 36.3913L26.7392 47.4428H40.7246L39.4151 36.3913H31.168ZM19.0614 44.1529C18.4665 45.2767 17.9306 46.4026 17.4712 47.4408H24.195L28.6238 36.3893H26.5547C24.3186 36.5008 21.6586 39.2548 19.0614 44.1529ZM18.0307 54.6983C18.0877 54.6465 18.1112 54.5827 18.0955 54.505C18.0818 54.4293 18.0366 54.3755 17.964 54.3496L15.0036 53.2854C14.0299 55.2403 14.3086 56.7468 14.713 57.6614L18.0307 54.6983ZM14.8131 65.8614H18.7924C19.3617 62.0474 22.6146 59.1141 26.5291 59.1141C30.4436 59.1141 33.6965 62.0474 34.2658 65.8614H40.8757V49.8341H24.994C24.992 49.8341 24.99 49.8341 24.9881 49.8341C24.9861 49.8341 24.9822 49.8341 24.9802 49.8341H16.47C16.2796 50.3183 16.1167 50.7467 15.9851 51.1014L18.7512 52.0958C19.615 52.4067 20.2353 53.138 20.4081 54.0506C20.5828 54.9653 20.2746 55.878 19.5855 56.4917L15.4571 60.1822C15.1802 60.8996 14.3616 63.3187 14.8131 65.8614ZM31.9984 67.061C31.9984 67.0591 31.9984 67.0571 31.9984 67.0571C31.9984 67.0551 31.9984 67.0531 31.9984 67.0511C31.9965 63.9923 29.5445 61.5054 26.5291 61.5054C23.5177 61.5054 21.0657 63.9903 21.0598 67.0451C21.0598 67.0491 21.0598 67.0531 21.0598 67.0571C21.0598 67.061 21.0598 67.065 21.0598 67.069C21.0657 70.1238 23.5177 72.6087 26.5291 72.6087C29.5445 72.6068 31.9965 70.1199 31.9984 67.061ZM76.754 67.065C76.754 67.063 76.754 67.061 76.754 67.0571C76.754 67.0551 76.754 67.0511 76.754 67.0491C76.75 63.9923 74.2981 61.5054 71.2847 61.5054C68.2732 61.5054 65.8213 63.9903 65.8154 67.0471C65.8154 67.0511 65.8154 67.0531 65.8154 67.0571C65.8154 67.061 65.8154 67.063 65.8154 67.067C65.8213 70.1238 68.2713 72.6068 71.2847 72.6068C74.2981 72.6068 76.75 70.1218 76.754 67.065ZM86.6442 62.5336L86.4872 60.3257H81.6971C79.412 60.3257 77.553 58.4406 77.553 56.1211V55.3658C77.553 54.0945 78.1125 52.9566 78.9939 52.1855C78.933 52.1755 78.8722 52.1616 78.8113 52.1516L64.6414 49.8341H43.2315V65.8614H63.5499C64.1192 62.0474 67.3721 59.1141 71.2866 59.1141C75.2011 59.1141 78.454 62.0474 79.0233 65.8614H83.3285C85.1424 65.8614 86.6226 64.3729 86.6442 62.5336ZM51.4747 53.2795H47.2834C46.6336 53.2795 46.1055 53.8155 46.1055 54.4751C46.1055 55.1347 46.6336 55.6707 47.2834 55.6707H51.4747C52.1245 55.6707 52.6526 55.1347 52.6526 54.4751C52.6526 53.8155 52.1264 53.2795 51.4747 53.2795ZM26.5507 65.2636H26.5115C25.5358 65.2636 24.7446 66.0667 24.7446 67.0571C24.7446 68.0474 25.5358 68.8505 26.5115 68.8505H26.5507C27.5264 68.8505 28.3175 68.0474 28.3175 67.0571C28.3175 66.0667 27.5264 65.2636 26.5507 65.2636Z" fill="url(#paint3_linear_322_20608)"/>
</g>
<defs>
<filter id="filter0_b_322_20608" x="-30" y="-30" width="160" height="160" filterUnits="userSpaceOnUse" color-interpolation-filters="sRGB">
<feFlood flood-opacity="0" result="BackgroundImageFix"/>
<feGaussianBlur in="BackgroundImageFix" stdDeviation="15"/>
<feComposite in2="SourceAlpha" operator="in" result="effect1_backgroundBlur_322_20608"/>
<feBlend mode="normal" in="SourceGraphic" in2="effect1_backgroundBlur_322_20608" result="shape"/>
</filter>
<linearGradient id="paint0_linear_322_20608" x1="50" y1="0" x2="50" y2="100" gradientUnits="userSpaceOnUse">
<stop stop-color="white" stop-opacity="0"/>
<stop offset="1" stop-color="white"/>
</linearGradient>
<radialGradient id="paint1_radial_322_20608" cx="0" cy="0" r="1" gradientUnits="userSpaceOnUse" gradientTransform="translate(82.6923 80.4762) rotate(77.5615) scale(108.255 45.9545)">
<stop stop-color="white" stop-opacity="0.57"/>
<stop offset="1" stop-color="white" stop-opacity="0"/>
</radialGradient>
<radialGradient id="paint2_radial_322_20608" cx="0" cy="0" r="1" gradientUnits="userSpaceOnUse" gradientTransform="translate(10.4567 21.9048) rotate(-95.3611) scale(111.918 31.8727)">
<stop stop-color="white" stop-opacity="0.28"/>
<stop offset="1" stop-color="white" stop-opacity="0"/>
</radialGradient>
<linearGradient id="paint3_linear_322_20608" x1="23.618" y1="34.4061" x2="72.0306" y2="82.1002" gradientUnits="userSpaceOnUse">
<stop stop-color="#A259FF"/>
<stop offset="1" stop-color="#FF6250"/>
</linearGradient>
<clipPath id="clip0_322_20608">
<rect width="100" height="100" fill="white"/>
</clipPath>
</defs>
</svg>
