<svg width="80" height="80" viewBox="0 0 80 80" fill="none" xmlns="http://www.w3.org/2000/svg">
<path d="M55.7707 13.3289H46.269C45.4402 10.7091 42.9429 8.80005 39.9992 8.80005C37.0555 8.80005 34.5583 10.7091 33.7294 13.3289H24.2278C19.2493 13.3289 15.1992 17.2968 15.1992 22.1722V62.3584C15.1992 67.2339 19.2493 71.2 24.2278 71.2H55.7707C60.7492 71.2 64.7992 67.2339 64.7992 62.3584V22.1722C64.7992 17.295 60.7492 13.3289 55.7707 13.3289ZM62.6648 62.3584C62.6648 66.0808 59.5717 69.1098 55.7707 69.1098H24.2278C20.4267 69.1098 17.3336 66.0808 17.3336 62.3584V22.1722C17.3336 18.4482 20.4267 15.4191 24.2278 15.4191H33.4359V19.1414C33.4359 19.718 33.9144 20.1865 34.5031 20.1865H45.4935C46.0823 20.1865 46.5607 19.718 46.5607 19.1414V15.4191H55.7689C59.5699 15.4191 62.663 18.4482 62.663 22.1722V62.3584H62.6648ZM52.7505 38.624C52.5282 37.2375 51.3703 36.2255 49.9758 36.1749L48.5013 28.3175C48.2042 26.7376 46.872 25.5915 45.3299 25.5915H34.665C33.1247 25.5915 31.7907 26.7376 31.4936 28.3175L30.0191 36.1749C28.6246 36.2255 27.4667 37.2375 27.2444 38.624L26.1167 45.6454C26.0687 45.9467 26.1576 46.255 26.3604 46.4867C26.5631 46.7184 26.8602 46.8525 27.1715 46.8525H28.0946V50.3257C28.0946 50.9023 28.573 51.3708 29.1618 51.3708H34.6881C35.2769 51.3708 35.7553 50.9023 35.7553 50.3257V46.8525H44.2378V50.3257C44.2378 50.9023 44.7163 51.3708 45.305 51.3708H50.8313C51.4201 51.3708 51.8985 50.9023 51.8985 50.3257V46.8525H52.8217C53.1329 46.8525 53.43 46.7184 53.6327 46.4867C53.8355 46.255 53.9244 45.9467 53.8764 45.6454L52.7505 38.624ZM33.596 28.6955C33.7063 28.1084 34.1563 27.6817 34.6685 27.6817H45.3335C45.8439 27.6817 46.2957 28.1084 46.406 28.6955L47.8076 36.1715H32.1944L33.596 28.6955ZM29.3557 38.948C29.4197 38.5491 29.7452 38.2599 30.1294 38.2599H49.0829H49.0847H49.0864H49.8673C50.2515 38.2599 50.577 38.5491 50.641 38.948L51.5748 44.7623H50.842C50.8384 44.7623 50.8349 44.7623 50.8313 44.7623C50.8278 44.7623 50.8242 44.7623 50.8207 44.7623H45.3174C45.3139 44.7623 45.3103 44.7623 45.3068 44.7623C45.3032 44.7623 45.2997 44.7623 45.2961 44.7623H34.6988C34.6952 44.7623 34.6917 44.7623 34.6881 44.7623C34.6846 44.7623 34.681 44.7623 34.6774 44.7623H29.1707C29.1671 44.7623 29.1636 44.7623 29.16 44.7623C29.1564 44.7623 29.1529 44.7623 29.1493 44.7623H28.4165L29.3557 38.948ZM33.6227 49.2806H30.2308V46.8525H33.6227V49.2806ZM49.7677 49.2806H46.3758V46.8525H49.7677V49.2806ZM31.6679 41.8342C31.6679 41.2577 32.1464 40.7891 32.7351 40.7891H35.8033C36.3921 40.7891 36.8705 41.2577 36.8705 41.8342C36.8705 42.4108 36.3921 42.8793 35.8033 42.8793H32.7351C32.1446 42.8793 31.6679 42.4108 31.6679 41.8342ZM43.1279 41.8342C43.1279 41.2577 43.6064 40.7891 44.1951 40.7891H47.2633C47.8521 40.7891 48.3305 41.2577 48.3305 41.8342C48.3305 42.4108 47.8521 42.8793 47.2633 42.8793H44.1951C43.6064 42.8793 43.1279 42.4108 43.1279 41.8342ZM52.939 58.7075C52.939 59.2841 52.4606 59.7526 51.8718 59.7526H28.1266C27.5379 59.7526 27.0594 59.2841 27.0594 58.7075C27.0594 58.131 27.5379 57.6624 28.1266 57.6624H51.8718C52.4606 57.6624 52.939 58.131 52.939 58.7075ZM47.153 64.4347C47.153 65.0113 46.6746 65.4798 46.0858 65.4798H33.9126C33.3239 65.4798 32.8454 65.0113 32.8454 64.4347C32.8454 63.8582 33.3239 63.3896 33.9126 63.3896H46.0858C46.6746 63.3896 47.153 63.8564 47.153 64.4347Z" fill="url(#paint0_linear_322_20595)"/>
<defs>
<linearGradient id="paint0_linear_322_20595" x1="15.4731" y1="18.2458" x2="63.4994" y2="67.2873" gradientUnits="userSpaceOnUse">
<stop stop-color="#A259FF"/>
<stop offset="1" stop-color="#FF6250"/>
</linearGradient>
</defs>
</svg>
