<svg width="24" height="24" viewBox="0 0 24 24" fill="none" xmlns="http://www.w3.org/2000/svg">
<circle cx="12" cy="11.9998" r="10" fill="#6DAE2C"/>
<path d="M10.6 13.7998L8.425 11.6248C8.24167 11.4414 8.01667 11.3498 7.75 11.3498C7.48333 11.3498 7.25 11.4498 7.05 11.6498C6.86667 11.8331 6.775 12.0664 6.775 12.3498C6.775 12.6331 6.86667 12.8664 7.05 13.0498L9.9 15.8998C10.0833 16.0831 10.3167 16.1748 10.6 16.1748C10.8833 16.1748 11.1167 16.0831 11.3 15.8998L16.975 10.2248C17.1583 10.0414 17.25 9.81642 17.25 9.54976C17.25 9.28309 17.15 9.04976 16.95 8.84976C16.7667 8.66642 16.5333 8.57476 16.25 8.57476C15.9667 8.57476 15.7333 8.66642 15.55 8.84976L10.6 13.7998ZM12 21.9998C10.6167 21.9998 9.31667 21.7371 8.1 21.2118C6.88333 20.6871 5.825 19.9748 4.925 19.0748C4.025 18.1748 3.31267 17.1164 2.788 15.8998C2.26267 14.6831 2 13.3831 2 11.9998C2 10.6164 2.26267 9.31642 2.788 8.09976C3.31267 6.88309 4.025 5.82476 4.925 4.92476C5.825 4.02476 6.88333 3.31209 8.1 2.78676C9.31667 2.26209 10.6167 1.99976 12 1.99976C13.3833 1.99976 14.6833 2.26209 15.9 2.78676C17.1167 3.31209 18.175 4.02476 19.075 4.92476C19.975 5.82476 20.6873 6.88309 21.212 8.09976C21.7373 9.31642 22 10.6164 22 11.9998C22 13.3831 21.7373 14.6831 21.212 15.8998C20.6873 17.1164 19.975 18.1748 19.075 19.0748C18.175 19.9748 17.1167 20.6871 15.9 21.2118C14.6833 21.7371 13.3833 21.9998 12 21.9998Z" fill="#CEE7B5"/>
</svg>
