<svg width="80" height="80" viewBox="0 0 80 80" fill="none" xmlns="http://www.w3.org/2000/svg">
<path d="M30.8957 32.9994H54.3739C54.9886 32.9994 55.4838 32.5055 55.4838 31.8924C55.4838 31.2793 54.9886 30.7854 54.3739 30.7854H30.8957C30.281 30.7854 29.7858 31.2793 29.7858 31.8924C29.7858 32.5055 30.281 32.9994 30.8957 32.9994ZM54.3739 39.6244H30.8957C30.281 39.6244 29.7858 40.1183 29.7858 40.7314C29.7858 41.3445 30.281 41.8384 30.8957 41.8384H54.3739C54.9886 41.8384 55.4838 41.3445 55.4838 40.7314C55.4667 40.1183 54.9886 39.6244 54.3739 39.6244ZM54.3739 48.4463H30.8957C30.281 48.4463 29.7858 48.9402 29.7858 49.5533C29.7858 50.1665 30.281 50.6603 30.8957 50.6603H54.3739C54.9886 50.6603 55.4838 50.1665 55.4838 49.5533C55.4838 48.9402 54.9886 48.4463 54.3739 48.4463ZM54.3739 57.2683H30.8957C30.281 57.2683 29.7858 57.7622 29.7858 58.3753C29.7858 58.9884 30.281 59.4823 30.8957 59.4823H54.3739C54.9886 59.4823 55.4838 58.9884 55.4838 58.3753C55.4838 57.7622 54.9886 57.2683 54.3739 57.2683ZM30.8957 32.9994H54.3739C54.9886 32.9994 55.4838 32.5055 55.4838 31.8924C55.4838 31.2793 54.9886 30.7854 54.3739 30.7854H30.8957C30.281 30.7854 29.7858 31.2793 29.7858 31.8924C29.7858 32.5055 30.281 32.9994 30.8957 32.9994ZM54.3739 39.6244H30.8957C30.281 39.6244 29.7858 40.1183 29.7858 40.7314C29.7858 41.3445 30.281 41.8384 30.8957 41.8384H54.3739C54.9886 41.8384 55.4838 41.3445 55.4838 40.7314C55.4667 40.1183 54.9886 39.6244 54.3739 39.6244ZM54.3739 48.4463H30.8957C30.281 48.4463 29.7858 48.9402 29.7858 49.5533C29.7858 50.1665 30.281 50.6603 30.8957 50.6603H54.3739C54.9886 50.6603 55.4838 50.1665 55.4838 49.5533C55.4838 48.9402 54.9886 48.4463 54.3739 48.4463ZM54.3739 57.2683H30.8957C30.281 57.2683 29.7858 57.7622 29.7858 58.3753C29.7858 58.9884 30.281 59.4823 30.8957 59.4823H54.3739C54.9886 59.4823 55.4838 58.9884 55.4838 58.3753C55.4838 57.7622 54.9886 57.2683 54.3739 57.2683ZM54.3739 30.8024H30.8957C30.281 30.8024 29.7858 31.2963 29.7858 31.9094C29.7858 32.5225 30.281 33.0164 30.8957 33.0164H54.3739C54.9886 33.0164 55.4838 32.5225 55.4838 31.9094C55.4667 31.2963 54.9886 30.8024 54.3739 30.8024ZM54.3739 39.6244H30.8957C30.281 39.6244 29.7858 40.1183 29.7858 40.7314C29.7858 41.3445 30.281 41.8384 30.8957 41.8384H54.3739C54.9886 41.8384 55.4838 41.3445 55.4838 40.7314C55.4667 40.1183 54.9886 39.6244 54.3739 39.6244ZM54.3739 48.4463H30.8957C30.281 48.4463 29.7858 48.9402 29.7858 49.5533C29.7858 50.1665 30.281 50.6603 30.8957 50.6603H54.3739C54.9886 50.6603 55.4838 50.1665 55.4838 49.5533C55.4838 48.9402 54.9886 48.4463 54.3739 48.4463ZM54.3739 57.2683H30.8957C30.281 57.2683 29.7858 57.7622 29.7858 58.3753C29.7858 58.9884 30.281 59.4823 30.8957 59.4823H54.3739C54.9886 59.4823 55.4838 58.9884 55.4838 58.3753C55.4838 57.7622 54.9886 57.2683 54.3739 57.2683ZM62.0577 25.4036L57.345 20.7031V12.307C57.345 11.6938 56.8498 11.2 56.2351 11.2H20.3091C19.6944 11.2 19.1992 11.6938 19.1992 12.307V66.499C19.1992 67.0951 19.6773 67.589 20.292 67.606L23.5704 67.6741V70.893C23.5704 71.5061 24.0656 72 24.6803 72H61.2893C61.904 72 62.3992 71.5061 62.3992 70.893V26.1871C62.3821 25.8975 62.2626 25.608 62.0577 25.4036ZM23.5704 16.0708V65.4431L21.419 65.409V13.3969H55.1423V18.4891L51.9151 15.3044C51.7102 15.1 51.4199 14.9808 51.1297 14.9808H24.6633C24.0656 14.9808 23.5704 15.4747 23.5704 16.0708ZM60.1624 69.7689H25.7902V17.1778H50.1222V25.8124C50.1222 26.4255 50.6174 26.9194 51.2321 26.9194H60.1965L60.1624 69.7689Z" fill="url(#paint0_linear_322_20553)"/>
<defs>
<linearGradient id="paint0_linear_322_20553" x1="14.9206" y1="16.1144" x2="66.1985" y2="67.5257" gradientUnits="userSpaceOnUse">
<stop stop-color="#A259FF"/>
<stop offset="1" stop-color="#FF6250"/>
</linearGradient>
</defs>
</svg>
