<svg width="101" height="101" viewBox="0 0 101 101" fill="none" xmlns="http://www.w3.org/2000/svg">
<g clip-path="url(#clip0_424_18854)">
<g filter="url(#filter0_b_424_18854)">
<rect x="0.5" y="0.5" width="100" height="100" rx="20" fill="url(#paint0_linear_424_18854)" fill-opacity="0.6"/>
<rect x="1.5" y="1.5" width="98" height="98" rx="19" stroke="url(#paint1_radial_424_18854)" stroke-width="2"/>
<rect x="1.5" y="1.5" width="98" height="98" rx="19" stroke="url(#paint2_radial_424_18854)" stroke-width="2"/>
</g>
<path d="M42.7885 44.8613H63.4407C63.9814 44.8613 64.417 44.4227 64.417 43.8782C64.417 43.3336 63.9814 42.895 63.4407 42.895H42.7885C42.2478 42.895 41.8123 43.3336 41.8123 43.8782C41.8123 44.4227 42.2478 44.8613 42.7885 44.8613ZM63.4407 50.7454H42.7885C42.2478 50.7454 41.8123 51.184 41.8123 51.7286C41.8123 52.2731 42.2478 52.7118 42.7885 52.7118H63.4407C63.9814 52.7118 64.417 52.2731 64.417 51.7286C64.402 51.184 63.9814 50.7454 63.4407 50.7454ZM63.4407 58.5807H42.7885C42.2478 58.5807 41.8123 59.0193 41.8123 59.5639C41.8123 60.1084 42.2478 60.5471 42.7885 60.5471H63.4407C63.9814 60.5471 64.417 60.1084 64.417 59.5639C64.417 59.0193 63.9814 58.5807 63.4407 58.5807ZM63.4407 66.416H42.7885C42.2478 66.416 41.8123 66.8546 41.8123 67.3992C41.8123 67.9437 42.2478 68.3824 42.7885 68.3824H63.4407C63.9814 68.3824 64.417 67.9437 64.417 67.3992C64.417 66.8546 63.9814 66.416 63.4407 66.416ZM42.7885 44.8613H63.4407C63.9814 44.8613 64.417 44.4227 64.417 43.8782C64.417 43.3336 63.9814 42.895 63.4407 42.895H42.7885C42.2478 42.895 41.8123 43.3336 41.8123 43.8782C41.8123 44.4227 42.2478 44.8613 42.7885 44.8613ZM63.4407 50.7454H42.7885C42.2478 50.7454 41.8123 51.184 41.8123 51.7286C41.8123 52.2731 42.2478 52.7118 42.7885 52.7118H63.4407C63.9814 52.7118 64.417 52.2731 64.417 51.7286C64.402 51.184 63.9814 50.7454 63.4407 50.7454ZM63.4407 58.5807H42.7885C42.2478 58.5807 41.8123 59.0193 41.8123 59.5639C41.8123 60.1084 42.2478 60.5471 42.7885 60.5471H63.4407C63.9814 60.5471 64.417 60.1084 64.417 59.5639C64.417 59.0193 63.9814 58.5807 63.4407 58.5807ZM63.4407 66.416H42.7885C42.2478 66.416 41.8123 66.8546 41.8123 67.3992C41.8123 67.9437 42.2478 68.3824 42.7885 68.3824H63.4407C63.9814 68.3824 64.417 67.9437 64.417 67.3992C64.417 66.8546 63.9814 66.416 63.4407 66.416ZM63.4407 42.9101H42.7885C42.2478 42.9101 41.8123 43.3487 41.8123 43.8933C41.8123 44.4378 42.2478 44.8765 42.7885 44.8765H63.4407C63.9814 44.8765 64.417 44.4378 64.417 43.8933C64.402 43.3487 63.9814 42.9101 63.4407 42.9101ZM63.4407 50.7454H42.7885C42.2478 50.7454 41.8123 51.184 41.8123 51.7286C41.8123 52.2731 42.2478 52.7118 42.7885 52.7118H63.4407C63.9814 52.7118 64.417 52.2731 64.417 51.7286C64.402 51.184 63.9814 50.7454 63.4407 50.7454ZM63.4407 58.5807H42.7885C42.2478 58.5807 41.8123 59.0193 41.8123 59.5639C41.8123 60.1084 42.2478 60.5471 42.7885 60.5471H63.4407C63.9814 60.5471 64.417 60.1084 64.417 59.5639C64.417 59.0193 63.9814 58.5807 63.4407 58.5807ZM63.4407 66.416H42.7885C42.2478 66.416 41.8123 66.8546 41.8123 67.3992C41.8123 67.9437 42.2478 68.3824 42.7885 68.3824H63.4407C63.9814 68.3824 64.417 67.9437 64.417 67.3992C64.417 66.8546 63.9814 66.416 63.4407 66.416ZM70.1996 38.1151L66.0541 33.9403V26.4832C66.0541 25.9387 65.6186 25.5 65.0779 25.5H33.4763C32.9356 25.5 32.5 25.9387 32.5 26.4832V74.6143C32.5 75.1437 32.9206 75.5824 33.4613 75.5975L36.3451 75.658V78.5168C36.3451 79.0613 36.7806 79.5 37.3213 79.5H69.5237C70.0644 79.5 70.5 79.0613 70.5 78.5168V38.8109C70.485 38.5538 70.3798 38.2966 70.1996 38.1151ZM36.3451 29.8261V73.6765L34.4526 73.6462V27.4513H64.1166V31.9739L61.2779 29.1454C61.0976 28.9639 60.8423 28.858 60.587 28.858H37.3063C36.7806 28.858 36.3451 29.2966 36.3451 29.8261ZM68.5324 77.5185H38.2976V30.8092H59.7008V38.4782C59.7008 39.0227 60.1364 39.4613 60.6771 39.4613H68.5625L68.5324 77.5185Z" fill="url(#paint3_linear_424_18854)"/>
</g>
<defs>
<filter id="filter0_b_424_18854" x="-29.5" y="-29.5" width="160" height="160" filterUnits="userSpaceOnUse" color-interpolation-filters="sRGB">
<feFlood flood-opacity="0" result="BackgroundImageFix"/>
<feGaussianBlur in="BackgroundImageFix" stdDeviation="15"/>
<feComposite in2="SourceAlpha" operator="in" result="effect1_backgroundBlur_424_18854"/>
<feBlend mode="normal" in="SourceGraphic" in2="effect1_backgroundBlur_424_18854" result="shape"/>
</filter>
<linearGradient id="paint0_linear_424_18854" x1="50.5" y1="0.5" x2="50.5" y2="100.5" gradientUnits="userSpaceOnUse">
<stop stop-color="white" stop-opacity="0"/>
<stop offset="1" stop-color="white"/>
</linearGradient>
<radialGradient id="paint1_radial_424_18854" cx="0" cy="0" r="1" gradientUnits="userSpaceOnUse" gradientTransform="translate(83.1923 80.9762) rotate(77.5615) scale(108.255 45.9545)">
<stop stop-color="white" stop-opacity="0.57"/>
<stop offset="1" stop-color="white" stop-opacity="0"/>
</radialGradient>
<radialGradient id="paint2_radial_424_18854" cx="0" cy="0" r="1" gradientUnits="userSpaceOnUse" gradientTransform="translate(10.9567 22.4048) rotate(-95.3611) scale(111.918 31.8727)">
<stop stop-color="white" stop-opacity="0.28"/>
<stop offset="1" stop-color="white" stop-opacity="0"/>
</radialGradient>
<linearGradient id="paint3_linear_424_18854" x1="28.7364" y1="29.8648" x2="74.2783" y2="75.0867" gradientUnits="userSpaceOnUse">
<stop stop-color="#A259FF"/>
<stop offset="1" stop-color="#FF6250"/>
</linearGradient>
<clipPath id="clip0_424_18854">
<rect width="100" height="100" fill="white" transform="translate(0.5 0.5)"/>
</clipPath>
</defs>
</svg>
