<svg width="493" height="406" viewBox="0 0 493 406" fill="none" xmlns="http://www.w3.org/2000/svg">
<g clip-path="url(#clip0_322_26149)">
<path d="M132.425 -0.695312C115.617 -0.695312 99.4973 5.98826 87.6122 17.8851C75.7271 29.7819 69.0501 45.9175 69.0501 62.7422V291.117C69.0501 307.942 75.7271 324.077 87.6122 335.974C99.4973 347.871 115.617 354.555 132.425 354.555H309.875C326.683 354.555 342.803 347.871 354.688 335.974C366.573 324.077 373.25 307.942 373.25 291.117V62.7422C373.25 45.9175 366.573 29.7819 354.688 17.8851C342.803 5.98826 326.683 -0.695312 309.875 -0.695312H132.425ZM119.75 75.4297C119.75 68.6998 122.421 62.2456 127.175 57.4869C131.929 52.7281 138.377 50.0547 145.1 50.0547H297.2C303.923 50.0547 310.371 52.7281 315.125 57.4869C319.879 62.2456 322.55 68.6998 322.55 75.4297V126.18C322.55 132.91 319.879 139.364 315.125 144.123C310.371 148.881 303.923 151.555 297.2 151.555H145.1C138.377 151.555 131.929 148.881 127.175 144.123C122.421 139.364 119.75 132.91 119.75 126.18V75.4297ZM119.75 202.305C119.75 195.575 122.421 189.121 127.175 184.362C131.929 179.603 138.377 176.93 145.1 176.93C151.823 176.93 158.271 179.603 163.025 184.362C167.779 189.121 170.45 195.575 170.45 202.305C170.45 209.035 167.779 215.489 163.025 220.248C158.271 225.006 151.823 227.68 145.1 227.68C138.377 227.68 131.929 225.006 127.175 220.248C122.421 215.489 119.75 209.035 119.75 202.305ZM221.15 176.93C227.873 176.93 234.321 179.603 239.075 184.362C243.829 189.121 246.5 195.575 246.5 202.305C246.5 209.035 243.829 215.489 239.075 220.248C234.321 225.006 227.873 227.68 221.15 227.68C214.427 227.68 207.979 225.006 203.225 220.248C198.471 215.489 195.8 209.035 195.8 202.305C195.8 195.575 198.471 189.121 203.225 184.362C207.979 179.603 214.427 176.93 221.15 176.93ZM221.15 246.711C227.873 246.711 234.321 249.384 239.075 254.143C243.829 258.902 246.5 265.356 246.5 272.086C246.5 278.816 243.829 285.27 239.075 290.029C234.321 294.788 227.873 297.461 221.15 297.461C214.427 297.461 207.979 294.788 203.225 290.029C198.471 285.27 195.8 278.816 195.8 272.086C195.8 265.356 198.471 258.902 203.225 254.143C207.979 249.384 214.427 246.711 221.15 246.711ZM271.85 202.305C271.85 195.575 274.521 189.121 279.275 184.362C284.029 179.603 290.477 176.93 297.2 176.93C303.923 176.93 310.371 179.603 315.125 184.362C319.879 189.121 322.55 195.575 322.55 202.305C322.55 209.035 319.879 215.489 315.125 220.248C310.371 225.006 303.923 227.68 297.2 227.68C290.477 227.68 284.029 225.006 279.275 220.248C274.521 215.489 271.85 209.035 271.85 202.305ZM297.2 246.711C303.923 246.711 310.371 249.384 315.125 254.143C319.879 258.902 322.55 265.356 322.55 272.086C322.55 278.816 319.879 285.27 315.125 290.029C310.371 294.788 303.923 297.461 297.2 297.461C290.477 297.461 284.029 294.788 279.275 290.029C274.521 285.27 271.85 278.816 271.85 272.086C271.85 265.356 274.521 258.902 279.275 254.143C284.029 249.384 290.477 246.711 297.2 246.711ZM145.1 246.711C151.823 246.711 158.271 249.384 163.025 254.143C167.779 258.902 170.45 265.356 170.45 272.086C170.45 278.816 167.779 285.27 163.025 290.029C158.271 294.788 151.823 297.461 145.1 297.461C138.377 297.461 131.929 294.788 127.175 290.029C122.421 285.27 119.75 278.816 119.75 272.086C119.75 265.356 122.421 258.902 127.175 254.143C131.929 249.384 138.377 246.711 145.1 246.711ZM183.125 405.305C173.285 405.313 163.579 403.023 154.778 398.618C145.976 394.213 138.323 387.814 132.425 379.93H309.875C333.406 379.93 355.974 370.573 372.613 353.917C389.252 337.262 398.6 314.672 398.6 291.117V62.7422C413.988 74.3132 423.95 92.7354 423.95 113.492V291.117C423.95 321.402 411.932 350.446 390.538 371.86C369.145 393.274 340.13 405.305 309.875 405.305H183.125Z" fill="#E5E8EE"/>
</g>
<defs>
<clipPath id="clip0_322_26149">
<rect width="493" height="406" fill="white"/>
</clipPath>
</defs>
</svg>
