<svg width="100" height="39" viewBox="0 0 100 39" fill="none" xmlns="http://www.w3.org/2000/svg">
<g opacity="0.4" clip-path="url(#clip0_322_26380)">
<path fill-rule="evenodd" clip-rule="evenodd" d="M69.7104 18.736C69.7104 18.736 66.5093 19.8568 68.3294 21.3299C70.1419 22.798 73.1729 18.3935 79.009 21.6304C79.009 21.6304 76.2674 16.7332 69.7104 18.7335V18.736Z" fill="#8F8F8F"/>
<path fill-rule="evenodd" clip-rule="evenodd" d="M15.5763 19.7412C16.7771 19.6525 17.9651 20.3816 18.2367 21.5468C18.5185 22.7563 17.6935 24.0176 16.2795 24.291C14.7158 24.5915 13.3424 23.5495 13.251 22.1873C13.1647 20.894 14.2461 19.8397 15.5763 19.7412Z" fill="#E3E3E3"/>
<path fill-rule="evenodd" clip-rule="evenodd" d="M0 7.67512C0.0228467 12.7423 3.95502 15.2648 7.84403 15.2648C10.6618 15.2648 13.5684 14.0774 14.66 10.981C15.1854 9.53989 15.1854 8.11853 15.0966 6.63558H7.86434V9.92171H11.1187C10.4206 11.3431 9.41538 11.7446 7.8415 11.7446C5.52636 11.7446 4.03879 10.1336 4.03879 7.67266C4.03879 5.4039 5.37151 3.53913 7.8415 3.53913C9.39253 3.53913 10.3978 4.04905 11.0324 5.32015H14.8783C14.137 1.63249 10.9233 0.083033 7.84403 0.0633261C3.95502 0.0633261 0.0228467 2.60798 0 7.67512ZM27.3754 15.0948H31.1984V14.543L24.2962 0.0633261H22.6132L15.7312 14.5454V15.0972H19.5542L20.4503 13.2325H26.4819L27.378 15.0972L27.3754 15.0948ZM25.2126 9.98576H21.7171L23.4433 6.08379L25.2126 9.98576ZM35.3718 10.5573H31.5919C31.5056 17.0876 43.9596 16.9817 43.9596 10.7469C43.9596 7.03711 40.987 6.59124 37.9509 6.27347C36.575 6.12567 35.4378 5.89165 35.5266 4.76835C35.6586 3.00951 39.7659 2.83954 39.7659 4.81023H43.4798C43.5661 -1.59206 31.6808 -1.59206 31.8128 4.81023C31.8559 8.03231 34.0416 9.1359 37.362 9.36992C38.8902 9.45367 40.1594 9.68769 40.1594 10.7272C40.1594 12.4664 35.3743 12.4442 35.3743 10.5573H35.3718ZM55.1672 10.2814V6.88931H50.25V3.64506H55.7993V0.253005H46.2722V15.0948H50.2475V10.2814H55.1646H55.1672ZM73.0181 7.69483C73.0181 -2.56755 57.33 -2.56755 57.33 7.69483C57.33 17.9769 73.0181 17.9769 73.0181 7.69483ZM61.351 7.69483C61.351 2.35179 69.0199 2.35179 69.0199 7.69483C69.0199 13.0797 61.351 13.0797 61.351 7.69483ZM85.34 9.8355C89.2062 7.29084 88.1146 0.272712 82.106 0.253005H75.3992V15.0948H79.3111V10.7272H81.3444L83.9667 15.0948H88.338V14.543L85.3451 9.8355H85.34ZM82.106 7.35489H79.3085V3.64506C80.2275 3.64506 81.187 3.62289 82.106 3.64506C84.3348 3.66477 84.2256 7.35489 82.106 7.35489ZM92.3971 3.64506V15.0948H96.2633V3.64506H100V0.253005H88.6376V3.64506H92.3971Z" fill="white"/>
<path fill-rule="evenodd" clip-rule="evenodd" d="M97.5732 20.7243C97.5732 20.7243 96.3699 37.118 71.1522 32.5952C39.6746 26.9467 44.2541 21.7811 25.3827 28.0676C4.64804 34.9773 3.01831 22.8107 3.01831 22.8107C3.01831 22.8107 10.3699 30.0309 23.263 25.3455C28.5635 23.4192 35.3819 18.054 43.9342 18.187C55.6723 18.3718 54.299 28.947 69.0732 29.0825C77.7752 29.1638 87.2109 21.9412 87.4851 21.9855C87.5156 21.9904 97.3802 19.4606 97.5706 20.7243H97.5732Z" fill="url(#paint0_linear_322_26380)"/>
<path fill-rule="evenodd" clip-rule="evenodd" d="M7.74755 31.7229C7.74755 31.7229 16.6121 37.3172 27.8501 32.1171C37.598 27.6066 41.9541 28.7324 46.2062 29.7793C54.9311 31.9323 60.3153 39.8816 72.2235 36.0757C76.94 34.5681 77.6356 27.8406 77.6356 27.8406C77.6356 27.8406 66.5423 19.1006 55.0453 25.9069L42.7969 25.0324L32.7418 26.8652C32.7418 26.8652 13.2206 34.1444 4.06415 22.9607C3.7113 22.5296 2.67812 22.4779 2.37858 22.1946C1.5104 21.3694 1.15501 20.6107 1.08139 20.9974C0.566071 23.6997 2.44712 28.5329 7.75009 31.7229H7.74755Z" fill="url(#paint1_linear_322_26380)"/>
<path fill-rule="evenodd" clip-rule="evenodd" d="M4.64544 26.9319C4.64544 26.9319 11.5908 33.0632 23.0903 29.8386C34.1761 26.7323 37.8036 25.3134 45.7187 26.5032C55.1036 27.9172 58.8023 36.8469 66.5245 36.9528C73.2465 37.044 75.9348 34.4845 81.4459 28.3434C84.9034 24.4882 88.4725 21.0666 96.2074 20.8449C98.9058 20.766 97.4386 20.1231 93.9989 19.9655C89.8941 19.7758 82.6441 20.3744 76.1378 25.6238C64.684 34.8688 57.8656 17.3543 31.734 25.7149C14.6396 31.1861 8.54207 26.6461 1.9876 21.2907C0.304565 19.9162 1.49767 22.4806 1.49767 22.4806C1.49767 22.4806 3.01063 25.545 4.64544 26.9319Z" fill="url(#paint2_linear_322_26380)"/>
<path fill-rule="evenodd" clip-rule="evenodd" d="M87.6095 33.8662C88.965 33.817 90.1378 34.7752 90.313 36.0808C90.4754 37.3716 89.6327 38.5811 88.338 38.9137C86.9469 39.2733 85.5203 38.4703 85.1496 37.1203C85.1242 37.0267 85.1039 36.9331 85.0887 36.837C84.8602 35.4354 85.8452 34.1175 87.2896 33.8933C87.3937 33.8761 87.5003 33.8662 87.6069 33.8638L87.6095 33.8662Z" fill="#E6E6E6"/>
<path fill-rule="evenodd" clip-rule="evenodd" d="M33.0567 32.9426C33.0567 32.9426 30.0663 35.7262 33.3283 36.544C36.8644 37.4333 38.8013 31.4744 49.1966 36.2977C49.1966 36.2977 40.1569 27.3508 33.0567 32.9426Z" fill="#727272"/>
</g>
<defs>
<linearGradient id="paint0_linear_322_26380" x1="48.9351" y1="17.8126" x2="53.7548" y2="33.0967" gradientUnits="userSpaceOnUse">
<stop stop-color="#E7E7E7"/>
<stop offset="1" stop-color="#EAEAEA"/>
</linearGradient>
<linearGradient id="paint1_linear_322_26380" x1="43.2107" y1="19.9308" x2="32.8214" y2="36.4176" gradientUnits="userSpaceOnUse">
<stop stop-color="#585858"/>
<stop offset="0.07" stop-color="#727272"/>
<stop offset="0.16" stop-color="#888888"/>
<stop offset="0.25" stop-color="#999999"/>
<stop offset="0.37" stop-color="#A5A5A5"/>
<stop offset="0.54" stop-color="#ACACAC"/>
<stop offset="1" stop-color="#AEAEAE"/>
</linearGradient>
<linearGradient id="paint2_linear_322_26380" x1="97.6137" y1="28.7474" x2="1.13394" y2="27.013" gradientUnits="userSpaceOnUse">
<stop stop-color="#949494"/>
<stop offset="1" stop-color="#3F3F3F"/>
</linearGradient>
<clipPath id="clip0_322_26380">
<rect width="100" height="39" fill="white"/>
</clipPath>
</defs>
</svg>
