<svg width="101" height="101" viewBox="0 0 101 101" fill="none" xmlns="http://www.w3.org/2000/svg">
<g clip-path="url(#clip0_424_18858)">
<g filter="url(#filter0_b_424_18858)">
<rect x="0.166687" y="0.5" width="100" height="100" rx="20" fill="url(#paint0_linear_424_18858)" fill-opacity="0.6"/>
<rect x="1.16669" y="1.5" width="98" height="98" rx="19" stroke="url(#paint1_radial_424_18858)" stroke-width="2"/>
<rect x="1.16669" y="1.5" width="98" height="98" rx="19" stroke="url(#paint2_radial_424_18858)" stroke-width="2"/>
</g>
<path d="M71.5265 68.9932C64.9729 66.7286 60.2895 66.1657 56.3426 67.1725C55.2088 67.4621 54.1081 67.6084 53.0737 67.6084H44.8518C43.7006 67.6084 42.6189 68.0652 41.8052 68.8951C41.4331 69.2747 41.1382 69.7122 40.9253 70.1866L34.2251 65.9518C34.2078 65.9405 34.1904 65.9309 34.1731 65.9212C32.1089 64.7937 29.5307 65.5883 28.4237 67.692C28.1761 68.1617 28.1131 68.7037 28.2471 69.22C28.389 69.7669 28.7438 70.2349 29.2264 70.5131L43.3206 79.8273C43.338 79.8385 43.3537 79.8482 43.3711 79.8595C45.2602 80.9419 47.3795 81.5 49.5194 81.5C50.3567 81.5 51.1988 81.4148 52.0298 81.2411L58.5581 79.882C62.3174 79.0987 66.1713 78.7014 70.0095 78.7014H71.2205C71.7425 78.7014 72.1667 78.2688 72.1667 77.7364V69.9068C72.1683 69.4934 71.9096 69.1267 71.5265 68.9932ZM70.276 76.7714H70.0111C66.0452 76.7714 62.0667 77.1815 58.1812 77.9905L51.6529 79.3496C49.1535 79.8707 46.5517 79.459 44.3251 78.19L30.2277 68.8742C30.2056 68.8597 30.182 68.8453 30.1583 68.8324C30.1063 68.8034 30.0858 68.7584 30.0763 68.7262C30.0684 68.6973 30.0653 68.6523 30.0905 68.604C30.6992 67.4444 32.1136 67.0021 33.2537 67.6084L40.5516 72.2212C40.6005 72.6812 40.7992 73.1075 41.1256 73.4404C41.5025 73.8264 42.0039 74.0387 42.5369 74.0387H52.0913C52.6132 74.0387 53.0374 73.6061 53.0374 73.0737C53.0374 72.5413 52.6132 72.1087 52.0913 72.1087H42.5369C42.5101 72.1087 42.4849 72.0974 42.4659 72.0781C42.4517 72.0636 42.4328 72.0363 42.4328 71.9977C42.4328 71.9285 42.436 71.861 42.4407 71.7934C42.4423 71.7806 42.4423 71.7693 42.4439 71.7564C42.4991 71.1919 42.7403 70.6676 43.1393 70.2606C43.5966 69.7942 44.2037 69.5385 44.8486 69.5385H53.0705C54.2595 69.5385 55.5147 69.3728 56.7983 69.0447C60.247 68.1649 64.4226 68.6458 70.2728 70.6032V76.7714H70.276ZM29.1128 45.6685H37.5492C35.9061 49.5061 36.2845 54.1543 38.5852 57.9501C41.0452 62.008 45.2854 64.3354 50.2195 64.3354C59.0091 64.3354 63.7508 57.3325 63.7508 50.7429C63.7508 49.0976 63.448 47.4715 62.8725 45.9982C63.448 45.379 63.7745 44.5796 63.7745 43.7674C63.7745 43.2479 63.6625 42.7573 63.4638 42.3182C64.3847 42.3166 65.2473 41.9499 65.8938 41.2889C66.5451 40.6246 66.9046 39.7416 66.9046 38.8023C66.9046 37.9643 66.5892 37.202 66.0751 36.6262C66.1193 36.5843 66.1666 36.5457 66.2092 36.5023C66.8352 35.8654 67.1805 35.0162 67.1805 34.1123C67.1805 33.025 66.6728 32.0584 65.8875 31.4391C66.4268 30.8022 66.7232 29.9996 66.7232 29.1488C66.7232 27.3313 65.2079 25.9079 63.2746 25.9079L59.4648 25.9063L60.9597 20.7933C61.0748 20.4008 60.9329 19.9778 60.6096 19.7366C60.2848 19.4953 59.8464 19.4905 59.5169 19.7221C58.7615 20.2528 56.475 21.6312 54.9864 21.6312C54.1964 21.6312 53.6224 21.2114 52.957 20.7273C52.1843 20.1644 51.3091 19.5259 50.035 19.5259C48.7309 19.5259 47.7785 20.1933 46.938 20.782C46.2852 21.2388 45.7222 21.6328 45.1246 21.6328C44.0097 21.6328 41.8194 20.4249 40.6998 19.6626C40.3671 19.4358 39.9303 19.447 39.6086 19.6915C39.2869 19.936 39.1513 20.359 39.2696 20.7498L41.0357 26.6092H29.1128C28.5909 26.6092 28.1667 27.0418 28.1667 27.5742V44.7035C28.1667 45.2374 28.5909 45.6685 29.1128 45.6685ZM50.2195 62.4053C44.3819 62.4053 41.4331 58.9778 40.1952 56.9352C38.1563 53.5721 37.8819 49.2713 39.4935 45.9805C39.503 45.9628 39.5108 45.9435 39.5187 45.9258L39.626 45.6685H41.3858C42.0717 45.9548 44.4575 46.8506 47.8826 47.0887C47.2502 47.605 46.8229 48.3432 46.7409 49.1378C46.4902 51.5439 48.619 52.1438 50.0287 52.5411C51.6403 52.9963 52.1402 53.2568 52.1212 54.0095C52.1149 54.2588 51.9667 54.5355 51.7333 54.7333C51.4164 55.0003 51.0048 55.1016 50.7147 55.1386C49.7023 55.2705 48.6284 54.8137 47.9772 53.9758C47.6523 53.5576 47.0578 53.4884 46.6478 53.8198C46.2379 54.1511 46.1701 54.7574 46.4949 55.1756C47.1903 56.0699 48.1554 56.6859 49.2056 56.9481V58.2782C49.2056 58.8106 49.6297 59.2432 50.1517 59.2432C50.6737 59.2432 51.0978 58.8106 51.0978 58.2782V57.0301C51.8106 56.9143 52.4445 56.6376 52.9381 56.2211C53.5909 55.671 53.993 54.862 54.0119 54.0578C54.0687 51.679 51.9399 51.0791 50.5317 50.6818C48.7893 50.1896 48.5575 49.9548 48.6221 49.342C48.6663 48.9222 49.0384 48.5057 49.5068 48.3497C50.4529 48.036 51.6292 48.5475 52.1827 49.5141C52.4461 49.9741 53.0264 50.1301 53.4774 49.8599C53.9284 49.5913 54.0797 48.9994 53.8164 48.5394C53.4947 47.9781 53.0579 47.5069 52.5533 47.1466H56.3H59.5847H60.2864C60.6033 47.1466 60.9187 47.0999 61.223 47.0115C61.6378 48.1792 61.8585 49.4498 61.8585 50.7429C61.8585 56.3964 57.7791 62.4053 50.2195 62.4053ZM45.123 23.5597C46.3088 23.5597 47.2108 22.9276 48.0071 22.3695C48.7104 21.8773 49.3159 21.4527 50.0334 21.4527C50.7005 21.4527 51.2098 21.8242 51.8532 22.2939C52.6258 22.8568 53.5862 23.5597 54.9833 23.5597C56.1281 23.5597 57.4133 23.0788 58.4666 22.5593L57.489 25.9047H56.2984C56.2874 25.9047 56.2779 25.9063 56.2685 25.9063H53.132C53.1131 25.9063 53.0942 25.9063 53.0753 25.9079L42.9863 26.5191L41.78 22.5207C42.846 23.0563 44.1106 23.5597 45.123 23.5597ZM30.059 28.5344H41.5766C41.5955 28.5344 41.6128 28.5344 41.6318 28.5328L53.162 27.8348H59.2251C59.2267 27.8348 59.2283 27.8348 59.2299 27.8348L63.2746 27.8364C64.1624 27.8364 64.831 28.3993 64.831 29.1472C64.831 29.5718 64.6701 29.9707 64.3737 30.2715C64.104 30.5465 63.7461 30.7105 63.3739 30.7314H59.4475C59.4475 30.7314 59.4475 30.7314 59.4459 30.7314C59.4128 30.7314 59.3812 30.7331 59.3497 30.7363C59.3387 30.7379 59.3276 30.7395 59.3166 30.7411C59.2961 30.7443 59.2756 30.7459 59.2551 30.7507C59.2425 30.754 59.2314 30.7572 59.2188 30.7604C59.1999 30.7652 59.1826 30.7684 59.1636 30.7749C59.1605 30.7765 59.1573 30.7781 59.1526 30.7781C59.1274 30.7861 59.1006 30.7958 59.0753 30.807C59.0722 30.8086 59.069 30.8103 59.0659 30.8119C59.0406 30.8231 59.0154 30.8344 58.9918 30.8489C58.9886 30.8505 58.9854 30.8521 58.9823 30.8537C58.9586 30.8666 58.935 30.881 58.9129 30.8971C58.9113 30.8987 58.9098 30.9003 58.9082 30.9003C58.8845 30.9164 58.8624 30.9341 58.8404 30.9518C58.8372 30.955 58.8341 30.9582 58.8309 30.9598C58.8104 30.9775 58.7915 30.9952 58.7726 31.0145C58.7726 31.0145 58.7726 31.0145 58.771 31.0161C58.7505 31.037 58.73 31.0596 58.7111 31.0837C58.6921 31.1078 58.6732 31.1319 58.6575 31.1577C58.6559 31.1593 58.6543 31.1625 58.6527 31.1641C58.637 31.1882 58.6228 31.2124 58.6101 31.2365C58.6086 31.2397 58.6086 31.2413 58.607 31.2445C58.5944 31.2703 58.5818 31.2944 58.5707 31.3217C58.5691 31.3265 58.5676 31.3314 58.566 31.3362C58.5565 31.3603 58.5471 31.3844 58.5392 31.4102C58.536 31.4182 58.536 31.4263 58.5329 31.4343C58.5266 31.4568 58.5203 31.4793 58.5155 31.5019C58.5124 31.5131 58.5124 31.526 58.5108 31.5389C58.5076 31.5582 58.5045 31.5775 58.5013 31.5984C58.4998 31.6128 58.4998 31.6273 58.4998 31.6402C58.4982 31.6595 58.4966 31.6772 58.4966 31.6965C58.4966 31.7142 58.4982 31.7303 58.4998 31.7479C58.5013 31.764 58.5013 31.7785 58.5013 31.7946C58.5029 31.8139 58.5061 31.8332 58.5092 31.8525C58.5108 31.8654 58.5124 31.8782 58.5155 31.8911C58.5203 31.9104 58.525 31.9297 58.5297 31.949C58.5329 31.9602 58.5345 31.9715 58.5376 31.9828C58.5439 32.0021 58.5518 32.0214 58.5581 32.0407C58.5613 32.0503 58.5644 32.0616 58.5691 32.0712C58.577 32.0889 58.5849 32.1066 58.5944 32.1243C58.5991 32.1356 58.6038 32.1452 58.6101 32.1565C58.618 32.1726 58.6291 32.187 58.6385 32.2031C58.6448 32.2144 58.6511 32.2256 58.6575 32.2353C58.6669 32.2498 58.678 32.2642 58.689 32.2771C58.6969 32.2884 58.7048 32.2996 58.7126 32.3093C58.7221 32.3221 58.7347 32.3334 58.7442 32.3463C58.7536 32.3575 58.7631 32.3688 58.7726 32.3784C58.782 32.3881 58.7931 32.3977 58.8041 32.4074C58.8167 32.4186 58.8278 32.4299 58.8404 32.4412C58.8498 32.4492 58.8593 32.4556 58.8688 32.4637C58.8829 32.4749 58.8971 32.4862 58.9129 32.4974C58.9208 32.5039 58.9303 32.5087 58.9381 32.5135C58.9555 32.5248 58.9728 32.5361 58.9902 32.5457C58.9981 32.5505 59.0075 32.5537 59.017 32.5586C59.0359 32.5682 59.0548 32.5779 59.0738 32.5859C59.0816 32.5891 59.0911 32.5923 59.099 32.5956C59.1195 32.6036 59.14 32.6116 59.1605 32.6181C59.1699 32.6213 59.1778 32.6229 59.1873 32.6245C59.2078 32.6309 59.2299 32.6374 59.2504 32.6406C59.263 32.6438 59.274 32.6438 59.2866 32.647C59.3056 32.6502 59.3245 32.6535 59.3434 32.6567C59.3576 32.6583 59.3734 32.6583 59.3876 32.6583C59.4049 32.6599 59.4222 32.6615 59.4396 32.6615L63.2699 32.6647C63.314 32.6647 63.3613 32.6631 63.4118 32.6615H63.8628C64.6465 32.6615 65.2835 33.3113 65.2835 34.1107C65.2835 34.4983 65.1353 34.8618 64.8657 35.1368C64.5992 35.4102 64.2428 35.5598 63.8628 35.5598H63.7224H60.0688C59.5468 35.5598 59.1226 35.9925 59.1226 36.5248C59.1226 37.0572 59.5468 37.4899 60.0688 37.4899H63.7224C64.4304 37.4899 65.0076 38.0785 65.0076 38.8007C65.0076 39.2237 64.8452 39.6226 64.5503 39.925C64.2586 40.2241 63.8675 40.3882 63.4512 40.3882H60.5119H58.3342C57.8122 40.3882 57.3881 40.8208 57.3881 41.3532C57.3881 41.8856 57.8122 42.3182 58.3342 42.3182H60.5119C60.5466 42.3182 60.5828 42.3198 60.6317 42.3247C61.3445 42.3842 61.8822 43.005 61.8822 43.7674C61.8822 44.2515 61.5873 44.5973 61.4123 44.7581C61.3476 44.8176 61.2767 44.8739 61.2041 44.9238C60.925 45.112 60.5986 45.2165 60.2864 45.2165H59.5847H56.3H49.5619C45.0552 45.2165 41.996 43.8381 41.9676 43.8253C41.8446 43.769 41.7122 43.7384 41.5766 43.7384H39.0078C39.0031 43.7384 38.9968 43.7384 38.992 43.7384H30.059V28.5344Z" fill="url(#paint3_linear_424_18858)"/>
</g>
<defs>
<filter id="filter0_b_424_18858" x="-29.8333" y="-29.5" width="160" height="160" filterUnits="userSpaceOnUse" color-interpolation-filters="sRGB">
<feFlood flood-opacity="0" result="BackgroundImageFix"/>
<feGaussianBlur in="BackgroundImageFix" stdDeviation="15"/>
<feComposite in2="SourceAlpha" operator="in" result="effect1_backgroundBlur_424_18858"/>
<feBlend mode="normal" in="SourceGraphic" in2="effect1_backgroundBlur_424_18858" result="shape"/>
</filter>
<linearGradient id="paint0_linear_424_18858" x1="50.1667" y1="0.5" x2="50.1667" y2="100.5" gradientUnits="userSpaceOnUse">
<stop stop-color="white" stop-opacity="0"/>
<stop offset="1" stop-color="white"/>
</linearGradient>
<radialGradient id="paint1_radial_424_18858" cx="0" cy="0" r="1" gradientUnits="userSpaceOnUse" gradientTransform="translate(82.859 80.9762) rotate(77.5615) scale(108.255 45.9545)">
<stop stop-color="white" stop-opacity="0.57"/>
<stop offset="1" stop-color="white" stop-opacity="0"/>
</radialGradient>
<radialGradient id="paint2_radial_424_18858" cx="0" cy="0" r="1" gradientUnits="userSpaceOnUse" gradientTransform="translate(10.6234 22.4048) rotate(-95.3611) scale(111.918 31.8727)">
<stop stop-color="white" stop-opacity="0.28"/>
<stop offset="1" stop-color="white" stop-opacity="0"/>
</radialGradient>
<linearGradient id="paint3_linear_424_18858" x1="27.7191" y1="27.6268" x2="75.6329" y2="74.6025" gradientUnits="userSpaceOnUse">
<stop stop-color="#A259FF"/>
<stop offset="1" stop-color="#FF6250"/>
</linearGradient>
<clipPath id="clip0_424_18858">
<rect width="100" height="100" fill="white" transform="translate(0.166687 0.5)"/>
</clipPath>
</defs>
</svg>
