<svg width="100" height="100" viewBox="0 0 100 100" fill="none" xmlns="http://www.w3.org/2000/svg">
<path d="M81.8279 40.9467L71.4023 31.1397V15.9095C71.4023 15.1397 70.7767 14.5142 70.007 14.5142H60.9442C60.1744 14.5142 59.5488 15.1397 59.5488 15.9095V19.9839L50.9605 11.9049C50.4233 11.4002 49.586 11.4002 49.0488 11.9049L18.1721 40.9444C17.6116 41.4723 17.5837 42.356 18.1116 42.9165C18.386 43.2095 18.7558 43.356 19.1279 43.356C19.4698 43.356 19.814 43.2304 20.0837 42.9769L22.9116 40.3165V74.9816C22.9116 75.7514 23.5372 76.377 24.307 76.377H32.2046V87.4676C32.2046 88.2374 32.8302 88.863 33.6 88.863H66.4C67.1698 88.863 67.7953 88.2374 67.7953 87.4676V76.377H75.6837C76.4535 76.377 77.0791 75.7514 77.0791 74.9816V40.3095L79.9163 42.9793C80.4767 43.5072 81.3605 43.4793 81.8884 42.9188C82.4163 42.356 82.3907 41.4746 81.8279 40.9467ZM62.3419 17.3049H68.614V28.5118L62.3419 22.6118V17.3049ZM34.9953 86.0746V74.9886C34.9953 74.9863 34.9953 74.9862 34.9953 74.9839C34.9953 74.9816 34.9953 74.9816 34.9953 74.9793V42.5583H55.3581V50.8095C55.3581 51.5793 55.9837 52.2049 56.7535 52.2049H65.0047V74.9793C65.0047 74.9816 65.0047 74.9816 65.0047 74.9839C65.0047 74.9862 65.0047 74.9863 65.0047 74.9886V86.0746H34.9953ZM74.2884 73.5886H67.7953V50.8095C67.7953 50.7932 67.793 50.7793 67.793 50.763C67.793 50.7467 67.7907 50.7328 67.7907 50.7165C67.786 50.6583 67.7814 50.5979 67.7698 50.5397V50.5374C67.7581 50.4793 67.7419 50.4211 67.7209 50.3653C67.7163 50.3514 67.7116 50.3351 67.7047 50.3211C67.6837 50.2676 67.6628 50.2165 67.6372 50.1653C67.6349 50.163 67.6349 50.1583 67.6326 50.156C67.6047 50.1025 67.5721 50.0514 67.5372 50.0025C67.5279 49.9909 67.5186 49.9769 67.5093 49.9653C67.4721 49.9165 67.4326 49.8676 67.3884 49.8258L57.7419 40.1793C57.6977 40.1351 57.6512 40.0956 57.6 40.0583C57.5884 40.049 57.5744 40.0397 57.5628 40.0304C57.514 39.9956 57.4628 39.963 57.4093 39.9351C57.4047 39.9328 57.4023 39.9328 57.3977 39.9304C57.3488 39.9049 57.2953 39.8816 57.2442 39.863C57.2279 39.8583 57.214 39.8514 57.1977 39.8467C57.1419 39.8281 57.086 39.8118 57.0279 39.8002C57.0233 39.8002 57.0186 39.8002 57.0163 39.7979C56.9628 39.7886 56.907 39.7816 56.8512 39.7769C56.8326 39.7746 56.8163 39.7746 56.7977 39.7746C56.7837 39.7746 56.7698 39.7723 56.7535 39.7723H33.6C32.8302 39.7723 32.2046 40.3979 32.2046 41.1676V73.5932H25.7023V37.6932L50.0047 14.8374L74.2884 37.6816V73.5886ZM60.814 78.2956C60.814 79.0653 60.1884 79.6909 59.4186 79.6909H53.4884C52.7186 79.6909 52.093 79.0653 52.093 78.2956C52.093 77.5258 52.7186 76.9002 53.4884 76.9002H59.4186C60.1907 76.9002 60.814 77.5235 60.814 78.2956ZM39.186 58.6956C39.186 57.9258 39.8116 57.3002 40.5814 57.3002H49.6954C50.4651 57.3002 51.0907 57.9258 51.0907 58.6956C51.0907 59.4653 50.4651 60.0909 49.6954 60.0909H40.5814C39.8093 60.0909 39.186 59.4653 39.186 58.6956ZM60.814 58.6956C60.814 59.4653 60.1884 60.0909 59.4186 60.0909H54.8837C54.114 60.0909 53.4884 59.4653 53.4884 58.6956C53.4884 57.9258 54.114 57.3002 54.8837 57.3002H59.4186C60.1907 57.3002 60.814 57.9235 60.814 58.6956ZM60.814 71.549C60.814 72.3188 60.1884 72.9444 59.4186 72.9444H40.5814C39.8116 72.9444 39.186 72.3188 39.186 71.549C39.186 70.7793 39.8116 70.1537 40.5814 70.1537H59.4186C60.1907 70.1537 60.814 70.7793 60.814 71.549ZM60.814 65.1235C60.814 65.8932 60.1884 66.5188 59.4186 66.5188H40.5814C39.8116 66.5188 39.186 65.8932 39.186 65.1235C39.186 64.3537 39.8116 63.7281 40.5814 63.7281H59.4186C60.1907 63.7281 60.814 64.3514 60.814 65.1235Z" fill="url(#paint0_linear_322_26340)"/>
<defs>
<linearGradient id="paint0_linear_322_26340" x1="29.615" y1="29.5007" x2="77.9786" y2="77.8643" gradientUnits="userSpaceOnUse">
<stop stop-color="#A259FF"/>
<stop offset="1" stop-color="#FF6250"/>
</linearGradient>
</defs>
</svg>
