<svg width="80" height="80" viewBox="0 0 80 80" fill="none" xmlns="http://www.w3.org/2000/svg">
<path d="M55.4688 47.0878C52.6929 44.7359 49.1964 43.4426 45.5752 43.4426H44.6221V41.6277C47.8916 39.3778 50.0455 35.569 50.0455 31.2597V26.1595C51.581 24.5948 51.4864 21.3595 51.3597 17.0368C51.3446 16.5268 51.3295 16.0033 51.3162 15.4683C51.1971 10.5624 46.6757 8.49538 46.4829 8.4107C46.4242 8.38376 46.3637 8.36259 46.3013 8.34719C46.0498 8.28368 40.1046 6.82097 35.8593 8.60894C35.8253 8.62433 35.7893 8.63973 35.7572 8.65898C34.6491 9.26331 33.6242 9.37493 33.2346 9.39418C32.9472 9.40765 32.6635 9.30757 32.4366 9.10934C32.2872 8.97846 32.0943 8.79947 31.892 8.60701C31.3266 8.07582 30.625 7.41375 29.8838 6.93067C28.8626 6.26475 27.3064 6.22049 26.2644 6.82674C23.3296 8.53773 22.1742 12.3947 22.8342 18.2898C23.2975 22.4296 24.5001 26.0671 24.5512 26.2211C24.6609 26.5502 24.9048 26.7946 25.2017 26.9178V31.2597C25.2017 35.4593 27.2459 39.1815 30.3754 41.4525V43.4445H29.8762C21.3422 43.4445 14.4004 50.5098 14.4004 59.1956V65.0387C14.4004 67.2424 16.1609 69.0342 18.3261 69.0342H21.8225C25.5515 69.3344 27.2251 70.1986 28.7038 70.9627C29.8895 71.5747 31.0089 72.1521 32.76 72.1521H42.2452C42.2773 72.1521 42.3076 72.1521 42.3359 72.1501C43.8544 72.1444 44.8963 71.7017 45.925 71.1859C48.2623 73.1894 51.2765 74.4 54.5668 74.4C61.9738 74.4 68.0004 68.2663 68.0004 60.7276C67.9947 53.4968 62.4541 47.5651 55.4688 47.0878ZM27.3896 8.83027C27.5295 8.74751 27.7413 8.70902 27.9606 8.70902C28.2216 8.70902 28.4901 8.76483 28.6584 8.87453C29.2295 9.24791 29.8497 9.83107 30.349 10.3007C30.5702 10.5085 30.7782 10.7048 30.9635 10.8665C31.6329 11.4477 32.4801 11.7441 33.3443 11.6999C34.0099 11.6672 35.3336 11.4959 36.7745 10.7222C40.0573 9.37108 44.8982 10.3911 45.6565 10.5643C46.1954 10.8338 48.9714 12.3696 49.0489 15.5241C49.0622 16.0611 49.0773 16.5884 49.0924 17.1042C49.1265 18.2744 49.1624 19.5023 49.1473 20.6205C48.2093 18.1724 46.3183 15.3355 42.5156 13.3165C42.213 13.1568 41.8537 13.1453 41.5398 13.2838C41.2259 13.4224 40.9895 13.6995 40.8969 14.0344C40.8912 14.0537 40.3277 16.0226 38.1644 18.3032C36.2507 20.3222 32.6768 22.9839 26.3911 24.4928C25.1166 20.1451 23.4355 11.136 27.3896 8.83027ZM27.4671 31.2578V26.6003C37.599 24.0116 41.3261 18.5611 42.5515 16.0052C47.139 19.0038 47.7196 23.4573 47.7782 24.999C47.7782 25.0105 47.7763 25.0201 47.7763 25.0317V31.2597C47.7763 36.8815 43.2814 41.4564 37.7579 41.4564H37.4855C31.962 41.4544 27.4671 36.8815 27.4671 31.2578ZM32.6427 42.7516C34.129 43.4041 35.7666 43.764 37.4855 43.764H37.7579C39.3822 43.764 40.9328 43.4426 42.3511 42.8575V44.5781C42.3511 44.58 42.3511 44.5819 42.3511 44.5839V44.5858C42.3095 47.1378 40.235 49.2145 37.7238 49.2145H37.27C34.7587 49.2145 32.6862 47.1398 32.6427 44.5877C32.6427 44.5858 32.6427 44.5839 32.6427 44.5819C32.6427 44.58 32.6427 44.5781 32.6427 44.5762V42.7516ZM42.2981 69.8387C42.2773 69.8387 42.2565 69.8387 42.2376 69.8406H32.7543C31.546 69.8406 30.8217 69.4672 29.7249 68.8995C28.2197 68.1219 26.1585 67.0576 21.9492 66.7247C21.9208 66.7227 21.8906 66.7208 21.8622 66.7208H18.3223C17.4089 66.7208 16.6658 65.9644 16.6658 65.0348V59.1917C16.6658 51.78 22.5903 45.7502 29.8724 45.7502H30.4832C31.0657 49.022 33.9059 51.524 37.27 51.524H37.7238C41.0898 51.524 43.9281 49.022 44.5106 45.7502H45.5752C47.7668 45.7502 49.9037 46.3045 51.8079 47.3418C45.717 48.639 41.1276 54.1454 41.1276 60.7237C41.1276 64.0321 42.2887 67.0711 44.2193 69.4384C43.6275 69.6905 43.0583 69.8387 42.2981 69.8387ZM54.5611 72.0886C48.406 72.0886 43.3968 66.9903 43.3968 60.7256C43.3968 54.461 48.406 49.3627 54.5611 49.3627C60.7163 49.3627 65.7255 54.461 65.7255 60.7256C65.7255 66.9903 60.7182 72.0886 54.5611 72.0886ZM61.2401 56.4876C61.6826 56.938 61.6826 57.6693 61.2401 58.1216L52.2088 67.3136C51.9875 67.5388 51.6963 67.6523 51.407 67.6523C51.1158 67.6523 50.8265 67.5388 50.6052 67.3136L46.8384 63.4798C46.3959 63.0294 46.3959 62.298 46.8384 61.8458C47.2809 61.3954 47.9994 61.3954 48.4419 61.8458L51.407 64.8636L59.6366 56.4876C60.079 56.0373 60.7976 56.0373 61.2401 56.4876Z" fill="url(#paint0_linear_322_20549)"/>
<defs>
<linearGradient id="paint0_linear_322_20549" x1="13.2951" y1="19.7148" x2="64.4556" y2="69.9813" gradientUnits="userSpaceOnUse">
<stop stop-color="#A259FF"/>
<stop offset="1" stop-color="#FF6250"/>
</linearGradient>
</defs>
</svg>
