<svg width="18" height="18" viewBox="0 0 18 18" fill="none" xmlns="http://www.w3.org/2000/svg">
<path d="M3 2.25H15C15.3978 2.25 15.7794 2.40804 16.0607 2.68934C16.342 2.97064 16.5 3.35218 16.5 3.75V8.25C16.5 10.2391 15.7098 12.1468 14.3033 13.5533C12.8968 14.9598 10.9891 15.75 9 15.75C8.01509 15.75 7.03982 15.556 6.12987 15.1791C5.21993 14.8022 4.39314 14.2497 3.6967 13.5533C2.29018 12.1468 1.5 10.2391 1.5 8.25V3.75C1.5 3.35218 1.65804 2.97064 1.93934 2.68934C2.22064 2.40804 2.60218 2.25 3 2.25Z" stroke="white" stroke-width="2" stroke-linecap="round" stroke-linejoin="round"/>
<path d="M6 7.5L9 10.5L12 7.5" stroke="white" stroke-width="2" stroke-linecap="round" stroke-linejoin="round"/>
</svg>
