<svg width="1440" height="752" viewBox="0 0 1440 752" fill="none" xmlns="http://www.w3.org/2000/svg">
<g clip-path="url(#clip0_322_26342)">
<g opacity="0.1" filter="url(#filter0_f_322_26342)">
<circle cx="1226.59" cy="254.399" r="201.5" transform="rotate(108.22 1226.59 254.399)" fill="#EF606D"/>
</g>
<g opacity="0.1" filter="url(#filter1_f_322_26342)">
<circle cx="167.402" cy="279.401" r="165.067" transform="rotate(108.22 167.402 279.401)" fill="#EF606D"/>
</g>
<g opacity="0.15" filter="url(#filter2_f_322_26342)">
<circle cx="867.708" cy="482.606" r="169.269" transform="rotate(108.22 867.708 482.606)" fill="#A259FF"/>
</g>
<g opacity="0.1" filter="url(#filter3_f_322_26342)">
<circle cx="359.919" cy="449.734" r="171.811" transform="rotate(108.22 359.919 449.734)" fill="#A259FF"/>
</g>
<path opacity="0.35" fill-rule="evenodd" clip-rule="evenodd" d="M119.183 386C291.883 386 409 547.31 409 719.998C409 869.719 268.915 971 119.183 971C-40.9343 971 -205 880.104 -205 719.998C-205 538.232 -62.5949 386 119.183 386Z" stroke="url(#paint0_linear_322_26342)"/>
<path opacity="0.35" fill-rule="evenodd" clip-rule="evenodd" d="M122.374 306C327.138 306 466 497.365 466 702.23C466 879.848 299.906 1000 122.374 1000C-67.4726 1000 -262 892.168 -262 702.23C-262 486.596 -93.1548 306 122.374 306Z" stroke="url(#paint1_linear_322_26342)"/>
<path opacity="0.35" fill-rule="evenodd" clip-rule="evenodd" d="M125.508 227C361.775 227 522 447.87 522 684.32C522 889.323 330.353 1028 125.508 1028C-93.5453 1028 -318 903.543 -318 684.32C-318 435.44 -123.179 227 125.508 227Z" stroke="url(#paint2_linear_322_26342)"/>
</g>
<defs>
<filter id="filter0_f_322_26342" x="825.036" y="-147.155" width="803.109" height="803.109" filterUnits="userSpaceOnUse" color-interpolation-filters="sRGB">
<feFlood flood-opacity="0" result="BackgroundImageFix"/>
<feBlend mode="normal" in="SourceGraphic" in2="BackgroundImageFix" result="shape"/>
<feGaussianBlur stdDeviation="100" result="effect1_foregroundBlur_322_26342"/>
</filter>
<filter id="filter1_f_322_26342" x="-197.71" y="-85.71" width="730.223" height="730.223" filterUnits="userSpaceOnUse" color-interpolation-filters="sRGB">
<feFlood flood-opacity="0" result="BackgroundImageFix"/>
<feBlend mode="normal" in="SourceGraphic" in2="BackgroundImageFix" result="shape"/>
<feGaussianBlur stdDeviation="100" result="effect1_foregroundBlur_322_26342"/>
</filter>
<filter id="filter2_f_322_26342" x="498.393" y="113.291" width="738.631" height="738.63" filterUnits="userSpaceOnUse" color-interpolation-filters="sRGB">
<feFlood flood-opacity="0" result="BackgroundImageFix"/>
<feBlend mode="normal" in="SourceGraphic" in2="BackgroundImageFix" result="shape"/>
<feGaussianBlur stdDeviation="100" result="effect1_foregroundBlur_322_26342"/>
</filter>
<filter id="filter3_f_322_26342" x="-11.9389" y="77.876" width="743.715" height="743.715" filterUnits="userSpaceOnUse" color-interpolation-filters="sRGB">
<feFlood flood-opacity="0" result="BackgroundImageFix"/>
<feBlend mode="normal" in="SourceGraphic" in2="BackgroundImageFix" result="shape"/>
<feGaussianBlur stdDeviation="100" result="effect1_foregroundBlur_322_26342"/>
</filter>
<linearGradient id="paint0_linear_322_26342" x1="-105.59" y1="386" x2="485.998" y2="505.748" gradientUnits="userSpaceOnUse">
<stop stop-color="#A259FF"/>
<stop offset="0.432292" stop-color="#FF6250"/>
<stop offset="0.739583" stop-color="#CF5DAA" stop-opacity="0.21"/>
</linearGradient>
<linearGradient id="paint1_linear_322_26342" x1="-144.133" y1="306" x2="557.324" y2="447.909" gradientUnits="userSpaceOnUse">
<stop stop-color="#A259FF"/>
<stop offset="0.432292" stop-color="#FF6250"/>
<stop offset="0.739583" stop-color="#CF5DAA" stop-opacity="0.21"/>
</linearGradient>
<linearGradient id="paint2_linear_322_26342" x1="-182" y1="227" x2="627.393" y2="390.697" gradientUnits="userSpaceOnUse">
<stop stop-color="#A259FF"/>
<stop offset="0.432292" stop-color="#FF6250"/>
<stop offset="0.739583" stop-color="#CF5DAA" stop-opacity="0.21"/>
</linearGradient>
<clipPath id="clip0_322_26342">
<rect width="1799" height="752" fill="white" transform="translate(-318)"/>
</clipPath>
</defs>
</svg>
